<svg xmlns="http://www.w3.org/2000/svg" viewBox="0 0 512 512"><path d="M305 238c32 0 59-27 59-60V66c0-32-27-56-59-61-40-7-83-6-119 0-50 9-59 27-59 61v24h118v36H82c-34 0-64 21-74 60-11 45-11 73 0 120 9 34 29 59 63 59h41v-53c0-39 34-74 74-74ZM179 69a22 22 0 1 1 21-21 21 21 0 0 1-21 21Z"/><path d="M503 204c-9-34-25-60-59-60h-45v52c0 41-34 75-74 75H207c-33 0-60 28-60 60v112c0 32 28 51 60 60 37 11 73 13 118 0 30-9 59-26 59-60v-23H266v-37h178c34 0 47-24 59-60s12-72 0-119ZM322 442a22 22 0 1 1-21 21 22 22 0 0 1 21-21Z"/></svg>