<svg xmlns="http://www.w3.org/2000/svg" viewBox="0 0 512 512"><path fill="navy" d="M452 256a196 196 0 1 0-392 0 196 196 0 0 0 392 0"/><path fill="#fff" d="M394 175a57 57 0 1 0-57 57 57 57 0 0 0 57-57"/><path fill="navy" d="M509 60a57 57 0 1 0-57 58 57 57 0 0 0 57-58"/><path fill="#fff" d="M139 339h64v15h-80V225h16Zm140 15v-13c-9 12-18 17-31 17-18 0-30-10-30-25v-71h15v65c0 11 7 18 19 18 15 0 25-12 25-31v-52h15v92Zm120 2a35 35 0 0 1-10 2c-9 0-14-4-15-14a44 44 0 0 1-31 14c-19 0-31-11-31-27 0-12 6-21 17-25 5-2 8-3 29-6 12-1 16-4 16-10v-4c0-9-8-14-21-14-14 0-21 6-22 17h-15c1-9 3-15 7-19 6-7 17-11 30-11 23 0 35 9 35 25v54c0 5 3 8 8 8a12 12 0 0 0 3-1v11Zm-25-48c-5 3-9 3-24 5-16 3-22 8-22 17 0 10 6 15 18 15a31 31 0 0 0 22-8c4-4 6-7 6-12Z"/><path fill="gray" d="M265 512v-6l22-2v6l-22 2Zm-22 0-22-2v-6l22 2Zm66-5-1-6 21-6 2 6-22 6Zm-110-1-22-6 2-6 21 6Zm153-12-2-6 20-9 2 5-20 10Zm-196-2-20-10 3-5c6 4 13 7 19 9Zm236-19-3-5 18-12 3 5-18 12Zm-275-2-19-13 4-5 18 13Zm310-25-4-4 16-15 4 4-16 15Zm-346-3-15-15 4-4 15 15Zm377-29-5-4 13-18 5 3-13 19Zm-406-4-13-18 5-3 12 18Zm430-34-5-3 9-19 6 2-10 20Zm-454-3-9-21 5-2 9 20Zm472-38-6-2 6-21 6 2-6 21Zm-489-4-6-21 6-2 6 21Zm499-39-6-1 2-22h6l-2 23ZM2 287l-2-22h6l2 22Zm504-40-2-22h6l2 22ZM6 243H0l2-22h6l-2 22Zm495-39-6-21 6-2 6 22Zm-489-4-6-1 6-22 6 2-6 21Zm476-38-9-20 5-2 10 20Zm-463-4-5-2 10-20 5 3-10 19Zm21-38-5-3c4-6 8-13 13-18l5 3-13 18Zm27-34-5-4 16-16 4 4-15 16Zm32-30-3-4c5-5 12-9 18-13l3 5-18 12Zm268-21-20-10 3-5 20 10Zm-231-2-3-5 21-9 2 5-20 9Zm191-15-21-6 1-6 22 6Zm-151-1-1-6 21-6 2 6-22 6Zm108-9-21-2V0l22 2Zm-65 0-1-6 23-2v6l-22 2Z"/></svg>