<svg xmlns="http://www.w3.org/2000/svg" viewBox="0 0 512 512"><path d="M0 0h512v512H0Zm355 406-36 21c8 17 20 29 37 37a110 110 0 0 0 87 1c14-7 25-18 30-34a70 70 0 0 0-9-60 70 70 0 0 0-24-19c-12-7-24-12-37-18-7-3-13-6-19-11-7-5-8-12-6-20 1-8 7-13 14-14 12-3 23 1 30 11l6 7 35-22-3-4c-7-12-16-21-29-26-17-8-36-8-54-4-17 5-30 14-39 31-6 11-7 23-5 36 1 13 6 25 16 34 9 10 20 17 33 22l31 15c6 2 11 5 14 10 7 10 5 25-10 31s-38 4-52-11l-10-13Zm-45 64L210 249h-4l-97 221h44l10-24h89l10 24Z"/><path d="M178 408c11-25 22-50 29-76 7 26 18 51 29 76Z"/></svg>