<svg xmlns="http://www.w3.org/2000/svg" viewBox="0 0 460 512"><defs><linearGradient id="a" x1="-183.4" x2="-121.5" y1="627.1" y2="519.3" gradientTransform="matrix(4 0 0 -4 870 2382)" gradientUnits="userSpaceOnUse"><stop offset="0" stop-color="#927be5"/><stop offset="1" stop-color="#512bd4"/></linearGradient></defs><path fill="url(#a)" d="M90 225v190a66 66 0 0 0 33 57l164 95a66 66 0 0 0 66 0l164-95a66 66 0 0 0 33-57V225a66 66 0 0 0-33-57L353 73a66 66 0 0 0-66 0l-164 95a66 66 0 0 0-33 57Z" transform="translate(-90 -64)"/><path fill="#fff" d="M115 223v66a16 16 0 1 0 33 0 16 16 0 1 1 33 0 49 49 0 1 1-99 0v-66a49 49 0 1 1 99 0 16 16 0 1 1-33 0 16 16 0 1 0-33 0Zm263 66a16 16 0 0 1-17 16h-16v17a16 16 0 1 1-33 0v-17h-33v17a16 16 0 1 1-33 0v-17h-16a16 16 0 0 1 0-33h16v-32h-16a16 16 0 0 1 0-33h16v-17a16 16 0 1 1 33 0v17h33v-17a16 16 0 1 1 33 0v17h16a16 16 0 0 1 12 4 16 16 0 0 1-12 29h-16v32h16a16 16 0 0 1 12 5 17 17 0 0 1 5 12Zm-66-49h-33v32h33Z"/></svg>