<svg xmlns="http://www.w3.org/2000/svg" viewBox="0 0 460 512"><path d="M279 240h33v33h-33z"/><path d="M427 104 263 9a66 66 0 0 0-66 0L33 104a66 66 0 0 0-33 57v190a66 66 0 0 0 33 57l164 95a66 66 0 0 0 66 0l164-95a66 66 0 0 0 33-57V161a66 66 0 0 0-33-57ZM120 301a16 16 0 0 0 28-12 16 16 0 1 1 33 0 49 49 0 1 1-99 0v-66a49 49 0 1 1 99 0 16 16 0 1 1-33 0 16 16 0 1 0-33 0v66a16 16 0 0 0 5 12Zm241-29a16 16 0 0 1 12 5 16 16 0 0 1-12 28h-16v17a16 16 0 1 1-33 0v-17h-33v17a16 16 0 1 1-33 0v-17h-16a16 16 0 0 1 0-33h16v-32h-16a16 16 0 0 1 0-33h16v-17a16 16 0 1 1 33 0v17h33v-17a16 16 0 1 1 33 0v17h16a16 16 0 0 1 12 4 16 16 0 0 1-12 29h-16v32Z"/></svg>