<svg xmlns="http://www.w3.org/2000/svg" viewBox="0 0 460 250"><defs><linearGradient id="c" x1="422.88" x2="422.88" y1="-67.81" y2="-50.81" gradientTransform="translate(0 286.77)" gradientUnits="userSpaceOnUse"><stop offset="0" stop-color="#18bffb"/><stop offset="1" stop-color="#2072f3"/></linearGradient><linearGradient id="v" x1="317.32" x2="333.11" y1="-189.26" y2="-189.26" gradientTransform="matrix(1 0 0 -1 0 -58)" gradientUnits="userSpaceOnUse"><stop offset=".26" stop-color="#f97a12"/><stop offset=".46" stop-color="#b07b58"/><stop offset=".72" stop-color="#577bae"/><stop offset=".91" stop-color="#1e7ce5"/><stop offset="1" stop-color="#087cfa"/></linearGradient><linearGradient id="w" x1="329.44" x2="355.5" y1="-181.87" y2="-196.29" gradientTransform="matrix(1 0 0 -1 0 -58)" gradientUnits="userSpaceOnUse"><stop offset="0" stop-color="#f97a12"/><stop offset=".07" stop-color="#cb7a3e"/><stop offset=".15" stop-color="#9e7b6a"/><stop offset=".24" stop-color="#757b91"/><stop offset=".33" stop-color="#537bb1"/><stop offset=".43" stop-color="#387ccc"/><stop offset=".54" stop-color="#237ce0"/><stop offset=".66" stop-color="#147cef"/><stop offset=".79" stop-color="#0b7cf7"/><stop offset="1" stop-color="#087cfa"/></linearGradient><linearGradient id="x" x1="347.65" x2="340.39" y1="-190.62" y2="-168.94" gradientTransform="matrix(1 0 0 -1 0 -58)" gradientUnits="userSpaceOnUse"><stop offset="0" stop-color="#fe315d"/><stop offset=".08" stop-color="#cb417e"/><stop offset=".16" stop-color="#9e4e9b"/><stop offset=".25" stop-color="#755bb4"/><stop offset=".34" stop-color="#5365ca"/><stop offset=".44" stop-color="#386ddb"/><stop offset=".54" stop-color="#2374e9"/><stop offset=".66" stop-color="#1478f3"/><stop offset=".79" stop-color="#0b7bf8"/><stop offset="1" stop-color="#087cfa"/></linearGradient><linearGradient id="y" x1="322.13" x2="343.89" y1="-177.79" y2="-213.78" gradientTransform="matrix(1 0 0 -1 0 -58)" gradientUnits="userSpaceOnUse"><stop offset="0" stop-color="#fe315d"/><stop offset=".04" stop-color="#f63462"/><stop offset=".1" stop-color="#df3a71"/><stop offset=".17" stop-color="#c24383"/><stop offset=".29" stop-color="#ad4a91"/><stop offset=".55" stop-color="#755bb4"/><stop offset=".92" stop-color="#1d76ed"/><stop offset="1" stop-color="#087cfa"/></linearGradient><linearGradient id="ab" x1="285.71" x2="285.71" y1="-169.78" y2="-203.78" gradientTransform="matrix(1 0 0 -1 0 -58)" gradientUnits="userSpaceOnUse"><stop offset="0" stop-color="#fff"/><stop offset="1" stop-color="#fff" stop-opacity="0"/></linearGradient><style>.au{fill:#7e8a99}.av{fill:#b43035}.aw{fill:#659ad2}.ax,.ay{fill:#fff}.ba{fill:url(#y)}.ay,.bb,.bc{fill-rule:evenodd}.bd{fill:url(#c)}.be{fill:#00acd7}.bf{fill:#f47421}.bg{fill:url(#v)}.bh{fill:#ff9a00}.bi{fill:#252f3e}.bb{fill:#f90}.bj{fill:#336791}.bk{fill:#ffca1d}.bl{fill:#390091}.bm{fill:#689f63}.bn{fill:#007acc}.bo{fill:#0065a9}.bp{fill:#004482}.bq{fill:#1d63ed}.br{fill:#347ab4}.bc{fill:url(#ab)}.bs{fill:#a179dc}.bt{fill:#4f5b93}.bu{fill:#b22630}.bv{fill:#3178ca}.bw{fill:#280068}.bx{fill:#001e36}.by{fill:#59d96b}.ca{fill:#5382a1}.cb{fill:url(#w)}.cc{fill:#087ea4}.cd{fill:#00599c}.ce{fill:#29abe2}.cf{fill:#300}.cg{opacity:.25}.ch{mask:url(#a`)}.ci{fill:#31a8ff}.cj{fill:#313840}.ck{fill:#f8981d}</style><mask id="a`" width="34" height="34" x="268.72" y="111.78" maskUnits="userSpaceOnUse"><path id="aa" d="M292.84 145.63c.53.21 1.14.2 1.68-.06l7-3.39c.73-.35 1.2-1.1 1.2-1.92V117.3c0-.82-.47-1.57-1.2-1.92l-7-3.4a2.1 2.1 0 0 0-2.41.42l-13.4 12.3-5.83-4.46a1.4 1.4 0 0 0-1.8.08l-1.88 1.71a1.43 1.43 0 0 0 0 2.1l5.06 4.65-5.06 4.64a1.43 1.43 0 0 0 0 2.1l1.88 1.72c.5.46 1.26.5 1.8.08l5.84-4.45 13.39 12.28c.21.22.46.38.73.48Zm1.4-24.61-10.17 7.76 10.16 7.76v-15.52Z" style="fill:#fff;fill-rule:evenodd"/></mask></defs><g id="b"><rect width="17" height="17" x="439.98" y="218.96" rx="1.99" ry="1.99" style="fill:#7e8a99"/><path d="m444.8 232.69 5.15-5.21-5.18-5.24-1.79 1.75 3.55 3.48-3.47 3.5 1.73 1.72Zm4.4-2.36v2.36h4.78v-2.36h-4.79Z" style="fill:#fff"/><path d="M455.79 213.6H441.2l-.22-.05a1.27 1.27 0 0 1-1.01-.93v-.25c.1-.2.17-.41.31-.6l5.3-6.93c.06-.08.1-.2.1-.3v-3.27h-.96v-1.66h7.5v1.66h-.96v3.3c0 .1.04.2.1.27 1.43 1.87 2.87 3.74 4.29 5.63.47.62 1.07 1.19 1.32 1.91v.25c-.14.53-.53.87-1.2.98Zm-3.05-4.9-.12-.16-2.57-3.38a.48.48 0 0 1-.1-.28v-3.61h-2.93v3.58c0 .11-.05.23-.12.32l-2.56 3.37-.1.16c.45 0 .9-.06 1.3.01.83.14 1.65.33 2.45.54a6.4 6.4 0 0 0 4.74-.55Z" style="fill:#b22630"/><path d="M427.94 218.96h-10.13a3.43 3.43 0 0 0-3.43 3.44v10.13c0 1.9 1.54 3.43 3.43 3.43h10.14c1.9 0 3.43-1.53 3.43-3.43V222.4c0-1.9-1.54-3.44-3.44-3.44Z" style="fill:url(#c)"/><path d="m422.8 222.87.35-.6a.77.77 0 1 1 1.34.78l-3.31 5.74h2.4c.77 0 1.2.91.87 1.55h-7.03c-.43 0-.78-.35-.78-.78s.35-.77.78-.77h1.97l2.52-4.38-.78-1.36a.78.78 0 0 1 1.34-.78l.34.6Zm-2.98 8.26-.74 1.3a.77.77 0 1 1-1.34-.78l.55-.96c.62-.19 1.13-.04 1.53.44Zm6.4-2.34h2.02c.43 0 .77.35.77.78s-.34.77-.77.77h-1.12l.76 1.3a.78.78 0 0 1-1.35.78l-2.85-4.95c-.65-1.12-.19-2.24.27-2.62l2.28 3.94Z" style="fill:#fff"/><path id="d" d="M415.48 199.6c-.1 0-.2.04-.3.11-.35.24-.45.75-.27 1.17l1.37 3.26c-2.09 2.16-3.4 3.58-3.4 7.12v.64c0 .94.64 1.7 1.44 1.7h17.12c.8 0 1.44-.76 1.44-1.7v-.64c0-3.54-1.31-4.96-3.4-7.12l1.37-3.26c.18-.42.08-.93-.27-1.17a.6.6 0 0 0-.4-.1.78.78 0 0 0-.59.41l-1.6 2.84a8.83 8.83 0 0 0-10.21 0l-1.6-2.84a.79.79 0 0 0-.6-.42.6.6 0 0 0-.1 0Z" style="fill:#59d96b"/><g id="e" transform="translate(.52 -.7)"><path id="f" d="M419 210.4c-.62 0-1.12-.6-1.12-1.33s.5-1.32 1.12-1.32c.62 0 1.12.59 1.12 1.32s-.5 1.32-1.12 1.32Z" style="fill:#fff"/><path id="g" d="M426.76 210.4c-.62 0-1.12-.6-1.12-1.33s.5-1.32 1.12-1.32c.62 0 1.12.59 1.12 1.32 0 .73-.5 1.32-1.12 1.32Z" style="fill:#fff"/></g><path d="M392.37 222.46c-.01 1.14-.05 2.27.27 3.37a8.15 8.15 0 0 0 4.35 5.3c.2.09.28.2.28.42v1.38c-.02.82-.61 1.47-1.41 1.5-.81.02-1.63.03-2.44-.05a5.25 5.25 0 0 1-4.6-5.05c-.03-2.62 0-5.24 0-7.85 0-.86.63-1.5 1.46-1.46.57.02 1.13.14 1.7.22.28.04.4.2.4.51-.03.57-.01 1.14-.01 1.71Z" style="fill:#336791"/><path d="M405.78 228.84c0 1.08.07 2.15-.01 3.22a4.28 4.28 0 0 1-4.17 3.9h-.77a1.5 1.5 0 0 1-1.5-1.55c-.02-.8-.01-1.62 0-2.43 0-.33.07-.37.4-.35.73.05 1.46.08 2.2.1.27.01.54-.03.7-.3.26-.4.05-.9-.42-.98a4.29 4.29 0 0 0-.77-.02 6.84 6.84 0 0 1-3.23-.56 6.65 6.65 0 0 1-4.07-5.71c-.14-1.56-.05-3.13-.05-4.7 0-.3.16-.49.44-.48 1.76.02 3.54-.09 5.28.1 3.2.36 5.8 3.28 5.97 6.57.05 1.06 0 2.13 0 3.2Zm-4.9-1.76c0 .54.44.97.96.96.51 0 .95-.46.94-.98a.95.95 0 0 0-.96-.96.93.93 0 0 0-.94.98Z" style="fill:#336791"/><path d="M392.5 205.7a2.51 2.51 0 0 0 .32 1.25c.04.06.05.13.05.18 0 .08-.04.16-.14.23l-.46.33a.34.34 0 0 1-.19.07c-.07 0-.14-.04-.22-.1a2.4 2.4 0 0 1-.26-.37 6.37 6.37 0 0 1-.23-.46 2.64 2.64 0 0 1-2.15 1.07c-.61 0-1.1-.19-1.46-.56a2.07 2.07 0 0 1-.54-1.5c0-.66.22-1.2.66-1.6a2.6 2.6 0 0 1 1.8-.6c.24 0 .5.02.77.06s.55.1.84.17v-.57c0-.6-.11-1-.34-1.25-.24-.24-.63-.36-1.2-.36a4.56 4.56 0 0 0-1.84.47.4.4 0 0 1-.1.02c-.1 0-.16-.07-.16-.24v-.38c0-.12.01-.22.05-.27s.1-.11.2-.17a4.53 4.53 0 0 1 2.07-.49c.87 0 1.5.2 1.91.63.4.42.61 1.06.61 1.91v2.53h.02Zm-2.96 1.18c.24 0 .49-.05.75-.14.26-.1.5-.27.7-.5.11-.15.2-.3.24-.5s.08-.4.08-.67v-.33a5.65 5.65 0 0 0-1.36-.18c-.5 0-.85.1-1.1.31-.23.21-.35.5-.35.9 0 .36.09.64.27.82.17.2.43.29.77.29Zm5.87.84c-.13 0-.22-.02-.28-.08-.06-.04-.1-.15-.15-.3l-1.72-6.02a1.44 1.44 0 0 1-.07-.31c0-.13.06-.2.18-.2h.72c.14 0 .23.03.28.08.06.05.1.16.15.3l1.23 5.16 1.14-5.15c.04-.16.08-.26.14-.3a.48.48 0 0 1 .3-.09h.58c.13 0 .23.03.29.08.06.05.1.16.14.3l1.15 5.22 1.27-5.21c.04-.16.1-.26.15-.3a.46.46 0 0 1 .28-.09h.68c.12 0 .18.07.18.2l-.01.12c0 .05-.02.11-.05.2l-1.76 6.02c-.05.15-.1.25-.16.3s-.15.08-.28.08h-.63c-.13 0-.23-.02-.29-.08s-.1-.15-.14-.3l-1.13-5.03-1.13 5.01c-.04.16-.08.26-.14.31-.06.06-.16.08-.3.08h-.62Zm9.4.21a4.59 4.59 0 0 1-1.96-.45.54.54 0 0 1-.23-.22.59.59 0 0 1-.05-.22v-.4c0-.16.06-.23.17-.23a.4.4 0 0 1 .13.02l.19.08a3.85 3.85 0 0 0 1.67.36c.46 0 .82-.08 1.07-.25a.85.85 0 0 0 .38-.74c0-.22-.06-.4-.2-.55a1.8 1.8 0 0 0-.74-.4l-1.06-.35a2.23 2.23 0 0 1-1.17-.8 1.94 1.94 0 0 1-.16-2c.13-.24.3-.46.52-.63.22-.18.47-.31.76-.4a3.02 3.02 0 0 1 1.42-.1l.47.08a5.4 5.4 0 0 1 .73.27c.1.06.17.12.22.2.04.05.06.14.06.25v.36c0 .17-.06.25-.17.25a.73.73 0 0 1-.27-.09c-.42-.2-.89-.3-1.41-.3-.42 0-.75.07-.97.21s-.35.38-.35.7c0 .22.08.4.22.55.15.15.42.3.8.43l1.05.35c.52.18.9.43 1.13.75.23.31.34.68.34 1.09a2.07 2.07 0 0 1-.72 1.59c-.23.19-.5.33-.82.43-.33.1-.67.16-1.04.16Z" style="fill:#252f3e"/><path d="M406.2 211.72a15.13 15.13 0 0 1-8.91 2.9 15.6 15.6 0 0 1-10.88-4.42c-.23-.22-.03-.52.24-.35a20.94 20.94 0 0 0 10.9 3.08c2.66 0 5.6-.6 8.3-1.8.4-.2.74.27.35.59Z" style="fill:#f90;fill-rule:evenodd"/><path d="M407.2 210.5c-.3-.42-2.03-.2-2.82-.1-.23.03-.27-.19-.06-.35 1.38-1.03 3.64-.73 3.9-.39.27.35-.07 2.76-1.36 3.9-.2.19-.39.1-.3-.14.3-.77.95-2.5.64-2.92Z" style="fill:#f90;fill-rule:evenodd"/><path d="M376.71 217.65c0 8.23-6.73 14.97-14.99 15a15.06 15.06 0 0 1-15-15.01 15.05 15.05 0 0 1 15.02-14.99 15.02 15.02 0 0 1 14.97 15Zm-19.75 3.52h9.51c.46-2.4.43-4.77-.06-7.15l-.18-.02h-8.92c-.21 0-.27.07-.3.26-.3 1.4-.39 2.81-.31 4.23.04.9.17 1.79.26 2.68Zm-7.49-7.16a12.58 12.58 0 0 0-.05 7.17h5.28c-.08-1.2-.22-2.4-.22-3.6 0-1.18.15-2.37.23-3.57h-5.24Zm19.31 7.18h.3l4.56.01c.28 0 .4-.08.46-.35a13.6 13.6 0 0 0 0-6.54c-.07-.25-.17-.32-.43-.32h-4.63l-.26.02c.08 1.22.22 2.4.22 3.59s-.14 2.38-.22 3.6Zm-2.98 2.24h-8.17a14 14 0 0 0 4.08 6.18 13.96 13.96 0 0 0 4.1-6.18Zm-.05-11.66a13.92 13.92 0 0 0-4.04-6.07 14.22 14.22 0 0 0-4.03 6.07h8.07Zm7.38 11.64-4.61-.01c-.29 0-.41.07-.5.36a16.68 16.68 0 0 1-3.48 6.15l-.19.25a12.83 12.83 0 0 0 8.78-6.75Zm-22.8 0a12.51 12.51 0 0 0 3.6 4.38c1.52 1.18 4.2 2.37 5.07 2.28-.39-.48-.79-.96-1.15-1.46-1.1-1.5-1.9-3.15-2.48-4.91-.03-.12-.16-.28-.25-.28-1.58-.02-3.16-.01-4.8-.01Zm22.7-11.63c-1.24-3.02-5.9-6.54-8.67-6.57.39.48.8.95 1.17 1.44a16.88 16.88 0 0 1 2.45 4.81c.04.13.18.3.28.31 1.58.02 3.15.01 4.76.01Zm-22.73 0 4.61.01c.28 0 .42-.07.51-.35a17.2 17.2 0 0 1 2.78-5.25c.27-.34.55-.65.89-1.05a13.17 13.17 0 0 0-8.79 6.64Z" style="fill:#b43035"/><path d="M323.2 233.65c-.43 0-.86-.11-1.23-.33l-3.9-2.32c-.58-.32-.3-.44-.1-.5.77-.28.93-.34 1.76-.81.09-.05.2-.03.29.02l3 1.78c.1.06.25.06.35 0l11.67-6.76c.1-.07.17-.2.17-.32v-13.53a.38.38 0 0 0-.18-.33l-11.65-6.76a.35.35 0 0 0-.36 0l-11.66 6.76a.38.38 0 0 0-.19.32v13.54c0 .12.07.25.19.31l3.19 1.85c1.73.88 2.8-.15 2.8-1.18v-13.36c0-.19.14-.34.33-.34h1.48c.18 0 .33.15.33.34v13.36c0 2.33-1.26 3.66-3.45 3.66-.67 0-1.2 0-2.69-.73l-3.06-1.78a2.48 2.48 0 0 1-1.22-2.14v-13.53c0-.88.47-1.7 1.22-2.13l11.68-6.77a2.54 2.54 0 0 1 2.45 0l11.66 6.77a2.48 2.48 0 0 1 1.22 2.14v13.53c0 .88-.47 1.7-1.22 2.13l-11.66 6.78c-.38.21-.8.32-1.23.32" style="fill:#689f63"/><path d="M327.3 216.64c-3.61-.48-3.98-.73-3.98-1.59 0-.7.31-1.64 3-1.64 2.4 0 3.27.52 3.64 2.14.03.15.17.26.33.26h1.51a.34.34 0 0 0 .34-.37c-.23-2.8-2.09-4.1-5.82-4.1-3.33 0-5.31 1.41-5.31 3.78 0 2.56 1.97 3.27 5.17 3.59 3.82.37 4.11.93 4.11 1.69 0 1.31-1.04 1.87-3.5 1.87-3.09 0-3.76-.78-4-2.32a.34.34 0 0 0-.32-.29h-1.51a.34.34 0 0 0-.34.34c0 1.97 1.07 4.33 6.17 4.33l-.01.01c3.7 0 5.81-1.46 5.81-4.02 0-2.53-1.7-3.2-5.28-3.68Z" style="fill:#689f63"/><ellipse cx="284.66" cy="217.66" rx="2.84" ry="3" style="fill:#087ea4"/><path d="M300.6 217.66c0-2.36-2.62-4.4-6.7-5.64 1.03-4.34.66-7.76-1.27-8.94-1.61-.98-3.95-.28-6.58 1.98-.46.4-.93.83-1.4 1.3-.45-.47-.92-.9-1.38-1.3-2.63-2.26-4.97-2.96-6.58-1.98-1.93 1.18-2.3 4.6-1.28 8.94-4.07 1.23-6.69 3.28-6.69 5.64s2.62 4.4 6.7 5.63c-1.03 4.35-.66 7.76 1.27 8.94.47.29 1 .42 1.56.42 1.81 0 4.1-1.36 6.4-3.72 2.33 2.36 4.6 3.72 6.41 3.72a3 3 0 0 0 1.57-.42c1.93-1.18 2.3-4.6 1.27-8.93 4.08-1.24 6.7-3.28 6.7-5.64Zm-13.68-11.46c1.6-1.37 3.02-2.09 4.08-2.09.36 0 .67.08.94.24 1.25.77 1.52 3.53.63 7.3-1.3-.3-2.73-.55-4.24-.7a34.65 34.65 0 0 0-2.7-3.53c.43-.45.86-.86 1.3-1.22Zm-8.8 13.18a44.09 44.09 0 0 0 1.86 3.4 28.97 28.97 0 0 1-2.85-.53c.27-.92.6-1.88 1-2.87Zm0-3.44c-.4-1-.72-1.96-1-2.87.9-.21 1.85-.4 2.86-.53a44.96 44.96 0 0 0-1.85 3.4Zm.74 1.72a42.23 42.23 0 0 1 2.9-5.3 36.95 36.95 0 0 1 5.8 0 42.05 42.05 0 0 1 2.9 5.3 41.72 41.72 0 0 1-2.9 5.3 36.94 36.94 0 0 1-5.8 0 41.77 41.77 0 0 1-2.9-5.3Zm11.44 3.44.9-1.72c.39 1 .72 1.95 1 2.87-.9.21-1.85.39-2.87.52.33-.54.65-1.1.97-1.67Zm.9-5.16a42.82 42.82 0 0 0-1.87-3.4c1.02.14 1.97.32 2.86.53-.27.91-.6 1.87-1 2.87Zm-6.54-7.47c.63.72 1.25 1.5 1.86 2.35a39 39 0 0 0-3.72 0c.6-.84 1.23-1.63 1.86-2.35Zm-7.28-4.12c.27-.16.58-.24.94-.24 1.06 0 2.48.72 4.08 2.08.43.38.86.78 1.3 1.23a34.65 34.65 0 0 0-2.7 3.54 30.9 30.9 0 0 0-4.25.7c-.9-3.78-.62-6.54.63-7.3Zm-1.6 17.54c-3.54-1.07-5.67-2.7-5.67-4.23s2.13-3.16 5.67-4.23c.4 1.35.91 2.77 1.55 4.23a35.6 35.6 0 0 0-1.55 4.23Zm1.6 9.07c-1.25-.76-1.53-3.53-.63-7.3 1.3.31 2.73.55 4.24.7.88 1.3 1.79 2.5 2.7 3.53-2.65 2.7-5.05 3.83-6.3 3.07Zm7.28-4.12c-.62-.7-1.24-1.49-1.86-2.35a38.95 38.95 0 0 0 3.71 0c-.61.86-1.24 1.64-1.85 2.35Zm7.27 4.12c-1.25.76-3.65-.37-6.3-3.07a34.1 34.1 0 0 0 2.7-3.53 30.9 30.9 0 0 0 4.24-.7c.9 3.77.62 6.54-.63 7.3Zm1.6-9.07a35.6 35.6 0 0 0-1.54-4.23 35.66 35.66 0 0 0 1.54-4.23c3.55 1.06 5.68 2.7 5.68 4.23s-2.13 3.16-5.68 4.23Z" style="fill:#087ea4"/><g id="h"><path id="i" d="M321.07 191.25h135.9v1h-135.9z" style="fill:#b43035"/><path id="j" d="M268.79 188.57c0-.53.08-1.04.26-1.5a3.58 3.58 0 0 1 3.53-2.38 5.16 5.16 0 0 1 2.03.4l-.43 1.67a3.74 3.74 0 0 0-1.43-.28c-.62 0-1.08.2-1.38.57-.3.39-.46.9-.46 1.52 0 .66.15 1.17.43 1.54.29.36.78.54 1.5.54a5.08 5.08 0 0 0 1.6-.3l.3 1.72a6.06 6.06 0 0 1-2.11.38c-.68 0-1.26-.1-1.74-.3a3.2 3.2 0 0 1-1.88-2.04 5.18 5.18 0 0 1-.22-1.54Zm11.79-1.84a15 15 0 0 0-.66-.14 4.09 4.09 0 0 0-1.7.03v5.63h-2.08v-6.97c.37-.13.81-.26 1.32-.37a7.6 7.6 0 0 1 3.06-.02l.4.12-.35 1.72Zm.98 1.89c0-.65.1-1.22.3-1.71.2-.5.46-.9.79-1.23s.7-.57 1.13-.74c.42-.17.86-.25 1.3-.25 1.05 0 1.88.32 2.48.96.6.64.91 1.58.91 2.82a6.45 6.45 0 0 1-.04.78h-4.73c.05.43.25.77.6 1.02s.83.38 1.43.38a6.04 6.04 0 0 0 2.03-.36l.28 1.7a5.93 5.93 0 0 1-1.8.42l-.79.03c-.66 0-1.24-.1-1.73-.3a3.19 3.19 0 0 1-1.93-2.02 4.8 4.8 0 0 1-.23-1.5Zm4.9-.8a2.2 2.2 0 0 0-.1-.51 1.2 1.2 0 0 0-.64-.77 1.32 1.32 0 0 0-.6-.13c-.24 0-.44.04-.61.12a1.25 1.25 0 0 0-.68.77c-.06.17-.1.35-.13.52h2.75Zm6.27-3.13c.61 0 1.13.07 1.54.2.4.15.74.35.98.61.25.26.43.58.53.95.1.38.15.8.15 1.25v4.34l-1.24.23c-.53.09-1.18.13-1.94.13-.47 0-.9-.04-1.3-.12-.38-.09-.71-.22-1-.42s-.49-.44-.64-.75a2.6 2.6 0 0 1-.22-1.13c0-.43.09-.8.26-1.1.17-.29.4-.53.7-.7.28-.18.61-.31.99-.4a5.6 5.6 0 0 1 2.39.02v-.2c0-.35-.1-.64-.32-.85s-.6-.33-1.12-.33a7.2 7.2 0 0 0-1.95.3l-.27-1.68a7.07 7.07 0 0 1 1.06-.23 13 13 0 0 1 1.4-.12Zm.16 6.1a12.23 12.23 0 0 0 1.04-.05v-1.59a4.11 4.11 0 0 0-1.4-.04c-.16.02-.32.06-.45.13s-.23.15-.3.27a.75.75 0 0 0-.12.42c0 .32.11.55.33.68.22.12.52.18.9.18Zm4.86-7.74 2.09-.34v2.17h2.5v1.74h-2.5v2.6c0 .43.08.78.23 1.04.15.26.47.4.93.4a3.99 3.99 0 0 0 1.34-.24l.3 1.62a4.88 4.88 0 0 1-3.39.15 2.2 2.2 0 0 1-1.37-1.65 6.43 6.43 0 0 1-.13-1.3v-6.19Zm8.57-.29c0 .38-.12.68-.37.9-.25.22-.54.33-.87.33s-.63-.11-.88-.33c-.25-.22-.37-.52-.37-.9s.12-.69.37-.9c.25-.22.54-.33.88-.33s.62.1.87.33c.25.21.37.52.37.9Zm-.2 9.49h-2.08v-7.37h2.09v7.37Zm1.97-7.11a11.6 11.6 0 0 1 3.13-.42c.63 0 1.15.08 1.56.24.42.16.75.4.99.7.24.3.42.65.52 1.06.1.4.15.87.15 1.37v4.16h-2.08v-3.9c0-.68-.1-1.16-.27-1.44-.18-.28-.5-.42-1-.42a5.75 5.75 0 0 0-.92.07v5.69h-2.08v-7.11Zm14.6 6.18c0 1.2-.3 2.1-.92 2.69s-1.56.87-2.83.87a7.73 7.73 0 0 1-2.6-.43l.37-1.75a6.23 6.23 0 0 0 2.25.42c.6 0 1.02-.13 1.27-.4.25-.26.37-.6.37-1v-.27a3.28 3.28 0 0 1-1.47.3c-1.02 0-1.8-.3-2.34-.9a3.65 3.65 0 0 1-.8-2.52c0-.54.08-1.03.24-1.48a3.16 3.16 0 0 1 1.92-1.88c.47-.17 1-.25 1.58-.25a9.03 9.03 0 0 1 1.57.12 11.47 11.47 0 0 1 1.39.3v6.18Zm-4.58-3c0 1.18.47 1.76 1.41 1.76a2.09 2.09 0 0 0 1.08-.28v-3.33a4.65 4.65 0 0 0-.85-.07c-.55 0-.96.18-1.23.54-.27.37-.4.83-.4 1.39Z" style="fill:#b43035"/></g><g id="k"><g id="l"><g id="m"><path id="n" d="M443 129.96h10.97a3.05 3.05 0 0 1 3.01 3.1v10.82c0 1.7-1.35 3.08-3.01 3.08h-10.98a3.05 3.05 0 0 1-3-3.08v-10.83c0-1.7 1.34-3.09 3-3.09Z" style="fill:#300"/></g></g><g id="o"><path id="p" d="M448.22 140.16h-2.64l-.53 1.71a.13.13 0 0 1-.14.1h-1.33c-.08 0-.1-.04-.08-.13l2.28-6.73.07-.24c.03-.16.04-.32.04-.48 0-.03.03-.07.06-.08h1.84a.1.1 0 0 1 .09.06l2.58 7.48c.02.08 0 .12-.07.12h-1.48c-.05 0-.1-.03-.11-.08l-.58-1.73Zm-2.23-1.47h1.8a19.27 19.27 0 0 1-.35-1.15l-.2-.67-.2-.64-.15-.57h-.02c-.06.31-.14.62-.24.94l-.32 1.07c-.1.37-.2.71-.32 1.02Zm6.01-3.13a.86.86 0 0 1-.62-.26.96.96 0 0 1-.24-.67.87.87 0 0 1 .88-.9c.28 0 .5.1.65.26.15.17.24.4.23.64 0 .25-.08.5-.25.67a.82.82 0 0 1-.64.26Zm-.79 6.3v-5.6c0-.06.03-.1.1-.1h1.4c.06 0 .1.04.1.1v5.6c0 .08-.04.12-.1.12h-1.39c-.07 0-.1-.04-.1-.12Z" style="fill:#ff9a00"/></g><g id="q"><g id="r"><path id="s" d="M417.84 129.96h10.98a3.05 3.05 0 0 1 3.01 3.1v10.82c0 1.7-1.34 3.08-3 3.08h-10.99a3.05 3.05 0 0 1-3-3.08v-10.83c0-1.7 1.34-3.09 3-3.09Z" style="fill:#001e36"/></g></g><g id="t"><path id="u" d="M418.66 141.88v-7.47c0-.05.02-.08.07-.08h.4c.17-.02.34-.02.53-.02l.62-.02h.65c.58 0 1.06.07 1.45.22a2.31 2.31 0 0 1 1.47 1.42 3 3 0 0 1-.26 2.49c-.28.4-.68.72-1.14.9-.48.17-1.01.24-1.6.24h-.35l-.3-.02v2.34a.1.1 0 0 1-.08.1h-1.38c-.05 0-.08-.03-.08-.1Zm1.54-6.15v2.44l.28.02h.37c.28 0 .56-.05.82-.13.22-.07.42-.2.58-.39.15-.18.22-.43.22-.75 0-.22-.05-.45-.16-.64a1.03 1.03 0 0 0-.5-.42c-.26-.1-.54-.15-.84-.14a9.99 9.99 0 0 0-.77.01Zm8.23 2a3.65 3.65 0 0 0-1.47-.34c-.14 0-.29.01-.42.05a.37.37 0 0 0-.23.14c-.03.06-.05.13-.05.2s.03.13.07.19a.8.8 0 0 0 .24.2l.5.24c.38.13.75.3 1.1.53.23.15.42.35.55.6a1.8 1.8 0 0 1-.11 1.71c-.2.3-.47.52-.8.65-.34.15-.76.23-1.27.23a4.5 4.5 0 0 1-1.69-.32.16.16 0 0 1-.08-.14v-1.27c0-.02.01-.05.03-.06.02-.02.04 0 .06 0a3 3 0 0 0 .88.36c.27.07.56.11.84.11.27 0 .46-.04.59-.1a.35.35 0 0 0 .19-.3c0-.1-.06-.2-.17-.3a3 3 0 0 0-.7-.34c-.36-.13-.69-.3-1-.52a1.9 1.9 0 0 1-.54-.62 1.74 1.74 0 0 1 .08-1.62c.17-.3.44-.52.74-.67a2.7 2.7 0 0 1 1.26-.25c.29 0 .58.02.87.06.22.03.42.09.61.17.03 0 .06.04.07.07l.02.08v1.19a.1.1 0 0 1-.04.07h-.12Z" style="fill:#31a8ff"/></g><circle cx="448.48" cy="117.95" r="7.5" style="fill:#f47421"/><path d="M447.26 115.3a2.93 2.93 0 0 1 4.13 2.39h1.43a4.34 4.34 0 0 0-1.3-2.84 1.4 1.4 0 0 1-1.88-1.1 4.33 4.33 0 0 0-3.1.3l.72 1.24Zm-.46 5.03a2.92 2.92 0 0 1 0-4.77l-.72-1.24a4.37 4.37 0 0 0-1.81 2.54 1.4 1.4 0 0 1 0 2.18 4.37 4.37 0 0 0 1.8 2.53l.72-1.24Zm3.53.82a1.4 1.4 0 0 1 1.2-.1 4.34 4.34 0 0 0 1.3-2.83h-1.44a2.93 2.93 0 0 1-4.13 2.38l-.72 1.24a4.33 4.33 0 0 0 3.1.3c.07-.4.3-.77.69-1Z" style="fill:#fff"/><circle cx="443.38" cy="117.95" r="1" style="fill:#fff"/><circle cx="451.03" cy="113.53" r="1" style="fill:#fff"/><circle cx="451.03" cy="122.36" r="1" style="fill:#fff"/><path d="M433.68 115.73c-.43-.3-1.42-.41-2.18-.26-.1-.77-.5-1.44-1.21-2.04l-.42-.3-.28.45a3.73 3.73 0 0 0-.47 2.15c.02.27.1.75.36 1.17-.25.16-.76.36-1.43.35h-12.9l-.03.16a7.21 7.21 0 0 0 1.33 5.04c1.1 1.4 2.75 2.12 4.91 2.12 4.67 0 8.13-2.32 9.75-6.55.64.01 2 0 2.71-1.45.02-.03.07-.12.19-.4l.07-.15-.4-.29Z" style="fill:#1d63ed"/><path d="M423.75 115.19h1.45v1.43h-1.45zm0-2.31h1.45v1.43h-1.45zm2.32 2.31h1.45v1.43h-1.45zm-2.32-4.62h1.45V112h-1.45zm-2.31 2.31h1.45v1.43h-1.45zm-4.64 2.31h1.45v1.43h-1.45zm2.32 0h1.45v1.43h-1.45zm2.32 0h1.45v1.43h-1.45zm-2.32-2.31h1.45v1.43h-1.45z" style="fill:#1d63ed"/></g><path d="M399.97 134.26a7.2 7.2 0 0 0-5.3-5.37c.03-.33.04-.65.04-.98 0-6.28-5.23-11.4-11.66-11.4-5.35 0-10 3.62-11.3 8.59a9.13 9.13 0 0 0-7.6 8.88c0 5 4.21 9.06 9.4 9.06H393c2.04 0 3.98-.87 5.34-2.41a7.2 7.2 0 0 0 1.63-6.37Z" style="fill:#29abe2"/><path d="m325.53 138.3-8.21-6.51 4.08-7.58 11.71 4.57-7.58 9.52z" style="fill:url(#v)"/><path d="m350.93 120.86-.63 19.67-13.06 5.25-7.87-5.05 11.51-11.95-5.05-11.03 4.51-5.44 10.59 8.55z" style="fill:url(#w)"/><path d="m350.93 120.86-10.34 12.24-4.76-15.35 4.51-5.44 10.59 8.55z" style="fill:url(#x)"/><path d="m333.3 140-13.65 4.95 2.19-7.67 2.86-9.42-7.77-2.63 4.91-13.45 10.68 1.31 10.5 12L333.3 140z" style="fill:url(#y)"/><path d="M323.59 118.34h20.98v20.98h-20.98z"/><path d="M325.53 135.38h7.87v1.31h-7.87zm5.68-12.72v-1.6h-4.37v1.6h1.26v5.49h-1.26v1.6h4.37v-1.6H330v-5.49h1.21zm4.18 7.24a3.44 3.44 0 0 1-2.82-1.32l1.22-1.36c.24.3.48.49.73.63s.53.25.82.25c.34 0 .63-.1.88-.34.19-.25.29-.59.29-1.12v-5.59h1.94v5.69c0 .53-.05.97-.2 1.36a2.59 2.59 0 0 1-1.6 1.55c-.38.15-.77.24-1.26.24" style="fill:#fff"/><g style="mask:url(#a`)"><path d="m301.52 115.38-7-3.39a2.1 2.1 0 0 0-2.42.41l-22.92 21.02a1.43 1.43 0 0 0 0 2.1l1.88 1.72c.5.46 1.26.5 1.8.08l27.6-21.06a1.4 1.4 0 0 1 2.26 1.13v-.09c0-.82-.47-1.56-1.2-1.92Z" style="fill:#0065a9"/><path d="m301.52 142.18-7 3.39a2.1 2.1 0 0 1-2.42-.42l-22.92-21.01a1.43 1.43 0 0 1 0-2.1l1.88-1.72a1.4 1.4 0 0 1 1.8-.08l27.6 21.06c.93.7 2.26.04 2.26-1.13v.08c0 .82-.47 1.57-1.2 1.93Z" style="fill:#007acc"/><path d="M294.52 145.57a2.1 2.1 0 0 1-2.42-.41c.79.78 2.13.23 2.13-.89v-30.98a1.24 1.24 0 0 0-2.13-.89 2.1 2.1 0 0 1 2.42-.41l7 3.39c.73.35 1.2 1.1 1.2 1.92v22.96c0 .82-.47 1.57-1.2 1.92l-7 3.39Z" style="fill:#1f9cf0"/><g style="opacity:.25"><path d="M292.82 145.63c.53.21 1.14.2 1.68-.06l7-3.39c.73-.35 1.2-1.1 1.2-1.92V117.3c0-.82-.47-1.57-1.2-1.92l-7-3.4a2.1 2.1 0 0 0-2.41.42l-13.4 12.3-5.83-4.46a1.4 1.4 0 0 0-1.8.08l-1.88 1.71a1.43 1.43 0 0 0 0 2.1l5.06 4.65-5.06 4.64a1.43 1.43 0 0 0 0 2.1l1.87 1.72c.5.46 1.27.5 1.81.08l5.83-4.45 13.4 12.28c.21.22.46.38.73.48Zm1.39-24.61-10.16 7.76 10.16 7.76v-15.52Z" style="fill:url(#ab);fill-rule:evenodd"/></g></g><g id="ac"><path id="ad" d="M301.07 102.25h155.9v1h-155.9z" style="fill:#b43035"/><path id="ae" d="M275.15 103a11.6 11.6 0 0 1-3.13.42 4.2 4.2 0 0 1-1.56-.25 2.37 2.37 0 0 1-1.51-1.8c-.1-.43-.15-.87-.15-1.38v-4.1h2.08v3.85c0 .67.1 1.16.27 1.46.18.3.51.44 1 .44a5.75 5.75 0 0 0 .92-.07V95.9h2.08v7.1Zm4.08-1.24c.38 0 .65-.04.81-.12.16-.07.24-.21.24-.43 0-.17-.1-.31-.3-.44a6.46 6.46 0 0 0-.95-.43c-.32-.12-.62-.25-.89-.38s-.49-.28-.67-.46c-.2-.19-.34-.4-.44-.66s-.15-.55-.15-.9c0-.7.25-1.24.77-1.64s1.22-.6 2.11-.6a6.81 6.81 0 0 1 2.27.37l-.37 1.63a4.31 4.31 0 0 0-1.75-.32c-.65 0-.98.18-.98.54a.48.48 0 0 0 .21.41 6.7 6.7 0 0 0 .9.43c.46.17.84.34 1.14.5.3.17.53.35.7.54.17.19.3.4.37.63.07.23.1.5.1.81 0 .73-.27 1.28-.82 1.65-.54.37-1.32.56-2.31.56a6.71 6.71 0 0 1-2.54-.45l.35-1.7a6.7 6.7 0 0 0 2.2.45Zm6.96-8c0 .38-.13.68-.37.9-.25.22-.54.33-.88.33s-.63-.1-.87-.33c-.25-.22-.37-.52-.37-.9s.12-.68.37-.9c.24-.22.54-.33.87-.33s.63.1.88.33c.24.22.37.52.37.9Zm-.2 9.5h-2.09v-7.37h2.1v7.36Zm1.96-7.12a11.6 11.6 0 0 1 3.14-.42c.62 0 1.14.08 1.56.25.41.16.74.4.99.69.24.3.41.65.51 1.06.1.41.16.87.16 1.37v4.16h-2.09v-3.9a2.9 2.9 0 0 0-.26-1.43c-.18-.28-.51-.42-1-.42a5.75 5.75 0 0 0-.92.07v5.68h-2.09v-7.1Zm14.6 6.19c0 1.2-.3 2.1-.91 2.68s-1.56.88-2.84.88a7.73 7.73 0 0 1-2.59-.44l.36-1.75a6.23 6.23 0 0 0 2.26.42c.6 0 1.02-.13 1.27-.39.24-.26.37-.6.37-1v-.27a3.28 3.28 0 0 1-1.47.3c-1.02 0-1.8-.3-2.34-.9a3.65 3.65 0 0 1-.81-2.53c0-.54.08-1.03.25-1.47a3.16 3.16 0 0 1 1.92-1.88c.46-.17.99-.26 1.58-.26a9.03 9.03 0 0 1 1.57.13 11.47 11.47 0 0 1 1.38.3v6.18Zm-4.58-3c0 1.17.48 1.75 1.42 1.75a2.09 2.09 0 0 0 1.08-.28v-3.33a4.65 4.65 0 0 0-.86-.07c-.55 0-.96.18-1.23.55-.27.36-.4.82-.4 1.38Z" style="fill:#b43035"/></g><g id="af"><path d="M456.83 41.9c0-.34-.07-.64-.22-.9a1.71 1.71 0 0 0-.65-.62l-7.19-4.1a1.78 1.78 0 0 0-1.91.02c-.96.56-5.73 3.26-7.15 4.08-.59.33-.88.85-.88 1.51v8.25c0 .32.07.62.21.87.15.25.37.47.67.64 1.42.82 6.2 3.52 7.15 4.08a1.8 1.8 0 0 0 1.91.02l7.2-4.1c.3-.17.51-.39.65-.64s.21-.55.21-.88V41.9" style="fill:#a179dc"/><path d="M447.86 45.99 439.04 51c.15.25.37.47.66.64 1.43.81 6.2 3.52 7.16 4.08a1.8 1.8 0 0 0 1.91.02l7.2-4.1c.29-.17.5-.39.65-.64l-8.76-5.02" style="fill:#280068"/><path d="M456.83 41.9c0-.34-.07-.64-.22-.9l-8.75 5 8.76 5.02c.14-.25.21-.55.21-.88V41.9" style="fill:#390091"/><path d="M453.05 44.11v.94h.95v-.94h.48v.94h.94v.47h-.94v.94h.94v.47h-.94v.93H454v-.93h-.95v.93h-.47v-.93h-.95v-.47h.95v-.94h-.95v-.47h.95v-.94h.47Zm.95 1.4h-.95v.95h.95v-.94Z" style="fill:#fff"/><path d="M447.88 39.4a6.7 6.7 0 0 1 5.8 3.3l-.02-.02-2.91 1.66a3.34 3.34 0 0 0-2.83-1.62h-.04a3.31 3.31 0 0 0-3.33 3.3 3.34 3.34 0 0 0 6.23 1.61l-.01.02 2.9 1.67a6.7 6.7 0 0 1-5.72 3.3h-.07a6.7 6.7 0 0 1-5.8-3.31 6.52 6.52 0 0 1-.9-3.3c0-3.65 3-6.61 6.7-6.61Z" style="fill:#fff"/><path d="M432.6 51.01c.14-.24.23-.51.23-.75v-8.49c0-.24-.09-.52-.23-.76l-8.77 5 8.77 5Z" style="fill:#00599c"/><path d="m424.61 55.83 7.44-4.24c.22-.12.41-.34.55-.58l-8.77-5-8.77 5c.14.25.34.46.55.58l7.44 4.24c.43.24 1.13.24 1.56 0Z" style="fill:#004482"/><path d="M432.6 41.01a1.58 1.58 0 0 0-.55-.57l-7.44-4.24a1.75 1.75 0 0 0-1.56 0l-7.44 4.24a1.7 1.7 0 0 0-.78 1.33v8.49c0 .24.1.51.23.75l8.77-5 8.78-5Z" style="fill:#659ad2"/><path d="M423.83 51.94c-3.3 0-6-2.66-6-5.93s2.7-5.92 6-5.92a6.04 6.04 0 0 1 5.2 2.96l-2.6 1.48a3.02 3.02 0 0 0-2.6-1.48c-1.65 0-3 1.33-3 2.96a3 3 0 0 0 5.6 1.48l2.6 1.49a6.04 6.04 0 0 1-5.2 2.96Z" style="fill:#fff"/><path d="M429.83 45.69h-.66v-.66h-.67v.66h-.67v.65h.67V47h.67v-.66h.66v-.65zm2.5 0h-.66v-.66H431v.66h-.67v.65h.67V47h.67v-.66h.66v-.65z" style="fill:#fff"/><ellipse cx="447.83" cy="25.7" rx="10.67" ry="6" style="fill:#4f5b93"/><path d="M445.53 23.65c-.33-.4-.84-.6-1.55-.6h-2.36l-1.1 6.01h1.23l.3-1.6h1.04c.47 0 .85-.05 1.15-.15a2.69 2.69 0 0 0 1.59-2c.12-.71.02-1.27-.3-1.67Zm-.97 1.57c-.09.47-.25.8-.5 1-.24.2-.6.3-1.1.3h-.74l.45-2.52h.84c.47 0 .78.09.93.27.16.19.2.5.11.95Zm2.4 2.24.63-3.44h.97c.3 0 .51.05.6.16.1.11.12.32.07.62l-.49 2.66h1.24l.5-2.8c.11-.56.03-.98-.23-1.23s-.72-.38-1.4-.38h-1.09l.3-1.6h-1.22l-1.1 6.01h1.22Zm6.58-4.41h-2.36l-1.09 6.01h1.23l.29-1.6h1.04c.47 0 .85-.05 1.15-.15.3-.1.57-.28.81-.52a2.69 2.69 0 0 0 .77-1.48c.13-.71.03-1.27-.3-1.66-.32-.4-.83-.6-1.54-.6Zm.58 2.17c-.09.47-.25.8-.5 1-.24.2-.6.3-1.1.3h-.74l.45-2.52h.84c.47 0 .78.09.93.27.16.19.2.5.12.95Z" style="fill:#fff"/><path d="M443.51 24.25h-.64l-.37 2.02h.46c.44 0 .77-.09.96-.25.2-.16.33-.45.4-.85.07-.36.05-.61-.05-.73-.06-.07-.24-.2-.76-.2Zm9.56 0h-.64l-.37 2.02h.46c.44 0 .77-.09.96-.25.2-.16.33-.45.4-.85.07-.36.05-.61-.05-.73-.06-.07-.24-.2-.76-.2Z" style="fill:#4f5b93"/><path d="M455.26 23.48c-.37-.45-.95-.68-1.72-.68h-2.36c-.1 0-.2.09-.22.2l-.2 1.13a1.27 1.27 0 0 0-.35-.88c-.3-.3-.82-.45-1.57-.45h-.8l.24-1.3a.26.26 0 0 0-.05-.2.23.23 0 0 0-.18-.1h-1.21a.24.24 0 0 0-.23.2l-.54 2.95a1.79 1.79 0 0 0-.37-.87c-.37-.45-.95-.68-1.72-.68h-2.36c-.11 0-.2.09-.23.2l-1.09 6.01c-.01.08 0 .15.05.21.04.06.1.09.18.09h1.22c.12 0 .21-.08.23-.2l.26-1.4h.85c.49 0 .9-.06 1.22-.17.33-.11.63-.3.9-.57.2-.2.38-.44.51-.68l-.2 1.13c-.02.07 0 .14.05.2.04.06.1.1.17.1h1.22c.11 0 .2-.1.23-.2l.59-3.25h.78c.36 0 .43.08.44.08.02.03.05.15 0 .4l-.48 2.67c-.02.07 0 .14.04.2.05.06.11.1.18.1h1.24a.2.2 0 0 0 .13-.06l-.25 1.36c0 .07 0 .14.05.2s.11.1.18.1h1.23c.1 0 .2-.1.22-.2l.26-1.4h.86c.48 0 .89-.06 1.21-.18.33-.1.63-.3.9-.57a2.9 2.9 0 0 0 .84-1.6c.14-.8.03-1.43-.35-1.89Zm-6.03 1.32c.05-.3.03-.5-.06-.62-.1-.1-.3-.16-.61-.16h-.98l-.62 3.44h-1.22l1.1-6h1.21l-.29 1.59h1.08c.69 0 1.16.13 1.41.38.26.26.34.67.24 1.24l-.51 2.8h-1.24l.49-2.67Zm-6.14 2.66h-1.04l-.3 1.6h-1.22l1.1-6.01h2.35c.7 0 1.22.2 1.55.6.32.4.42.95.3 1.66a2.8 2.8 0 0 1-.78 1.48c-.24.24-.52.41-.81.52-.3.1-.68.15-1.15.15Zm12.3-2.15a2.8 2.8 0 0 1-.78 1.47 2.1 2.1 0 0 1-.81.53c-.3.1-.68.15-1.15.15h-1.04l-.3 1.6h-1.22l1.1-6.01h2.35c.7 0 1.22.2 1.55.6.32.4.42.95.3 1.66Z" style="fill:#4f5b93"/><path d="M407.82 23.18c-.06 0-.08-.03-.05-.08l.31-.42c.03-.05.1-.08.16-.08h5.22c.06 0 .07.05.04.1l-.25.4c-.03.05-.1.1-.14.1l-5.3-.02Zm-2.21 1.44c-.06 0-.07-.04-.04-.08l.3-.42c.03-.05.1-.08.17-.08h6.66c.06 0 .09.05.07.1l-.12.37c-.01.06-.07.1-.13.1h-6.9Zm3.54 1.43c-.06 0-.08-.04-.05-.09l.2-.39c.04-.05.1-.1.15-.1h2.92c.06 0 .1.05.1.12l-.04.37a.1.1 0 0 1-.1.1h-3.18Z" style="fill:#00acd7"/><g id="ag"><path d="m424.3 22.9-2.45.68c-.22.07-.23.08-.42-.15a1.98 1.98 0 0 0-.69-.6c-.92-.48-1.8-.34-2.64.24a3.4 3.4 0 0 0-1.5 2.97c.02 1.25.83 2.28 1.98 2.46a2.6 2.6 0 0 0 2.48-1.04c.13-.17.25-.36.4-.58h-2.82c-.3 0-.38-.2-.28-.47.2-.48.54-1.3.75-1.7.04-.1.14-.25.36-.25h5.32c-.03.42-.03.84-.09 1.27a6.93 6.93 0 0 1-1.2 3.06 6.03 6.03 0 0 1-4.16 2.66 5 5 0 0 1-5.78-4.5 6.45 6.45 0 0 1 1.24-4.59 6.44 6.44 0 0 1 4.09-2.7 4.76 4.76 0 0 1 5.56 2.97c.09.14.03.22-.14.27Z" style="fill:#00acd7"/><path d="M429.14 31.54a5.26 5.26 0 0 1-3.56-1.37 5 5 0 0 1-1.58-3.02 6.28 6.28 0 0 1 1.18-4.72 6.07 6.07 0 0 1 4.1-2.62 5.12 5.12 0 0 1 4.16.8 4.91 4.91 0 0 1 2.06 3.49 6.3 6.3 0 0 1-1.68 5.3 6.57 6.57 0 0 1-3.5 2c-.4.08-.8.1-1.18.14Zm3.48-6.31c-.02-.2-.02-.36-.05-.52-.26-1.55-1.59-2.42-2.98-2.08-1.35.33-2.23 1.25-2.55 2.72a2.63 2.63 0 0 0 1.34 2.96c.8.37 1.61.33 2.38-.1a3.44 3.44 0 0 0 1.86-2.98Z" style="fill:#00acd7"/></g></g><path d="M388.24 42.22c.9-.52 2.17-.97 2.17-.97s-3.6.54-7.16.8c-4.37.3-9.06.36-11.42.1-5.57-.63 3.06-2.36 3.06-2.36s-3.35-.18-7.47 1.49c-4.87 1.98 12.05 2.89 20.82.94Z" style="fill:#5382a1"/><path d="M380.32 39.72c-1.77-3.34-7.71-6.27 0-11.4 9.61-6.38 4.68-10.54 4.68-10.54 2 6.6-7.01 8.6-10.27 12.7-2.21 2.8 1.09 5.81 5.59 9.24Z" style="fill:#f8981d"/><path d="M390.94 25.95c.01 0-16.24 3.42-8.48 10.95 2.29 2.22-.6 4.22-.6 4.22s5.8-2.53 3.14-5.7c-2.5-2.95-4.4-4.41 5.94-9.47Z" style="fill:#f8981d"/><path d="M390.38 47.08c-.05.1-.19.2-.19.2 11.9-2.63 7.52-9.28 1.84-7.6-.5.15-.76.5-.76.5s.31-.11 1.02-.24c2.87-.5 7 3.25-1.91 7.14Zm4.37 4.87s1.35.93-1.47 1.66c-5.37 1.36-22.33 1.78-27.04.05-1.7-.62 1.48-1.48 2.48-1.66 1.04-.2 1.65-.16 1.65-.16-1.89-1.12-12.18 2.2-5.23 3.14 18.93 2.6 34.53-1.16 29.61-3.03Z" style="fill:#5382a1"/><path d="M374.02 48.72c-7.3 1.72 4.44 5.26 13.73 1.91-1.52-.5-2.61-1.08-2.61-1.08-4.15.67-6.07.71-9.83.35-3.1-.3-1.29-1.18-1.29-1.18Zm16.68 7.59a83.25 83.25 0 0 1-21.64.28s1.1.76 6.71 1.06c8.55.47 21.68-.25 21.99-3.66 0 0-.6 1.29-7.07 2.32Zm-4.05-10.95c-5.5.89-8.67.86-12.69.51-3.1-.27-1.07-1.54-1.07-1.54-8.05 2.25 4.47 4.8 15.71 2.03-1.2-.36-1.95-1-1.95-1Z" style="fill:#5382a1"/><path d="M350.35 34.1c-.6-2.4-1.74-4.2-4.17-4.2h-3.12v3.68a5.33 5.33 0 0 1-5.21 5.25h-8.33a4.24 4.24 0 0 0-4.16 4.22v7.89c0 2.25 1.96 3.57 4.16 4.21 2.64.77 5.17.9 8.33 0 2.1-.6 4.16-1.82 4.16-4.21v-1.66h-8.32v-2.55h12.5c2.42 0 3.32-1.68 4.16-4.2.87-2.6.83-5.1 0-8.43Zm-12.7 16.74c.83 0 1.51.68 1.51 1.52a1.5 1.5 0 1 1-3 0c0-.84.67-1.52 1.5-1.52Z" style="fill:#ffca1d"/><path d="M336.4 20.11a25.78 25.78 0 0 0-8.32.01c-3.53.62-4.17 1.92-4.17 4.31v1.7h8.34v2.51h-11.47a5.2 5.2 0 0 0-5.2 4.2c-.77 3.16-.8 5.13 0 8.43.59 2.45 2 4.2 4.42 4.2h2.87V41.7a5.28 5.28 0 0 1 5.2-5.15h8.33c2.32 0 4.17-1.9 4.17-4.21v-7.9c0-2.25-1.9-3.94-4.17-4.32Zm-8.85 4.55a1.51 1.51 0 0 1 0-3.03c.83 0 1.5.69 1.5 1.52a1.5 1.5 0 0 1-1.5 1.5Z" style="fill:#347ab4"/><path d="M299.4 20.78h-27.36a3.32 3.32 0 0 0-3.32 3.32v27.36a3.32 3.32 0 0 0 3.32 3.32h27.36a3.32 3.32 0 0 0 3.32-3.32V24.1a3.32 3.32 0 0 0-3.32-3.32Zm-10.96 18.86h-4.26V51.8h-3.38V39.64h-4.24v-2.73h11.88v2.73Zm11.02 10a4.6 4.6 0 0 1-3.17 2.12c-1.5.32-3.1.3-4.6.02a7.05 7.05 0 0 1-1.92-.62v-3.33a6.4 6.4 0 0 0 4.1 1.52c.64 0 1.35-.08 1.9-.43.38-.24.63-.62.63-1.07 0-.62-.45-1.1-.93-1.42-.7-.47-1.52-.78-2.3-1.1a6.52 6.52 0 0 1-2.6-1.78 4.24 4.24 0 0 1-.4-4.54 4.77 4.77 0 0 1 3.14-2.17 11.3 11.3 0 0 1 5.97.31v3.11a6.76 6.76 0 0 0-2.65-.98c-.64-.08-1.3-.1-1.92.05-.5.12-1.01.34-1.3.78a1.23 1.23 0 0 0 .03 1.29c.33.5.92.82 1.44 1.08.93.45 1.9.8 2.78 1.32.86.5 1.63 1.22 2 2.16.18.45.27.98.27 1.58 0 .84-.16 1.53-.47 2.1Z" style="fill:#3178ca"/><g id="ah"><path id="ai" d="M295.07 11.25h161.9v1h-161.9z" style="fill:#b43035"/><path id="aj" d="M274.05 8.03a65.36 65.36 0 0 1-1.26 4.22h-1.63a61.45 61.45 0 0 1-1.8-5.2 97.5 97.5 0 0 1-.64-2.16h2.2l.24 1.1.29 1.22c.08.4.2.85.3 1.27l.34 1.23a58.87 58.87 0 0 0 .7-2.53l.3-1.2.26-1.09h1.51l.25 1.09.3 1.2a132.01 132.01 0 0 0 .67 2.53 71.47 71.47 0 0 0 .93-3.72l.25-1.1h2.17a95.93 95.93 0 0 1-1.9 5.96c-.2.55-.39 1.01-.56 1.4h-1.62l-.69-2.11c-.22-.7-.43-1.4-.61-2.11Zm8.77-5.27c0 .38-.12.69-.37.9-.25.22-.54.33-.88.33s-.62-.1-.87-.33c-.25-.22-.37-.52-.37-.9s.12-.68.37-.9c.25-.22.54-.33.87-.33s.63.1.88.33c.25.22.37.52.37.9Zm-.2 9.5h-2.08V4.88h2.08v7.36Zm1.89-9.2 2.09-.34v2.17h2.5v1.74h-2.5V9.2c0 .44.08.8.23 1.05.15.27.46.4.93.4a3.99 3.99 0 0 0 1.34-.24l.3 1.62a4.88 4.88 0 0 1-3.39.15 2.2 2.2 0 0 1-1.37-1.64 5.9 5.9 0 0 1-.13-1.3v-6.2Zm6.29 9.19V1.72l2.08-.33v3.53a4.32 4.32 0 0 1 1.18-.2c.6 0 1.1.08 1.5.25s.7.4.94.69.4.65.5 1.06c.1.41.15.87.15 1.37v4.16h-2.08v-3.9c0-.68-.09-1.15-.26-1.43s-.5-.42-.96-.42c-.19 0-.36.01-.53.05l-.44.1v5.6h-2.08Z" style="fill:#b43035"/></g><g id="ak"><path id="al" d="M12.99 117.23c-3.6 0-6.35-1-8.24-3-1.89-2.01-2.83-4.86-2.83-8.55 0-1.83.28-3.47.86-4.91a9.9 9.9 0 0 1 5.95-5.9 14.53 14.53 0 0 1 10.53.48c.38.19.66.34.83.44l-1.44 4.03a11.38 11.38 0 0 0-5.47-1.31c-.77 0-1.52.13-2.26.39-.73.25-1.38.66-1.95 1.23a6.13 6.13 0 0 0-1.36 2.19 11.65 11.65 0 0 0-.18 6.13c.23.88.6 1.64 1.1 2.29.5.64 1.15 1.14 1.96 1.52a7 7 0 0 0 2.95.56 13.47 13.47 0 0 0 3.48-.44 7.2 7.2 0 0 0 1.19-.4l.93-.41 1.37 4c-.7.43-1.7.81-2.97 1.15-1.28.34-2.77.51-4.45.51Zm20.45-13.05-1.5-.34a9.4 9.4 0 0 0-2.94-.1c-.41.06-.73.12-.94.18v12.87h-4.77v-15.94c.85-.3 1.86-.58 3.03-.85a17.4 17.4 0 0 1 4.81-.35 19.3 19.3 0 0 1 2.18.32c.36.07.67.16.93.27l-.8 3.94Zm2.24 4.32c0-1.5.23-2.8.68-3.92a8.4 8.4 0 0 1 1.81-2.8 7.52 7.52 0 0 1 2.58-1.7 8.06 8.06 0 0 1 2.99-.57c2.39 0 4.28.73 5.66 2.19 1.4 1.46 2.08 3.6 2.08 6.45a14.51 14.51 0 0 1-.1 1.79h-10.8c.1.98.56 1.76 1.37 2.33.8.58 1.9.87 3.26.87.88 0 1.74-.08 2.58-.24s1.53-.36 2.06-.6l.64 3.88c-.25.12-.6.25-1.02.38s-.9.24-1.43.34a22.26 22.26 0 0 1-3.47.33c-1.51 0-2.83-.22-3.95-.67a7.29 7.29 0 0 1-4.42-4.6 10.96 10.96 0 0 1-.52-3.46Zm11.2-1.83c-.02-.4-.1-.8-.21-1.18a2.9 2.9 0 0 0-1.47-1.76c-.38-.2-.84-.29-1.4-.29a2.85 2.85 0 0 0-2.34 1c-.25.3-.45.64-.58 1.04a6.2 6.2 0 0 0-.3 1.2h6.3Zm14.33-7.17c1.41 0 2.58.17 3.52.49.94.32 1.7.77 2.26 1.37.56.6.96 1.33 1.2 2.18.23.85.35 1.8.35 2.85v9.92c-.68.15-1.63.32-2.85.52-1.21.2-2.69.3-4.41.3-1.1 0-2.08-.09-2.96-.28-.89-.2-1.65-.5-2.3-.94s-1.12-1.01-1.46-1.71-.52-1.57-.52-2.6a4.55 4.55 0 0 1 2.18-4.13c.66-.4 1.42-.7 2.27-.88a15.17 15.17 0 0 1 4.3-.2c.49.07.88.14 1.17.22v-.45c0-.8-.24-1.46-.73-1.95-.5-.49-1.35-.73-2.56-.73-.81 0-1.61.06-2.4.17-.8.12-1.47.29-2.05.5l-.6-3.84a15.04 15.04 0 0 1 2.4-.53 16.98 16.98 0 0 1 3.2-.27Zm.39 13.96c.47 0 .91-.01 1.34-.03a9.2 9.2 0 0 0 1.02-.1v-3.62a9.12 9.12 0 0 0-1.92-.19c-.44 0-.87.03-1.26.08-.4.06-.74.16-1.04.3-.3.16-.53.36-.7.61a1.7 1.7 0 0 0-.26.96c0 .75.25 1.27.75 1.56.5.28 1.2.43 2.07.43Zm11.1-17.7 4.77-.77v4.96h5.73v3.97h-5.73v5.92c0 1 .17 1.8.53 2.4.35.6 1.06.9 2.12.9a9.11 9.11 0 0 0 3.08-.55l.67 3.71a11.2 11.2 0 0 1-4.51.86c-1.3 0-2.38-.17-3.24-.52a5.07 5.07 0 0 1-3.12-3.76c-.2-.9-.3-1.89-.3-2.97V95.75Zm19.58-.67c0 .88-.28 1.56-.84 2.06-.57.5-1.24.76-2 .76s-1.44-.26-2-.76c-.57-.5-.85-1.19-.85-2.06s.28-1.56.84-2.06c.57-.5 1.24-.76 2-.76s1.44.26 2 .76c.57.5.85 1.19.85 2.06Zm-.44 21.7h-4.77V99.95h4.77v16.84Zm8.56 0a84.05 84.05 0 0 1-3.32-7.5 117.4 117.4 0 0 1-3.2-9.34h5.06a74 74 0 0 0 .75 2.7 212.02 212.02 0 0 0 1.84 5.85c.3.94.61 1.79.91 2.56a152.5 152.5 0 0 0 2.75-8.4c.29-.97.54-1.87.75-2.7h4.94a117.83 117.83 0 0 1-3.2 9.34 83.8 83.8 0 0 1-3.32 7.49h-3.96Zm11.76-8.29c0-1.5.22-2.8.68-3.92a8.4 8.4 0 0 1 1.81-2.8 7.52 7.52 0 0 1 2.58-1.7 8.06 8.06 0 0 1 2.99-.57c2.39 0 4.28.73 5.66 2.19 1.39 1.46 2.08 3.6 2.08 6.45a14.51 14.51 0 0 1-.1 1.79h-10.8c.1.98.56 1.76 1.37 2.33.8.58 1.9.87 3.26.87.88 0 1.73-.08 2.58-.24s1.53-.36 2.06-.6l.64 3.88c-.25.12-.6.25-1.02.38s-.9.24-1.43.34a22.26 22.26 0 0 1-3.47.33c-1.51 0-2.83-.22-3.95-.67a7.29 7.29 0 0 1-4.42-4.6 10.96 10.96 0 0 1-.52-3.46Zm11.2-1.83c-.03-.4-.1-.8-.21-1.18a2.9 2.9 0 0 0-1.47-1.76c-.38-.2-.84-.29-1.4-.29a2.85 2.85 0 0 0-2.34 1c-.25.3-.45.64-.58 1.04a6.2 6.2 0 0 0-.3 1.2h6.3ZM2.88 155.19V133h14.84v4.2H7.87v4.63h8.77v4.2H7.87v9.15h-5Zm31.77-.58a25.85 25.85 0 0 1-7.17.96c-1.42 0-2.61-.2-3.56-.58a5.4 5.4 0 0 1-2.26-1.61 6.3 6.3 0 0 1-1.18-2.48c-.24-.96-.36-2.02-.36-3.17v-9.37h4.77v8.8c0 1.53.2 2.64.61 3.32.4.69 1.16 1.03 2.27 1.03a13.6 13.6 0 0 0 2.11-.16v-13h4.77v16.26Zm11.2.89a11.91 11.91 0 0 1-3.37-.44 5 5 0 0 1-2.05-1.17c-.5-.5-.85-1.1-1.03-1.82a9.81 9.81 0 0 1-.27-2.42v-18.53l4.77-.77v18.34c0 .43.03.81.1 1.15s.18.63.36.87c.18.23.45.42.79.57.34.15.8.25 1.37.29l-.67 3.94Zm10.11 0a11.91 11.91 0 0 1-3.37-.44 5 5 0 0 1-2.05-1.17c-.5-.5-.84-1.1-1.02-1.82a9.81 9.81 0 0 1-.28-2.42v-18.53l4.77-.77v18.34c0 .43.03.81.1 1.15s.18.63.36.87c.19.23.45.42.79.57.34.15.8.25 1.38.29l-.68 3.94Zm1.95-12.03h9.29v4.32h-9.3v-4.32Zm18.69 7.91c.7 0 1.29-.06 1.75-.18.45-.11.82-.27 1.1-.48.28-.2.47-.44.58-.72.1-.27.16-.58.16-.93 0-.72-.34-1.32-1.03-1.8-.68-.48-1.85-1-3.52-1.56-.72-.25-1.45-.55-2.17-.88-.73-.33-1.38-.74-1.96-1.24s-1.04-1.11-1.4-1.83-.55-1.58-.55-2.6.2-1.95.58-2.77c.38-.82.93-1.52 1.63-2.1a7.48 7.48 0 0 1 2.56-1.33c1-.3 2.13-.46 3.4-.46a13.81 13.81 0 0 1 6.55 1.53l-1.44 3.94c-.62-.32-1.3-.6-2.06-.85a8.99 8.99 0 0 0-2.74-.37c-1.2 0-2.05.17-2.57.5-.53.33-.79.84-.79 1.52 0 .4.1.75.3 1.02s.45.53.8.76c.36.22.76.42 1.22.6.46.19.97.37 1.52.56a33 33 0 0 1 3.01 1.27c.85.41 1.56.9 2.13 1.45.56.56.98 1.2 1.26 1.96.28.74.42 1.65.42 2.72 0 2.07-.73 3.67-2.18 4.81-1.45 1.14-3.64 1.71-6.56 1.71a18.36 18.36 0 0 1-4.75-.6 11.9 11.9 0 0 1-2.67-1.1l1.4-3.96c.67.36 1.48.69 2.45.98.98.28 2.16.43 3.57.43Zm12.1-17.22 4.77-.77v4.96h5.72v3.97h-5.72v5.92c0 1 .17 1.8.52 2.4.36.6 1.07.9 2.13.9a9.11 9.11 0 0 0 3.08-.55l.67 3.72a11.2 11.2 0 0 1-4.51.86c-1.3 0-2.38-.18-3.24-.53a5.07 5.07 0 0 1-3.12-3.76c-.2-.9-.3-1.89-.3-2.97v-14.15Zm19.77 3.74c1.41 0 2.59.17 3.52.49.94.32 1.7.77 2.26 1.37.57.6.97 1.33 1.2 2.18.23.85.35 1.8.35 2.85v9.92c-.68.15-1.63.32-2.84.52-1.22.2-2.7.3-4.42.3-1.09 0-2.08-.09-2.96-.28-.89-.2-1.65-.5-2.29-.94s-1.13-1.01-1.47-1.72-.51-1.56-.51-2.59a4.55 4.55 0 0 1 2.18-4.13c.65-.4 1.41-.7 2.27-.88a15.17 15.17 0 0 1 4.3-.2c.48.07.87.14 1.17.22v-.45c0-.8-.25-1.46-.74-1.95s-1.34-.73-2.56-.73c-.81 0-1.61.05-2.4.17-.79.12-1.47.28-2.05.5l-.6-3.84a15.04 15.04 0 0 1 2.4-.53 16.98 16.98 0 0 1 3.2-.27Zm.39 13.96c.47 0 .92-.01 1.34-.03a9.2 9.2 0 0 0 1.03-.1v-3.62a9.12 9.12 0 0 0-1.92-.19c-.45 0-.87.03-1.27.08-.4.06-.74.16-1.04.3-.3.16-.53.36-.7.61a1.7 1.7 0 0 0-.26.97c0 .74.25 1.26.75 1.55.5.29 1.2.43 2.07.43Zm10.46-5.09c0-1.22.2-2.36.6-3.44a8.16 8.16 0 0 1 4.43-4.72 8.98 8.98 0 0 1 3.64-.7 11.78 11.78 0 0 1 4.64.93l-.99 3.8c-.45-.17-.94-.32-1.47-.44a7.7 7.7 0 0 0-1.8-.2c-1.4 0-2.45.44-3.14 1.32a5.4 5.4 0 0 0-1.04 3.45c0 1.52.32 2.69.97 3.52.65.83 1.79 1.25 3.41 1.25.58 0 1.2-.05 1.86-.16a7.8 7.8 0 0 0 1.82-.51l.67 3.9a13.74 13.74 0 0 1-4.83.87c-1.54 0-2.86-.23-3.97-.7a7.45 7.45 0 0 1-2.73-1.86 7.3 7.3 0 0 1-1.57-2.8c-.33-1.08-.5-2.25-.5-3.5Zm21.57-2.37a327.46 327.46 0 0 0 2.91-3.23 245.25 245.25 0 0 0 2.4-2.82h5.67c-1.13 1.3-2.24 2.54-3.31 3.72a91.22 91.22 0 0 1-3.54 3.66c.64.58 1.3 1.27 1.98 2.07.69.8 1.35 1.63 1.99 2.48a36.79 36.79 0 0 1 3.1 4.9h-5.48a79.04 79.04 0 0 0-2.56-3.86c-.49-.67-1-1.32-1.55-1.94s-1.08-1.14-1.6-1.57v7.38h-4.78v-24.07l4.77-.77v14.05ZM8.92 189.78c.7 0 1.29-.06 1.75-.18.46-.11.82-.27 1.1-.48.28-.2.47-.44.58-.72.1-.28.16-.59.16-.93 0-.72-.34-1.33-1.03-1.8-.68-.48-1.85-1-3.52-1.56-.72-.25-1.45-.55-2.17-.88-.73-.33-1.38-.74-1.95-1.24s-1.05-1.11-1.41-1.83-.55-1.58-.55-2.6.2-1.95.58-2.78c.38-.82.93-1.52 1.63-2.1a7.48 7.48 0 0 1 2.56-1.32c1-.3 2.13-.46 3.4-.46a13.81 13.81 0 0 1 6.55 1.53l-1.44 3.94c-.62-.32-1.3-.6-2.06-.85a8.99 8.99 0 0 0-2.74-.37c-1.2 0-2.05.17-2.57.5-.53.33-.79.84-.79 1.52 0 .4.1.75.3 1.02s.46.53.8.76c.36.22.76.42 1.22.6.46.18.97.37 1.52.56 1.16.43 2.16.85 3.01 1.27.85.41 1.56.9 2.13 1.45.56.56.99 1.2 1.26 1.96.28.74.42 1.65.42 2.72 0 2.06-.73 3.67-2.18 4.81-1.45 1.14-3.63 1.71-6.56 1.71a18.36 18.36 0 0 1-4.75-.6 11.9 11.9 0 0 1-2.67-1.1l1.4-3.96a12.7 12.7 0 0 0 6.02 1.4Zm28-4.64c0 1.32-.19 2.53-.57 3.63a7.48 7.48 0 0 1-4.27 4.62 8.7 8.7 0 0 1-3.41.64 8.61 8.61 0 0 1-3.38-.64 7.45 7.45 0 0 1-2.6-1.8 8.25 8.25 0 0 1-1.7-2.82c-.4-1.1-.61-2.31-.61-3.63s.2-2.53.62-3.62a7.74 7.74 0 0 1 4.35-4.57 8.44 8.44 0 0 1 3.32-.65c1.21 0 2.33.22 3.34.65a7.65 7.65 0 0 1 4.3 4.57c.41 1.09.61 2.3.61 3.62Zm-4.86 0a6 6 0 0 0-.88-3.47c-.59-.85-1.42-1.27-2.51-1.27s-1.93.42-2.53 1.26c-.6.85-.9 2-.9 3.48s.3 2.64.9 3.5c.6.87 1.44 1.3 2.53 1.3s1.92-.44 2.5-1.3c.6-.86.89-2.03.89-3.5Zm15.84-16.39a12.02 12.02 0 0 1 4.2.8l-.94 3.81a7.44 7.44 0 0 0-2.78-.58c-.58 0-1.06.08-1.46.24a2.25 2.25 0 0 0-1.4 1.65c-.1.39-.15.8-.15 1.25v.83h5.89v3.97h-5.89v12.86H40.6v-17.72c0-2.18.62-3.9 1.84-5.19 1.23-1.28 3.05-1.92 5.46-1.92Zm6.05 3.81 4.76-.77v4.96h5.73v3.97h-5.72v5.92c0 1 .17 1.8.52 2.4.35.6 1.06.9 2.13.9a9.11 9.11 0 0 0 3.07-.55l.68 3.71a11.26 11.26 0 0 1-4.51.86c-1.3 0-2.39-.17-3.24-.52a5.07 5.07 0 0 1-3.12-3.76c-.2-.9-.3-1.89-.3-2.98v-14.14Zm24.95 11.36a148.13 148.13 0 0 1-2.9 9.68h-3.7a61 61 0 0 1-1.25-3.2c-.45-1.24-.92-2.59-1.4-4.05a263.7 263.7 0 0 1-2.94-9.59h5.03a1223.74 1223.74 0 0 0 1.2 5.32l.71 2.9s.5 1.9.76 2.8A138.17 138.17 0 0 0 76 182l.7-2.75.6-2.48h3.45l.57 2.48a432 432 0 0 0 1.41 5.64c.26.98.52 1.94.8 2.88a141.01 141.01 0 0 0 2.7-11h4.96a228.35 228.35 0 0 1-4.34 13.63c-.46 1.23-.89 2.3-1.27 3.2h-3.71c-.54-1.63-1.06-3.24-1.57-4.84-.51-1.6-.98-3.2-1.41-4.83Zm20.55-7.62c1.4 0 2.58.16 3.52.48.94.32 1.7.78 2.26 1.38.56.6.96 1.32 1.2 2.18.23.85.35 1.8.35 2.84v9.92c-.68.15-1.63.33-2.85.53-1.22.2-2.69.3-4.42.3-1.08 0-2.07-.09-2.96-.28-.88-.2-1.64-.5-2.28-.94s-1.13-1.01-1.47-1.72-.52-1.56-.52-2.59a4.55 4.55 0 0 1 2.18-4.13c.66-.4 1.42-.7 2.27-.88a15.17 15.17 0 0 1 4.3-.2c.49.07.87.14 1.17.22v-.45c0-.8-.24-1.46-.73-1.95-.5-.49-1.35-.73-2.56-.73-.81 0-1.61.05-2.4.17-.8.12-1.47.28-2.05.5l-.6-3.84a15.04 15.04 0 0 1 2.4-.53 16.98 16.98 0 0 1 3.2-.27Zm.38 13.96c.47 0 .92-.01 1.35-.03a9.2 9.2 0 0 0 1.02-.1v-3.62a9.12 9.12 0 0 0-1.92-.19c-.45 0-.87.03-1.26.08-.4.06-.74.16-1.04.3-.3.16-.53.36-.7.61a1.7 1.7 0 0 0-.26.96c0 .75.25 1.27.75 1.56.5.28 1.19.43 2.06.43Zm21.41-9.28-1.5-.34a9.4 9.4 0 0 0-2.93-.1c-.42.06-.73.12-.94.18v12.87h-4.77v-15.94c.85-.3 1.86-.58 3.02-.85a17.4 17.4 0 0 1 4.82-.35 19.3 19.3 0 0 1 2.17.32c.37.07.68.16.93.27l-.8 3.94Zm2.24 4.32c0-1.5.23-2.8.69-3.92a8.4 8.4 0 0 1 1.8-2.8 7.52 7.52 0 0 1 2.58-1.7 8.06 8.06 0 0 1 3-.57c2.38 0 4.27.73 5.66 2.19 1.39 1.46 2.08 3.6 2.08 6.45a14.51 14.51 0 0 1-.1 1.79h-10.81c.1.98.56 1.76 1.37 2.33.81.58 1.9.87 3.27.87.87 0 1.73-.08 2.57-.24s1.53-.36 2.07-.6l.64 3.88c-.26.13-.6.25-1.03.38s-.9.24-1.42.34a22.26 22.26 0 0 1-3.47.33c-1.52 0-2.83-.22-3.95-.67a7.29 7.29 0 0 1-4.42-4.6 10.96 10.96 0 0 1-.53-3.46Zm11.2-1.83a5.2 5.2 0 0 0-.2-1.18 2.9 2.9 0 0 0-1.47-1.76c-.38-.2-.85-.29-1.4-.29-.53 0-1 .1-1.38.27-.38.19-.7.43-.96.72s-.45.65-.59 1.04c-.14.4-.24.8-.3 1.2h6.3ZM2.87 231.99V209.8h14.97v4.2H7.86v4.34h8.86v4.1H7.86v5.34h10.72v4.2H2.87Zm19.07-16.26a26.75 26.75 0 0 1 7.17-.96 9.9 9.9 0 0 1 3.57.56 5.37 5.37 0 0 1 3.44 4.02c.23.93.35 1.98.35 3.13v9.5H31.7v-8.92c0-1.54-.2-2.63-.6-3.27-.41-.64-1.17-.96-2.28-.96a13.14 13.14 0 0 0-2.11.16v13h-4.77v-16.26Zm33.37 14.14c0 2.76-.7 4.8-2.1 6.13s-3.55 2-6.47 2a19.29 19.29 0 0 1-5.92-1l.83-3.99a13.8 13.8 0 0 0 5.15.96c1.37 0 2.33-.3 2.9-.9.56-.6.85-1.36.85-2.3v-.6a7.64 7.64 0 0 1-3.36.7c-2.33 0-4.11-.7-5.35-2.07S40 225.5 40 223.03c0-1.24.19-2.36.57-3.38a7.18 7.18 0 0 1 4.39-4.29 10.2 10.2 0 0 1 3.61-.59 30.55 30.55 0 0 1 5.3.6c.54.11 1.03.23 1.45.36v14.15Zm-10.46-6.84c0 2.66 1.08 4 3.23 4a4.77 4.77 0 0 0 2.47-.64v-7.62a10.5 10.5 0 0 0-1.95-.16c-1.26 0-2.2.42-2.82 1.25a5.16 5.16 0 0 0-.93 3.17Zm20.16-12.74c0 .88-.28 1.56-.85 2.06-.56.5-1.23.76-2 .76s-1.43-.26-2-.76c-.56-.5-.85-1.19-.85-2.06s.29-1.56.85-2.06c.57-.5 1.23-.75 2-.75s1.44.25 2 .75c.57.5.85 1.19.85 2.06Zm-.45 21.7H59.8v-16.84h4.76V232Zm4.48-16.26a26.75 26.75 0 0 1 7.17-.96 9.9 9.9 0 0 1 3.57.56 5.38 5.38 0 0 1 3.44 4.02c.23.93.35 1.98.35 3.13v9.5H78.8v-8.92c0-1.54-.2-2.63-.6-3.27-.41-.64-1.17-.96-2.28-.96a13.14 13.14 0 0 0-2.1.16v13h-4.78v-16.26Zm18.06 7.97c0-1.5.22-2.8.68-3.92s1.06-2.05 1.8-2.8a7.95 7.95 0 0 1 5.57-2.27c2.4 0 4.28.73 5.67 2.19s2.08 3.6 2.08 6.45a14.51 14.51 0 0 1-.1 1.79H92c.1.98.56 1.76 1.37 2.33s1.9.87 3.27.87c.87 0 1.73-.08 2.57-.24s1.53-.36 2.07-.6l.64 3.88a7 7 0 0 1-1.02.38c-.43.13-.9.24-1.43.34a22.19 22.19 0 0 1-3.47.33c-1.52 0-2.83-.22-3.95-.67a7.31 7.31 0 0 1-4.42-4.6 10.96 10.96 0 0 1-.53-3.46Zm11.19-1.83c-.02-.4-.1-.8-.2-1.18s-.3-.73-.55-1.02c-.25-.3-.56-.55-.93-.74-.37-.2-.84-.29-1.4-.29-.53 0-.98.1-1.37.27-.38.19-.7.43-.96.72-.25.3-.45.65-.6 1.04s-.23.8-.3 1.2h6.3Zm7.49 1.83c0-1.5.23-2.8.69-3.92s1.06-2.05 1.8-2.8a7.99 7.99 0 0 1 5.57-2.27c2.4 0 4.28.73 5.67 2.19s2.08 3.6 2.08 6.45a14.51 14.51 0 0 1-.1 1.79h-10.81c.1.98.56 1.76 1.37 2.33s1.9.87 3.27.87c.87 0 1.73-.08 2.57-.24s1.53-.36 2.07-.6l.64 3.88c-.26.13-.6.25-1.03.38-.43.13-.9.24-1.42.34a22.19 22.19 0 0 1-3.47.33 10.6 10.6 0 0 1-3.96-.67 7.31 7.31 0 0 1-4.42-4.6 10.96 10.96 0 0 1-.52-3.46Zm11.2-1.83c-.02-.4-.1-.8-.21-1.18a2.87 2.87 0 0 0-1.47-1.76c-.38-.2-.84-.29-1.4-.29-.53 0-.99.1-1.37.27-.39.19-.7.43-.96.72-.26.3-.45.65-.6 1.04s-.23.8-.3 1.2h6.3Zm18.42-2.49c-.42-.1-.92-.22-1.5-.34a9.4 9.4 0 0 0-2.92-.1c-.42.06-.73.12-.95.18V232h-4.76v-15.94c.85-.3 1.86-.58 3.02-.85a17.41 17.41 0 0 1 4.82-.35 19.3 19.3 0 0 1 2.17.32c.36.07.67.16.93.27l-.8 3.94Z" style="fill:#313840"/><g id="am"><path id="an" d="M5.7 83.13h122.47v1H5.7z" style="fill:#b43035"/><path d="M6.01 76.57c.62 0 1.13.07 1.54.2a2.15 2.15 0 0 1 1.51 1.56c.1.37.16.8.16 1.25v4.34l-1.25.23c-.53.09-1.17.13-1.93.13-.48 0-.9-.04-1.3-.12s-.72-.23-1-.42a1.8 1.8 0 0 1-.64-.75 2.6 2.6 0 0 1-.22-1.13c0-.43.08-.8.25-1.1a2 2 0 0 1 .7-.7c.29-.18.62-.31 1-.4a5.6 5.6 0 0 1 2.39.01v-.2c0-.35-.11-.63-.33-.85s-.58-.32-1.12-.32a7.17 7.17 0 0 0-1.94.3l-.27-1.68a7.07 7.07 0 0 1 1.05-.23 13.13 13.13 0 0 1 1.4-.12Zm.17 6.1a12.23 12.23 0 0 0 1.04-.05v-1.59a4.11 4.11 0 0 0-1.4-.05c-.17.03-.32.07-.45.14s-.23.15-.31.26-.11.26-.11.42c0 .33.1.56.33.68.22.13.52.2.9.2Z" style="fill:#b43035"/></g></g><g id="ao"><path id="ap" d="M9.37 22.35c3.33 0 5.88.6 7.65 1.78 1.77 1.18 2.66 3.02 2.66 5.52 0 1.56-.36 2.82-1.08 3.8a7.06 7.06 0 0 1-3.08 2.28c.44.56.91 1.19 1.4 1.9a55.31 55.31 0 0 1 2.85 4.67c.45.85.87 1.68 1.25 2.49h-5.58l-1.24-2.21a52.83 52.83 0 0 0-2.58-4.18c-.43-.63-.86-1.2-1.29-1.71H7.87v8.1h-5V22.92a28.3 28.3 0 0 1 3.38-.45c1.16-.08 2.2-.13 3.12-.13Zm.29 4.26c-.36 0-.69.01-.98.03l-.81.06v6.02h1.4c1.88 0 3.23-.23 4.04-.7.8-.47 1.21-1.27 1.21-2.4 0-1.09-.4-1.86-1.23-2.32a7.63 7.63 0 0 0-3.63-.69Zm19.46-3.52c0 .87-.29 1.56-.85 2.06-.57.5-1.23.76-2 .76s-1.44-.26-2-.76c-.57-.5-.85-1.19-.85-2.06s.28-1.56.85-2.06c.56-.5 1.23-.76 2-.76s1.43.26 2 .76c.56.5.85 1.18.85 2.06Zm-.45 21.7H23.9V27.94h4.77V44.8Zm3.68-8.42c0-1.22.2-2.36.59-3.44a8.16 8.16 0 0 1 4.43-4.72 8.98 8.98 0 0 1 3.65-.7 11.78 11.78 0 0 1 4.64.92l-1 3.81c-.44-.17-.93-.32-1.46-.45a7.7 7.7 0 0 0-1.8-.19c-1.4 0-2.46.44-3.15 1.31a5.4 5.4 0 0 0-1.04 3.46c0 1.52.33 2.69.98 3.52.65.83 1.78 1.25 3.4 1.25.58 0 1.2-.05 1.86-.16a7.8 7.8 0 0 0 1.83-.51l.67 3.9a13.77 13.77 0 0 1-4.83.86c-1.54 0-2.86-.22-3.97-.68a7.45 7.45 0 0 1-2.74-1.87 7.3 7.3 0 0 1-1.57-2.8c-.33-1.08-.5-2.25-.5-3.5Zm16.8 8.41V20.72l4.76-.77v8.07a10.13 10.13 0 0 1 2.7-.45 9 9 0 0 1 3.4.56 5.38 5.38 0 0 1 3.33 4.01c.22.94.34 1.99.34 3.14v9.5H58.9v-8.92c0-1.54-.2-2.63-.6-3.27-.39-.64-1.12-.96-2.19-.96-.42 0-.82.04-1.2.11l-1 .24v12.8h-4.77ZM74.04 27.5c1.41 0 2.58.16 3.52.48.94.32 1.7.78 2.26 1.38.56.6.96 1.32 1.2 2.18.23.85.35 1.8.35 2.84v9.92c-.68.16-1.63.33-2.85.53-1.21.2-2.68.3-4.41.3-1.1 0-2.08-.09-2.96-.28-.89-.2-1.65-.5-2.3-.94s-1.12-1.01-1.46-1.72-.51-1.56-.51-2.59a4.55 4.55 0 0 1 2.18-4.13c.65-.4 1.4-.7 2.26-.88a15.17 15.17 0 0 1 4.3-.2c.49.07.88.13 1.18.22v-.45c0-.8-.25-1.46-.74-1.95-.5-.49-1.34-.74-2.56-.74-.81 0-1.61.06-2.4.18-.8.12-1.47.28-2.05.5l-.6-3.84a15.04 15.04 0 0 1 2.4-.53 16.98 16.98 0 0 1 3.2-.27Zm.39 13.96c.47 0 .91-.01 1.34-.04a9.2 9.2 0 0 0 1.03-.1v-3.6a9.12 9.12 0 0 0-1.92-.2c-.45 0-.87.03-1.27.08-.4.06-.74.16-1.04.3-.3.16-.53.36-.7.61a1.7 1.7 0 0 0-.26.96c0 .75.25 1.27.75 1.56.5.28 1.2.43 2.07.43Zm21.4-9.28c-.42-.1-.92-.22-1.5-.34a9.4 9.4 0 0 0-2.93-.1c-.41.06-.73.12-.94.18v12.86h-4.77V28.85c.85-.3 1.86-.58 3.02-.85a17.4 17.4 0 0 1 4.82-.35 19.3 19.3 0 0 1 2.18.32c.36.07.67.16.92.27l-.8 3.94Zm17.89 12.06a25.71 25.71 0 0 1-5.07.88c-.63.05-1.23.08-1.8.08-1.4 0-2.63-.2-3.72-.6-1.09-.41-2-1-2.75-1.75a7.56 7.56 0 0 1-1.71-2.75 12.41 12.41 0 0 1-.08-7.33c.34-1.1.83-2.03 1.47-2.8a6.3 6.3 0 0 1 2.35-1.76 8 8 0 0 1 3.19-.6 7.5 7.5 0 0 1 3.36.73v-7.62l4.76-.77v24.3Zm-10.78-8c0 1.47.33 2.66 1 3.55.65.9 1.63 1.35 2.93 1.35a13.54 13.54 0 0 0 2.08-.16V32.3c-.3-.2-.68-.36-1.16-.48s-.97-.2-1.46-.2c-2.26 0-3.4 1.54-3.4 4.61Zm36.34 8.54a56.97 56.97 0 0 0-3.56-4.87c-.71-.85-1.45-1.67-2.22-2.45s-1.54-1.47-2.3-2.07v9.4h-5V22.6h5v8.33c1.28-1.34 2.58-2.75 3.9-4.23 1.33-1.47 2.55-2.84 3.67-4.1h5.93a151.75 151.75 0 0 1-9.38 10.2c1.78 1.47 3.49 3.23 5.14 5.26s3.23 4.27 4.75 6.72h-5.94Zm8.49-16.83h4.77v16.83h-4.77zm9.25.58a26.75 26.75 0 0 1 7.17-.96c1.43 0 2.61.19 3.56.56a5.37 5.37 0 0 1 3.44 4.02c.24.94.36 1.98.36 3.13v9.5h-4.77v-8.92c0-1.54-.2-2.62-.61-3.27-.4-.64-1.16-.96-2.27-.96a13.14 13.14 0 0 0-2.11.16v13h-4.77V28.53Zm33.38 14.14c0 2.75-.7 4.8-2.1 6.13-1.4 1.33-3.56 2-6.48 2a19.29 19.29 0 0 1-5.92-1l.83-3.99a13.8 13.8 0 0 0 5.15.96c1.37 0 2.33-.3 2.9-.9.56-.6.84-1.36.84-2.3v-.6a7.64 7.64 0 0 1-3.36.7c-2.32 0-4.1-.7-5.34-2.07s-1.85-3.3-1.85-5.77c0-1.24.19-2.37.57-3.38a7.18 7.18 0 0 1 4.39-4.29 10.2 10.2 0 0 1 3.61-.59 30.55 30.55 0 0 1 5.3.6c.54.11 1.03.23 1.45.36v14.14Zm-10.47-6.84c0 2.66 1.08 4 3.23 4a4.77 4.77 0 0 0 2.47-.64v-7.62a10.5 10.5 0 0 0-1.96-.16c-1.26 0-2.2.42-2.81 1.25a5.16 5.16 0 0 0-.93 3.17Z" style="fill:#313840"/><g id="aq"><path id="ar" d="M18.56 11.13h171.47v1H18.56z" style="fill:#b43035"/><path id="as" d="M2.87 2.43h2.18v9.7H2.87v-9.7Zm6.09-1.04a5.68 5.68 0 0 1 .06.71 5.25 5.25 0 0 1-1.16 3.22L6.37 5a6.92 6.92 0 0 0 .6-2.8v-.12l-.02-.21v-.25c0-.09-.02-.15-.03-.22h2.03Zm5.05 6.83c0-.67-.08-1.15-.26-1.43-.17-.28-.46-.42-.88-.42a4.08 4.08 0 0 0-.82.07v5.69H9.97V5a13.55 13.55 0 0 1 3.02-.42 2.95 2.95 0 0 1 2.11.69c.3-.21.65-.38 1.03-.5a3.67 3.67 0 0 1 2.52.06c.37.16.68.4.9.7.23.3.39.64.47 1.05.08.42.13.87.13 1.38v4.15h-2.09v-3.9c0-.67-.09-1.15-.26-1.43s-.47-.42-.89-.42a2.17 2.17 0 0 0-.97.29c.07.22.11.45.13.68.02.24.03.5.03.77v4.02h-2.09v-3.9Z" style="fill:#b43035"/></g><path d="m152.33 21.8-.3 1.07h-.94l.28-1.1-1.22-1.5-1.21 1.5.28 1.1h-.94l-.3-1.08-1.65-.9 1.05 4.6 1.77.33a5.6 5.6 0 0 0 2 0l1.77-.32 1.06-4.61-1.65.9Z" style="fill:#b43035"/></g></g></svg>