<?xml version="1.0" encoding="UTF-8"?><svg xmlns="http://www.w3.org/2000/svg" viewBox="0 0 300 190"><g id="a"/><g id="b"><g id="c"><g id="d"><path d="M12.488,103.845c-3.605,0-6.352-1.003-8.24-3.008-1.888-2.006-2.832-4.854-2.832-8.544,0-1.835,.288-3.473,.864-4.912,.576-1.44,1.365-2.656,2.368-3.648,1.002-.992,2.197-1.744,3.584-2.256,1.387-.512,2.891-.769,4.512-.769,.938,0,1.792,.07,2.56,.208,.768,.14,1.44,.3,2.016,.48,.576,.182,1.056,.368,1.44,.56,.384,.192,.661,.342,.832,.448l-1.44,4.032c-.683-.362-1.478-.672-2.384-.928-.907-.256-1.936-.385-3.088-.385-.768,0-1.52,.129-2.256,.385-.736,.256-1.387,.667-1.952,1.231-.565,.565-1.019,1.296-1.36,2.192-.341,.896-.512,1.983-.512,3.264,0,1.024,.112,1.979,.336,2.864,.224,.886,.586,1.647,1.088,2.288,.501,.64,1.157,1.146,1.968,1.52,.811,.374,1.792,.561,2.944,.561,.725,0,1.376-.043,1.952-.128,.576-.085,1.088-.187,1.536-.305,.448-.116,.843-.25,1.184-.399,.341-.149,.65-.288,.928-.416l1.376,4c-.704,.427-1.696,.811-2.976,1.151-1.28,.342-2.763,.513-4.448,.513Z" style="fill:#313840;"/><path d="M32.936,90.788c-.427-.106-.928-.218-1.504-.336-.576-.116-1.195-.176-1.856-.176-.299,0-.656,.027-1.072,.08-.416,.054-.731,.112-.944,.176v12.864h-4.768v-15.936c.853-.299,1.861-.581,3.024-.849,1.162-.267,2.458-.399,3.888-.399,.256,0,.565,.016,.928,.048,.362,.032,.725,.075,1.088,.128,.362,.054,.725,.117,1.088,.191,.363,.075,.672,.166,.928,.272l-.8,3.936Z" style="fill:#313840;"/><path d="M35.176,95.108c0-1.493,.229-2.8,.688-3.92,.458-1.12,1.061-2.053,1.808-2.8,.747-.747,1.605-1.312,2.576-1.696,.97-.384,1.968-.576,2.992-.576,2.389,0,4.277,.731,5.664,2.192,1.387,1.461,2.08,3.611,2.08,6.448,0,.277-.011,.581-.032,.912-.021,.33-.043,.624-.064,.88h-10.816c.106,.981,.565,1.76,1.376,2.336,.811,.576,1.898,.863,3.264,.863,.875,0,1.733-.079,2.576-.239s1.531-.357,2.064-.593l.64,3.872c-.256,.128-.597,.257-1.024,.385s-.901,.239-1.424,.336c-.523,.096-1.083,.176-1.68,.239-.598,.064-1.195,.097-1.792,.097-1.515,0-2.832-.225-3.952-.672-1.12-.448-2.048-1.062-2.784-1.841-.736-.778-1.28-1.7-1.632-2.768-.352-1.066-.528-2.219-.528-3.456Zm11.2-1.824c-.021-.404-.091-.8-.208-1.184-.118-.384-.299-.726-.544-1.024-.246-.298-.555-.544-.928-.735-.374-.192-.837-.288-1.392-.288-.533,0-.992,.091-1.376,.271-.384,.182-.704,.422-.96,.721s-.454,.646-.592,1.04c-.139,.395-.24,.795-.304,1.199h6.304Z" style="fill:#313840;"/><path d="M60.712,86.116c1.408,0,2.581,.16,3.52,.48,.938,.319,1.69,.778,2.256,1.376,.565,.598,.965,1.323,1.2,2.176,.234,.854,.352,1.803,.352,2.848v9.92c-.683,.15-1.632,.326-2.848,.528-1.216,.203-2.688,.304-4.416,.304-1.088,0-2.075-.096-2.96-.287-.886-.192-1.648-.507-2.288-.944s-1.131-1.008-1.472-1.712-.512-1.568-.512-2.592c0-.981,.197-1.813,.592-2.496,.395-.683,.922-1.227,1.584-1.632,.661-.405,1.418-.699,2.272-.881,.853-.181,1.739-.271,2.656-.271,.618,0,1.168,.027,1.648,.08,.48,.054,.869,.123,1.168,.208v-.448c0-.811-.246-1.461-.736-1.952-.491-.49-1.344-.735-2.56-.735-.811,0-1.611,.059-2.4,.176-.79,.117-1.472,.283-2.048,.496l-.608-3.841c.277-.085,.624-.176,1.04-.271s.869-.181,1.36-.256c.491-.074,1.008-.139,1.552-.192,.544-.053,1.093-.08,1.648-.08Zm.384,13.952c.469,0,.917-.011,1.344-.032,.426-.021,.768-.053,1.024-.096v-3.616c-.192-.042-.48-.085-.864-.128-.384-.042-.736-.063-1.056-.063-.448,0-.87,.026-1.264,.08-.395,.053-.742,.154-1.04,.304-.299,.149-.533,.352-.704,.607-.171,.257-.256,.576-.256,.961,0,.746,.25,1.264,.752,1.552,.501,.288,1.189,.432,2.064,.432Z" style="fill:#313840;"/><path d="M72.2,82.372l4.768-.768v4.96h5.728v3.968h-5.728v5.92c0,1.003,.176,1.804,.528,2.4,.352,.598,1.061,.896,2.128,.896,.512,0,1.04-.048,1.584-.144s1.04-.229,1.488-.4l.672,3.712c-.576,.235-1.216,.438-1.92,.608s-1.568,.256-2.592,.256c-1.301,0-2.379-.176-3.232-.527-.854-.353-1.536-.843-2.048-1.473-.512-.629-.87-1.392-1.072-2.288-.203-.896-.304-1.888-.304-2.976v-14.145Z" style="fill:#313840;"/><path d="M91.783,81.7c0,.875-.283,1.563-.848,2.064-.565,.501-1.232,.752-2,.752s-1.435-.251-2-.752c-.565-.501-.848-1.189-.848-2.064s.283-1.562,.848-2.063c.565-.501,1.232-.752,2-.752s1.435,.251,2,.752c.565,.501,.848,1.189,.848,2.063Zm-.448,21.696h-4.768v-16.832h4.768v16.832Z" style="fill:#313840;"/><path d="M99.903,103.396c-1.092-2.133-2.2-4.629-3.324-7.488-1.124-2.858-2.189-5.973-3.196-9.344h5.056c.214,.832,.466,1.733,.755,2.704,.289,.971,.589,1.952,.9,2.944,.31,.991,.621,1.957,.932,2.896,.311,.939,.617,1.792,.917,2.561,.278-.769,.578-1.621,.899-2.561,.321-.938,.637-1.904,.948-2.896,.311-.992,.61-1.974,.899-2.944s.541-1.872,.755-2.704h4.931c-1.006,3.371-2.07,6.485-3.193,9.344-1.123,2.859-2.23,5.355-3.322,7.488h-3.957Z" style="fill:#313840;"/><path d="M111.655,95.108c0-1.493,.229-2.8,.688-3.92,.458-1.12,1.061-2.053,1.808-2.8,.747-.747,1.605-1.312,2.576-1.696,.97-.384,1.968-.576,2.992-.576,2.389,0,4.277,.731,5.664,2.192,1.387,1.461,2.08,3.611,2.08,6.448,0,.277-.011,.581-.032,.912-.021,.33-.043,.624-.064,.88h-10.816c.106,.981,.565,1.76,1.376,2.336,.811,.576,1.898,.863,3.264,.863,.875,0,1.733-.079,2.576-.239s1.531-.357,2.064-.593l.64,3.872c-.256,.128-.597,.257-1.024,.385s-.901,.239-1.424,.336c-.523,.096-1.083,.176-1.68,.239-.598,.064-1.195,.097-1.792,.097-1.515,0-2.832-.225-3.952-.672-1.12-.448-2.048-1.062-2.784-1.841-.736-.778-1.28-1.7-1.632-2.768-.352-1.066-.528-2.219-.528-3.456Zm11.2-1.824c-.021-.404-.091-.8-.208-1.184-.118-.384-.299-.726-.544-1.024-.246-.298-.555-.544-.928-.735-.374-.192-.837-.288-1.392-.288-.533,0-.992,.091-1.376,.271-.384,.182-.704,.422-.96,.721s-.454,.646-.592,1.04c-.139,.395-.24,.795-.304,1.199h6.304Z" style="fill:#313840;"/><path d="M2.376,141.797v-22.176h14.848v4.191H7.368v4.641h8.768v4.191H7.368v9.152H2.376Z" style="fill:#313840;"/><path d="M34.152,141.221c-.811,.235-1.856,.454-3.136,.656-1.28,.202-2.624,.304-4.032,.304-1.429,0-2.619-.191-3.568-.576-.95-.384-1.702-.922-2.256-1.615-.555-.693-.95-1.521-1.184-2.48-.235-.96-.352-2.016-.352-3.168v-9.376h4.768v8.8c0,1.536,.202,2.646,.608,3.328,.405,.683,1.163,1.024,2.272,1.024,.341,0,.704-.017,1.088-.048,.384-.032,.725-.069,1.024-.112v-12.992h4.768v16.256Z" style="fill:#313840;"/><path d="M45.352,142.117c-1.387-.021-2.512-.171-3.376-.448-.864-.277-1.547-.667-2.048-1.168-.501-.501-.843-1.109-1.024-1.824-.182-.715-.272-1.52-.272-2.416v-18.528l4.768-.768v18.336c0,.427,.032,.812,.096,1.152s.187,.629,.368,.863c.181,.235,.442,.428,.784,.576,.341,.149,.8,.246,1.376,.288l-.672,3.937Z" style="fill:#313840;"/><path d="M55.463,142.117c-1.387-.021-2.512-.171-3.376-.448-.864-.277-1.547-.667-2.048-1.168-.501-.501-.843-1.109-1.024-1.824-.182-.715-.272-1.52-.272-2.416v-18.528l4.768-.768v18.336c0,.427,.032,.812,.096,1.152s.187,.629,.368,.863c.181,.235,.442,.428,.784,.576,.341,.149,.8,.246,1.376,.288l-.672,3.937Z" style="fill:#313840;"/><path d="M57.415,130.085h9.28v4.32h-9.28v-4.32Z" style="fill:#313840;"/><path d="M76.103,137.989c.704,0,1.285-.059,1.744-.177,.458-.116,.827-.276,1.104-.479,.277-.202,.469-.442,.576-.72,.106-.277,.16-.587,.16-.929,0-.725-.341-1.328-1.024-1.808-.683-.48-1.856-.997-3.52-1.552-.726-.256-1.451-.55-2.176-.88-.726-.331-1.376-.747-1.952-1.248s-1.045-1.109-1.408-1.824-.544-1.584-.544-2.608,.192-1.946,.576-2.768c.384-.821,.928-1.521,1.632-2.097,.704-.575,1.557-1.018,2.56-1.327,1.002-.31,2.133-.465,3.392-.465,1.493,0,2.784,.16,3.872,.48s1.984,.672,2.688,1.056l-1.44,3.937c-.619-.32-1.307-.603-2.064-.849-.758-.244-1.67-.367-2.736-.367-1.195,0-2.053,.165-2.576,.496-.523,.33-.784,.837-.784,1.52,0,.405,.096,.747,.288,1.024s.464,.527,.816,.752c.352,.224,.757,.427,1.216,.607,.458,.182,.965,.368,1.52,.561,1.152,.427,2.155,.848,3.008,1.264,.853,.416,1.562,.901,2.128,1.456,.565,.555,.986,1.205,1.264,1.952,.277,.747,.416,1.653,.416,2.72,0,2.069-.726,3.675-2.176,4.816-1.451,1.142-3.638,1.712-6.56,1.712-.981,0-1.867-.06-2.656-.176-.79-.118-1.488-.262-2.096-.433-.608-.17-1.131-.352-1.568-.544-.438-.192-.806-.373-1.104-.544l1.408-3.968c.661,.363,1.477,.688,2.448,.976,.971,.288,2.16,.433,3.568,.433Z" style="fill:#313840;"/><path d="M88.199,120.772l4.768-.768v4.96h5.728v3.968h-5.728v5.92c0,1.003,.176,1.804,.528,2.4,.352,.598,1.061,.896,2.128,.896,.512,0,1.04-.048,1.584-.144s1.04-.229,1.488-.4l.672,3.712c-.576,.235-1.216,.438-1.92,.608s-1.568,.256-2.592,.256c-1.301,0-2.379-.176-3.232-.527-.854-.353-1.536-.843-2.048-1.473-.512-.629-.87-1.392-1.072-2.288-.203-.896-.304-1.888-.304-2.976v-14.145Z" style="fill:#313840;"/><path d="M107.975,124.517c1.408,0,2.581,.16,3.52,.48,.938,.319,1.69,.778,2.256,1.376,.565,.598,.965,1.323,1.2,2.176,.234,.854,.352,1.803,.352,2.848v9.92c-.683,.15-1.632,.326-2.848,.528-1.216,.203-2.688,.304-4.416,.304-1.088,0-2.075-.096-2.96-.287-.886-.192-1.648-.507-2.288-.944s-1.131-1.008-1.472-1.712-.512-1.568-.512-2.592c0-.981,.197-1.813,.592-2.496,.395-.683,.922-1.227,1.584-1.632,.661-.405,1.418-.699,2.272-.881,.853-.181,1.739-.271,2.656-.271,.618,0,1.168,.027,1.648,.08,.48,.054,.869,.123,1.168,.208v-.448c0-.811-.246-1.461-.736-1.952-.491-.49-1.344-.735-2.56-.735-.811,0-1.611,.059-2.4,.176-.79,.117-1.472,.283-2.048,.496l-.608-3.841c.277-.085,.624-.176,1.04-.271s.869-.181,1.36-.256c.491-.074,1.008-.139,1.552-.192,.544-.053,1.093-.08,1.648-.08Zm.384,13.952c.469,0,.917-.011,1.344-.032,.426-.021,.768-.053,1.024-.096v-3.616c-.192-.042-.48-.085-.864-.128-.384-.042-.736-.063-1.056-.063-.448,0-.87,.026-1.264,.08-.395,.053-.742,.154-1.04,.304-.299,.149-.533,.352-.704,.607-.171,.257-.256,.576-.256,.961,0,.746,.25,1.264,.752,1.552,.501,.288,1.189,.432,2.064,.432Z" style="fill:#313840;"/><path d="M118.822,133.381c0-1.216,.197-2.362,.592-3.44,.394-1.076,.965-2.016,1.712-2.815,.747-.8,1.653-1.435,2.72-1.904,1.066-.469,2.283-.704,3.648-.704,.896,0,1.717,.08,2.464,.24,.746,.16,1.472,.39,2.176,.688l-.992,3.808c-.448-.171-.939-.32-1.472-.448-.534-.128-1.131-.191-1.792-.191-1.408,0-2.459,.438-3.152,1.312-.694,.875-1.04,2.027-1.04,3.456,0,1.515,.325,2.688,.976,3.52,.651,.832,1.787,1.248,3.408,1.248,.576,0,1.194-.053,1.856-.159,.661-.106,1.269-.277,1.824-.513l.672,3.904c-.555,.235-1.248,.438-2.08,.608-.832,.17-1.75,.256-2.752,.256-1.536,0-2.859-.229-3.968-.688-1.11-.458-2.022-1.082-2.736-1.872-.715-.789-1.237-1.723-1.568-2.8-.331-1.077-.496-2.245-.496-3.504Z" style="fill:#313840;"/><path d="M140.39,131.01c.469-.51,.954-1.039,1.455-1.591,.5-.552,.986-1.098,1.455-1.639,.469-.541,.911-1.055,1.327-1.543,.416-.487,.772-.911,1.071-1.272h5.669c-1.131,1.299-2.235,2.539-3.312,3.72-1.077,1.182-2.256,2.4-3.536,3.656,.64,.577,1.301,1.267,1.984,2.067,.683,.802,1.344,1.63,1.984,2.484,.64,.855,1.227,1.71,1.76,2.564s.981,1.635,1.344,2.34h-5.482c-.341-.556-.729-1.171-1.166-1.845-.437-.673-.899-1.347-1.39-2.021-.49-.673-1.006-1.32-1.549-1.94s-1.081-1.144-1.613-1.572v7.378h-4.768v-24.064l4.768-.768v14.045Z" style="fill:#313840;"/><path d="M8.424,176.389c.704,0,1.285-.059,1.744-.177,.458-.116,.827-.276,1.104-.479,.277-.202,.469-.442,.576-.72,.106-.277,.16-.587,.16-.929,0-.725-.341-1.328-1.024-1.808-.683-.48-1.856-.997-3.52-1.552-.726-.256-1.451-.55-2.176-.88-.726-.331-1.376-.747-1.952-1.248s-1.045-1.109-1.408-1.824-.544-1.584-.544-2.608,.192-1.946,.576-2.768c.384-.821,.928-1.521,1.632-2.097,.704-.575,1.557-1.018,2.56-1.327,1.002-.31,2.133-.465,3.392-.465,1.493,0,2.784,.16,3.872,.48s1.984,.672,2.688,1.056l-1.44,3.937c-.619-.32-1.307-.603-2.064-.849-.758-.244-1.67-.367-2.736-.367-1.195,0-2.053,.165-2.576,.496-.523,.33-.784,.837-.784,1.52,0,.405,.096,.747,.288,1.024s.464,.527,.816,.752c.352,.224,.757,.427,1.216,.607,.458,.182,.965,.368,1.52,.561,1.152,.427,2.155,.848,3.008,1.264,.853,.416,1.562,.901,2.128,1.456,.565,.555,.986,1.205,1.264,1.952,.277,.747,.416,1.653,.416,2.72,0,2.069-.726,3.675-2.176,4.816-1.451,1.142-3.638,1.712-6.56,1.712-.981,0-1.867-.06-2.656-.176-.79-.118-1.488-.262-2.096-.433-.608-.17-1.131-.352-1.568-.544-.438-.192-.806-.373-1.104-.544l1.408-3.968c.661,.363,1.477,.688,2.448,.976,.971,.288,2.16,.433,3.568,.433Z" style="fill:#313840;"/><path d="M36.423,171.748c0,1.323-.192,2.534-.576,3.632-.384,1.1-.939,2.038-1.664,2.816-.726,.779-1.595,1.382-2.608,1.808-1.014,.427-2.15,.641-3.408,.641-1.237,0-2.363-.214-3.376-.641-1.014-.426-1.883-1.028-2.608-1.808-.726-.778-1.291-1.717-1.696-2.816-.405-1.098-.608-2.309-.608-3.632s.208-2.527,.624-3.616c.416-1.088,.992-2.016,1.728-2.783,.736-.769,1.61-1.365,2.624-1.792,1.013-.427,2.117-.641,3.312-.641,1.216,0,2.331,.214,3.344,.641s1.883,1.023,2.608,1.792c.725,.768,1.291,1.695,1.696,2.783,.405,1.089,.608,2.294,.608,3.616Zm-4.864,0c0-1.472-.293-2.629-.88-3.472-.587-.843-1.424-1.264-2.512-1.264s-1.931,.421-2.528,1.264c-.598,.843-.896,2-.896,3.472s.298,2.641,.896,3.504c.597,.864,1.44,1.296,2.528,1.296s1.925-.432,2.512-1.296c.586-.863,.88-2.031,.88-3.504Z" style="fill:#313840;"/><path d="M47.399,155.364c.896,0,1.717,.091,2.464,.272,.747,.181,1.322,.357,1.728,.527l-.928,3.809c-.427-.192-.891-.336-1.392-.433-.501-.096-.966-.144-1.392-.144-.576,0-1.062,.08-1.456,.24-.395,.159-.704,.379-.928,.655-.224,.277-.384,.608-.48,.992-.096,.384-.144,.8-.144,1.248v.832h5.888v3.968h-5.888v12.864h-4.768v-17.728c0-2.177,.613-3.904,1.84-5.185,1.227-1.28,3.045-1.92,5.456-1.92Z" style="fill:#313840;"/><path d="M53.447,159.172l4.768-.768v4.96h5.728v3.968h-5.728v5.92c0,1.003,.176,1.804,.528,2.4,.352,.598,1.061,.896,2.128,.896,.512,0,1.04-.048,1.584-.144s1.04-.229,1.488-.4l.672,3.712c-.576,.235-1.216,.438-1.92,.608s-1.568,.256-2.592,.256c-1.301,0-2.379-.176-3.232-.527-.854-.353-1.536-.843-2.048-1.473-.512-.629-.87-1.392-1.072-2.288-.203-.896-.304-1.888-.304-2.976v-14.145Z" style="fill:#313840;"/><path d="M78.391,170.532c-.427,1.621-.88,3.232-1.36,4.832-.48,1.6-.987,3.211-1.52,4.832h-3.712c-.385-.896-.802-1.963-1.251-3.2-.449-1.236-.915-2.586-1.396-4.048-.481-1.461-.973-3.008-1.477-4.64-.503-1.632-.989-3.28-1.46-4.944h5.024c.171,.768,.359,1.605,.563,2.512,.204,.907,.418,1.84,.644,2.801,.226,.96,.462,1.925,.708,2.896s.499,1.904,.757,2.8c.277-.938,.549-1.898,.816-2.88,.267-.98,.522-1.946,.768-2.896,.245-.949,.48-1.867,.704-2.752,.224-.886,.421-1.713,.592-2.48h3.456c.17,.768,.362,1.595,.576,2.48,.213,.885,.437,1.803,.672,2.752,.234,.949,.48,1.915,.736,2.896,.256,.981,.522,1.941,.8,2.88,.257-.896,.515-1.829,.772-2.8,.257-.971,.499-1.936,.724-2.896,.225-.961,.439-1.894,.644-2.801,.204-.906,.392-1.744,.563-2.512h4.96c-.471,1.664-.958,3.312-1.46,4.944s-.995,3.179-1.476,4.64c-.481,1.462-.952,2.812-1.412,4.048-.46,1.237-.883,2.304-1.268,3.2h-3.712c-.534-1.621-1.056-3.232-1.568-4.832-.512-1.6-.981-3.211-1.408-4.832Z" style="fill:#313840;"/><path d="M98.951,162.916c1.408,0,2.581,.16,3.52,.48,.938,.319,1.69,.778,2.256,1.376,.565,.598,.965,1.323,1.2,2.176,.234,.854,.352,1.803,.352,2.848v9.92c-.683,.15-1.632,.326-2.848,.528-1.216,.203-2.688,.304-4.416,.304-1.088,0-2.075-.096-2.96-.287-.886-.192-1.648-.507-2.288-.944s-1.131-1.008-1.472-1.712-.512-1.568-.512-2.592c0-.981,.197-1.813,.592-2.496,.395-.683,.922-1.227,1.584-1.632,.661-.405,1.418-.699,2.272-.881,.853-.181,1.739-.271,2.656-.271,.618,0,1.168,.027,1.648,.08,.48,.054,.869,.123,1.168,.208v-.448c0-.811-.246-1.461-.736-1.952-.491-.49-1.344-.735-2.56-.735-.811,0-1.611,.059-2.4,.176-.79,.117-1.472,.283-2.048,.496l-.608-3.841c.277-.085,.624-.176,1.04-.271s.869-.181,1.36-.256c.491-.074,1.008-.139,1.552-.192,.544-.053,1.093-.08,1.648-.08Zm.384,13.952c.469,0,.917-.011,1.344-.032,.426-.021,.768-.053,1.024-.096v-3.616c-.192-.042-.48-.085-.864-.128-.384-.042-.736-.063-1.056-.063-.448,0-.87,.026-1.264,.08-.395,.053-.742,.154-1.04,.304-.299,.149-.533,.352-.704,.607-.171,.257-.256,.576-.256,.961,0,.746,.25,1.264,.752,1.552,.501,.288,1.189,.432,2.064,.432Z" style="fill:#313840;"/><path d="M120.742,167.588c-.427-.106-.928-.218-1.504-.336-.576-.116-1.195-.176-1.856-.176-.299,0-.656,.027-1.072,.08-.416,.054-.731,.112-.944,.176v12.864h-4.768v-15.936c.853-.299,1.861-.581,3.024-.849,1.162-.267,2.458-.399,3.888-.399,.256,0,.565,.016,.928,.048,.362,.032,.725,.075,1.088,.128,.362,.054,.725,.117,1.088,.191,.363,.075,.672,.166,.928,.272l-.8,3.936Z" style="fill:#313840;"/><path d="M122.982,171.908c0-1.493,.229-2.8,.688-3.92,.458-1.12,1.061-2.053,1.808-2.8,.747-.747,1.605-1.312,2.576-1.696,.97-.384,1.968-.576,2.992-.576,2.389,0,4.277,.731,5.664,2.192,1.387,1.461,2.08,3.611,2.08,6.448,0,.277-.011,.581-.032,.912-.021,.33-.043,.624-.064,.88h-10.816c.106,.981,.565,1.76,1.376,2.336,.811,.576,1.898,.863,3.264,.863,.875,0,1.733-.079,2.576-.239s1.531-.357,2.064-.593l.64,3.872c-.256,.128-.597,.257-1.024,.385s-.901,.239-1.424,.336c-.523,.096-1.083,.176-1.68,.239-.598,.064-1.195,.097-1.792,.097-1.515,0-2.832-.225-3.952-.672-1.12-.448-2.048-1.062-2.784-1.841-.736-.778-1.28-1.7-1.632-2.768-.352-1.066-.528-2.219-.528-3.456Zm11.2-1.824c-.021-.404-.091-.8-.208-1.184-.118-.384-.299-.726-.544-1.024-.246-.298-.555-.544-.928-.735-.374-.192-.837-.288-1.392-.288-.533,0-.992,.091-1.376,.271-.384,.182-.704,.422-.96,.721s-.454,.646-.592,1.04c-.139,.395-.24,.795-.304,1.199h6.304Z" style="fill:#313840;"/><path d="M150.473,180.196v-22.176h14.976v4.191h-9.984v4.353h8.864v4.096h-8.864v5.344h10.72v4.192h-15.712Z" style="fill:#313840;"/><path d="M169.544,163.94c.81-.234,1.856-.453,3.136-.656,1.28-.202,2.624-.304,4.032-.304,1.429,0,2.618,.187,3.568,.56,.949,.374,1.701,.901,2.256,1.584,.555,.684,.949,1.494,1.184,2.433,.234,.938,.352,1.983,.352,3.136v9.504h-4.768v-8.928c0-1.536-.203-2.624-.608-3.265-.406-.64-1.163-.96-2.272-.96-.342,0-.704,.017-1.088,.049-.384,.031-.726,.069-1.024,.111v12.992h-4.768v-16.256Z" style="fill:#313840;"/><path d="M202.919,178.084c0,2.752-.698,4.795-2.096,6.128s-3.558,2-6.48,2c-1.024,0-2.048-.091-3.072-.271-1.024-.182-1.974-.422-2.848-.72l.832-4c.747,.298,1.53,.532,2.352,.703,.821,.171,1.754,.257,2.8,.257,1.365,0,2.331-.3,2.896-.896,.565-.598,.848-1.365,.848-2.304v-.608c-.512,.235-1.04,.411-1.584,.528s-1.136,.176-1.776,.176c-2.326,0-4.107-.688-5.344-2.063s-1.856-3.302-1.856-5.776c0-1.237,.192-2.362,.576-3.376,.384-1.013,.944-1.883,1.68-2.608,.736-.725,1.637-1.284,2.704-1.68,1.066-.395,2.272-.592,3.616-.592,.576,0,1.168,.026,1.776,.08s1.21,.123,1.808,.208c.598,.085,1.168,.187,1.712,.304,.545,.117,1.029,.24,1.456,.368v14.144Zm-10.463-6.848c0,2.667,1.077,4,3.232,4,.49,0,.949-.064,1.376-.192,.426-.128,.789-.276,1.088-.447v-7.616c-.235-.043-.512-.08-.832-.112s-.693-.048-1.12-.048c-1.259,0-2.197,.416-2.816,1.248-.619,.832-.928,1.888-.928,3.168Z" style="fill:#313840;"/><path d="M212.616,158.5c0,.875-.283,1.563-.848,2.064-.565,.501-1.232,.752-2,.752s-1.436-.251-2-.752c-.565-.501-.849-1.189-.849-2.064s.283-1.562,.849-2.063c.564-.501,1.231-.752,2-.752s1.435,.251,2,.752c.564,.501,.848,1.189,.848,2.063Zm-.448,21.696h-4.768v-16.832h4.768v16.832Z" style="fill:#313840;"/><path d="M216.648,163.94c.811-.234,1.855-.453,3.136-.656,1.28-.202,2.624-.304,4.032-.304,1.429,0,2.618,.187,3.567,.56,.949,.374,1.701,.901,2.257,1.584,.554,.684,.948,1.494,1.184,2.433,.234,.938,.352,1.983,.352,3.136v9.504h-4.768v-8.928c0-1.536-.203-2.624-.608-3.265-.405-.64-1.163-.96-2.271-.96-.342,0-.704,.017-1.088,.049-.384,.031-.726,.069-1.024,.111v12.992h-4.768v-16.256Z" style="fill:#313840;"/><path d="M234.696,171.908c0-1.493,.229-2.8,.688-3.92s1.062-2.053,1.808-2.8c.747-.747,1.605-1.312,2.576-1.696s1.969-.576,2.992-.576c2.389,0,4.277,.731,5.664,2.192s2.08,3.611,2.08,6.448c0,.277-.011,.581-.032,.912-.021,.33-.043,.624-.063,.88h-10.816c.106,.981,.565,1.76,1.376,2.336s1.898,.863,3.264,.863c.875,0,1.733-.079,2.576-.239s1.53-.357,2.064-.593l.64,3.872c-.256,.128-.598,.257-1.023,.385-.428,.128-.902,.239-1.425,.336-.522,.096-1.083,.176-1.68,.239-.598,.064-1.195,.097-1.792,.097-1.515,0-2.832-.225-3.952-.672-1.12-.448-2.048-1.062-2.784-1.841-.735-.778-1.279-1.7-1.632-2.768-.352-1.066-.527-2.219-.527-3.456Zm11.199-1.824c-.021-.404-.091-.8-.208-1.184s-.299-.726-.544-1.024c-.245-.298-.555-.544-.928-.735-.373-.192-.838-.288-1.392-.288-.534,0-.992,.091-1.376,.271-.385,.182-.704,.422-.96,.721-.257,.299-.454,.646-.593,1.04s-.239,.795-.304,1.199h6.304Z" style="fill:#313840;"/><path d="M253.383,171.908c0-1.493,.229-2.8,.688-3.92s1.062-2.053,1.808-2.8c.747-.747,1.605-1.312,2.576-1.696s1.969-.576,2.992-.576c2.389,0,4.277,.731,5.664,2.192s2.08,3.611,2.08,6.448c0,.277-.011,.581-.032,.912-.021,.33-.043,.624-.063,.88h-10.816c.106,.981,.565,1.76,1.376,2.336s1.898,.863,3.264,.863c.875,0,1.733-.079,2.576-.239s1.53-.357,2.064-.593l.64,3.872c-.256,.128-.598,.257-1.023,.385-.428,.128-.902,.239-1.425,.336-.522,.096-1.083,.176-1.68,.239-.598,.064-1.195,.097-1.792,.097-1.515,0-2.832-.225-3.952-.672-1.12-.448-2.048-1.062-2.784-1.841-.735-.778-1.279-1.7-1.632-2.768-.352-1.066-.527-2.219-.527-3.456Zm11.199-1.824c-.021-.404-.091-.8-.208-1.184s-.299-.726-.544-1.024c-.245-.298-.555-.544-.928-.735-.373-.192-.838-.288-1.392-.288-.534,0-.992,.091-1.376,.271-.385,.182-.704,.422-.96,.721-.257,.299-.454,.646-.593,1.04s-.239,.795-.304,1.199h6.304Z" style="fill:#313840;"/><path d="M283.014,167.588c-.427-.106-.928-.218-1.504-.336-.576-.116-1.195-.176-1.855-.176-.3,0-.656,.027-1.072,.08-.416,.054-.731,.112-.944,.176v12.864h-4.768v-15.936c.853-.299,1.86-.581,3.023-.849,1.163-.267,2.459-.399,3.889-.399,.256,0,.564,.016,.928,.048,.362,.032,.725,.075,1.088,.128,.362,.054,.725,.117,1.088,.191,.362,.075,.672,.166,.928,.272l-.8,3.936Z" style="fill:#313840;"/></g><g id="e"><rect id="f" x="5.195" y="69.738" width="122.47" height="1" style="fill:#b43035;"/><path d="M5.512,63.179c.616,0,1.129,.069,1.54,.21,.411,.14,.74,.341,.987,.602,.248,.262,.422,.579,.525,.952,.103,.373,.154,.789,.154,1.246v4.34c-.299,.065-.714,.143-1.246,.231-.532,.088-1.176,.133-1.932,.133-.476,0-.908-.042-1.295-.126s-.721-.222-1.001-.413c-.28-.191-.495-.441-.644-.749-.149-.309-.224-.687-.224-1.134,0-.43,.086-.794,.259-1.093,.172-.298,.404-.536,.693-.714,.289-.177,.621-.306,.994-.385,.373-.079,.761-.119,1.162-.119,.271,0,.511,.012,.721,.035s.38,.054,.511,.091v-.196c0-.354-.107-.639-.322-.854s-.588-.322-1.12-.322c-.355,0-.705,.026-1.05,.077-.345,.052-.644,.124-.896,.217l-.266-1.68c.122-.037,.273-.077,.455-.119,.182-.042,.38-.079,.595-.112,.214-.032,.441-.061,.679-.084,.238-.022,.479-.034,.721-.034Zm.168,6.104c.205,0,.401-.005,.588-.014,.187-.01,.336-.023,.448-.042v-1.582c-.084-.019-.21-.037-.378-.057-.168-.019-.322-.027-.462-.027-.196,0-.381,.012-.553,.035-.173,.023-.324,.067-.455,.133s-.233,.153-.308,.266-.112,.252-.112,.42c0,.327,.109,.553,.329,.68,.219,.126,.52,.188,.903,.188Z" style="fill:#b43035;"/></g></g><g id="g"><g id="h"><path d="M8.872,21.964c3.328,0,5.877,.592,7.648,1.775,1.771,1.185,2.656,3.024,2.656,5.521,0,1.558-.357,2.821-1.072,3.792-.715,.971-1.744,1.733-3.088,2.288,.448,.555,.917,1.189,1.408,1.903,.491,.716,.976,1.462,1.456,2.24,.48,.779,.944,1.59,1.392,2.432,.448,.844,.864,1.67,1.248,2.48h-5.581c-.407-.725-.819-1.461-1.237-2.208-.417-.746-.846-1.472-1.285-2.176s-.873-1.371-1.301-2-.857-1.2-1.285-1.712h-2.464v8.096H2.376V22.54c1.088-.213,2.213-.362,3.376-.447,1.163-.085,2.203-.128,3.12-.128Zm.288,4.256c-.363,0-.688,.011-.976,.032-.288,.021-.56,.043-.816,.063v6.016h1.408c1.877,0,3.221-.234,4.032-.703,.811-.47,1.216-1.27,1.216-2.4,0-1.088-.411-1.861-1.232-2.32-.822-.458-2.032-.688-3.632-.688Z" style="fill:#313840;"/><path d="M28.616,22.7c0,.875-.283,1.563-.848,2.064-.565,.501-1.232,.752-2,.752s-1.435-.251-2-.752c-.565-.501-.848-1.189-.848-2.064s.283-1.562,.848-2.063c.565-.501,1.232-.752,2-.752s1.435,.251,2,.752c.565,.501,.848,1.189,.848,2.063Zm-.448,21.696h-4.768V27.564h4.768v16.832Z" style="fill:#313840;"/><path d="M31.847,35.98c0-1.216,.197-2.362,.592-3.44,.394-1.076,.965-2.016,1.712-2.815,.747-.8,1.653-1.435,2.72-1.904,1.066-.469,2.283-.704,3.648-.704,.896,0,1.717,.08,2.464,.24,.746,.16,1.472,.39,2.176,.688l-.992,3.808c-.448-.171-.939-.32-1.472-.448-.534-.128-1.131-.191-1.792-.191-1.408,0-2.459,.438-3.152,1.312-.694,.875-1.04,2.027-1.04,3.456,0,1.515,.325,2.688,.976,3.52,.651,.832,1.787,1.248,3.408,1.248,.576,0,1.194-.053,1.856-.159,.661-.106,1.269-.277,1.824-.513l.672,3.904c-.555,.235-1.248,.438-2.08,.608-.832,.17-1.75,.256-2.752,.256-1.536,0-2.859-.229-3.968-.688-1.11-.458-2.022-1.082-2.736-1.872-.715-.789-1.237-1.723-1.568-2.8-.331-1.077-.496-2.245-.496-3.504Z" style="fill:#313840;"/><path d="M48.647,44.396V20.332l4.768-.768v8.064c.32-.106,.73-.208,1.232-.305,.501-.096,.986-.144,1.456-.144,1.365,0,2.501,.187,3.408,.56,.907,.374,1.632,.901,2.176,1.584,.544,.684,.928,1.494,1.152,2.433,.224,.938,.336,1.983,.336,3.136v9.504h-4.768v-8.928c0-1.536-.197-2.624-.592-3.265-.395-.64-1.125-.96-2.192-.96-.427,0-.827,.038-1.2,.112-.374,.075-.709,.155-1.008,.24v12.8h-4.768Z" style="fill:#313840;"/><path d="M73.543,27.116c1.408,0,2.581,.16,3.52,.48,.938,.319,1.69,.778,2.256,1.376,.565,.598,.965,1.323,1.2,2.176,.234,.854,.352,1.803,.352,2.848v9.92c-.683,.15-1.632,.326-2.848,.528-1.216,.203-2.688,.304-4.416,.304-1.088,0-2.075-.096-2.96-.287-.886-.192-1.648-.507-2.288-.944s-1.131-1.008-1.472-1.712-.512-1.568-.512-2.592c0-.981,.197-1.813,.592-2.496,.395-.683,.922-1.227,1.584-1.632,.661-.405,1.418-.699,2.272-.881,.853-.181,1.739-.271,2.656-.271,.618,0,1.168,.027,1.648,.08,.48,.054,.869,.123,1.168,.208v-.448c0-.811-.246-1.461-.736-1.952-.491-.49-1.344-.735-2.56-.735-.811,0-1.611,.059-2.4,.176-.79,.117-1.472,.283-2.048,.496l-.608-3.841c.277-.085,.624-.176,1.04-.271s.869-.181,1.36-.256c.491-.074,1.008-.139,1.552-.192,.544-.053,1.093-.08,1.648-.08Zm.384,13.952c.469,0,.917-.011,1.344-.032,.426-.021,.768-.053,1.024-.096v-3.616c-.192-.042-.48-.085-.864-.128-.384-.042-.736-.063-1.056-.063-.448,0-.87,.026-1.264,.08-.395,.053-.742,.154-1.04,.304-.299,.149-.533,.352-.704,.607-.171,.257-.256,.576-.256,.961,0,.746,.25,1.264,.752,1.552,.501,.288,1.189,.432,2.064,.432Z" style="fill:#313840;"/><path d="M95.334,31.788c-.427-.106-.928-.218-1.504-.336-.576-.116-1.195-.176-1.856-.176-.299,0-.656,.027-1.072,.08-.416,.054-.731,.112-.944,.176v12.864h-4.768v-15.936c.853-.299,1.861-.581,3.024-.849,1.162-.267,2.458-.399,3.888-.399,.256,0,.565,.016,.928,.048,.362,.032,.725,.075,1.088,.128,.362,.054,.725,.117,1.088,.191,.363,.075,.672,.166,.928,.272l-.8,3.936Z" style="fill:#313840;"/><path d="M113.223,43.852c-.427,.128-.917,.251-1.472,.368-.555,.117-1.136,.219-1.744,.304s-1.227,.154-1.856,.208c-.629,.053-1.232,.08-1.808,.08-1.387,0-2.624-.203-3.712-.608-1.088-.404-2.005-.986-2.752-1.743-.747-.758-1.318-1.675-1.712-2.753-.395-1.076-.592-2.287-.592-3.632,0-1.364,.17-2.597,.512-3.695,.341-1.099,.832-2.032,1.472-2.801,.64-.768,1.424-1.354,2.352-1.76,.928-.405,1.989-.607,3.184-.607,.661,0,1.253,.063,1.776,.191,.522,.128,1.051,.31,1.584,.544v-7.616l4.768-.768v24.288Zm-10.784-8c0,1.472,.33,2.656,.992,3.552,.661,.896,1.643,1.344,2.944,1.344,.426,0,.821-.016,1.184-.048,.363-.031,.661-.068,.896-.111v-8.673c-.299-.191-.688-.352-1.168-.479s-.965-.192-1.456-.192c-2.261,0-3.392,1.536-3.392,4.608Z" style="fill:#313840;"/><path d="M138.775,44.396c-.449-.722-.979-1.502-1.589-2.34s-1.267-1.683-1.972-2.534c-.704-.851-1.441-1.667-2.211-2.448s-1.54-1.472-2.309-2.07v9.393h-4.992V22.22h4.992v8.334c1.284-1.348,2.588-2.758,3.912-4.229,1.324-1.472,2.547-2.84,3.668-4.104h5.924c-1.509,1.797-3.028,3.525-4.555,5.184-1.527,1.659-3.134,3.328-4.821,5.008,1.774,1.48,3.485,3.235,5.133,5.267s3.232,4.271,4.754,6.718h-5.935Z" style="fill:#313840;"/><rect x="147.27" y="27.564" width="4.768" height="16.832" style="fill:#313840;"/><path d="M156.518,28.14c.81-.234,1.856-.453,3.136-.656,1.28-.202,2.624-.304,4.032-.304,1.429,0,2.618,.187,3.568,.56,.949,.374,1.701,.901,2.256,1.584,.555,.684,.949,1.494,1.184,2.433,.234,.938,.352,1.983,.352,3.136v9.504h-4.768v-8.928c0-1.536-.203-2.624-.608-3.265-.406-.64-1.163-.96-2.272-.96-.342,0-.704,.017-1.088,.049-.384,.031-.726,.069-1.024,.111v12.992h-4.768V28.14Z" style="fill:#313840;"/><path d="M189.893,42.284c0,2.752-.699,4.795-2.096,6.128-1.397,1.333-3.558,2-6.48,2-1.024,0-2.048-.091-3.072-.271-1.024-.182-1.974-.422-2.848-.72l.832-4c.747,.298,1.53,.532,2.352,.703,.821,.171,1.754,.257,2.8,.257,1.365,0,2.331-.3,2.896-.896,.565-.598,.848-1.365,.848-2.304v-.608c-.512,.235-1.04,.411-1.584,.528s-1.136,.176-1.776,.176c-2.326,0-4.107-.688-5.344-2.063s-1.856-3.302-1.856-5.776c0-1.237,.192-2.362,.576-3.376,.384-1.013,.944-1.883,1.68-2.608,.736-.725,1.637-1.284,2.704-1.68,1.066-.395,2.272-.592,3.616-.592,.576,0,1.168,.026,1.776,.08s1.21,.123,1.808,.208c.597,.085,1.168,.187,1.712,.304s1.029,.24,1.456,.368v14.144Zm-10.464-6.848c0,2.667,1.077,4,3.232,4,.49,0,.949-.064,1.376-.192,.426-.128,.789-.276,1.088-.447v-7.616c-.235-.043-.512-.08-.832-.112s-.693-.048-1.12-.048c-1.259,0-2.197,.416-2.816,1.248-.619,.832-.928,1.888-.928,3.168Z" style="fill:#313840;"/></g><g id="i"><rect id="j" x="18.06" y="10.738" width="171.47" height="1" style="fill:#b43035;"/><g id="k"><path d="M2.37,2.036h2.184V11.738H2.37V2.036Z" style="fill:#b43035;"/><path d="M8.46,1c.019,.131,.032,.267,.042,.406,.009,.14,.014,.243,.014,.308,0,.626-.112,1.221-.336,1.785-.224,.565-.499,1.043-.826,1.436l-1.47-.336c.177-.401,.32-.854,.427-1.358,.107-.504,.161-.984,.161-1.442v-.118c0-.061-.002-.131-.007-.21-.005-.08-.009-.161-.014-.245s-.012-.159-.021-.225h2.03Z" style="fill:#b43035;"/><path d="M13.514,7.832c0-.672-.086-1.147-.259-1.428-.173-.28-.469-.42-.889-.42-.131,0-.266,.007-.406,.021-.14,.015-.275,.031-.406,.05v5.684h-2.086V4.626c.177-.046,.385-.096,.623-.146,.238-.052,.49-.099,.756-.141s.539-.074,.819-.098c.28-.023,.555-.035,.826-.035,.532,0,.964,.068,1.295,.203,.332,.136,.604,.297,.819,.483,.298-.215,.642-.383,1.029-.504s.744-.183,1.071-.183c.588,0,1.071,.082,1.449,.245s.679,.395,.903,.693c.224,.299,.378,.653,.462,1.063,.084,.411,.126,.868,.126,1.372v4.158h-2.086v-3.906c0-.672-.086-1.147-.259-1.428-.173-.28-.469-.42-.889-.42-.112,0-.268,.028-.469,.084s-.367,.126-.497,.21c.065,.215,.107,.441,.126,.679,.019,.238,.028,.492,.028,.764v4.018h-2.086v-3.906Z" style="fill:#b43035;"/></g></g><path d="M151.826,21.401l-.3,1.078h-.939l.283-1.096-1.215-1.5-1.215,1.5,.283,1.096h-.939l-.3-1.078-1.654-.901c.259,1.12,1.019,4.472,1.055,4.605h0l1.768,.321c.662,.12,1.34,.12,2.001,0l1.768-.321h0c.036-.134,.8-3.486,1.06-4.605l-1.654,.901Z" style="fill:#b43035;"/></g></g><g id="l"/><g id="m"/></svg>