<svg xmlns="http://www.w3.org/2000/svg" viewBox="0 0 300 460"><defs><linearGradient id="b" x1="156.16" x2="156.16" y1="139.61" y2="156.61" gradientTransform="translate(0 286.77)" gradientUnits="userSpaceOnUse"><stop offset="0" stop-color="#18bffb"/><stop offset="1" stop-color="#2072f3"/></linearGradient><linearGradient id="u" x1="50.6" x2="66.39" y1="-951.67" y2="-951.67" gradientTransform="matrix(1 0 0 -1 0 -598)" gradientUnits="userSpaceOnUse"><stop offset=".26" stop-color="#f97a12"/><stop offset=".46" stop-color="#b07b58"/><stop offset=".72" stop-color="#577bae"/><stop offset=".91" stop-color="#1e7ce5"/><stop offset="1" stop-color="#087cfa"/></linearGradient><linearGradient id="v" x1="62.72" x2="88.78" y1="-944.29" y2="-958.71" gradientTransform="matrix(1 0 0 -1 0 -598)" gradientUnits="userSpaceOnUse"><stop offset="0" stop-color="#f97a12"/><stop offset=".07" stop-color="#cb7a3e"/><stop offset=".15" stop-color="#9e7b6a"/><stop offset=".24" stop-color="#757b91"/><stop offset=".33" stop-color="#537bb1"/><stop offset=".43" stop-color="#387ccc"/><stop offset=".54" stop-color="#237ce0"/><stop offset=".66" stop-color="#147cef"/><stop offset=".79" stop-color="#0b7cf7"/><stop offset="1" stop-color="#087cfa"/></linearGradient><linearGradient id="w" x1="80.93" x2="73.67" y1="-953.04" y2="-931.36" gradientTransform="matrix(1 0 0 -1 0 -598)" gradientUnits="userSpaceOnUse"><stop offset="0" stop-color="#fe315d"/><stop offset=".08" stop-color="#cb417e"/><stop offset=".16" stop-color="#9e4e9b"/><stop offset=".25" stop-color="#755bb4"/><stop offset=".34" stop-color="#5365ca"/><stop offset=".44" stop-color="#386ddb"/><stop offset=".54" stop-color="#2374e9"/><stop offset=".66" stop-color="#1478f3"/><stop offset=".79" stop-color="#0b7bf8"/><stop offset="1" stop-color="#087cfa"/></linearGradient><linearGradient id="x" x1="55.41" x2="77.17" y1="-940.21" y2="-976.2" gradientTransform="matrix(1 0 0 -1 0 -598)" gradientUnits="userSpaceOnUse"><stop offset="0" stop-color="#fe315d"/><stop offset=".04" stop-color="#f63462"/><stop offset=".1" stop-color="#df3a71"/><stop offset=".17" stop-color="#c24383"/><stop offset=".29" stop-color="#ad4a91"/><stop offset=".55" stop-color="#755bb4"/><stop offset=".92" stop-color="#1d76ed"/><stop offset="1" stop-color="#087cfa"/></linearGradient><linearGradient id="aa" x1="18.99" x2="18.99" y1="-932.2" y2="-966.2" gradientTransform="matrix(1 0 0 -1 0 -598)" gradientUnits="userSpaceOnUse"><stop offset="0" stop-color="#fff"/><stop offset="1" stop-color="#fff" stop-opacity="0"/></linearGradient><style>.au{fill:#7e8a99}.av{fill:#b43035}.aw{fill:#659ad2}.ax,.ay{fill:#fff}.ay,.ba,.bb{fill-rule:evenodd}.bc{fill:#00acd7}.bd{fill:url(#u)}.be{fill:#f47421}.bf{fill:url(#v)}.bg{fill:#ff9a00}.bh{fill:#252f3e}.ba{fill:#f90}.bi{fill:#336791}.bj{fill:#ffca1d}.bk{fill:#390091}.bl{fill:#689f63}.bm{fill:#007acc}.bn{fill:#0065a9}.bo{fill:#004482}.bp{fill:#1d63ed}.bq{mask:url(#y)}.br{fill:#347ab4}.bs{fill:url(#b)}.bt{fill:#a179dc}.bu{fill:#4f5b93}.bv{fill:#b22630}.bw{fill:#3178ca}.bx{fill:#280068}.bb{fill:url(#aa)}.by{fill:#001e36}.ca{fill:url(#x)}.cb{fill:#5382a1}.cc{fill:url(#w)}.cd{fill:#087ea4}.ce{fill:#00599c}.cf{fill:#29abe2}.cg{fill:#300}.ch{opacity:.25}.ci{fill:#31a8ff}.cj{fill:#313840}.ck{fill:#f8981d}</style><mask id="y" width="34" height="34" x="2" y="334.2" maskUnits="userSpaceOnUse"><path id="a`" d="M26.12 368.05c.53.21 1.14.2 1.68-.07l7-3.38c.73-.36 1.2-1.1 1.2-1.93v-22.95c0-.82-.47-1.57-1.2-1.93l-7-3.38a2.1 2.1 0 0 0-2.41.41l-13.4 12.29-5.83-4.46a1.4 1.4 0 0 0-1.8.09l-1.88 1.7a1.43 1.43 0 0 0 0 2.11l5.06 4.65-5.06 4.64a1.43 1.43 0 0 0 0 2.1l1.87 1.72c.5.46 1.27.5 1.81.08l5.83-4.46 13.4 12.3c.21.2.46.37.73.47Zm1.39-24.61-10.16 7.76 10.16 7.75v-15.51Z" style="fill:#fff;fill-rule:evenodd"/></mask></defs><g id="a"><rect width="17" height="17" x="173.26" y="426.38" rx="1.99" ry="1.99" style="fill:#7e8a99"/><path d="m178.07 440.1 5.16-5.2-5.18-5.24-1.79 1.74 3.55 3.5-3.47 3.49 1.73 1.72Zm4.4-2.35v2.35h4.79v-2.35h-4.79Z" style="fill:#fff"/><path d="M189.06 421.02H174.5l-.22-.05a1.27 1.27 0 0 1-1.01-.94v-.24c.1-.2.17-.42.31-.6l5.3-6.94a.5.5 0 0 0 .1-.29v-3.29h-.96v-1.65h7.5v1.66h-.97v3.3c0 .09.05.19.1.26 1.43 1.88 2.88 3.75 4.3 5.63.47.63 1.07 1.2 1.32 1.92v.24c-.15.54-.53.88-1.2.99Zm-3.05-4.9-.11-.17-2.57-3.38a.48.48 0 0 1-.1-.27v-3.62h-2.93v3.59c0 .1-.05.23-.12.32l-2.56 3.37-.1.15c.45 0 .9-.05 1.3.02.83.14 1.65.32 2.45.54a6.4 6.4 0 0 0 4.74-.56Z" style="fill:#b22630"/><path d="M161.22 426.38H151.1a3.43 3.43 0 0 0-3.43 3.43v10.14c0 1.9 1.53 3.43 3.43 3.43h10.14c1.9 0 3.43-1.54 3.43-3.43V429.8c0-1.9-1.54-3.43-3.44-3.43Z" style="fill:url(#b)"/><path d="m156.09 430.29.34-.6a.77.77 0 1 1 1.34.77l-3.31 5.74h2.4c.77 0 1.2.92.87 1.55h-7.03a.77.77 0 1 1 0-1.55h1.97l2.52-4.37-.78-1.37a.78.78 0 0 1 1.34-.77l.34.6Zm-2.99 8.26-.74 1.29a.77.77 0 1 1-1.34-.77l.55-.96c.62-.2 1.13-.04 1.53.44Zm6.4-2.34h2.02c.43 0 .77.34.77.77s-.34.78-.77.78h-1.12l.76 1.3a.78.78 0 0 1-1.35.78l-2.86-4.95c-.64-1.12-.18-2.24.28-2.62l2.28 3.94Z" style="fill:#fff"/><path id="c" d="M148.76 407.02a.6.6 0 0 0-.3.1c-.35.25-.45.75-.27 1.18l1.37 3.26c-2.09 2.16-3.4 3.57-3.4 7.12v.63c0 .95.64 1.7 1.44 1.7h17.12c.8 0 1.44-.75 1.44-1.7v-.63c0-3.55-1.31-4.96-3.4-7.12l1.37-3.26c.18-.43.08-.93-.27-1.17a.6.6 0 0 0-.4-.11.78.78 0 0 0-.59.42l-1.6 2.84c-1.5-1.05-3.24-1.65-5.1-1.65s-3.62.6-5.11 1.65l-1.6-2.84a.79.79 0 0 0-.6-.42.6.6 0 0 0-.1 0Z" style="fill:#59d96b"/><g id="d" transform="translate(.52 -.7)"><path id="e" d="M152.28 417.81c-.62 0-1.12-.6-1.12-1.32s.5-1.33 1.12-1.33c.62 0 1.12.6 1.12 1.33s-.5 1.32-1.12 1.32Z" style="fill:#fff"/><path id="f" d="M160.04 417.81c-.62 0-1.12-.6-1.12-1.32s.5-1.33 1.12-1.33c.62 0 1.12.6 1.12 1.33 0 .73-.5 1.32-1.12 1.32Z" style="fill:#fff"/></g><path d="M125.64 429.88c0 1.13-.04 2.26.28 3.37a8.15 8.15 0 0 0 4.35 5.29c.2.1.28.22.28.43-.01.46 0 .92 0 1.37-.02.83-.61 1.48-1.41 1.5-.81.02-1.63.03-2.44-.04a5.25 5.25 0 0 1-4.6-5.05c-.03-2.62 0-5.24 0-7.86 0-.85.62-1.5 1.46-1.46.57.03 1.13.15 1.7.23.28.04.4.2.4.51-.03.57-.01 1.14-.01 1.71Z" style="fill:#336791"/><path d="M139.06 436.26c0 1.07.07 2.15-.01 3.21a4.28 4.28 0 0 1-4.17 3.9h-.77a1.5 1.5 0 0 1-1.5-1.54c-.02-.8-.01-1.62 0-2.43 0-.33.07-.38.4-.35.72.04 1.46.08 2.19.1.28 0 .55-.04.72-.3a.63.63 0 0 0-.44-.98 4.29 4.29 0 0 0-.76-.02 6.84 6.84 0 0 1-3.23-.57 6.65 6.65 0 0 1-4.07-5.7c-.14-1.56-.05-3.14-.05-4.7 0-.3.16-.5.44-.49 1.76.02 3.54-.08 5.28.11 3.2.36 5.8 3.28 5.97 6.57.05 1.06 0 2.13 0 3.2Zm-4.9-1.77c0 .54.43.98.95.97.52 0 .96-.46.95-.98a.95.95 0 0 0-.96-.96.93.93 0 0 0-.94.97Z" style="fill:#336791"/><path d="M125.79 413.11a2.24 2.24 0 0 0 .31 1.26.3.3 0 0 1 .05.18c0 .07-.04.15-.14.23l-.46.33a.34.34 0 0 1-.19.07c-.07 0-.14-.04-.22-.11a2.4 2.4 0 0 1-.26-.37 6.37 6.37 0 0 1-.23-.46 2.64 2.64 0 0 1-2.15 1.08c-.61 0-1.1-.19-1.46-.56a2.07 2.07 0 0 1-.54-1.5c0-.66.22-1.2.66-1.6a2.6 2.6 0 0 1 1.8-.6c.24 0 .5.01.77.05s.55.1.84.17v-.56c0-.6-.11-1-.34-1.25-.24-.24-.63-.36-1.2-.36-.25 0-.51.03-.78.1a5.6 5.6 0 0 0-1.05.37.4.4 0 0 1-.12.02c-.1 0-.15-.08-.15-.24v-.38c0-.13.01-.22.05-.27s.1-.11.2-.17c.26-.14.57-.26.93-.35.35-.1.73-.15 1.14-.15.87 0 1.5.21 1.91.63.4.42.61 1.06.61 1.92v2.52h.02Zm-2.98 1.19c.25 0 .5-.05.76-.14.26-.1.5-.27.7-.5.11-.15.2-.31.24-.5s.08-.41.08-.68v-.32a5.65 5.65 0 0 0-1.37-.18c-.49 0-.84.1-1.09.3-.24.22-.35.52-.35.9 0 .37.08.64.27.83.17.2.43.29.76.29Zm5.88.84c-.13 0-.22-.02-.28-.08-.06-.05-.1-.16-.15-.3l-1.72-6.02a1.44 1.44 0 0 1-.07-.31c0-.13.06-.2.18-.2h.72c.14 0 .23.02.28.08.06.05.1.16.15.3l1.23 5.16 1.14-5.16c.04-.15.08-.25.14-.3a.48.48 0 0 1 .29-.08h.59c.13 0 .23.02.29.08.06.05.1.16.14.3l1.15 5.22 1.27-5.22c.04-.15.1-.25.15-.3a.46.46 0 0 1 .28-.08h.68c.12 0 .18.06.18.2l-.01.12c0 .05-.02.11-.05.2l-1.77 6.02c-.04.15-.1.25-.15.3s-.15.08-.28.08h-.63c-.14 0-.23-.03-.29-.08s-.11-.16-.14-.31l-1.13-5.02-1.13 5.01c-.04.16-.08.26-.14.31-.06.06-.16.08-.3.08h-.62Zm9.4.2a4.59 4.59 0 0 1-1.97-.44.54.54 0 0 1-.22-.22.59.59 0 0 1-.05-.22v-.4c0-.16.06-.24.17-.24a.4.4 0 0 1 .13.03l.19.07a3.85 3.85 0 0 0 1.67.37c.46 0 .82-.09 1.07-.26a.85.85 0 0 0 .38-.74c0-.21-.07-.4-.2-.54a1.8 1.8 0 0 0-.74-.4l-1.06-.36a2.23 2.23 0 0 1-1.17-.8 1.94 1.94 0 0 1-.17-1.98 2.21 2.21 0 0 1 1.29-1.04 3.02 3.02 0 0 1 1.41-.1l.48.08a5.4 5.4 0 0 1 .72.26c.1.07.18.13.22.2.05.06.07.15.07.26v.36c0 .17-.06.25-.17.25a.73.73 0 0 1-.28-.1c-.41-.2-.88-.3-1.4-.3-.42 0-.75.07-.97.22s-.35.38-.35.7c0 .21.07.4.22.55.15.15.42.3.8.43l1.05.35c.52.17.9.42 1.13.74.23.32.34.69.34 1.1a2.07 2.07 0 0 1-.72 1.59c-.23.19-.5.33-.82.43-.33.1-.67.16-1.05.16Z" style="fill:#252f3e"/><path d="M139.48 419.13c-2.41 1.9-5.9 2.9-8.92 2.9-4.21 0-8-1.66-10.88-4.42-.22-.22-.02-.51.25-.34a20.94 20.94 0 0 0 10.9 3.08c2.66 0 5.6-.6 8.3-1.81.4-.2.74.28.35.6Z" style="fill:#f90;fill-rule:evenodd"/><path d="M140.48 417.92c-.3-.42-2.04-.2-2.82-.1-.23.03-.27-.2-.06-.35 1.38-1.03 3.64-.74 3.9-.4.27.36-.07 2.76-1.36 3.92-.2.17-.39.08-.3-.15.3-.77.95-2.5.64-2.92Z" style="fill:#f90;fill-rule:evenodd"/><path d="M110 425.07c0 8.23-6.74 14.97-15 15a15.06 15.06 0 0 1-15-15.02c.01-8.26 6.78-15 15.03-14.98a15.02 15.02 0 0 1 14.97 15Zm-19.76 3.52h9.51c.46-2.4.43-4.77-.06-7.16l-.18-.02H90.6c-.21 0-.27.08-.3.27-.3 1.4-.39 2.8-.31 4.23.04.9.17 1.78.26 2.68Zm-7.49-7.16a12.58 12.58 0 0 0-.05 7.16h5.28c-.08-1.2-.22-2.4-.22-3.59s.15-2.38.23-3.57h-5.24Zm19.31 7.18h4.86c.28 0 .4-.07.47-.35a13.6 13.6 0 0 0-.02-6.53c-.06-.25-.16-.33-.41-.32h-4.64l-.26.02c.08 1.22.22 2.4.22 3.58 0 1.2-.14 2.38-.22 3.6Zm-2.98 2.23h-8.17c.83 2.43 2.14 4.5 4.09 6.18a13.96 13.96 0 0 0 4.08-6.18Zm-.05-11.66a13.92 13.92 0 0 0-4.04-6.07 14.22 14.22 0 0 0-4.03 6.07h8.07Zm7.38 11.64h-4.61c-.29 0-.41.07-.5.35a16.68 16.68 0 0 1-3.48 6.15l-.19.26a12.83 12.83 0 0 0 8.78-6.76Zm-22.8 0a12.46 12.46 0 0 0 3.6 4.39c1.52 1.17 4.2 2.37 5.07 2.28-.39-.48-.79-.96-1.15-1.46a17.1 17.1 0 0 1-2.47-4.92c-.04-.11-.17-.27-.26-.27-1.58-.02-3.16-.02-4.8-.02Zm22.7-11.62c-1.24-3.02-5.9-6.54-8.67-6.58.39.48.8.95 1.17 1.45a16.88 16.88 0 0 1 2.45 4.8c.04.13.18.32.28.32 1.57.02 3.15.01 4.76.01Zm-22.73 0h4.61c.29 0 .42-.06.51-.35a17.2 17.2 0 0 1 2.79-5.25c.26-.33.54-.65.88-1.05a13.17 13.17 0 0 0-8.79 6.65Z" style="fill:#b43035"/><path d="M56.47 441.07a2.4 2.4 0 0 1-1.22-.33l-3.9-2.32c-.58-.33-.3-.44-.1-.5.77-.28.93-.34 1.76-.82.09-.05.2-.03.29.03l3 1.78c.1.06.25.06.35 0l11.67-6.77c.1-.06.17-.18.17-.31V418.3a.38.38 0 0 0-.18-.33l-11.66-6.76a.35.35 0 0 0-.35 0l-11.66 6.76a.38.38 0 0 0-.19.32v13.53c0 .13.07.26.18.32l3.2 1.85c1.73.87 2.8-.15 2.8-1.19v-13.35c0-.2.14-.34.33-.34h1.48c.18 0 .33.15.33.34v13.36c0 2.32-1.26 3.66-3.45 3.66-.67 0-1.2 0-2.69-.73l-3.06-1.78a2.48 2.48 0 0 1-1.22-2.14V418.3c0-.88.47-1.7 1.22-2.14l11.68-6.77a2.54 2.54 0 0 1 2.45 0l11.66 6.78a2.48 2.48 0 0 1 1.22 2.13v13.54c0 .87-.47 1.7-1.22 2.13l-11.66 6.77c-.38.22-.8.33-1.23.33" style="fill:#689f63"/><path d="M60.59 424.05c-3.62-.48-4-.73-4-1.58 0-.7.32-1.65 3-1.65 2.4 0 3.28.52 3.65 2.15.03.15.17.26.32.26h1.52a.34.34 0 0 0 .34-.37c-.24-2.8-2.09-4.1-5.82-4.1-3.33 0-5.31 1.4-5.31 3.77 0 2.57 1.97 3.28 5.17 3.6 3.81.37 4.11.93 4.11 1.69 0 1.3-1.04 1.87-3.5 1.87-3.09 0-3.76-.78-4-2.33a.34.34 0 0 0-.33-.28h-1.5a.34.34 0 0 0-.34.34c0 1.97 1.07 4.33 6.17 4.33l-.01.01c3.7 0 5.81-1.46 5.81-4.02 0-2.53-1.7-3.2-5.29-3.68Z" style="fill:#689f63"/><ellipse cx="17.94" cy="425.07" rx="2.84" ry="3" style="fill:#087ea4"/><path d="M33.88 425.07c0-2.35-2.62-4.4-6.7-5.63 1.03-4.35.66-7.76-1.27-8.94-1.62-.98-3.95-.28-6.58 1.98-.47.4-.93.83-1.4 1.3-.45-.47-.92-.9-1.38-1.3-2.63-2.26-4.97-2.96-6.58-1.98-1.93 1.18-2.3 4.6-1.28 8.94-4.07 1.23-6.69 3.28-6.69 5.63s2.62 4.4 6.7 5.64c-1.03 4.34-.66 7.76 1.27 8.94.47.28 1 .42 1.56.42 1.81 0 4.1-1.36 6.4-3.72 2.32 2.36 4.6 3.72 6.41 3.72a3 3 0 0 0 1.57-.42c1.93-1.18 2.3-4.6 1.27-8.94 4.08-1.23 6.7-3.28 6.7-5.64ZM20.2 413.61c1.6-1.36 3.02-2.08 4.08-2.08.35 0 .67.08.93.24 1.26.76 1.53 3.53.64 7.3-1.3-.31-2.73-.55-4.25-.7a34.65 34.65 0 0 0-2.7-3.54c.44-.44.87-.85 1.3-1.22Zm-8.8 13.18a44.09 44.09 0 0 0 1.86 3.4 28.97 28.97 0 0 1-2.86-.52c.27-.92.6-1.88 1-2.88Zm0-3.44c-.4-1-.72-1.95-1-2.87.9-.2 1.85-.38 2.86-.52a44.96 44.96 0 0 0-1.85 3.4Zm.74 1.72a42.23 42.23 0 0 1 2.9-5.3 36.95 36.95 0 0 1 5.8 0 42.05 42.05 0 0 1 2.9 5.3 41.72 41.72 0 0 1-2.9 5.3 36.94 36.94 0 0 1-5.8 0 41.77 41.77 0 0 1-2.9-5.3Zm11.44 3.44c.31-.57.61-1.15.89-1.72.4 1 .73 1.96 1 2.87-.89.22-1.84.4-2.86.53.33-.54.65-1.1.97-1.68Zm.89-5.15a42.82 42.82 0 0 0-1.86-3.4c1.02.14 1.97.31 2.86.52-.27.92-.6 1.88-1 2.87Zm-6.53-7.48c.63.72 1.25 1.51 1.85 2.36a39 39 0 0 0-3.7 0c.6-.84 1.22-1.63 1.85-2.36Zm-7.28-4.11c.27-.16.58-.24.93-.24 1.07 0 2.5.72 4.09 2.08.43.37.86.78 1.3 1.22a34.65 34.65 0 0 0-2.7 3.54 30.9 30.9 0 0 0-4.25.7c-.9-3.77-.62-6.54.63-7.3Zm-1.6 17.54c-3.54-1.07-5.67-2.7-5.67-4.24s2.13-3.16 5.67-4.23c.4 1.35.91 2.78 1.55 4.23a35.6 35.6 0 0 0-1.55 4.24Zm1.6 9.07c-1.25-.77-1.53-3.53-.63-7.3 1.3.3 2.73.55 4.24.7.88 1.3 1.79 2.49 2.7 3.52-2.65 2.7-5.05 3.84-6.3 3.08Zm7.28-4.13a29.9 29.9 0 0 1-1.86-2.34 38.95 38.95 0 0 0 3.71 0c-.61.86-1.24 1.64-1.85 2.34Zm7.27 4.13c-1.25.76-3.66-.37-6.3-3.08a34.1 34.1 0 0 0 2.7-3.52 30.9 30.9 0 0 0 4.24-.7c.9 3.77.62 6.53-.64 7.3Zm1.6-9.07a35.6 35.6 0 0 0-1.54-4.24 35.66 35.66 0 0 0 1.54-4.23c3.55 1.07 5.68 2.7 5.68 4.23s-2.13 3.17-5.68 4.24Z" style="fill:#087ea4"/><g id="g"><path id="h" d="M54.35 398.67h135.9v1H54.35z" style="fill:#b43035"/><path id="i" d="M2.07 395.98c0-.53.08-1.03.26-1.5a3.58 3.58 0 0 1 3.53-2.37 5.16 5.16 0 0 1 2.03.4l-.43 1.67a5 5 0 0 0-.65-.2c-.23-.06-.5-.08-.78-.08-.62 0-1.08.19-1.38.57-.3.38-.46.89-.46 1.51 0 .67.15 1.18.43 1.54.29.37.78.55 1.5.55a5.08 5.08 0 0 0 1.6-.3l.3 1.71a6.06 6.06 0 0 1-2.11.38c-.68 0-1.26-.1-1.74-.3a3.2 3.2 0 0 1-1.88-2.04 5.18 5.18 0 0 1-.22-1.54Zm11.79-1.83a15 15 0 0 0-.66-.15 4.09 4.09 0 0 0-1.7.04v5.63H9.42v-6.98c.37-.13.81-.25 1.32-.37a7.6 7.6 0 0 1 3.06-.01c.16.03.3.07.4.12l-.35 1.72Zm.97 1.89c0-.65.1-1.23.3-1.72a3.42 3.42 0 0 1 3.23-2.22c1.05 0 1.87.33 2.48.97.6.63.91 1.57.91 2.82a6.45 6.45 0 0 1-.04.78h-4.73c.04.43.25.77.6 1.02s.83.38 1.43.38a6.04 6.04 0 0 0 2.03-.37l.28 1.7a5.93 5.93 0 0 1-1.8.42c-.27.03-.53.04-.8.04-.65 0-1.23-.1-1.72-.3a3.19 3.19 0 0 1-1.93-2.02 4.8 4.8 0 0 1-.23-1.5Zm4.9-.8a2.2 2.2 0 0 0-.09-.52 1.2 1.2 0 0 0-.64-.77 1.32 1.32 0 0 0-.6-.12c-.24 0-.44.04-.61.12a1.25 1.25 0 0 0-.68.77c-.06.17-.1.34-.13.52h2.75ZM26 392.1c.62 0 1.14.07 1.55.22.4.14.74.34.98.6.25.26.42.58.53.95.1.37.15.79.15 1.25v4.34l-1.25.23c-.53.08-1.17.13-1.93.13-.47 0-.9-.04-1.3-.13-.38-.08-.71-.22-1-.4s-.49-.45-.64-.76a2.6 2.6 0 0 1-.22-1.13c0-.43.08-.8.26-1.1.17-.3.4-.53.69-.7.29-.19.62-.32 1-.4a5.6 5.6 0 0 1 2.39.01v-.2c0-.35-.1-.63-.32-.85s-.6-.32-1.12-.32a7.2 7.2 0 0 0-1.95.3l-.27-1.69a7.07 7.07 0 0 1 1.05-.23 13 13 0 0 1 1.4-.11Zm.17 6.11a12.23 12.23 0 0 0 1.04-.06v-1.58a4.11 4.11 0 0 0-1.4-.05c-.17.03-.32.07-.45.14s-.23.15-.3.26a.75.75 0 0 0-.12.42c0 .33.11.56.33.68.22.13.52.19.9.19Zm4.86-7.74 2.09-.34v2.17h2.5v1.74h-2.5v2.59c0 .43.08.79.23 1.05.15.26.46.39.93.39a3.99 3.99 0 0 0 1.34-.24l.3 1.63a4.88 4.88 0 0 1-3.39.15 2.2 2.2 0 0 1-1.37-1.65 5.9 5.9 0 0 1-.13-1.3v-6.2Zm8.57-.3c0 .39-.12.69-.37.9-.25.23-.54.34-.88.34s-.62-.11-.87-.33c-.25-.22-.37-.52-.37-.9s.12-.7.37-.9c.25-.23.54-.34.88-.34s.62.11.87.33c.25.22.37.52.37.9Zm-.2 9.5h-2.08v-7.37h2.09v7.37Zm1.97-7.12a11.6 11.6 0 0 1 3.13-.42c.63 0 1.15.09 1.56.25.42.16.75.4.99.7.24.29.41.64.52 1.05.1.42.15.87.15 1.38v4.15h-2.08v-3.9c0-.67-.1-1.15-.27-1.43-.18-.28-.51-.42-1-.42a5.75 5.75 0 0 0-.92.07v5.69h-2.08v-7.12Zm14.6 6.19c0 1.2-.31 2.1-.92 2.68s-1.56.88-2.84.88a7.73 7.73 0 0 1-2.59-.44l.37-1.75a6.23 6.23 0 0 0 2.25.42c.6 0 1.02-.13 1.27-.39s.37-.6.37-1v-.27a3.28 3.28 0 0 1-1.47.3c-1.02 0-1.8-.3-2.34-.9a3.65 3.65 0 0 1-.81-2.52c0-.54.08-1.04.25-1.48a3.16 3.16 0 0 1 1.92-1.88c.47-.17 1-.26 1.58-.26a9.03 9.03 0 0 1 1.57.13 11.47 11.47 0 0 1 1.39.3v6.18Zm-4.58-3c0 1.17.47 1.76 1.41 1.76a2.09 2.09 0 0 0 1.08-.28v-3.34a4.65 4.65 0 0 0-.85-.07c-.55 0-.96.19-1.23.55-.28.36-.41.82-.41 1.39Z" style="fill:#b43035"/></g><g id="j"><g id="k"><g id="l"><path id="m" d="M176.27 352.38h10.98a3.05 3.05 0 0 1 3 3.09v10.82c0 1.71-1.34 3.1-3 3.1h-10.98a3.05 3.05 0 0 1-3.01-3.1v-10.82c0-1.7 1.35-3.09 3.01-3.09Z" style="fill:#300"/></g></g><g id="n"><path id="o" d="M181.5 362.58h-2.64l-.54 1.7a.13.13 0 0 1-.13.1h-1.33c-.08 0-.1-.04-.08-.12l2.28-6.74.07-.24c.03-.15.04-.3.04-.47 0-.04.03-.07.06-.08h1.84c.05 0 .08.02.09.06l2.58 7.48c.02.08 0 .12-.07.12h-1.48c-.05 0-.1-.03-.11-.08l-.58-1.73Zm-2.23-1.48h1.8a19.27 19.27 0 0 1-.35-1.15l-.2-.66-.2-.65-.15-.57h-.02c-.06.32-.14.63-.24.94l-.32 1.08c-.1.37-.2.7-.32 1.01Zm6.02-3.13a.86.86 0 0 1-.63-.25.96.96 0 0 1-.24-.67.87.87 0 0 1 .88-.9c.28 0 .49.09.65.25.15.18.24.41.23.65 0 .25-.08.49-.25.67a.82.82 0 0 1-.64.25Zm-.8 6.31v-5.6c0-.07.03-.1.1-.1h1.4c.06 0 .1.04.1.1v5.6c0 .08-.04.12-.1.12h-1.39c-.07 0-.1-.05-.1-.12Z" style="fill:#ff9a00"/></g><g id="p"><g id="q"><path id="r" d="M151.12 352.38h10.98a3.05 3.05 0 0 1 3.01 3.09v10.82c0 1.71-1.34 3.1-3 3.1h-10.99a3.05 3.05 0 0 1-3-3.1v-10.82c0-1.7 1.34-3.09 3-3.09Z" style="fill:#001e36"/></g></g><g id="s"><path id="t" d="M151.94 364.3v-7.48c0-.05.02-.08.07-.08h.4c.17 0 .34 0 .53-.02l.62-.01h.64c.59 0 1.07.06 1.46.22a2.31 2.31 0 0 1 1.47 1.42 3 3 0 0 1-.26 2.49c-.28.4-.68.71-1.14.89-.48.18-1.02.24-1.6.24h-.35l-.3-.01v2.33c0 .05-.03.1-.08.1h-1.38c-.05 0-.08-.02-.08-.09Zm1.54-6.15v2.44l.28.01h.37c.28 0 .56-.04.82-.13.22-.06.42-.2.58-.38.15-.18.22-.43.22-.75 0-.23-.05-.45-.16-.65a1.03 1.03 0 0 0-.5-.41 2.16 2.16 0 0 0-.84-.15 9.99 9.99 0 0 0-.77.02Zm8.23 2a3.65 3.65 0 0 0-1.47-.34c-.14-.01-.3.01-.43.05a.37.37 0 0 0-.22.14c-.03.06-.05.13-.05.2s.02.13.07.19a.8.8 0 0 0 .24.2l.5.23c.38.13.75.31 1.1.53.23.16.42.36.55.6a1.83 1.83 0 0 1-.11 1.72c-.2.29-.47.52-.8.65-.34.15-.77.23-1.28.23a4.47 4.47 0 0 1-1.68-.33c-.05-.03-.09-.08-.08-.14v-1.26c0-.02 0-.05.03-.06.02-.02.04-.01.06 0a3 3 0 0 0 .88.36c.27.07.55.1.84.1.27 0 .46-.03.59-.1.1-.05.19-.17.19-.3 0-.1-.06-.2-.17-.3a3.6 3.6 0 0 0-.7-.33c-.36-.13-.7-.3-1-.52-.22-.16-.4-.38-.54-.62a1.74 1.74 0 0 1 .08-1.62c.17-.3.44-.53.74-.67a2.7 2.7 0 0 1 1.25-.25c.3 0 .6.02.88.06.22.03.42.09.61.17.03 0 .06.03.07.06l.02.09v1.18a.1.1 0 0 1-.04.08h-.13Z" style="fill:#31a8ff"/></g><circle cx="181.76" cy="340.37" r="7.5" style="fill:#f47421"/><path d="M180.54 337.7a2.93 2.93 0 0 1 4.13 2.39h1.43a4.34 4.34 0 0 0-1.3-2.83 1.4 1.4 0 0 1-1.88-1.09 4.33 4.33 0 0 0-3.1.3l.72 1.24Zm-.47 5.05a2.92 2.92 0 0 1 0-4.77l-.71-1.24a4.37 4.37 0 0 0-1.81 2.53 1.4 1.4 0 0 1 0 2.18 4.37 4.37 0 0 0 1.8 2.54l.72-1.24Zm3.53.81a1.4 1.4 0 0 1 1.2-.1 4.34 4.34 0 0 0 1.3-2.82h-1.43a2.93 2.93 0 0 1-4.13 2.38l-.72 1.24a4.33 4.33 0 0 0 3.1.3c.07-.4.3-.78.69-1Z" style="fill:#fff"/><circle cx="176.66" cy="340.37" r="1" style="fill:#fff"/><circle cx="184.31" cy="335.95" r="1" style="fill:#fff"/><circle cx="184.31" cy="344.78" r="1" style="fill:#fff"/><path d="M166.96 338.15c-.43-.3-1.42-.42-2.18-.26-.1-.77-.5-1.44-1.21-2.04l-.42-.3-.28.44a3.73 3.73 0 0 0-.47 2.15c.02.27.1.76.36 1.18a2.7 2.7 0 0 1-1.43.34h-12.9l-.03.16a7.21 7.21 0 0 0 1.33 5.04c1.1 1.4 2.75 2.12 4.9 2.12 4.68 0 8.14-2.32 9.76-6.55.64.02 2 0 2.71-1.45.02-.03.07-.12.19-.4l.07-.14-.4-.29Z" style="fill:#1d63ed"/><path d="M157.03 337.61h1.45v1.43h-1.45zm0-2.31h1.45v1.43h-1.45zm2.32 2.31h1.45v1.43h-1.45zm-2.32-4.63h1.45v1.43h-1.45zm-2.32 2.32h1.45v1.43h-1.45zm-4.63 2.31h1.45v1.43h-1.45zm2.32 0h1.45v1.43h-1.45zm2.31 0h1.45v1.43h-1.45zm-2.31-2.31h1.45v1.43h-1.45z" style="fill:#1d63ed"/></g><path d="M133.25 356.68a7.2 7.2 0 0 0-5.3-5.37c.03-.33.04-.66.04-.98 0-6.29-5.23-11.4-11.66-11.4-5.35 0-10 3.61-11.3 8.58a9.13 9.13 0 0 0-7.6 8.89c0 5 4.21 9.06 9.4 9.06h19.45a7.2 7.2 0 0 0 6.97-8.78Z" style="fill:#29abe2"/><path d="m58.81 360.72-8.21-6.51 4.08-7.58 11.71 4.57-7.58 9.52z" style="fill:url(#u)"/><path d="m84.21 343.28-.63 19.67-13.06 5.25-7.87-5.06 11.51-11.94-5.05-11.03 4.51-5.44 10.59 8.55z" style="fill:url(#v)"/><path d="m84.21 343.28-10.34 12.24-4.76-15.35 4.51-5.44 10.59 8.55z" style="fill:url(#w)"/><path d="m66.58 362.42-13.65 4.95 2.19-7.67 2.86-9.43-7.77-2.62 4.91-13.45 10.68 1.31 10.5 11.99-9.72 14.92z" style="fill:url(#x)"/><path d="M56.87 340.75h20.98v20.98H56.87z"/><path d="M58.81 357.8h7.87v1.31h-7.87zm5.68-12.72v-1.61h-4.37v1.61h1.26v5.48h-1.26v1.61h4.37v-1.61h-1.21v-5.48h1.21zm4.18 7.23a3.45 3.45 0 0 1-2.82-1.31l1.22-1.36c.24.3.48.49.72.63s.54.24.83.24c.34 0 .63-.1.87-.34.2-.24.3-.58.3-1.11v-5.59h1.94v5.68c0 .54-.05.98-.2 1.36a2.59 2.59 0 0 1-1.6 1.56c-.39.14-.77.24-1.26.24" style="fill:#fff"/><g style="mask:url(#y)"><path d="m34.8 337.8-7-3.4a2.1 2.1 0 0 0-2.42.42L2.46 355.84a1.43 1.43 0 0 0 0 2.1l1.88 1.72c.5.46 1.26.5 1.8.08l27.6-21.06A1.4 1.4 0 0 1 36 339.8v-.08c0-.82-.47-1.57-1.2-1.92Z" style="fill:#0065a9"/><path d="m34.8 364.6-7 3.38a2.1 2.1 0 0 1-2.42-.4L2.46 346.54a1.43 1.43 0 0 1 0-2.1l1.88-1.71a1.4 1.4 0 0 1 1.8-.09l27.6 21.06a1.4 1.4 0 0 0 2.26-1.12v.08c0 .82-.47 1.57-1.2 1.92Z" style="fill:#007acc"/><path d="M27.8 367.99a2.1 2.1 0 0 1-2.42-.42c.79.79 2.13.23 2.13-.88V335.7a1.24 1.24 0 0 0-2.13-.88 2.1 2.1 0 0 1 2.42-.41l7 3.38c.73.36 1.2 1.1 1.2 1.93v22.95c0 .83-.47 1.57-1.2 1.93l-7 3.39Z" style="fill:#1f9cf0"/><g style="opacity:.25"><path d="M26.1 368.05c.53.21 1.14.2 1.68-.07l7-3.38c.73-.36 1.2-1.1 1.2-1.93v-22.95c0-.82-.47-1.57-1.2-1.93l-7-3.38a2.1 2.1 0 0 0-2.41.41l-13.4 12.29-5.83-4.46a1.4 1.4 0 0 0-1.8.09l-1.88 1.7a1.43 1.43 0 0 0 0 2.11l5.06 4.65-5.06 4.64a1.43 1.43 0 0 0 0 2.1l1.87 1.72c.5.46 1.27.5 1.81.08l5.83-4.46 13.4 12.3c.2.2.46.37.72.47Zm1.39-24.61-10.16 7.76 10.16 7.75v-15.51Z" style="fill:url(#aa);fill-rule:evenodd"/></g></g><g id="ab"><path id="ac" d="M34.35 324.67h155.9v1H34.35z" style="fill:#b43035"/><path id="ad" d="M8.43 325.42a11.6 11.6 0 0 1-3.13.42 4.2 4.2 0 0 1-1.56-.25 2.3 2.3 0 0 1-.99-.71c-.24-.3-.42-.67-.52-1.09s-.15-.88-.15-1.38v-4.1h2.08v3.85c0 .67.1 1.15.27 1.45.18.3.5.45 1 .45a5.75 5.75 0 0 0 .92-.07v-5.69h2.08v7.12Zm4.07-1.25c.4 0 .66-.03.82-.11.16-.07.24-.22.24-.43 0-.17-.1-.32-.31-.45-.2-.12-.52-.26-.94-.42-.32-.12-.62-.25-.89-.38s-.49-.29-.68-.47c-.18-.18-.33-.4-.43-.65s-.15-.56-.15-.91c0-.69.25-1.24.77-1.64s1.21-.6 2.11-.6a6.81 6.81 0 0 1 2.27.38l-.37 1.62c-.24-.08-.5-.16-.79-.22-.28-.07-.6-.1-.96-.1-.65 0-.98.18-.98.54a.48.48 0 0 0 .21.41 6.7 6.7 0 0 0 .9.43c.46.18.84.34 1.13.5.3.17.54.35.71.54.17.2.3.4.36.64.07.23.11.5.11.8 0 .73-.27 1.28-.82 1.66-.55.37-1.32.56-2.32.56a6.71 6.71 0 0 1-2.53-.45l.35-1.7a6.7 6.7 0 0 0 2.2.45Zm6.97-7.99c0 .38-.13.68-.37.9-.25.22-.54.33-.88.33s-.63-.1-.87-.33c-.25-.22-.38-.52-.38-.9s.13-.69.38-.9c.24-.22.53-.33.87-.33s.63.1.88.33c.24.22.37.52.37.9Zm-.2 9.49h-2.09v-7.36h2.09v7.36Zm1.96-7.11a11.6 11.6 0 0 1 3.14-.42c.62 0 1.14.08 1.56.24a2.4 2.4 0 0 1 1.5 1.76c.1.41.16.87.16 1.37v4.16H25.5v-3.9c0-.68-.09-1.15-.27-1.43-.17-.28-.5-.42-.99-.42a5.75 5.75 0 0 0-.92.07v5.68h-2.09v-7.11Zm14.6 6.19c0 1.2-.3 2.1-.92 2.68s-1.55.87-2.83.87a7.73 7.73 0 0 1-2.6-.43l.37-1.75a6.23 6.23 0 0 0 2.26.42c.6 0 1.02-.13 1.26-.4.25-.25.38-.59.38-1v-.27a3.28 3.28 0 0 1-1.47.31c-1.02 0-1.8-.3-2.34-.9a3.65 3.65 0 0 1-.81-2.53c0-.54.08-1.03.25-1.48a3.16 3.16 0 0 1 1.92-1.87c.46-.17.99-.26 1.58-.26a9.03 9.03 0 0 1 1.56.12 11.47 11.47 0 0 1 1.4.3v6.19Zm-4.58-3c0 1.17.47 1.75 1.42 1.75a2.09 2.09 0 0 0 1.08-.28v-3.33a4.65 4.65 0 0 0-.86-.07c-.55 0-.96.18-1.23.55-.27.36-.4.82-.4 1.38Z" style="fill:#b43035"/></g><g id="ae"><path d="M190.11 277.31c0-.34-.07-.63-.22-.89a1.71 1.71 0 0 0-.65-.62l-7.19-4.1a1.78 1.78 0 0 0-1.91.02l-7.15 4.07c-.59.34-.88.85-.88 1.52v8.24c0 .33.07.62.21.87.15.26.37.48.67.65l7.15 4.07c.64.38 1.27.39 1.91.02l7.2-4.1c.3-.16.51-.38.65-.64.14-.25.21-.54.21-.87v-8.24" style="fill:#a179dc"/><path d="m181.14 281.4-8.82 5.02c.15.26.37.48.66.65l7.16 4.07c.64.38 1.26.39 1.91.02l7.2-4.1c.29-.16.5-.38.65-.64l-8.76-5.02" style="fill:#280068"/><path d="M190.11 277.31c0-.34-.07-.63-.22-.89l-8.75 4.98 8.76 5.02c.14-.25.21-.54.21-.87v-8.24" style="fill:#390091"/><path d="M186.33 279.53v.94h.95v-.94h.47v.94h.95v.46h-.95v.94h.95v.47h-.95v.94h-.47v-.94h-.95v.94h-.47v-.94h-.95v-.47h.95v-.94h-.95v-.47h.95v-.93h.47Zm.95 1.4h-.95v.94h.95v-.94Z" style="fill:#fff"/><path d="M181.16 274.82a6.7 6.7 0 0 1 5.8 3.3l-.02-.02-2.91 1.66a3.34 3.34 0 0 0-2.83-1.62h-.04a3.31 3.31 0 0 0-3.33 3.29 3.34 3.34 0 0 0 6.23 1.62l-.01.02 2.9 1.66a6.7 6.7 0 0 1-5.72 3.31h-.07a6.7 6.7 0 0 1-5.8-3.32 6.52 6.52 0 0 1-.9-3.29c0-3.65 3-6.61 6.7-6.61Z" style="fill:#fff"/><path d="M165.88 286.43c.14-.24.23-.51.23-.76v-8.48c0-.25-.09-.52-.23-.76l-8.77 5 8.77 5Z" style="fill:#00599c"/><path d="m157.9 291.25 7.43-4.24c.22-.13.41-.34.55-.58l-8.77-5-8.77 5c.14.24.34.45.55.57l7.44 4.25c.43.24 1.13.24 1.56 0Z" style="fill:#004482"/><path d="M165.88 276.43a1.58 1.58 0 0 0-.55-.57l-7.44-4.25a1.75 1.75 0 0 0-1.56 0l-7.44 4.24a1.7 1.7 0 0 0-.78 1.34v8.48c0 .25.1.52.23.76l8.77-5 8.77-5Z" style="fill:#659ad2"/><path d="M157.11 287.36c-3.3 0-6-2.66-6-5.93s2.7-5.92 6-5.92a6.04 6.04 0 0 1 5.2 2.96l-2.6 1.48a3.02 3.02 0 0 0-2.6-1.48c-1.65 0-3 1.33-3 2.96s1.35 2.96 3 2.96c1.07 0 2.07-.57 2.6-1.48l2.6 1.48a6.04 6.04 0 0 1-5.2 2.96Z" style="fill:#fff"/><path d="M163.11 281.1h-.66v-.66h-.67v.66h-.67v.66h.67v.66h.67v-.66h.66v-.66zm2.5 0h-.66v-.66h-.67v.66h-.67v.66h.67v.66h.67v-.66h.66v-.66z" style="fill:#fff"/><ellipse cx="181.11" cy="261.12" rx="10.67" ry="6" style="fill:#4f5b93"/><path d="M178.8 259.06c-.32-.4-.84-.6-1.54-.6h-2.36l-1.1 6.02h1.23l.3-1.6h1.04c.47 0 .85-.05 1.15-.16.3-.1.57-.27.81-.52a2.69 2.69 0 0 0 .77-1.47c.13-.72.03-1.27-.3-1.67Zm-.97 1.58c-.08.46-.24.8-.49 1-.24.2-.6.3-1.1.3h-.74l.45-2.52h.84c.47 0 .78.09.93.27.16.19.2.5.11.95Zm2.41 2.24.62-3.44h.97c.32 0 .52.05.61.16.1.11.12.32.07.62l-.49 2.66h1.24l.5-2.8c.1-.57.03-.98-.23-1.23-.26-.26-.72-.38-1.4-.38h-1.09l.3-1.6h-1.22l-1.1 6.01h1.22Zm6.58-4.41h-2.36l-1.1 6h1.23l.3-1.59h1.04c.47 0 .85-.05 1.15-.16.3-.1.57-.27.81-.52a2.69 2.69 0 0 0 .77-1.47c.13-.72.03-1.27-.3-1.67-.32-.4-.83-.6-1.54-.6Zm.58 2.17c-.09.46-.25.8-.5 1-.24.2-.6.3-1.1.3h-.74l.45-2.53h.84c.47 0 .78.1.93.28.16.18.2.5.11.95Z" style="fill:#fff"/><path d="M176.8 259.66h-.66l-.36 2.02h.46c.44 0 .77-.08.96-.24.2-.16.33-.45.4-.85.07-.36.05-.61-.05-.73-.06-.08-.24-.2-.76-.2Zm9.55 0h-.64l-.37 2.02h.46c.44 0 .77-.08.96-.24.2-.16.33-.45.4-.85.07-.36.05-.61-.05-.73-.06-.08-.24-.2-.76-.2Z" style="fill:#4f5b93"/><path d="M188.54 258.9c-.37-.45-.95-.68-1.72-.68h-2.36c-.1 0-.2.08-.22.2l-.21 1.12a1.27 1.27 0 0 0-.34-.88c-.3-.3-.82-.44-1.57-.44h-.8l.24-1.3a.26.26 0 0 0-.05-.21.23.23 0 0 0-.18-.09h-1.22c-.1 0-.2.08-.22.2l-.54 2.95a1.79 1.79 0 0 0-.37-.87c-.37-.45-.95-.68-1.72-.68h-2.36c-.11 0-.2.08-.23.2l-1.09 6.01c-.01.07 0 .15.05.2.04.06.1.1.18.1h1.22c.11 0 .2-.09.23-.2l.25-1.4h.86c.49 0 .9-.06 1.22-.17.32-.11.63-.3.9-.58.2-.2.37-.43.51-.68l-.2 1.13c-.02.08 0 .15.04.2.05.07.11.1.18.1h1.22c.1 0 .2-.09.22-.2l.6-3.25h.78c.36 0 .43.09.44.1.02.02.05.13 0 .4l-.49 2.65c0 .08.01.15.05.2.05.07.11.1.18.1h1.24c.05 0 .1-.02.13-.05l-.25 1.35c-.01.08 0 .15.05.2.05.06.11.1.18.1h1.23c.1 0 .2-.09.22-.2l.26-1.4h.85c.49 0 .9-.06 1.22-.17.33-.11.63-.3.9-.58a2.9 2.9 0 0 0 .84-1.6c.14-.79.03-1.42-.35-1.88Zm-6.03 1.32c.05-.3.03-.5-.06-.62-.1-.1-.3-.16-.61-.16h-.98l-.62 3.44h-1.22l1.1-6.01h1.21l-.29 1.6h1.08c.68 0 1.15.12 1.41.38.26.25.34.66.24 1.23l-.51 2.8h-1.24l.49-2.66Zm-6.14 2.66h-1.05l-.29 1.6h-1.22l1.1-6.01h2.35c.7 0 1.22.2 1.55.6.32.4.42.95.29 1.66a2.8 2.8 0 0 1-.77 1.47c-.24.25-.52.42-.81.53-.3.1-.68.15-1.15.15Zm12.3-2.15a2.8 2.8 0 0 1-.78 1.47c-.24.25-.51.42-.81.52-.3.1-.68.16-1.15.16h-1.05l-.29 1.6h-1.22l1.1-6.01h2.35c.7 0 1.22.2 1.55.6.32.4.42.95.29 1.66Z" style="fill:#4f5b93"/><path d="M141.1 258.6c-.06 0-.08-.04-.05-.08l.31-.43c.03-.04.1-.07.16-.07h5.22c.05 0 .07.04.04.09l-.25.4c-.03.05-.1.1-.14.1l-5.3-.02Zm-2.2 1.43c-.07 0-.08-.03-.05-.07l.3-.43c.03-.04.1-.07.16-.07h6.67c.05 0 .08.04.07.09l-.12.37c-.01.07-.07.1-.13.1l-6.9.01Zm3.53 1.44c-.06 0-.08-.05-.05-.1l.2-.38c.03-.05.1-.1.15-.1h2.92c.06 0 .1.05.1.11l-.04.38c0 .06-.06.1-.1.1l-3.18-.01Z" style="fill:#00acd7"/><g id="af"><path d="M157.59 258.31c-.92.25-1.55.44-2.46.7-.22.05-.23.07-.42-.17a1.98 1.98 0 0 0-.69-.59c-.92-.48-1.8-.34-2.64.24a3.4 3.4 0 0 0-1.5 2.97c.02 1.25.83 2.28 1.98 2.45a2.6 2.6 0 0 0 2.48-1.03c.13-.17.25-.36.4-.58h-2.82c-.3 0-.38-.2-.28-.47.19-.48.54-1.3.74-1.7.05-.1.15-.25.37-.25h5.32c-.03.42-.03.84-.1 1.26a6.93 6.93 0 0 1-1.19 3.07 6.03 6.03 0 0 1-4.16 2.66 5 5 0 0 1-5.78-4.5 6.45 6.45 0 0 1 1.24-4.59 6.44 6.44 0 0 1 4.09-2.7 4.76 4.76 0 0 1 5.56 2.97c.09.14.03.22-.14.26Z" style="fill:#00acd7"/><path d="M162.42 266.96a5.26 5.26 0 0 1-3.56-1.37 5 5 0 0 1-1.58-3.02 6.28 6.28 0 0 1 1.18-4.73 6.07 6.07 0 0 1 4.1-2.6 5.12 5.12 0 0 1 4.16.79 4.91 4.91 0 0 1 2.06 3.49 6.3 6.3 0 0 1-1.68 5.3 6.57 6.57 0 0 1-3.51 2c-.4.08-.79.1-1.17.14Zm3.48-6.32c-.02-.2-.02-.36-.05-.51-.26-1.55-1.59-2.43-2.98-2.08-1.35.33-2.23 1.25-2.55 2.72a2.63 2.63 0 0 0 1.34 2.95c.8.38 1.6.33 2.38-.09a3.44 3.44 0 0 0 1.86-2.99Z" style="fill:#00acd7"/></g></g><path d="M121.51 277.64c.91-.52 2.17-.98 2.17-.98s-3.59.55-7.16.8c-4.36.3-9.06.37-11.41.1-5.57-.62 3.06-2.35 3.06-2.35s-3.35-.19-7.47 1.48c-4.87 1.99 12.05 2.9 20.81.95Z" style="fill:#5382a1"/><path d="M113.6 275.13c-1.77-3.33-7.71-6.26 0-11.39 9.61-6.39 4.68-10.54 4.68-10.54 2 6.6-7.01 8.6-10.27 12.7-2.21 2.8 1.09 5.81 5.58 9.23Z" style="fill:#f8981d"/><path d="M124.22 261.37c.01 0-16.24 3.42-8.48 10.95 2.29 2.22-.6 4.22-.6 4.22s5.8-2.53 3.14-5.7c-2.5-2.95-4.4-4.42 5.94-9.47Z" style="fill:#f8981d"/><path d="M123.66 282.5c-.05.1-.19.2-.19.2 11.9-2.63 7.52-9.29 1.84-7.6-.5.15-.76.5-.76.5s.31-.12 1.02-.24c2.87-.5 7 3.24-1.91 7.14Zm4.37 4.87s1.35.93-1.47 1.65c-5.37 1.37-22.33 1.78-27.04.06-1.7-.62 1.48-1.49 2.48-1.67 1.04-.18 1.64-.15 1.64-.15-1.88-1.12-12.17 2.2-5.23 3.14 18.94 2.6 34.54-1.16 29.62-3.03Z" style="fill:#5382a1"/><path d="M107.3 284.13c-7.3 1.72 4.44 5.27 13.73 1.92-1.52-.5-2.61-1.08-2.61-1.08-4.15.66-6.07.71-9.83.35-3.1-.3-1.3-1.19-1.3-1.19Zm16.67 7.6a83.25 83.25 0 0 1-21.63.28c0-.01 1.1.76 6.71 1.06 8.55.46 21.68-.26 21.99-3.66 0 0-.6 1.28-7.07 2.32Zm-4.04-10.96c-5.5.9-8.67.87-12.69.52-3.1-.27-1.07-1.54-1.07-1.54-8.05 2.25 4.47 4.8 15.71 2.02-1.2-.35-1.95-1-1.95-1Z" style="fill:#5382a1"/><path d="M83.63 269.52c-.6-2.4-1.74-4.2-4.17-4.2h-3.12v3.67a5.33 5.33 0 0 1-5.21 5.26H62.8a4.24 4.24 0 0 0-4.16 4.21v7.9c0 2.25 1.96 3.56 4.16 4.2 2.64.78 5.17.91 8.33 0 2.1-.6 4.16-1.81 4.16-4.2v-1.66h-8.32v-2.55h12.5c2.42 0 3.32-1.69 4.16-4.2.87-2.6.83-5.1 0-8.43Zm-12.7 16.74a1.51 1.51 0 0 1 0 3.03 1.51 1.51 0 0 1 0-3.03Z" style="fill:#ffca1d"/><path d="M69.68 255.53a25.85 25.85 0 0 0-8.33 0c-3.52.63-4.16 1.92-4.16 4.32v1.69h8.34v2.52H54.06a5.2 5.2 0 0 0-5.2 4.2c-.77 3.16-.8 5.13 0 8.42.59 2.46 2 4.2 4.42 4.2h2.87v-3.78a5.28 5.28 0 0 1 5.2-5.15h8.33c2.32 0 4.17-1.9 4.17-4.2v-7.9c0-2.26-1.9-3.94-4.17-4.32Zm-8.85 4.55a1.51 1.51 0 0 1 0-3.03c.82 0 1.5.68 1.5 1.52a1.5 1.5 0 0 1-1.5 1.5Z" style="fill:#347ab4"/><path d="M32.68 256.2H5.32A3.32 3.32 0 0 0 2 259.52v27.36a3.32 3.32 0 0 0 3.32 3.32h27.36a3.32 3.32 0 0 0 3.32-3.32v-27.36a3.32 3.32 0 0 0-3.32-3.32Zm-10.96 18.86h-4.26v12.15h-3.38v-12.15H9.84v-2.73h11.88v2.73Zm11.02 10a4.6 4.6 0 0 1-3.17 2.12c-1.5.32-3.1.3-4.6.02a7.05 7.05 0 0 1-1.92-.62v-3.33a6.4 6.4 0 0 0 4.1 1.52c.64 0 1.35-.08 1.9-.43.38-.24.63-.62.63-1.08 0-.62-.45-1.08-.93-1.4-.71-.48-1.52-.8-2.3-1.12a6.52 6.52 0 0 1-2.6-1.78 4.24 4.24 0 0 1-.4-4.53 4.77 4.77 0 0 1 3.14-2.17 11.3 11.3 0 0 1 5.97.31v3.1a6.76 6.76 0 0 0-2.65-.98 5.69 5.69 0 0 0-1.93.06c-.49.11-1 .34-1.29.78-.11.18-.17.39-.17.62 0 .25.06.47.2.67.33.5.91.82 1.44 1.08.92.45 1.9.8 2.78 1.32.86.5 1.62 1.21 2 2.16.18.45.27.98.27 1.58 0 .83-.16 1.53-.47 2.1Z" style="fill:#3178ca"/><g id="ag"><path id="ah" d="M28.35 246.67h161.9v1H28.35z" style="fill:#b43035"/><path id="ai" d="M7.33 243.44a65.36 65.36 0 0 1-1.26 4.23H4.44a61.45 61.45 0 0 1-1.8-5.2A97.5 97.5 0 0 1 2 240.3h2.2l.24 1.1.29 1.22a44.47 44.47 0 0 0 .64 2.5 58.87 58.87 0 0 0 .69-2.53l.3-1.2c.1-.4.2-.76.27-1.1h1.5l.26 1.1.3 1.2a132.01 132.01 0 0 0 .67 2.52 71.47 71.47 0 0 0 .93-3.71l.25-1.1h2.17a95.93 95.93 0 0 1-1.9 5.96c-.2.54-.39 1-.56 1.4H8.63c-.24-.7-.46-1.41-.69-2.11-.22-.7-.43-1.4-.61-2.12Zm8.77-5.26c0 .38-.13.68-.37.9-.25.22-.54.33-.88.33s-.62-.1-.87-.33c-.25-.22-.37-.52-.37-.9s.12-.69.37-.9c.24-.22.54-.33.87-.33s.63.1.88.33c.24.22.37.52.37.9Zm-.2 9.49h-2.08v-7.36h2.08v7.36Zm1.9-9.2 2.08-.33v2.17h2.5v1.73h-2.5v2.6c0 .43.08.78.23 1.04.15.26.46.4.93.4a3.99 3.99 0 0 0 1.34-.24l.3 1.62a4.88 4.88 0 0 1-3.39.15 2.2 2.2 0 0 1-1.37-1.65 5.78 5.78 0 0 1-.13-1.3v-6.19Zm6.28 9.2v-10.53l2.08-.33v3.52a4.32 4.32 0 0 1 1.18-.2c.6 0 1.1.09 1.49.25s.71.4.95.7.4.65.5 1.06c.1.41.15.87.15 1.37v4.16h-2.08v-3.9c0-.68-.09-1.15-.26-1.44-.17-.28-.5-.42-.96-.42-.19 0-.36.02-.53.05l-.44.1v5.6h-2.08Z" style="fill:#b43035"/></g><g id="aj"><path id="ak" d="M12.49 106.84c-3.6 0-6.35-1-8.24-3-1.89-2-2.83-4.86-2.83-8.55 0-1.83.28-3.47.86-4.9a9.9 9.9 0 0 1 5.95-5.9c1.39-.53 2.9-.78 4.51-.78a14.53 14.53 0 0 1 6.02 1.25c.38.19.66.34.83.44l-1.44 4.04a11.38 11.38 0 0 0-5.47-1.31c-.77 0-1.52.12-2.26.38-.73.25-1.38.66-1.95 1.23a6.13 6.13 0 0 0-1.36 2.2 11.65 11.65 0 0 0-.18 6.13c.23.87.6 1.64 1.1 2.28.5.64 1.15 1.14 1.96 1.52a7 7 0 0 0 2.95.56 13.47 13.47 0 0 0 3.48-.44 7.2 7.2 0 0 0 1.19-.4l.93-.41 1.37 4c-.7.43-1.7.81-2.97 1.15-1.28.34-2.77.51-4.45.51Zm20.45-13.05-1.5-.34a9.4 9.4 0 0 0-2.94-.1c-.41.06-.73.12-.94.18v12.87h-4.77V90.46c.85-.3 1.86-.58 3.03-.85a17.4 17.4 0 0 1 4.81-.35 19.3 19.3 0 0 1 2.18.32c.36.07.67.17.93.27l-.8 3.94Zm2.24 4.31c0-1.48.23-2.8.68-3.91a8.4 8.4 0 0 1 1.81-2.8 7.52 7.52 0 0 1 2.58-1.7 8.06 8.06 0 0 1 2.99-.57c2.39 0 4.28.73 5.66 2.19 1.4 1.46 2.08 3.6 2.08 6.45a14.51 14.51 0 0 1-.1 1.79h-10.8c.1.98.56 1.76 1.37 2.33.8.58 1.9.87 3.26.87.88 0 1.74-.08 2.58-.24s1.53-.36 2.06-.6l.64 3.88c-.25.13-.6.25-1.02.38s-.9.24-1.43.34a22.26 22.26 0 0 1-3.47.33c-1.51 0-2.83-.22-3.95-.67a7.29 7.29 0 0 1-4.42-4.6 10.96 10.96 0 0 1-.52-3.46Zm11.2-1.82c-.02-.4-.1-.8-.21-1.18a2.9 2.9 0 0 0-1.47-1.76c-.38-.2-.84-.29-1.4-.29a2.85 2.85 0 0 0-2.34 1c-.25.3-.45.64-.58 1.04a6.2 6.2 0 0 0-.3 1.2h6.3Zm14.33-7.16c1.41 0 2.58.16 3.52.48.94.32 1.7.77 2.26 1.37.56.6.96 1.33 1.2 2.18.23.85.35 1.8.35 2.85v9.92c-.68.15-1.63.32-2.85.52-1.21.2-2.69.3-4.41.3-1.1 0-2.08-.09-2.96-.28-.89-.2-1.65-.5-2.3-.94s-1.12-1.01-1.46-1.71-.52-1.57-.52-2.6a4.55 4.55 0 0 1 2.18-4.13c.66-.4 1.42-.7 2.27-.88a15.17 15.17 0 0 1 4.3-.2c.49.07.88.14 1.17.22v-.45c0-.8-.24-1.46-.73-1.95-.5-.49-1.35-.73-2.56-.73-.81 0-1.61.06-2.4.17-.8.12-1.47.29-2.05.5l-.6-3.84a15.04 15.04 0 0 1 2.4-.53 16.98 16.98 0 0 1 3.2-.27Zm.39 13.95c.47 0 .91-.01 1.34-.03a9.2 9.2 0 0 0 1.02-.1v-3.62a9.12 9.12 0 0 0-1.92-.19c-.44 0-.87.03-1.26.08-.4.06-.74.16-1.04.3-.3.16-.53.36-.7.61a1.7 1.7 0 0 0-.26.96c0 .75.25 1.27.75 1.56.5.28 1.2.43 2.07.43Zm11.1-17.7 4.77-.77v4.96h5.73v3.97h-5.73v5.92c0 1 .17 1.8.53 2.4.35.6 1.06.9 2.12.9a9.11 9.11 0 0 0 3.08-.55l.67 3.72a11.2 11.2 0 0 1-4.51.86c-1.3 0-2.38-.18-3.24-.53a5.07 5.07 0 0 1-3.12-3.76c-.2-.9-.3-1.89-.3-2.97V85.37Zm19.58-.67c0 .88-.28 1.56-.84 2.06-.57.5-1.24.76-2 .76s-1.44-.25-2-.76c-.57-.5-.85-1.18-.85-2.06s.28-1.56.84-2.06c.57-.5 1.24-.75 2-.75s1.44.25 2 .75c.57.5.85 1.19.85 2.06Zm-.44 21.7h-4.77V89.56h4.77v16.84Zm8.56 0a84.05 84.05 0 0 1-3.32-7.5 117.4 117.4 0 0 1-3.2-9.34h5.06a74 74 0 0 0 .75 2.7 212.02 212.02 0 0 0 1.84 5.85c.3.94.61 1.79.91 2.56a152.5 152.5 0 0 0 2.75-8.4c.29-.97.54-1.87.75-2.7h4.94a116.45 116.45 0 0 1-3.2 9.34 83.8 83.8 0 0 1-3.32 7.49H99.9Zm11.76-8.3c0-1.48.22-2.8.68-3.91a8.4 8.4 0 0 1 1.81-2.8 7.52 7.52 0 0 1 2.58-1.7 8.06 8.06 0 0 1 2.99-.57c2.39 0 4.28.73 5.66 2.19 1.39 1.46 2.08 3.6 2.08 6.45a14.51 14.51 0 0 1-.1 1.79h-10.8c.1.98.56 1.76 1.37 2.33.8.58 1.9.87 3.26.87.88 0 1.73-.08 2.58-.24s1.53-.36 2.06-.6l.64 3.88c-.25.13-.6.25-1.02.38s-.9.24-1.43.34a22.26 22.26 0 0 1-3.47.33c-1.51 0-2.83-.22-3.95-.67a7.29 7.29 0 0 1-4.42-4.6 10.96 10.96 0 0 1-.52-3.46Zm11.2-1.82c-.03-.4-.1-.8-.21-1.18a2.9 2.9 0 0 0-1.47-1.76c-.38-.2-.84-.29-1.4-.29a2.85 2.85 0 0 0-2.34 1c-.25.3-.45.64-.58 1.04a6.2 6.2 0 0 0-.3 1.2h6.3ZM2.38 144.8v-22.18h14.84v4.2H7.37v4.63h8.77v4.2H7.37v9.15h-5Zm31.77-.58a26.2 26.2 0 0 1-7.17.96 9.66 9.66 0 0 1-3.56-.57 5.4 5.4 0 0 1-2.26-1.62 6.3 6.3 0 0 1-1.18-2.48c-.24-.96-.36-2.02-.36-3.17v-9.37h4.77v8.8c0 1.53.2 2.64.61 3.32.4.69 1.16 1.03 2.27 1.03a13.6 13.6 0 0 0 2.11-.16v-13h4.77v16.26Zm11.2.9a11.91 11.91 0 0 1-3.37-.45 5 5 0 0 1-2.05-1.17c-.5-.5-.85-1.1-1.03-1.82a9.81 9.81 0 0 1-.27-2.42v-18.53l4.77-.77v18.34c0 .43.03.81.1 1.15s.18.63.36.87c.18.23.45.42.79.57.34.15.8.25 1.37.29l-.67 3.94Zm10.11 0a11.91 11.91 0 0 1-3.37-.45 5 5 0 0 1-2.05-1.17c-.5-.5-.84-1.1-1.02-1.82a9.81 9.81 0 0 1-.28-2.42v-18.53l4.77-.77v18.34c0 .43.03.81.1 1.15s.18.63.36.87c.19.23.45.42.79.57.34.15.8.25 1.38.29l-.68 3.94Zm1.95-12.03h9.29v4.32h-9.3v-4.32Zm18.69 7.9c.7 0 1.29-.06 1.75-.18.45-.11.82-.27 1.1-.48.28-.2.47-.44.58-.72.1-.27.16-.58.16-.93 0-.72-.34-1.32-1.03-1.8-.68-.48-1.85-1-3.52-1.56-.72-.25-1.45-.55-2.17-.88-.73-.33-1.38-.74-1.96-1.24s-1.04-1.11-1.4-1.83-.55-1.58-.55-2.6.2-1.95.58-2.77c.38-.82.93-1.52 1.63-2.1a7.48 7.48 0 0 1 2.56-1.33c1-.3 2.13-.46 3.4-.46a13.81 13.81 0 0 1 6.55 1.53l-1.44 3.94c-.62-.32-1.3-.6-2.06-.85a8.99 8.99 0 0 0-2.74-.37c-1.2 0-2.05.17-2.57.5-.53.33-.79.84-.79 1.52 0 .4.1.75.3 1.02s.45.53.8.76c.36.22.76.42 1.22.6.46.19.97.37 1.52.56a33 33 0 0 1 3.01 1.27c.85.41 1.56.9 2.13 1.45.56.56.98 1.2 1.26 1.96.28.74.42 1.65.42 2.72 0 2.07-.73 3.67-2.18 4.81-1.45 1.14-3.64 1.71-6.56 1.71a18.36 18.36 0 0 1-4.75-.6 11.9 11.9 0 0 1-2.67-1.1l1.4-3.96a12.5 12.5 0 0 0 6.02 1.41Zm12.1-17.22 4.77-.77v4.96h5.72v3.97h-5.72v5.92c0 1 .17 1.8.52 2.4.36.6 1.07.9 2.13.9a9.11 9.11 0 0 0 3.08-.55l.67 3.72a11.2 11.2 0 0 1-4.51.86c-1.3 0-2.38-.18-3.24-.53a5.07 5.07 0 0 1-3.12-3.76c-.2-.9-.3-1.89-.3-2.97v-14.15Zm19.77 3.75a11 11 0 0 1 3.52.48c.94.32 1.7.77 2.26 1.37.57.6.97 1.33 1.2 2.18.23.85.35 1.8.35 2.85v9.92c-.68.15-1.63.32-2.84.52-1.22.2-2.7.3-4.42.3-1.09 0-2.08-.09-2.96-.28-.89-.19-1.65-.5-2.29-.94s-1.13-1.01-1.47-1.71-.51-1.57-.51-2.6a4.55 4.55 0 0 1 2.18-4.13c.65-.4 1.41-.7 2.27-.88a15.17 15.17 0 0 1 4.3-.2c.48.07.87.14 1.17.22v-.45c0-.8-.25-1.46-.74-1.95s-1.34-.73-2.56-.73c-.81 0-1.61.06-2.4.17-.79.12-1.47.29-2.05.5l-.6-3.84a15.04 15.04 0 0 1 2.4-.53 16.98 16.98 0 0 1 3.2-.27Zm.39 13.95c.47 0 .92-.01 1.34-.03a9.2 9.2 0 0 0 1.03-.1v-3.62a9.12 9.12 0 0 0-1.92-.19c-.45 0-.87.03-1.27.08-.4.06-.74.16-1.04.3-.3.16-.53.36-.7.62a1.7 1.7 0 0 0-.26.96c0 .74.25 1.26.75 1.55.5.29 1.2.43 2.07.43Zm10.46-5.09c0-1.21.2-2.36.6-3.44a8.16 8.16 0 0 1 4.43-4.72 8.98 8.98 0 0 1 3.64-.7 11.78 11.78 0 0 1 4.64.93l-.99 3.8c-.45-.17-.94-.32-1.47-.44a7.7 7.7 0 0 0-1.8-.2c-1.4 0-2.45.44-3.14 1.32a5.4 5.4 0 0 0-1.04 3.45c0 1.52.32 2.7.97 3.52.65.83 1.79 1.25 3.41 1.25.58 0 1.2-.05 1.86-.16a7.8 7.8 0 0 0 1.82-.51l.67 3.9a13.74 13.74 0 0 1-4.83.87c-1.54 0-2.86-.23-3.97-.7a7.45 7.45 0 0 1-2.73-1.86 7.3 7.3 0 0 1-1.57-2.8c-.33-1.08-.5-2.25-.5-3.5Zm21.57-2.37a327.46 327.46 0 0 0 2.91-3.23 245.25 245.25 0 0 0 2.4-2.82h5.67c-1.13 1.3-2.24 2.54-3.31 3.72a91.22 91.22 0 0 1-3.54 3.66c.64.58 1.3 1.27 1.98 2.07.69.8 1.35 1.63 1.99 2.48a36.79 36.79 0 0 1 3.1 4.9h-5.48l-1.17-1.84c-.43-.67-.9-1.35-1.39-2.02-.49-.67-1-1.32-1.55-1.94s-1.08-1.14-1.6-1.57v7.38h-4.78v-24.07l4.77-.77v14.05ZM8.42 179.39c.7 0 1.29-.06 1.75-.18.46-.11.82-.27 1.1-.48.28-.2.47-.44.58-.72.1-.27.16-.58.16-.93 0-.72-.34-1.32-1.03-1.8-.68-.48-1.85-1-3.52-1.56-.72-.25-1.45-.55-2.17-.88-.73-.33-1.38-.74-1.95-1.24s-1.05-1.11-1.41-1.83-.55-1.58-.55-2.6.2-1.95.58-2.77c.38-.82.93-1.52 1.63-2.1a7.48 7.48 0 0 1 2.56-1.33c1-.3 2.13-.46 3.4-.46a13.81 13.81 0 0 1 6.55 1.53l-1.44 3.94c-.62-.32-1.3-.6-2.06-.85a8.99 8.99 0 0 0-2.74-.37c-1.2 0-2.05.17-2.57.5-.53.33-.79.84-.79 1.52 0 .4.1.75.3 1.02s.46.53.8.76c.36.22.76.42 1.22.6.46.19.97.37 1.52.56 1.16.43 2.16.85 3.01 1.27.85.41 1.56.9 2.13 1.45.56.56.99 1.2 1.26 1.96.28.74.42 1.65.42 2.72 0 2.07-.73 3.67-2.18 4.81-1.45 1.14-3.63 1.71-6.56 1.71a18.36 18.36 0 0 1-4.75-.6 11.9 11.9 0 0 1-2.67-1.1l1.4-3.96c.67.36 1.48.69 2.46.98.97.28 2.16.43 3.56.43Zm28-4.64c0 1.32-.19 2.53-.57 3.63a7.48 7.48 0 0 1-4.27 4.62 8.7 8.7 0 0 1-3.41.64 8.61 8.61 0 0 1-3.38-.64 7.45 7.45 0 0 1-2.6-1.8 8.25 8.25 0 0 1-1.7-2.82c-.4-1.1-.61-2.3-.61-3.63s.2-2.53.62-3.62a7.74 7.74 0 0 1 4.35-4.57 8.44 8.44 0 0 1 3.32-.64c1.21 0 2.33.21 3.34.64a7.65 7.65 0 0 1 4.3 4.57c.41 1.1.61 2.3.61 3.62Zm-4.86 0a6 6 0 0 0-.88-3.47c-.59-.85-1.42-1.27-2.51-1.27s-1.93.42-2.53 1.27c-.6.84-.9 2-.9 3.47s.3 2.64.9 3.5c.6.87 1.44 1.3 2.53 1.3s1.92-.43 2.5-1.3c.6-.86.89-2.03.89-3.5Zm15.84-16.39a12.02 12.02 0 0 1 4.2.8l-.94 3.81a7.44 7.44 0 0 0-2.78-.58c-.58 0-1.06.08-1.46.24a2.25 2.25 0 0 0-1.4 1.65c-.1.39-.15.8-.15 1.25v.83h5.89v3.97h-5.89v12.86H40.1v-17.72c0-2.18.62-3.9 1.84-5.19 1.23-1.28 3.05-1.92 5.46-1.92Zm6.05 3.81 4.76-.77v4.96h5.73v3.97h-5.72v5.92c0 1 .17 1.8.52 2.4.36.6 1.06.9 2.13.9a9.11 9.11 0 0 0 3.07-.55l.68 3.72a11.2 11.2 0 0 1-4.51.86 8.6 8.6 0 0 1-3.24-.53 5.07 5.07 0 0 1-3.12-3.76c-.2-.9-.3-1.89-.3-2.97v-14.15Zm24.95 11.36a148.13 148.13 0 0 1-2.89 9.67H71.8a61 61 0 0 1-1.25-3.2c-.45-1.24-.92-2.59-1.4-4.05a263.7 263.7 0 0 1-2.94-9.59h5.03a1223.74 1223.74 0 0 0 1.2 5.32l.71 2.9s.5 1.9.76 2.8a138.17 138.17 0 0 0 1.59-5.78l.7-2.75.6-2.48h3.45l.57 2.48a432 432 0 0 0 1.41 5.64c.26.98.52 1.94.8 2.88a141.01 141.01 0 0 0 2.7-11h4.96A228.35 228.35 0 0 1 86.35 180c-.46 1.23-.89 2.3-1.27 3.2h-3.71c-.54-1.62-1.06-3.24-1.57-4.84-.51-1.6-.98-3.2-1.41-4.83Zm20.55-7.61c1.4 0 2.58.16 3.52.48.94.31 1.7.77 2.26 1.37.56.6.96 1.32 1.2 2.18.23.85.35 1.8.35 2.85v9.92c-.68.15-1.63.32-2.85.52-1.22.2-2.69.3-4.42.3-1.08 0-2.07-.09-2.96-.28-.88-.2-1.64-.5-2.28-.94s-1.13-1.01-1.47-1.72-.52-1.56-.52-2.59a4.55 4.55 0 0 1 2.18-4.13c.66-.4 1.42-.7 2.27-.88a15.17 15.17 0 0 1 4.3-.2c.49.07.87.14 1.17.22v-.45c0-.8-.24-1.46-.73-1.95-.5-.49-1.35-.73-2.56-.73-.81 0-1.61.05-2.4.17-.8.12-1.47.28-2.05.5l-.6-3.84a15.04 15.04 0 0 1 2.4-.53 16.98 16.98 0 0 1 3.2-.27Zm.38 13.95c.47 0 .92-.01 1.35-.03a9.2 9.2 0 0 0 1.02-.1v-3.62a9.12 9.12 0 0 0-1.92-.19c-.45 0-.87.03-1.26.08-.4.06-.74.16-1.04.3-.3.16-.53.36-.7.61a1.7 1.7 0 0 0-.26.97c0 .74.25 1.26.75 1.55.5.29 1.19.43 2.06.43Zm21.41-9.28-1.5-.34a9.4 9.4 0 0 0-2.93-.1c-.42.06-.73.12-.94.18v12.87h-4.77v-15.94c.85-.3 1.86-.58 3.02-.85a17.4 17.4 0 0 1 4.82-.35 19.3 19.3 0 0 1 2.17.32c.37.07.68.16.93.27l-.8 3.94Zm2.24 4.31c0-1.49.23-2.8.69-3.91a8.4 8.4 0 0 1 1.8-2.8 7.52 7.52 0 0 1 2.58-1.7 8.06 8.06 0 0 1 3-.57c2.38 0 4.27.73 5.66 2.19 1.39 1.46 2.08 3.6 2.08 6.45a14.51 14.51 0 0 1-.1 1.79h-10.81c.1.98.56 1.76 1.37 2.33.81.58 1.9.87 3.27.87.87 0 1.73-.08 2.57-.24s1.53-.36 2.07-.6l.64 3.88c-.26.13-.6.25-1.03.38s-.9.24-1.42.34a22.26 22.26 0 0 1-3.47.33c-1.52 0-2.83-.22-3.95-.67a7.29 7.29 0 0 1-4.42-4.6 10.96 10.96 0 0 1-.53-3.46Zm11.2-1.82a5.2 5.2 0 0 0-.2-1.18 2.9 2.9 0 0 0-1.47-1.76c-.38-.2-.85-.29-1.4-.29-.53 0-1 .1-1.38.27-.38.19-.7.43-.96.72s-.45.65-.59 1.04c-.14.4-.24.8-.3 1.2h6.3Zm16.29 10.12v-22.18h14.98v4.2h-9.98v4.34h8.86v4.1h-8.87V179h10.72v4.2h-15.7Zm19.07-16.26a26.75 26.75 0 0 1 7.17-.96 9.9 9.9 0 0 1 3.57.56 5.37 5.37 0 0 1 3.44 4.02c.23.93.35 1.98.35 3.13v9.5h-4.77v-8.92c0-1.54-.2-2.63-.6-3.27-.41-.64-1.17-.96-2.28-.96a13.14 13.14 0 0 0-2.1.16v13h-4.78v-16.26Zm33.38 14.14c0 2.76-.7 4.8-2.1 6.13s-3.55 2-6.48 2a19.29 19.29 0 0 1-5.92-1l.83-3.99a13.8 13.8 0 0 0 5.15.96c1.37 0 2.34-.3 2.9-.9.57-.6.85-1.36.85-2.3v-.6a7.64 7.64 0 0 1-3.36.7c-2.32 0-4.1-.7-5.34-2.07s-1.86-3.3-1.86-5.77c0-1.24.2-2.36.58-3.38a7.18 7.18 0 0 1 4.38-4.29c1.07-.4 2.27-.59 3.62-.59a31.55 31.55 0 0 1 5.3.6c.54.11 1.02.23 1.45.36v14.15Zm-10.46-6.84c0 2.66 1.07 4 3.23 4a4.77 4.77 0 0 0 2.46-.64v-7.62a10.5 10.5 0 0 0-1.95-.16c-1.26 0-2.2.42-2.82 1.25a5.16 5.16 0 0 0-.92 3.17Zm20.16-12.74c0 .88-.29 1.56-.85 2.06-.57.5-1.23.76-2 .76s-1.44-.25-2-.76c-.57-.5-.85-1.19-.85-2.06s.28-1.56.85-2.06c.56-.5 1.23-.75 2-.75s1.43.25 2 .75c.56.5.85 1.19.85 2.06Zm-.45 21.7h-4.77v-16.84h4.77v16.84Zm4.48-16.26a26.75 26.75 0 0 1 7.17-.96c1.43 0 2.61.19 3.56.56a5.38 5.38 0 0 1 3.44 4.02c.24.93.36 1.98.36 3.13v9.5h-4.77v-8.92c0-1.54-.2-2.63-.61-3.27-.4-.64-1.16-.96-2.27-.96a13.14 13.14 0 0 0-2.11.16v13h-4.77v-16.26Zm18.05 7.96c0-1.49.23-2.8.68-3.91s1.07-2.06 1.81-2.8a7.99 7.99 0 0 1 5.57-2.27c2.39 0 4.28.73 5.66 2.19s2.08 3.6 2.08 6.45a14.51 14.51 0 0 1-.1 1.79h-10.8c.1.98.56 1.76 1.37 2.33s1.9.87 3.26.87c.88 0 1.74-.08 2.58-.24s1.53-.36 2.06-.6l.64 3.88c-.25.13-.6.25-1.02.38-.43.13-.9.24-1.43.34a22.19 22.19 0 0 1-3.47.33c-1.51 0-2.83-.22-3.95-.67a7.31 7.31 0 0 1-4.42-4.6 10.96 10.96 0 0 1-.52-3.46Zm11.2-1.82c-.03-.4-.1-.8-.21-1.18a2.87 2.87 0 0 0-1.47-1.76c-.38-.2-.84-.29-1.4-.29-.53 0-.99.1-1.37.27a3.07 3.07 0 0 0-1.56 1.76c-.14.39-.23.8-.3 1.2h6.3Zm7.48 1.82c0-1.49.23-2.8.7-3.91s1.05-2.06 1.8-2.8a7.95 7.95 0 0 1 5.57-2.27c2.39 0 4.27.73 5.66 2.19s2.08 3.6 2.08 6.45a14.51 14.51 0 0 1-.1 1.79h-10.81c.1.98.57 1.76 1.38 2.33s1.9.87 3.26.87c.88 0 1.73-.08 2.58-.24s1.53-.36 2.06-.6l.64 3.88a7 7 0 0 1-1.02.38c-.43.13-.9.24-1.43.34a22.19 22.19 0 0 1-3.47.33c-1.51 0-2.83-.22-3.95-.67a7.31 7.31 0 0 1-4.42-4.6 10.96 10.96 0 0 1-.52-3.46Zm11.2-1.82a5.2 5.2 0 0 0-.2-1.18 2.87 2.87 0 0 0-1.48-1.76c-.37-.2-.84-.29-1.39-.29-.53 0-1 .1-1.38.27-.38.19-.7.43-.96.72-.25.3-.45.65-.59 1.04s-.24.8-.3 1.2h6.3Zm18.43-2.49c-.42-.1-.92-.22-1.5-.34a9.4 9.4 0 0 0-2.93-.1c-.41.06-.73.12-.94.18v12.87h-4.77v-15.94c.85-.3 1.86-.58 3.02-.85a17.41 17.41 0 0 1 4.82-.35 19.3 19.3 0 0 1 2.18.32c.36.07.67.16.93.27l-.8 3.94Z" style="fill:#313840"/><g id="al"><path id="am" d="M5.2 72.74h122.47v1H5.2z" style="fill:#b43035"/><path d="M5.51 66.18c.62 0 1.13.07 1.54.2a2.15 2.15 0 0 1 1.51 1.56c.1.38.16.8.16 1.25v4.34l-1.25.23c-.53.09-1.17.13-1.93.13-.48 0-.9-.04-1.3-.12s-.72-.23-1-.42a1.8 1.8 0 0 1-.64-.75 2.6 2.6 0 0 1-.22-1.13c0-.43.08-.8.25-1.1a2 2 0 0 1 .7-.7c.29-.18.62-.31 1-.4a5.6 5.6 0 0 1 2.39.02v-.2c0-.35-.11-.64-.33-.85s-.58-.33-1.12-.33a7.17 7.17 0 0 0-1.94.3l-.27-1.68a7.07 7.07 0 0 1 1.05-.23 13.13 13.13 0 0 1 1.4-.12Zm.17 6.1a12.23 12.23 0 0 0 1.04-.05v-1.59a4.11 4.11 0 0 0-1.4-.04c-.17.02-.32.06-.45.13s-.23.15-.31.26-.11.26-.11.43c0 .32.1.55.33.68.22.12.52.18.9.18Z" style="fill:#b43035"/></g></g><g id="an"><path id="ao" d="M8.87 21.96c3.33 0 5.88.6 7.65 1.78 1.77 1.18 2.66 3.02 2.66 5.52 0 1.56-.36 2.82-1.08 3.8a7.06 7.06 0 0 1-3.08 2.28c.44.55.91 1.19 1.4 1.9a55.31 55.31 0 0 1 2.85 4.67c.45.85.87 1.68 1.25 2.49h-5.58l-1.24-2.21A52.83 52.83 0 0 0 11.12 38c-.43-.63-.86-1.2-1.29-1.71H7.37v8.1h-5V22.53a28.3 28.3 0 0 1 3.38-.45 45.8 45.8 0 0 1 3.12-.12Zm.29 4.26c-.36 0-.69.01-.98.03l-.81.06v6.02h1.4c1.88 0 3.23-.23 4.04-.7.8-.47 1.21-1.27 1.21-2.4 0-1.09-.4-1.86-1.23-2.32a7.63 7.63 0 0 0-3.63-.69Zm19.46-3.52c0 .88-.29 1.56-.85 2.06-.57.5-1.23.76-2 .76s-1.44-.26-2-.76c-.57-.5-.85-1.19-.85-2.06s.28-1.56.85-2.06c.56-.5 1.23-.76 2-.76s1.43.26 2 .76c.56.5.85 1.19.85 2.06Zm-.45 21.7H23.4V27.56h4.77V44.4Zm3.68-8.42c0-1.22.2-2.36.59-3.44a8.16 8.16 0 0 1 4.43-4.72 8.98 8.98 0 0 1 3.65-.7 11.78 11.78 0 0 1 4.64.92l-1 3.81c-.44-.17-.93-.32-1.46-.45a7.7 7.7 0 0 0-1.8-.19c-1.4 0-2.46.44-3.15 1.32a5.4 5.4 0 0 0-1.04 3.45c0 1.52.33 2.69.98 3.52.65.83 1.78 1.25 3.4 1.25.58 0 1.2-.05 1.86-.16a7.8 7.8 0 0 0 1.83-.51l.67 3.9a13.74 13.74 0 0 1-4.83.87c-1.54 0-2.86-.23-3.97-.7a7.45 7.45 0 0 1-2.74-1.86 7.3 7.3 0 0 1-1.57-2.8c-.33-1.08-.5-2.25-.5-3.5Zm16.8 8.42V20.33l4.76-.77v8.07a10.13 10.13 0 0 1 2.7-.45 9 9 0 0 1 3.4.56 5.38 5.38 0 0 1 3.33 4.02c.22.93.34 1.98.34 3.13v9.5H58.4v-8.92c0-1.54-.2-2.63-.6-3.27-.39-.64-1.12-.96-2.19-.96-.42 0-.82.04-1.2.12-.37.07-.7.15-1 .24v12.8h-4.77Zm24.89-17.28c1.41 0 2.58.16 3.52.48.94.31 1.7.77 2.26 1.37.56.6.96 1.33 1.2 2.18.23.85.35 1.8.35 2.85v9.92c-.68.15-1.63.32-2.85.52-1.21.2-2.68.3-4.41.3-1.1 0-2.08-.09-2.96-.28-.89-.2-1.65-.5-2.3-.94s-1.12-1.01-1.46-1.72-.51-1.56-.51-2.59a4.55 4.55 0 0 1 2.18-4.13c.65-.4 1.4-.7 2.26-.88a15.17 15.17 0 0 1 4.3-.2c.49.07.88.14 1.18.22v-.45c0-.8-.25-1.46-.74-1.95-.5-.49-1.34-.73-2.56-.73-.81 0-1.61.05-2.4.17-.8.12-1.47.28-2.05.5l-.6-3.84a15.04 15.04 0 0 1 2.4-.53 16.98 16.98 0 0 1 3.2-.27Zm.39 13.95c.47 0 .91-.01 1.34-.03a9.2 9.2 0 0 0 1.03-.1v-3.62a9.12 9.12 0 0 0-1.92-.19c-.45 0-.87.03-1.27.08-.4.06-.74.16-1.04.3-.3.16-.53.36-.7.61a1.7 1.7 0 0 0-.26.97c0 .74.25 1.26.75 1.55.5.28 1.2.43 2.07.43Zm21.4-9.28c-.42-.1-.92-.22-1.5-.34a9.4 9.4 0 0 0-2.93-.1c-.41.06-.73.12-.94.18V44.4h-4.77V28.46c.85-.3 1.86-.58 3.02-.85a17.4 17.4 0 0 1 4.82-.35 19.3 19.3 0 0 1 2.18.32c.36.07.67.16.92.27l-.8 3.94Zm17.89 12.06a25.71 25.71 0 0 1-5.07.88c-.63.06-1.23.08-1.8.08-1.4 0-2.63-.2-3.72-.6-1.09-.41-2-1-2.75-1.75a7.56 7.56 0 0 1-1.71-2.75 12.4 12.4 0 0 1-.08-7.33c.34-1.1.83-2.03 1.47-2.8a6.3 6.3 0 0 1 2.35-1.76 8 8 0 0 1 3.19-.6 7.5 7.5 0 0 1 3.36.73v-7.62l4.76-.77v24.3Zm-10.78-8c0 1.47.33 2.66 1 3.55.65.9 1.63 1.35 2.93 1.35a13.54 13.54 0 0 0 2.08-.16v-8.67c-.3-.2-.68-.36-1.16-.48s-.97-.2-1.46-.2c-2.26 0-3.4 1.54-3.4 4.61Zm36.34 8.55a56.97 56.97 0 0 0-3.56-4.87c-.71-.86-1.45-1.68-2.22-2.46s-1.54-1.47-2.3-2.07v9.4h-5V22.22h5v8.33c1.28-1.34 2.58-2.75 3.9-4.23 1.33-1.47 2.55-2.84 3.67-4.1h5.93a151.75 151.75 0 0 1-9.38 10.2c1.78 1.47 3.49 3.23 5.14 5.26s3.23 4.27 4.75 6.72h-5.94Zm8.49-16.84h4.77v16.83h-4.77zm9.25.58a26.75 26.75 0 0 1 7.17-.96c1.43 0 2.61.19 3.56.56a5.37 5.37 0 0 1 3.44 4.02c.24.93.36 1.98.36 3.13v9.5h-4.77v-8.92c0-1.54-.2-2.63-.61-3.27-.4-.64-1.16-.96-2.27-.96a13.14 13.14 0 0 0-2.11.16v13h-4.77V28.14Zm33.38 14.14c0 2.76-.7 4.8-2.1 6.13-1.4 1.34-3.56 2-6.48 2a19.29 19.29 0 0 1-5.92-1l.83-3.99a13.8 13.8 0 0 0 5.15.96c1.37 0 2.33-.3 2.9-.9.56-.6.84-1.36.84-2.3v-.6a7.64 7.64 0 0 1-3.36.7c-2.32 0-4.1-.7-5.34-2.07s-1.85-3.3-1.85-5.77c0-1.24.19-2.36.57-3.38a7.18 7.18 0 0 1 4.39-4.29 10.2 10.2 0 0 1 3.61-.59 30.55 30.55 0 0 1 5.3.6c.54.11 1.03.23 1.45.36V42.3Zm-10.47-6.84c0 2.66 1.08 4 3.23 4a4.77 4.77 0 0 0 2.47-.64v-7.62a10.5 10.5 0 0 0-1.96-.16c-1.26 0-2.2.42-2.81 1.25a5.16 5.16 0 0 0-.93 3.17Z" style="fill:#313840"/><g id="ap"><path id="aq" d="M18.06 10.74h171.47v1H18.06z" style="fill:#b43035"/><path id="ar" d="M2.37 2.04h2.18v9.7H2.37v-9.7ZM8.46 1a5.68 5.68 0 0 1 .06.71 5.25 5.25 0 0 1-1.16 3.22L5.87 4.6a6.92 6.92 0 0 0 .6-2.8v-.12l-.02-.2v-.25c0-.08-.02-.16-.03-.23h2.03Zm5.05 6.83c0-.67-.08-1.15-.26-1.43-.17-.28-.46-.42-.88-.42a4.08 4.08 0 0 0-.82.07v5.69H9.47V4.63a13.55 13.55 0 0 1 3.02-.42 2.95 2.95 0 0 1 2.11.69 3.96 3.96 0 0 1 3.55-.44c.38.15.68.39.9.68.23.3.39.66.47 1.07a7 7 0 0 1 .13 1.37v4.16h-2.09V7.83c0-.67-.09-1.15-.26-1.43s-.47-.42-.89-.42c-.11 0-.27.03-.47.09s-.36.12-.5.2c.07.22.11.45.13.69.02.23.03.49.03.76v4.02h-2.09v-3.9Z" style="fill:#b43035"/></g><path d="m151.83 21.4-.3 1.08h-.94l.28-1.1-1.22-1.5-1.21 1.5.28 1.1h-.94l-.3-1.08-1.65-.9 1.05 4.6 1.77.33a5.6 5.6 0 0 0 2 0l1.77-.32 1.06-4.61-1.65.9Z" style="fill:#b43035"/></g></g></svg>