<?xml version="1.0" encoding="UTF-8"?><svg xmlns="http://www.w3.org/2000/svg" xmlns:xlink="http://www.w3.org/1999/xlink" viewBox="0 0 460 240"><defs><style>.au{fill:#7e8a99;}.av{fill:#b43035;}.aw{fill:#659ad2;}.ax,.ay{fill:#fff;}.b`{fill:#1f9cf0;}.ba{fill:url(#y);}.ay,.bb,.bc{fill-rule:evenodd;}.bd{fill:url(#c);}.be{fill:#00acd7;}.bf{fill:#f47421;}.bg{fill:url(#v);}.bh{fill:#ff9a00;}.bi{fill:#252f3e;}.bb{fill:#f90;}.bj{fill:#336791;}.bk{fill:#ffca1d;}.bl{fill:#390091;}.bm{fill:#689f63;}.bn{fill:#007acc;}.bo{fill:#0065a9;}.bp{fill:#004482;}.bq{fill:#1d63ed;}.br{fill:#347ab4;}.bc{fill:url(#ab);}.bs{fill:#a179dc;}.bt{fill:#4f5b93;}.bu{fill:#b22630;}.bv{fill:#3178ca;}.bw{fill:#280068;}.bx{fill:#001e36;}.by{fill:#59d96b;}.c`{fill:url(#x);}.ca{fill:#5382a1;}.cb{fill:url(#w);}.cc{fill:#087ea4;}.cd{fill:#00599c;}.ce{fill:#29abe2;}.cf{fill:#300;}.cg{opacity:.25;}.ch{mask:url(#a`);}.ci{fill:#31a8ff;}.cj{fill:#313840;}.ck{fill:#f8981d;}</style><linearGradient id="c" x1="422.881" y1="-67.809" x2="422.881" y2="-50.809" gradientTransform="translate(0 286.772)" gradientUnits="userSpaceOnUse"><stop offset="0" stop-color="#18bffb"/><stop offset="1" stop-color="#2072f3"/></linearGradient><linearGradient id="v" x1="317.322" y1="-169.256" x2="333.107" y2="-169.256" gradientTransform="translate(0 -38) scale(1 -1)" gradientUnits="userSpaceOnUse"><stop offset=".258" stop-color="#f97a12"/><stop offset=".459" stop-color="#b07b58"/><stop offset=".724" stop-color="#577bae"/><stop offset=".91" stop-color="#1e7ce5"/><stop offset="1" stop-color="#087cfa"/></linearGradient><linearGradient id="w" x1="329.443" y1="-161.874" x2="355.505" y2="-176.295" gradientTransform="translate(0 -38) scale(1 -1)" gradientUnits="userSpaceOnUse"><stop offset="0" stop-color="#f97a12"/><stop offset=".072" stop-color="#cb7a3e"/><stop offset=".154" stop-color="#9e7b6a"/><stop offset=".242" stop-color="#757b91"/><stop offset=".334" stop-color="#537bb1"/><stop offset=".432" stop-color="#387ccc"/><stop offset=".538" stop-color="#237ce0"/><stop offset=".655" stop-color="#147cef"/><stop offset=".792" stop-color="#0b7cf7"/><stop offset="1" stop-color="#087cfa"/></linearGradient><linearGradient id="x" x1="347.648" y1="-170.622" x2="340.392" y2="-148.942" gradientTransform="translate(0 -38) scale(1 -1)" gradientUnits="userSpaceOnUse"><stop offset="0" stop-color="#fe315d"/><stop offset=".078" stop-color="#cb417e"/><stop offset=".16" stop-color="#9e4e9b"/><stop offset=".247" stop-color="#755bb4"/><stop offset=".339" stop-color="#5365ca"/><stop offset=".437" stop-color="#386ddb"/><stop offset=".541" stop-color="#2374e9"/><stop offset=".658" stop-color="#1478f3"/><stop offset=".794" stop-color="#0b7bf8"/><stop offset="1" stop-color="#087cfa"/></linearGradient><linearGradient id="y" x1="322.126" y1="-157.789" x2="343.887" y2="-193.783" gradientTransform="translate(0 -38) scale(1 -1)" gradientUnits="userSpaceOnUse"><stop offset="0" stop-color="#fe315d"/><stop offset=".04" stop-color="#f63462"/><stop offset=".104" stop-color="#df3a71"/><stop offset=".167" stop-color="#c24383"/><stop offset=".291" stop-color="#ad4a91"/><stop offset=".55" stop-color="#755bb4"/><stop offset=".917" stop-color="#1d76ed"/><stop offset="1" stop-color="#087cfa"/></linearGradient><mask id="a`" x="268.721" y="111.779" width="34" height="34" maskUnits="userSpaceOnUse"><g id="aa"><path d="M292.837,145.633c.535,.21,1.145,.196,1.686-.065l6.996-3.386c.735-.356,1.203-1.104,1.203-1.925v-22.957c0-.821-.467-1.569-1.203-1.925l-6.996-3.386c-.709-.343-1.539-.259-2.161,.196-.089,.065-.174,.138-.253,.218l-13.393,12.289-5.834-4.454c-.543-.415-1.303-.381-1.807,.081l-1.871,1.712c-.617,.564-.618,1.541-.002,2.106l5.059,4.642-5.059,4.642c-.616,.565-.615,1.542,.002,2.106l1.871,1.712c.504,.461,1.264,.495,1.807,.081l5.834-4.454,13.393,12.289c.212,.213,.461,.374,.728,.479Zm1.394-24.613l-10.162,7.758,10.162,7.758v-15.517Z" style="fill:#fff; fill-rule:evenodd;"/></g></mask><linearGradient id="ab" x1="285.711" y1="-149.779" x2="285.711" y2="-183.779" gradientTransform="translate(0 -38) scale(1 -1)" gradientUnits="userSpaceOnUse"><stop offset="0" stop-color="#fff"/><stop offset="1" stop-color="#fff" stop-opacity="0"/></linearGradient></defs><g id="a"/><g id="b"><g><g><rect x="439.981" y="218.963" width="17" height="17" rx="1.988" ry="1.988" style="fill:#7e8a99;"/><g><path d="M444.791,232.688c1.732-1.749,3.479-3.512,5.163-5.212-1.709-1.726-3.466-3.502-5.184-5.238l-1.79,1.749,3.548,3.487c-1.199,1.211-2.339,2.363-3.464,3.499l1.728,1.716Z" style="fill:#fff;"/><path d="M449.194,230.333v2.355h4.787v-2.355h-4.787Z" style="fill:#fff;"/></g></g><path d="M455.785,213.602h-14.576c-.074-.017-.148-.033-.222-.05-.58-.133-.87-.478-1.007-.935v-.246c.102-.2,.173-.415,.311-.596,1.761-2.314,3.532-4.623,5.296-6.936,.063-.083,.102-.193,.103-.29,.007-1.034,.004-2.068,.004-3.102,0-.057,0-.115,0-.19h-.966v-1.655h7.504v1.66h-.966c0,.077,0,.131,0,.185,0,1.038-.002,2.077,.004,3.115,0,.089,.037,.189,.095,.265,1.431,1.878,2.879,3.747,4.295,5.631,.468,.623,1.068,1.188,1.32,1.913v.246c-.145,.537-.529,.877-1.195,.984Zm-3.05-4.904c-.043-.059-.08-.109-.118-.159-.858-1.127-1.717-2.253-2.57-3.382-.06-.079-.098-.184-.098-.277-.007-1.144-.004-2.288-.004-3.432v-.179h-2.928c0,.066,0,.124,0,.182,0,1.135,.003,2.27-.005,3.404,0,.106-.041,.226-.109,.316-.849,1.126-1.706,2.248-2.56,3.371-.036,.047-.066,.097-.108,.157,.458,0,.902-.058,1.314,.012,.825,.141,1.643,.324,2.444,.539,1.69,.451,3.246,.214,4.741-.551Z" style="fill:#b22630;"/><g><path d="M427.945,218.963h-10.131c-1.897,0-3.434,1.536-3.434,3.434v10.134c0,1.896,1.536,3.432,3.434,3.432h10.133c1.895,0,3.434-1.536,3.434-3.434v-10.132c-.002-1.898-1.538-3.434-3.436-3.434Z" style="fill:url(#c);"/><path d="M422.807,222.869l.344-.595c.212-.372,.686-.497,1.058-.285s.497,.686,.285,1.058l-3.317,5.742h2.399c.778,0,1.213,.914,.875,1.547h-7.033c-.429,0-.773-.344-.773-.773s.344-.773,.773-.773h1.972l2.524-4.375-.788-1.368c-.212-.372-.087-.842,.285-1.058,.372-.212,.841-.087,1.058,.285l.338,.597h0Zm-2.983,8.264l-.744,1.29c-.212,.372-.686,.497-1.058,.285s-.497-.686-.285-1.058l.552-.956c.625-.193,1.132-.045,1.534,.44h0Zm6.404-2.34h2.012c.429,0,.773,.344,.773,.773s-.344,.774-.773,.774h-1.118l.754,1.309c.212,.372,.087,.841-.285,1.058-.372,.212-.841,.087-1.058-.285-1.271-2.204-2.225-3.853-2.858-4.951-.648-1.118-.185-2.24,.272-2.62,.508,.871,1.266,2.187,2.28,3.942h0Z" style="fill:#fff;"/></g><g><path id="d" d="M415.483,199.6c-.104,.008-.207,.044-.305,.11-.349,.238-.445,.746-.266,1.172l1.366,3.259c-2.084,2.157-3.397,3.576-3.397,7.117v.638c0,.943,.644,1.702,1.444,1.702h17.112c.8,0,1.444-.759,1.444-1.702v-.638c0-3.541-1.313-4.96-3.397-7.117l1.366-3.259c.179-.426,.083-.934-.266-1.172-.131-.089-.272-.123-.409-.109-.228,.023-.445,.176-.584,.423l-1.604,2.834c-1.493-1.043-3.237-1.642-5.105-1.642s-3.613,.599-5.105,1.642l-1.603-2.834c-.14-.247-.357-.4-.586-.423-.034-.003-.069-.004-.103-.001Z" style="fill:#59d96b;"/><g id="e" transform="translate(0.51564933,-0.70158251)"><path id="f" d="M419,210.394c-.62,0-1.123-.593-1.123-1.324s.503-1.324,1.123-1.324h0c.62,0,1.123,.593,1.123,1.324s-.503,1.324-1.123,1.324Z" style="fill:#fff;"/><path id="g" d="M426.761,210.394c-.62,0-1.123-.593-1.123-1.324s.503-1.324,1.123-1.324h0c.62,0,1.123,.593,1.123,1.324h0c0,.731-.503,1.324-1.123,1.324Z" style="fill:#fff;"/></g></g><g><path d="M392.366,222.463c-.01,1.133-.041,2.265,.275,3.372,.69,2.418,2.138,4.184,4.354,5.288,.192,.096,.278,.216,.274,.432-.008,.457,.004,.915-.005,1.372-.016,.823-.604,1.477-1.405,1.499-.813,.022-1.632,.032-2.441-.041-2.478-.226-4.562-2.511-4.593-5.055-.032-2.617-.013-5.235-.005-7.852,.002-.858,.625-1.498,1.459-1.461,.568,.025,1.132,.143,1.698,.224,.288,.041,.405,.207,.395,.513-.018,.569-.005,1.14-.005,1.71Z" style="fill:#336791;"/><path d="M405.782,228.844c0,1.072,.065,2.149-.014,3.215-.16,2.164-2.041,3.886-4.168,3.902-.257,.002-.514,.004-.771,0-.86-.015-1.498-.664-1.507-1.546-.008-.81-.004-1.62,0-2.43,.001-.332,.076-.376,.402-.355,.732,.047,1.464,.08,2.197,.103,.275,.008,.548-.037,.718-.306,.252-.401,.037-.906-.433-.975-.252-.037-.513-.031-.769-.022-1.115,.041-2.206-.083-3.227-.564-2.393-1.126-3.829-3.019-4.068-5.708-.138-1.555-.05-3.132-.055-4.699,0-.297,.167-.486,.447-.483,1.76,.019,3.535-.085,5.278,.109,3.204,.357,5.79,3.279,5.965,6.567,.057,1.061,.009,2.129,.009,3.193h-.004Zm-4.901-1.767c.005,.54,.435,.975,.955,.967,.519-.008,.952-.46,.943-.985-.009-.547-.423-.96-.961-.956-.54,.003-.943,.422-.937,.974Z" style="fill:#336791;"/></g><g><path d="M392.507,205.696c0,.288,.029,.522,.08,.693,.059,.171,.132,.358,.234,.561,.037,.062,.051,.125,.051,.179,0,.078-.044,.156-.139,.234l-.461,.327c-.066,.047-.132,.07-.19,.07-.073,0-.146-.039-.22-.109-.102-.117-.19-.241-.263-.366-.073-.132-.146-.28-.227-.459-.571,.716-1.288,1.075-2.151,1.075-.615,0-1.105-.187-1.463-.561-.359-.374-.541-.872-.541-1.495,0-.662,.22-1.199,.666-1.604,.446-.405,1.039-.607,1.793-.607,.249,0,.505,.023,.776,.062s.549,.101,.841,.171v-.568c0-.592-.117-1.004-.344-1.246-.234-.241-.629-.358-1.193-.358-.256,0-.52,.031-.79,.101s-.534,.156-.79,.265c-.117,.055-.205,.086-.256,.101-.051,.016-.088,.023-.117,.023-.102,0-.154-.078-.154-.241v-.382c0-.125,.015-.218,.051-.273s.102-.109,.205-.164c.256-.14,.563-.257,.922-.35,.359-.101,.739-.148,1.141-.148,.871,0,1.507,.21,1.917,.631,.402,.42,.607,1.059,.607,1.915v2.523h.015Zm-2.971,1.184c.241,0,.49-.047,.754-.14,.263-.093,.498-.265,.695-.498,.117-.148,.205-.311,.249-.498s.073-.413,.073-.677v-.327c-.212-.055-.439-.101-.673-.132s-.461-.047-.688-.047c-.49,0-.849,.101-1.09,.311-.241,.21-.359,.506-.359,.895,0,.366,.088,.638,.271,.825,.176,.195,.432,.288,.768,.288Zm5.876,.841c-.132,0-.22-.023-.278-.078-.059-.047-.11-.156-.154-.304l-1.719-6.019c-.044-.156-.066-.257-.066-.311,0-.125,.059-.195,.176-.195h.717c.139,0,.234,.023,.285,.078,.059,.047,.102,.156,.146,.304l1.229,5.155,1.141-5.155c.037-.156,.08-.257,.139-.304,.059-.047,.161-.078,.293-.078h.585c.139,0,.234,.023,.293,.078,.059,.047,.11,.156,.139,.304l1.156,5.217,1.266-5.217c.044-.156,.095-.257,.146-.304,.059-.047,.154-.078,.285-.078h.68c.117,0,.183,.062,.183,.195,0,.039-.007,.078-.015,.125-.007,.047-.022,.109-.051,.195l-1.763,6.019c-.044,.156-.095,.257-.154,.304s-.154,.078-.278,.078h-.629c-.139,0-.234-.023-.293-.078s-.11-.156-.139-.311l-1.134-5.022-1.127,5.014c-.037,.156-.08,.257-.139,.311-.059,.055-.161,.078-.293,.078h-.629Zm9.402,.21c-.38,0-.761-.047-1.127-.14-.366-.093-.651-.195-.841-.311-.117-.07-.198-.148-.227-.218-.029-.07-.044-.148-.044-.218v-.397c0-.164,.059-.241,.168-.241,.044,0,.088,.008,.132,.023,.044,.016,.11,.047,.183,.078,.249,.117,.52,.21,.805,.273,.293,.062,.578,.093,.871,.093,.461,0,.82-.086,1.068-.257,.249-.171,.38-.42,.38-.74,0-.218-.066-.397-.198-.545-.132-.148-.38-.28-.739-.405l-1.061-.35c-.534-.179-.929-.444-1.171-.794-.241-.343-.366-.724-.366-1.129,0-.327,.066-.615,.198-.864,.132-.249,.307-.467,.527-.638,.22-.179,.468-.311,.761-.405,.293-.093,.6-.132,.922-.132,.161,0,.329,.008,.49,.031,.168,.023,.322,.055,.476,.086,.146,.039,.285,.078,.417,.125,.132,.047,.234,.093,.307,.14,.102,.062,.176,.125,.22,.195,.044,.062,.066,.148,.066,.257v.366c0,.164-.059,.249-.168,.249-.059,0-.154-.031-.278-.093-.417-.202-.885-.304-1.405-.304-.417,0-.746,.07-.973,.218s-.344,.374-.344,.693c0,.218,.073,.405,.22,.553,.146,.148,.417,.296,.805,.428l1.039,.35c.527,.179,.907,.428,1.134,.747,.227,.319,.337,.685,.337,1.09,0,.335-.066,.638-.19,.903-.132,.265-.307,.498-.534,.685-.227,.195-.498,.335-.812,.436-.329,.109-.673,.164-1.046,.164Z" style="fill:#252f3e;"/><g><path d="M406.197,211.715c-2.407,1.892-5.905,2.897-8.912,2.897-4.215,0-8.012-1.659-10.88-4.415-.227-.218-.022-.514,.249-.343,3.102,1.915,6.929,3.076,10.888,3.076,2.671,0,5.605-.592,8.305-1.806,.402-.195,.746,.28,.351,.592Z" style="fill:#f90; fill-rule:evenodd;"/><path d="M407.199,210.5c-.307-.42-2.034-.202-2.817-.101-.234,.031-.271-.187-.059-.35,1.376-1.028,3.637-.732,3.9-.389,.263,.35-.073,2.756-1.361,3.909-.198,.179-.388,.086-.3-.148,.293-.771,.944-2.507,.637-2.92Z" style="fill:#f90; fill-rule:evenodd;"/></g></g></g><path d="M376.715,217.653c-.002,8.23-6.739,14.97-14.992,14.998-8.219,.028-15.025-6.781-15.008-15.014,.018-8.26,6.786-15.008,15.03-14.986,8.263,.022,14.972,6.746,14.97,15.002Zm-19.752,3.52h9.511c.454-2.398,.43-4.773-.064-7.157-.064-.007-.12-.018-.176-.018-2.975,0-5.95,.002-8.924-.005-.211,0-.265,.081-.306,.27-.299,1.396-.382,2.81-.307,4.229,.047,.894,.174,1.783,.265,2.681Zm-7.49-7.164c-.734,2.388-.711,4.773-.055,7.167h5.286c-.08-1.205-.223-2.398-.222-3.59,.001-1.189,.146-2.378,.229-3.576h-5.238Zm19.307,7.183h.294c1.522,0,3.043-.009,4.565,.008,.284,.003,.399-.079,.466-.353,.536-2.181,.515-4.356-.012-6.535-.06-.249-.164-.323-.418-.321-1.544,.012-3.089,.006-4.634,.007-.108,0-.216,.011-.263,.014,.08,1.219,.219,2.401,.219,3.583,0,1.19-.138,2.381-.217,3.597Zm-2.979,2.233h-8.175c.833,2.428,2.143,4.495,4.089,6.18,1.947-1.693,3.258-3.76,4.086-6.18Zm-.053-11.66c-.841-2.376-2.123-4.421-4.034-6.069-1.881,1.679-3.202,3.688-4.03,6.069h8.065Zm7.38,11.641c-1.593,0-3.102,.007-4.611-.007-.284-.003-.411,.071-.502,.358-.724,2.292-1.868,4.353-3.471,6.151-.049,.055-.089,.119-.19,.256,3.983-.939,6.845-3.171,8.774-6.758Zm-22.807,0c.895,1.774,2.088,3.217,3.607,4.386,1.524,1.173,4.211,2.368,5.069,2.281-.384-.484-.785-.959-1.151-1.459-1.097-1.5-1.896-3.152-2.471-4.917-.037-.113-.168-.277-.256-.278-1.579-.017-3.157-.012-4.797-.012Zm22.703-11.623c-1.231-3.022-5.891-6.54-8.662-6.576,.388,.48,.797,.948,1.165,1.446,1.085,1.465,1.884,3.079,2.454,4.81,.041,.124,.18,.306,.276,.307,1.578,.019,3.157,.014,4.767,.014Zm-22.721,0c1.592,0,3.1-.007,4.609,.007,.283,.003,.416-.071,.51-.354,.637-1.902,1.536-3.67,2.783-5.251,.262-.332,.544-.647,.883-1.049-3.954,.928-6.789,3.163-8.785,6.647Z" style="fill:#b43035;"/><g><path d="M323.192,233.651c-.426,0-.85-.112-1.223-.329l-3.894-2.318c-.582-.327-.298-.443-.106-.509,.775-.273,.933-.335,1.761-.807,.087-.05,.201-.032,.29,.021l2.991,1.785c.108,.059,.261,.059,.361,0l11.664-6.768c.108-.062,.178-.188,.178-.317v-13.531c0-.135-.07-.255-.18-.323l-11.659-6.763c-.108-.065-.251-.065-.359,0l-11.657,6.763c-.113,.065-.185,.191-.185,.32v13.531c0,.129,.07,.252,.181,.314l3.194,1.855c1.734,.872,2.794-.156,2.794-1.189v-13.355c0-.191,.149-.338,.339-.338h1.477c.184,0,.336,.147,.336,.338v13.361c0,2.325-1.261,3.66-3.454,3.66-.674,0-1.206,0-2.689-.734l-3.06-1.773c-.756-.44-1.223-1.262-1.223-2.14v-13.531c0-.881,.467-1.702,1.223-2.137l11.675-6.771c.739-.42,1.72-.42,2.452,0l11.661,6.774c.753,.437,1.223,1.256,1.223,2.137v13.531c0,.878-.47,1.697-1.223,2.137l-11.661,6.771c-.374,.217-.797,.329-1.229,.329" style="fill:#689f63;"/><path d="M327.307,216.636c-3.62-.481-3.988-.731-3.988-1.585,0-.704,.312-1.644,2.995-1.644,2.397,0,3.279,.52,3.644,2.143,.032,.153,.169,.264,.327,.264h1.515c.093,0,.184-.041,.248-.109,.064-.07,.099-.164,.091-.261-.234-2.8-2.085-4.103-5.819-4.103-3.325,0-5.311,1.409-5.311,3.775,0,2.568,1.974,3.276,5.168,3.593,3.819,.376,4.117,.936,4.117,1.691,0,1.311-1.045,1.869-3.504,1.869-3.086,0-3.763-.778-3.991-2.322-.026-.165-.166-.287-.333-.287h-1.507c-.187,0-.338,.15-.338,.338,0,1.975,1.07,4.331,6.173,4.331l-.017,.014c3.696,0,5.816-1.465,5.816-4.018,0-2.533-1.702-3.208-5.287-3.687Z" style="fill:#689f63;"/></g><g><ellipse cx="284.658" cy="217.657" rx="2.841" ry="3" style="fill:#087ea4;"/><path d="M300.596,217.658c0-2.358-2.616-4.403-6.692-5.637,1.026-4.344,.656-7.758-1.277-8.937-1.612-.982-3.949-.282-6.58,1.976-.462,.397-.926,.834-1.388,1.308-.462-.474-.926-.911-1.388-1.308-2.631-2.258-4.968-2.957-6.58-1.976-1.934,1.178-2.303,4.593-1.277,8.937-4.075,1.234-6.692,3.279-6.692,5.637s2.616,4.403,6.692,5.637c-1.025,4.343-.656,7.758,1.277,8.936,.465,.284,.991,.42,1.563,.42,1.81,0,4.089-1.358,6.405-3.72,2.316,2.362,4.595,3.72,6.405,3.72,.572,0,1.099-.136,1.563-.42,1.933-1.178,2.303-4.593,1.277-8.936,4.075-1.234,6.691-3.279,6.691-5.637Zm-13.675-11.462c1.592-1.367,3.018-2.086,4.081-2.086,.353,0,.667,.08,.933,.242,1.255,.764,1.528,3.531,.632,7.307-1.305-.316-2.729-.554-4.242-.703-.867-1.295-1.775-2.486-2.698-3.54,.432-.442,.865-.851,1.296-1.22Zm-8.795,13.181c.28,.571,.577,1.144,.891,1.719,.315,.576,.637,1.134,.965,1.676-1.015-.135-1.97-.312-2.856-.522,.27-.915,.603-1.877,.999-2.873Zm0-3.438c-.397-.996-.729-1.958-.999-2.873,.885-.211,1.84-.387,2.856-.522-.33,.545-.652,1.104-.965,1.675-.314,.575-.611,1.149-.891,1.72Zm.735,1.719c.404-.884,.855-1.789,1.357-2.707,.492-.901,1.009-1.768,1.542-2.594,.927-.073,1.895-.113,2.9-.113s1.972,.04,2.9,.113c.533,.826,1.049,1.694,1.542,2.594,.502,.918,.953,1.822,1.357,2.707-.403,.884-.855,1.789-1.357,2.707-.502,.918-1.019,1.784-1.543,2.595-.927,.073-1.895,.113-2.898,.113s-1.972-.04-2.899-.113c-.524-.811-1.04-1.677-1.543-2.595-.502-.918-.953-1.822-1.357-2.707Zm11.438,3.438c.315-.576,.612-1.15,.892-1.721,.397,.997,.73,1.959,1,2.874-.886,.211-1.841,.387-2.857,.523,.328-.542,.65-1.101,.965-1.676Zm.892-5.157c-.28-.571-.577-1.145-.892-1.72-.312-.572-.634-1.131-.964-1.675,1.015,.135,1.97,.312,2.856,.522-.27,.915-.603,1.877-1,2.873Zm-6.532-7.472c.629,.721,1.25,1.511,1.857,2.358-.608-.029-1.228-.045-1.857-.045s-1.249,.016-1.857,.045c.607-.846,1.228-1.636,1.857-2.358Zm-7.276-4.116c.266-.162,.579-.242,.933-.242,1.062,0,2.489,.72,4.081,2.086,.431,.37,.863,.778,1.295,1.22-.923,1.054-1.831,2.245-2.698,3.54-1.513,.148-2.937,.387-4.243,.703-.896-3.775-.623-6.542,.632-7.307Zm-1.599,17.538c-3.545-1.068-5.677-2.702-5.677-4.231s2.133-3.163,5.677-4.232c.394,1.352,.91,2.773,1.545,4.231-.635,1.458-1.151,2.88-1.545,4.232Zm1.599,9.075c-1.254-.766-1.528-3.532-.632-7.307,1.306,.316,2.73,.554,4.243,.703,.877,1.309,1.785,2.491,2.696,3.526-2.648,2.704-5.054,3.836-6.307,3.078Zm7.276-4.126c-.615-.704-1.237-1.488-1.855-2.348,.608,.029,1.227,.045,1.856,.045s1.247-.015,1.855-.045c-.618,.86-1.24,1.644-1.856,2.348Zm7.276,4.126c-1.254,.758-3.659-.374-6.307-3.078,.911-1.035,1.818-2.218,2.696-3.527,1.514-.148,2.938-.387,4.244-.703,.896,3.775,.622,6.542-.632,7.307Zm1.599-9.075c-.394-1.352-.91-2.774-1.545-4.232,.635-1.458,1.151-2.88,1.545-4.231,3.545,1.068,5.677,2.702,5.677,4.232s-2.132,3.164-5.677,4.232Z" style="fill:#087ea4;"/></g><g id="h"><rect id="i" x="321.069" y="191.253" width="135.897" height="1" style="fill:#b43035;"/><g id="j"><path d="M268.788,188.567c0-.532,.086-1.034,.259-1.505,.173-.472,.422-.883,.749-1.232,.326-.35,.724-.628,1.19-.833,.466-.205,.998-.308,1.596-.308,.392,0,.751,.034,1.078,.104,.326,.07,.644,.171,.952,.301l-.435,1.666c-.195-.074-.41-.14-.644-.195-.233-.057-.495-.084-.784-.084-.616,0-1.076,.191-1.379,.573-.304,.383-.455,.887-.455,1.513,0,.662,.143,1.176,.427,1.54,.285,.363,.782,.546,1.491,.546,.252,0,.522-.023,.812-.07,.29-.047,.556-.121,.799-.224l.294,1.708c-.243,.103-.546,.19-.91,.266-.364,.074-.766,.112-1.204,.112-.672,0-1.251-.101-1.736-.302-.485-.2-.884-.473-1.196-.818-.313-.346-.542-.754-.687-1.226-.145-.471-.217-.981-.217-1.532Z" style="fill:#b43035;"/><path d="M280.576,186.733c-.188-.047-.406-.096-.658-.147-.252-.051-.522-.077-.812-.077-.131,0-.287,.012-.47,.035-.182,.023-.319,.049-.413,.077v5.628h-2.086v-6.972c.373-.131,.814-.255,1.323-.371,.509-.117,1.075-.175,1.701-.175,.112,0,.247,.007,.406,.021,.158,.014,.316,.033,.476,.056,.158,.023,.317,.052,.476,.084,.159,.033,.294,.073,.406,.119l-.35,1.723Z" style="fill:#b43035;"/><path d="M281.555,188.623c0-.653,.101-1.225,.302-1.715,.2-.49,.464-.898,.791-1.226s.702-.573,1.127-.741c.424-.168,.86-.252,1.309-.252,1.045,0,1.871,.319,2.479,.959,.606,.639,.909,1.579,.909,2.82,0,.122-.005,.255-.014,.399-.01,.145-.019,.272-.028,.385h-4.731c.046,.43,.247,.771,.602,1.022s.831,.378,1.428,.378c.383,0,.759-.035,1.128-.105,.368-.07,.669-.156,.902-.259l.28,1.694c-.112,.056-.262,.111-.448,.168-.187,.056-.395,.104-.623,.146s-.474,.077-.734,.105c-.262,.027-.523,.042-.784,.042-.663,0-1.239-.099-1.729-.294-.489-.196-.896-.465-1.218-.806-.322-.34-.56-.744-.714-1.211s-.231-.971-.231-1.512Zm4.9-.798c-.01-.178-.04-.351-.091-.519-.052-.168-.131-.316-.238-.447s-.243-.238-.406-.322-.366-.126-.608-.126c-.233,0-.435,.04-.603,.119s-.308,.185-.42,.314c-.112,.131-.198,.282-.259,.455s-.105,.348-.133,.525h2.758Z" style="fill:#b43035;"/><path d="M292.727,184.689c.616,0,1.13,.069,1.54,.21,.411,.14,.74,.341,.987,.602,.247,.262,.422,.579,.525,.952,.103,.373,.153,.789,.153,1.246v4.34c-.299,.065-.714,.143-1.246,.231-.531,.088-1.176,.133-1.932,.133-.476,0-.908-.042-1.295-.126-.388-.084-.721-.222-1.001-.413s-.495-.441-.645-.749c-.149-.309-.224-.687-.224-1.134,0-.43,.086-.794,.259-1.093,.173-.298,.404-.536,.693-.714,.289-.177,.62-.306,.994-.385,.373-.079,.761-.119,1.162-.119,.271,0,.511,.012,.721,.035s.38,.054,.511,.091v-.196c0-.354-.107-.639-.322-.854s-.588-.322-1.119-.322c-.355,0-.705,.026-1.051,.077-.345,.052-.644,.124-.896,.217l-.267-1.68c.122-.037,.273-.077,.455-.119,.183-.042,.381-.079,.596-.112,.214-.032,.44-.061,.679-.084,.238-.022,.479-.034,.721-.034Zm.168,6.104c.205,0,.401-.005,.588-.014,.187-.01,.336-.023,.448-.042v-1.582c-.084-.019-.21-.037-.378-.057-.168-.019-.322-.027-.462-.027-.196,0-.381,.012-.553,.035-.173,.023-.324,.067-.455,.133s-.233,.153-.309,.266c-.074,.112-.111,.252-.111,.42,0,.327,.109,.553,.329,.68,.219,.126,.52,.188,.902,.188Z" style="fill:#b43035;"/><path d="M297.754,183.051l2.086-.336v2.17h2.506v1.736h-2.506v2.59c0,.438,.077,.789,.231,1.05,.153,.262,.464,.393,.931,.393,.224,0,.455-.021,.693-.063,.237-.042,.455-.1,.65-.175l.294,1.624c-.252,.103-.531,.191-.84,.266-.308,.075-.686,.112-1.134,.112-.569,0-1.041-.077-1.414-.231-.373-.153-.672-.368-.896-.644-.225-.275-.381-.609-.47-1.001s-.133-.826-.133-1.302v-6.188Z" style="fill:#b43035;"/><path d="M306.322,182.757c0,.383-.124,.684-.371,.903-.248,.22-.539,.329-.875,.329s-.628-.109-.875-.329c-.248-.22-.371-.521-.371-.903s.123-.684,.371-.902c.247-.22,.539-.329,.875-.329s.627,.109,.875,.329c.247,.219,.371,.52,.371,.902Zm-.196,9.492h-2.086v-7.364h2.086v7.364Z" style="fill:#b43035;"/><path d="M308.086,185.137c.354-.103,.812-.198,1.372-.287,.56-.088,1.147-.133,1.764-.133,.625,0,1.146,.082,1.561,.245,.416,.163,.745,.395,.987,.693,.243,.299,.415,.653,.519,1.063,.103,.411,.153,.868,.153,1.372v4.158h-2.086v-3.906c0-.672-.089-1.147-.266-1.428-.178-.28-.509-.42-.994-.42-.149,0-.308,.007-.476,.021-.168,.015-.317,.031-.448,.05v5.684h-2.086v-7.112Z" style="fill:#b43035;"/><path d="M322.687,191.325c0,1.204-.306,2.098-.917,2.681s-1.557,.875-2.835,.875c-.448,0-.896-.04-1.344-.119-.448-.079-.864-.185-1.246-.314l.363-1.75c.327,.13,.67,.233,1.029,.308,.359,.075,.768,.112,1.225,.112,.598,0,1.021-.131,1.268-.393,.247-.261,.371-.597,.371-1.008v-.266c-.225,.103-.455,.18-.693,.23-.238,.052-.497,.077-.777,.077-1.017,0-1.796-.301-2.338-.902-.541-.603-.812-1.444-.812-2.527,0-.541,.084-1.033,.252-1.478,.168-.442,.413-.823,.735-1.141,.321-.317,.716-.562,1.183-.735,.467-.172,.994-.259,1.582-.259,.252,0,.511,.012,.777,.035,.266,.023,.529,.054,.791,.091,.261,.038,.511,.082,.749,.133,.237,.052,.45,.105,.637,.161v6.188Zm-4.578-2.996c0,1.167,.471,1.75,1.414,1.75,.215,0,.415-.028,.602-.084s.346-.121,.477-.196v-3.332c-.104-.019-.225-.035-.364-.049s-.304-.021-.49-.021c-.551,0-.961,.182-1.231,.546-.271,.363-.406,.825-.406,1.386Z" style="fill:#b43035;"/></g></g><g id="k"><g><g id="l"><g id="m"><g id="n"><path d="M442.991,129.963h10.979c1.665,0,3.01,1.38,3.01,3.088v10.825c0,1.707-1.346,3.088-3.01,3.088h-10.979c-1.665,0-3.01-1.38-3.01-3.088v-10.825c0-1.707,1.346-3.088,3.01-3.088Z" style="fill:#300;"/></g></g></g><g id="o"><g id="p"><path d="M448.218,140.163h-2.635l-.538,1.707c-.014,.065-.071,.109-.135,.102h-1.332c-.078,0-.099-.044-.078-.131l2.281-6.735c.021-.073,.042-.153,.071-.24,.028-.153,.042-.312,.042-.472-.007-.036,.021-.073,.057-.08h1.835c.057,0,.085,.022,.092,.058l2.585,7.483c.021,.08,0,.116-.071,.116h-1.48c-.05,.007-.099-.029-.113-.08l-.581-1.729Zm-2.224-1.475h1.799c-.042-.153-.099-.334-.163-.523-.064-.196-.128-.407-.191-.625-.071-.225-.135-.443-.205-.668s-.135-.436-.191-.647c-.057-.203-.106-.392-.156-.567h-.014c-.064,.312-.142,.625-.241,.937-.106,.349-.212,.712-.326,1.075-.099,.371-.205,.712-.312,1.017h0Z" style="fill:#ff9a00;"/><path d="M452.008,135.557c-.234,.007-.46-.087-.63-.254-.163-.182-.248-.421-.241-.668-.007-.247,.085-.479,.255-.647,.17-.167,.397-.254,.63-.254,.276,0,.489,.087,.645,.254,.156,.174,.241,.407,.234,.647,.007,.247-.078,.487-.248,.668-.163,.174-.404,.269-.645,.254Zm-.793,6.306v-5.594c0-.073,.028-.102,.092-.102h1.403c.064,0,.092,.036,.092,.102v5.594c0,.08-.028,.116-.092,.116h-1.388c-.071,0-.106-.044-.106-.116Z" style="fill:#ff9a00;"/></g></g></g><g><g id="q"><g id="r"><g id="s"><path d="M417.844,129.963h10.979c1.665,0,3.01,1.38,3.01,3.088v10.825c0,1.707-1.346,3.088-3.01,3.088h-10.979c-1.665,0-3.01-1.38-3.01-3.088v-10.825c0-1.707,1.346-3.088,3.01-3.088Z" style="fill:#001e36;"/></g></g></g><g id="t"><g id="u"><path d="M418.658,141.885v-7.476c0-.051,.021-.08,.071-.08,.12,0,.234,0,.397-.007,.17-.007,.347-.007,.538-.015,.191-.007,.397-.007,.616-.015,.22-.007,.432-.007,.645-.007,.581,0,1.062,.073,1.459,.225,.354,.124,.68,.327,.949,.596,.227,.232,.404,.516,.517,.828,.106,.305,.163,.618,.163,.944,0,.625-.142,1.141-.425,1.547s-.68,.712-1.14,.886c-.482,.182-1.013,.247-1.594,.247-.17,0-.283,0-.354-.007s-.17-.007-.305-.007v2.332c.007,.051-.028,.094-.078,.102h-1.374c-.057,0-.085-.029-.085-.094Zm1.544-6.153v2.441c.099,.007,.191,.015,.276,.015h.375c.276,0,.553-.044,.815-.131,.227-.065,.425-.203,.581-.385,.149-.182,.22-.429,.22-.748,.007-.225-.05-.45-.163-.647-.12-.189-.29-.334-.496-.414-.262-.109-.545-.153-.836-.145-.184,0-.347,0-.482,.007-.142-.007-.241,0-.29,.007h0Z" style="fill:#31a8ff;"/><path d="M428.433,137.729c-.212-.116-.439-.196-.68-.247-.262-.058-.524-.094-.793-.094-.142-.007-.29,.015-.425,.051-.092,.022-.17,.073-.22,.145-.035,.058-.057,.131-.057,.196s.028,.131,.071,.189c.064,.08,.149,.145,.241,.196,.163,.087,.333,.167,.503,.24,.382,.131,.751,.312,1.091,.53,.234,.153,.425,.356,.56,.603,.113,.232,.17,.487,.163,.748,.007,.341-.092,.683-.276,.966-.198,.291-.475,.516-.793,.647-.347,.153-.772,.232-1.282,.232-.326,0-.645-.029-.963-.094-.248-.044-.496-.124-.722-.232-.05-.029-.085-.08-.078-.138v-1.264c0-.022,.007-.051,.028-.065,.021-.015,.043-.007,.064,.007,.276,.167,.567,.283,.878,.356,.269,.073,.553,.109,.836,.109,.269,0,.46-.036,.588-.102,.113-.051,.191-.174,.191-.305,0-.102-.057-.196-.17-.291-.113-.094-.347-.203-.694-.341-.361-.131-.694-.305-1.006-.523-.22-.16-.404-.371-.538-.618-.113-.232-.17-.487-.163-.741,0-.312,.085-.61,.241-.879,.177-.291,.439-.523,.744-.668,.333-.174,.751-.254,1.254-.254,.29,0,.588,.022,.878,.065,.213,.029,.418,.087,.609,.167,.028,.007,.057,.036,.071,.065,.007,.029,.014,.058,.014,.087v1.184c0,.029-.014,.058-.035,.073-.064,.015-.099,.015-.127,0Z" style="fill:#31a8ff;"/></g></g></g><g><circle cx="448.481" cy="117.949" r="7.5" style="fill:#f47421;"/><g><path d="M447.258,115.292c.372-.172,.786-.269,1.222-.269,1.522,0,2.775,1.168,2.912,2.655h1.429c-.068-1.106-.551-2.101-1.294-2.831-.381,.144-.82,.122-1.2-.098-.381-.22-.62-.591-.685-.993-.37-.103-.76-.158-1.162-.158-.695,0-1.353,.164-1.937,.456l.715,1.238Z" style="fill:#fff;"/><path d="M446.792,120.334c-.747-.53-1.236-1.402-1.236-2.386s.489-1.855,1.236-2.386l-.715-1.238c-.88,.586-1.536,1.483-1.808,2.534,.316,.258,.518,.65,.518,1.09s-.202,.832-.518,1.09c.272,1.05,.928,1.948,1.808,2.534l.715-1.238Z" style="fill:#fff;"/><path d="M450.327,121.147c.38-.219,.819-.241,1.2-.098,.744-.731,1.226-1.726,1.294-2.831h-1.429c-.137,1.487-1.39,2.655-2.912,2.655-.436,0-.85-.097-1.222-.269l-.715,1.238c.584,.291,1.241,.456,1.937,.456,.402,0,.792-.055,1.162-.158,.065-.403,.304-.774,.685-.993Z" style="fill:#fff;"/></g><circle cx="443.381" cy="117.949" r="1.001" style="fill:#fff;"/><circle cx="451.031" cy="113.532" r="1.001" style="fill:#fff;"/><circle cx="451.031" cy="122.365" r="1.001" style="fill:#fff;"/></g><g><path d="M433.68,115.732c-.433-.3-1.415-.415-2.177-.258-.1-.771-.498-1.44-1.216-2.045l-.415-.3-.277,.448c-.355,.577-.532,1.38-.476,2.151,.026,.268,.108,.757,.364,1.177-.255,.152-.762,.355-1.437,.342h-12.897l-.026,.162c-.121,.771-.121,3.185,1.329,5.036,1.104,1.408,2.753,2.123,4.908,2.123,4.674,0,8.128-2.322,9.751-6.55,.636,.014,2.008,.005,2.714-1.449,.017-.032,.061-.12,.182-.397l.069-.152-.394-.286Z" style="fill:#1d63ed;"/><rect x="423.755" y="115.192" width="1.451" height="1.425" style="fill:#1d63ed;"/><rect x="423.755" y="112.88" width="1.451" height="1.425" style="fill:#1d63ed;"/><rect x="426.075" y="115.192" width="1.451" height="1.425" style="fill:#1d63ed;"/><rect x="423.755" y="110.567" width="1.451" height="1.425" style="fill:#1d63ed;"/><rect x="421.435" y="112.88" width="1.451" height="1.425" style="fill:#1d63ed;"/><rect x="416.8" y="115.192" width="1.451" height="1.425" style="fill:#1d63ed;"/><rect x="419.12" y="115.192" width="1.451" height="1.425" style="fill:#1d63ed;"/><rect x="421.435" y="115.192" width="1.451" height="1.425" style="fill:#1d63ed;"/><rect x="419.12" y="112.88" width="1.451" height="1.425" style="fill:#1d63ed;"/></g></g><path d="M399.967,134.259c-.628-2.66-2.676-4.736-5.297-5.37,.027-.326,.042-.652,.042-.977,0-6.284-5.231-11.395-11.666-11.395-5.345,0-9.992,3.611-11.291,8.579-4.364,.807-7.61,4.484-7.61,8.887,0,4.996,4.217,9.06,9.404,9.06h19.45c2.039,.002,3.982-.877,5.342-2.417,1.531-1.726,2.138-4.102,1.626-6.366Z" style="fill:#29abe2;"/><g><g><polygon points="325.53 138.299 317.322 131.79 321.402 124.213 333.107 128.779 325.53 138.299" style="fill:url(#v);"/><polygon points="350.933 120.862 350.302 140.533 337.236 145.779 329.367 140.727 340.879 128.779 335.827 117.753 340.344 112.313 350.933 120.862" style="fill:url(#w);"/><polygon points="350.933 120.862 340.587 133.102 335.827 117.753 340.344 112.313 350.933 120.862" style="fill:url(#x);"/><polygon points="333.302 139.999 319.653 144.953 321.839 137.279 324.704 127.856 316.933 125.233 321.839 111.779 332.524 113.09 343.016 125.087 333.302 139.999" style="fill:url(#y);"/></g><g><rect x="323.587" y="118.336" width="20.983" height="20.983"/><rect x="325.53" y="135.385" width="7.869" height="1.311" style="fill:#fff;"/><polygon points="331.213 122.659 331.213 121.056 326.842 121.056 326.842 122.659 328.104 122.659 328.104 128.147 326.842 128.147 326.842 129.75 331.213 129.75 331.213 128.147 329.999 128.147 329.999 122.659 331.213 122.659" style="fill:#fff;"/><path d="M335.39,129.896c-.68,0-1.263-.146-1.7-.389s-.826-.583-1.117-.923l1.214-1.36c.243,.291,.486,.486,.729,.631s.534,.243,.826,.243c.34,0,.631-.097,.874-.34,.194-.243,.291-.583,.291-1.117v-5.586h1.943v5.683c0,.534-.049,.971-.194,1.36-.146,.389-.34,.68-.631,.971-.243,.243-.583,.486-.971,.583-.389,.146-.777,.243-1.263,.243" style="fill:#fff;"/></g></g><g style="mask:url(#a`);"><g><path d="M301.518,115.38l-7.001-3.39c-.81-.392-1.779-.227-2.415,.413l-22.92,21.018c-.616,.565-.616,1.542,.002,2.106l1.872,1.712c.505,.461,1.265,.495,1.808,.081l27.6-21.06c.926-.707,2.256-.042,2.256,1.127v-.082c0-.821-.467-1.569-1.202-1.925Z" style="fill:#0065a9;"/><path d="M301.518,142.177l-7.001,3.391c-.81,.393-1.779,.227-2.415-.413l-22.92-21.018c-.616-.565-.616-1.542,.002-2.106l1.872-1.712c.505-.461,1.265-.495,1.808-.081l27.6,21.06c.926,.707,2.256,.042,2.256-1.127v.082c0,.821-.467,1.569-1.202,1.925Z" style="fill:#007acc;"/><path d="M294.518,145.568c-.811,.392-1.779,.226-2.415-.413,.784,.788,2.124,.23,2.124-.885v-30.983c0-1.115-1.34-1.673-2.124-.885,.636-.64,1.605-.806,2.415-.413l7,3.386c.736,.356,1.203,1.104,1.203,1.925v22.957c0,.821-.468,1.569-1.203,1.925l-7,3.386Z" style="fill:#1f9cf0;"/><g style="opacity:.25;"><path d="M292.816,145.633c.535,.21,1.145,.196,1.686-.065l6.996-3.386c.735-.356,1.203-1.104,1.203-1.925v-22.957c0-.821-.467-1.569-1.203-1.925l-6.996-3.386c-.709-.343-1.539-.259-2.161,.196-.089,.065-.174,.138-.253,.218l-13.393,12.289-5.834-4.454c-.543-.415-1.303-.381-1.807,.081l-1.871,1.712c-.617,.564-.618,1.541-.002,2.106l5.059,4.642-5.059,4.642c-.616,.565-.615,1.542,.002,2.106l1.871,1.712c.504,.461,1.264,.495,1.807,.081l5.834-4.454,13.393,12.289c.212,.213,.461,.374,.728,.479Zm1.394-24.613l-10.162,7.758,10.162,7.758v-15.517Z" style="fill:url(#ab); fill-rule:evenodd;"/></g></g></g><g id="ac"><rect id="ad" x="301.069" y="102.253" width="155.897" height="1" style="fill:#b43035;"/><g id="ae"><path d="M275.155,103.002c-.354,.103-.812,.198-1.372,.287-.56,.089-1.147,.133-1.764,.133-.626,0-1.146-.084-1.562-.252-.415-.168-.744-.403-.986-.707-.243-.303-.416-.665-.519-1.085s-.153-.882-.153-1.386v-4.103h2.086v3.851c0,.672,.088,1.157,.266,1.456,.177,.299,.509,.447,.994,.447,.149,0,.308-.007,.476-.021s.317-.03,.448-.049v-5.685h2.086v7.112Z" style="fill:#b43035;"/><path d="M279.229,101.756c.383,0,.653-.037,.812-.112,.159-.074,.238-.219,.238-.434,0-.168-.103-.315-.308-.441-.206-.126-.519-.268-.938-.427-.326-.121-.623-.247-.889-.378s-.492-.287-.679-.469c-.188-.183-.332-.399-.435-.651s-.153-.555-.153-.91c0-.69,.256-1.236,.77-1.638s1.218-.602,2.114-.602c.448,0,.877,.039,1.288,.118,.41,.08,.737,.166,.979,.26l-.364,1.624c-.242-.084-.506-.159-.791-.225-.284-.065-.604-.098-.959-.098-.653,0-.979,.182-.979,.546,0,.084,.014,.159,.042,.224,.028,.065,.084,.129,.168,.189s.198,.126,.343,.196c.145,.071,.329,.148,.553,.233,.458,.169,.836,.337,1.135,.501,.298,.165,.534,.343,.707,.533,.172,.191,.294,.403,.363,.636,.07,.232,.105,.503,.105,.811,0,.726-.273,1.275-.819,1.648-.546,.372-1.318,.559-2.316,.559-.653,0-1.197-.057-1.631-.168-.435-.112-.735-.205-.903-.28l.35-1.694c.354,.141,.719,.25,1.092,.329,.374,.08,.742,.119,1.106,.119Z" style="fill:#b43035;"/><path d="M286.187,93.761c0,.383-.124,.684-.371,.903-.248,.22-.539,.329-.875,.329s-.628-.109-.875-.329c-.248-.22-.371-.521-.371-.903s.123-.684,.371-.902c.247-.22,.539-.329,.875-.329s.627,.109,.875,.329c.247,.219,.371,.52,.371,.902Zm-.196,9.492h-2.086v-7.364h2.086v7.364Z" style="fill:#b43035;"/><path d="M287.951,96.141c.354-.103,.812-.198,1.372-.287,.56-.088,1.147-.133,1.764-.133,.625,0,1.146,.082,1.561,.245,.416,.163,.745,.395,.987,.693,.243,.299,.415,.653,.519,1.063,.103,.411,.153,.868,.153,1.372v4.158h-2.086v-3.906c0-.672-.089-1.147-.266-1.428-.178-.28-.509-.42-.994-.42-.149,0-.308,.007-.476,.021-.168,.015-.317,.031-.448,.05v5.684h-2.086v-7.112Z" style="fill:#b43035;"/><path d="M302.552,102.33c0,1.204-.306,2.098-.917,2.681s-1.557,.875-2.835,.875c-.448,0-.896-.04-1.344-.119-.448-.079-.864-.185-1.246-.314l.363-1.75c.327,.13,.67,.233,1.029,.308,.359,.075,.768,.112,1.225,.112,.598,0,1.021-.131,1.268-.393,.247-.261,.371-.597,.371-1.008v-.266c-.225,.103-.455,.18-.693,.23-.238,.052-.497,.077-.777,.077-1.017,0-1.796-.301-2.338-.902-.541-.603-.812-1.444-.812-2.527,0-.541,.084-1.033,.252-1.478,.168-.442,.413-.823,.735-1.141,.321-.317,.716-.562,1.183-.735,.467-.172,.994-.259,1.582-.259,.252,0,.511,.012,.777,.035,.266,.023,.529,.054,.791,.091,.261,.038,.511,.082,.749,.133,.237,.052,.45,.105,.637,.161v6.188Zm-4.578-2.996c0,1.167,.471,1.75,1.414,1.75,.215,0,.415-.028,.602-.084s.346-.121,.477-.196v-3.332c-.104-.019-.225-.035-.364-.049s-.304-.021-.49-.021c-.551,0-.961,.182-1.231,.546-.271,.363-.406,.825-.406,1.386Z" style="fill:#b43035;"/></g></g><g id="af"><g><path d="M456.832,41.894c0-.336-.073-.633-.22-.888-.145-.251-.361-.461-.651-.627-2.396-1.366-4.795-2.728-7.19-4.095-.646-.369-1.272-.355-1.913,.019-.954,.556-5.729,3.261-7.152,4.076-.586,.335-.871,.849-.871,1.516,0,2.747,0,5.494,0,8.241,0,.329,.07,.62,.21,.871,.145,.258,.364,.474,.661,.644,1.423,.815,6.199,3.519,7.153,4.076,.641,.374,1.267,.387,1.914,.019,2.396-1.367,4.794-2.729,7.191-4.095,.297-.17,.516-.386,.661-.644,.14-.251,.21-.543,.21-.872,0,0,0-5.493,0-8.24" style="fill:#a179dc;"/><path d="M447.861,45.987l-8.817,5.019c.145,.258,.364,.474,.661,.644,1.423,.815,6.199,3.519,7.153,4.076,.641,.374,1.267,.387,1.914,.019,2.396-1.367,4.794-2.729,7.191-4.095,.297-.17,.516-.386,.661-.644l-8.762-5.018" style="fill:#280068;"/><path d="M456.832,41.894c0-.336-.073-.633-.22-.888l-8.752,4.982,8.762,5.018c.14-.251,.21-.543,.21-.872,0,0,0-5.493,0-8.24" style="fill:#390091;"/><path d="M453.052,44.111v.938h.949v-.938h.474v.938h.949v.469h-.949v.938h.949v.469h-.949v.938h-.474v-.938h-.949v.938h-.474v-.938h-.949v-.469h.949v-.938h-.949v-.469h.949v-.938h.474Zm.949,1.407h-.949v.938h.949v-.938Z" style="fill:#fff;"/><path d="M447.88,39.399c2.475,0,4.636,1.329,5.793,3.304l-.011-.019-2.912,1.658c-.574-.96-1.626-1.608-2.832-1.622h-.038c-1.84,0-3.332,1.474-3.332,3.293,0,.595,.16,1.152,.439,1.634,.574,.991,1.654,1.66,2.892,1.66,1.246,0,2.332-.677,2.903-1.679l-.014,.024,2.908,1.665c-1.145,1.959-3.276,3.283-5.722,3.31h-.075c-2.483,0-4.65-1.337-5.805-3.322-.564-.969-.886-2.093-.886-3.292,0-3.653,2.995-6.614,6.691-6.614Z" style="fill:#fff;"/></g><g><path d="M432.604,51.014c.141-.242,.229-.514,.229-.758v-8.484c0-.244-.088-.517-.229-.758l-8.771,5,8.771,5Z" style="fill:#00599c;"/><path d="M424.613,55.83l7.441-4.242c.214-.122,.409-.333,.55-.575l-8.771-5-8.771,5c.141,.242,.336,.453,.55,.575l7.441,4.242c.429,.244,1.13,.244,1.559,0Z" style="fill:#004482;"/><path d="M432.604,41.014c-.141-.242-.336-.453-.55-.575l-7.441-4.242c-.429-.244-1.13-.244-1.559,0l-7.441,4.242c-.429,.244-.779,.844-.779,1.333v8.484c0,.244,.088,.517,.229,.758l8.771-5,8.771-5Z" style="fill:#659ad2;"/><path d="M423.833,51.938c-3.308,0-6-2.658-6-5.924s2.692-5.924,6-5.924c2.135,0,4.126,1.134,5.196,2.96l-2.597,1.484c-.536-.914-1.532-1.482-2.599-1.482-1.654,0-3,1.329-3,2.962s1.346,2.962,3,2.962c1.068,0,2.064-.568,2.599-1.482l2.597,1.484c-1.07,1.826-3.061,2.96-5.196,2.96Z" style="fill:#fff;"/><polygon points="429.833 45.685 429.167 45.685 429.167 45.026 428.5 45.026 428.5 45.685 427.833 45.685 427.833 46.343 428.5 46.343 428.5 47.001 429.167 47.001 429.167 46.343 429.833 46.343 429.833 45.685" style="fill:#fff;"/><polygon points="432.333 45.685 431.667 45.685 431.667 45.026 431 45.026 431 45.685 430.333 45.685 430.333 46.343 431 46.343 431 47.001 431.667 47.001 431.667 46.343 432.333 46.343 432.333 45.685" style="fill:#fff;"/></g><g><ellipse cx="447.833" cy="25.703" rx="10.667" ry="6" style="fill:#4f5b93;"/><path d="M445.528,23.646c-.325-.398-.842-.597-1.55-.597h-2.356l-1.093,6.013h1.225l.291-1.599h1.049c.463,0,.844-.052,1.143-.156,.299-.104,.571-.278,.815-.523,.205-.202,.371-.424,.499-.668,.127-.243,.217-.512,.271-.805,.13-.713,.032-1.268-.293-1.666Zm-.973,1.574c-.085,.465-.248,.798-.49,.997-.242,.199-.61,.298-1.103,.298h-.745l.457-2.517h.839c.465,0,.775,.092,.931,.276,.155,.184,.192,.499,.111,.946Z" style="fill:#fff;"/><path d="M446.959,27.464l.626-3.445h.971c.311,0,.514,.055,.61,.165,.095,.11,.116,.316,.061,.619l-.483,2.66h1.235l.508-2.798c.103-.569,.026-.981-.233-1.235-.259-.254-.728-.381-1.41-.381h-1.083l.291-1.599h-1.215l-1.093,6.013h1.215Z" style="fill:#fff;"/><path d="M453.538,23.05h-2.355l-1.093,6.013h1.225l.29-1.599h1.049c.463,0,.844-.052,1.143-.156,.299-.104,.571-.278,.815-.523,.205-.202,.371-.424,.499-.668,.127-.243,.217-.512,.271-.805,.13-.713,.032-1.268-.293-1.666-.325-.398-.842-.597-1.55-.597Zm.578,2.17c-.085,.465-.248,.798-.49,.997-.242,.199-.61,.298-1.103,.298h-.745l.457-2.517h.839c.465,0,.775,.092,.931,.276,.155,.184,.192,.499,.111,.946Z" style="fill:#fff;"/><g><path d="M443.514,24.246h-.648l-.367,2.021h.464c.439,0,.763-.083,.962-.247,.195-.16,.33-.445,.403-.848,.065-.359,.046-.613-.055-.733-.061-.072-.241-.194-.759-.194Z" style="fill:#4f5b93;"/><path d="M453.074,24.246h-.648l-.367,2.021h.464c.439,0,.763-.083,.962-.247,.194-.16,.33-.445,.403-.848,.065-.359,.046-.613-.055-.733-.061-.072-.241-.194-.759-.194Z" style="fill:#4f5b93;"/><path d="M455.263,23.483c-.369-.452-.95-.681-1.725-.681h-2.355c-.111,0-.206,.084-.227,.2l-.205,1.126c-.017-.369-.125-.668-.341-.88-.306-.3-.818-.446-1.566-.446h-.802l.237-1.304c.013-.073-.005-.148-.049-.205-.044-.057-.109-.09-.179-.09h-1.215c-.111,0-.206,.084-.227,.2l-.536,2.95c-.053-.336-.174-.629-.371-.87-.369-.452-.95-.681-1.725-.681h-2.356c-.111,0-.206,.084-.227,.2l-1.093,6.013c-.013,.073,.005,.148,.049,.205,.044,.057,.109,.09,.179,.09h1.225c.111,0,.206-.084,.227-.2l.254-1.398h.858c.485,0,.894-.057,1.214-.168,.329-.114,.633-.309,.901-.577,.208-.204,.378-.434,.513-.68l-.205,1.13c-.013,.073,.005,.148,.049,.205,.044,.057,.109,.09,.179,.09h1.215c.111,0,.206-.084,.227-.2l.59-3.244h.78c.361,0,.437,.082,.44,.086,.022,.025,.051,.142,.003,.403l-.483,2.66c-.013,.073,.005,.148,.049,.205,.044,.057,.109,.09,.179,.09h1.235c.049,0,.093-.022,.131-.05l-.246,1.354c-.013,.073,.005,.148,.049,.205,.044,.057,.109,.09,.179,.09h1.225c.111,0,.206-.084,.227-.2l.254-1.398h.858c.485,0,.894-.057,1.214-.168,.329-.114,.633-.309,.901-.577,.222-.218,.405-.463,.543-.728,.139-.265,.238-.561,.296-.879,.143-.788,.027-1.419-.346-1.876Zm-6.036,1.32c.055-.303,.035-.509-.061-.619-.096-.11-.299-.165-.61-.165h-.971l-.626,3.445h-1.215l1.093-6.013h1.215l-.291,1.599h1.083c.681,0,1.151,.127,1.41,.381,.259,.254,.336,.666,.233,1.235l-.508,2.798h-1.235l.483-2.66Zm-6.133,2.66h-1.049l-.291,1.599h-1.225l1.093-6.013h2.356c.709,0,1.226,.199,1.55,.597,.325,.398,.423,.953,.293,1.666-.053,.294-.144,.562-.271,.805-.127,.243-.293,.466-.499,.668-.245,.245-.516,.419-.815,.523-.299,.104-.68,.156-1.143,.156Zm12.288-2.152c-.053,.294-.144,.562-.271,.805-.127,.243-.293,.466-.499,.668-.245,.245-.516,.419-.815,.523-.299,.104-.68,.156-1.143,.156h-1.049l-.29,1.599h-1.225l1.093-6.013h2.355c.709,0,1.226,.199,1.55,.597,.325,.398,.423,.953,.293,1.666Z" style="fill:#4f5b93;"/></g></g><g><path d="M407.818,23.177c-.058,0-.073-.031-.044-.078l.307-.422c.029-.047,.102-.078,.161-.078h5.215c.058,0,.073,.047,.044,.094l-.248,.407c-.029,.047-.102,.094-.146,.094l-5.288-.016Z" style="fill:#00acd7;"/><path d="M405.612,24.616c-.058,0-.073-.031-.044-.078l.307-.422c.029-.047,.102-.078,.161-.078h6.661c.058,0,.088,.047,.073,.094l-.117,.375c-.015,.063-.073,.094-.131,.094l-6.909,.016Z" style="fill:#00acd7;"/><path d="M409.147,26.055c-.058,0-.073-.047-.044-.094l.204-.391c.029-.047,.088-.094,.146-.094h2.921c.058,0,.088,.047,.088,.109l-.029,.375c0,.063-.058,.109-.102,.109l-3.184-.016Z" style="fill:#00acd7;"/><g id="ag"><g><path d="M424.308,22.896c-.92,.25-1.548,.438-2.454,.688-.219,.063-.234,.078-.424-.156-.219-.266-.38-.438-.687-.594-.92-.485-1.811-.344-2.644,.235-.993,.688-1.504,1.705-1.49,2.971,.015,1.251,.818,2.283,1.972,2.455,.993,.141,1.826-.235,2.483-1.032,.131-.172,.248-.36,.394-.579h-2.819c-.307,0-.38-.203-.278-.469,.19-.485,.54-1.298,.745-1.705,.044-.094,.146-.25,.365-.25h5.317c-.029,.422-.029,.844-.088,1.267-.161,1.126-.555,2.158-1.198,3.065-1.052,1.486-2.425,2.408-4.163,2.659-1.431,.203-2.761-.094-3.929-1.032-1.081-.876-1.694-2.033-1.855-3.472-.19-1.705,.278-3.237,1.242-4.582,1.037-1.454,2.41-2.377,4.09-2.705,1.373-.266,2.688-.094,3.871,.766,.774,.547,1.329,1.298,1.694,2.205,.088,.141,.029,.219-.146,.266Z" style="fill:#00acd7;"/><path d="M429.143,31.544c-1.329-.031-2.542-.438-3.564-1.376-.862-.798-1.402-1.814-1.578-3.018-.263-1.767,.19-3.331,1.183-4.723,1.066-1.501,2.352-2.283,4.09-2.612,1.49-.281,2.892-.125,4.163,.798,1.154,.844,1.87,1.986,2.06,3.487,.248,2.111-.321,3.831-1.68,5.301-.964,1.048-2.147,1.705-3.506,2.002-.394,.078-.789,.094-1.169,.141Zm3.476-6.318c-.015-.203-.015-.36-.044-.516-.263-1.548-1.592-2.424-2.98-2.08-1.358,.328-2.235,1.251-2.556,2.721-.263,1.22,.292,2.455,1.344,2.956,.803,.375,1.607,.328,2.381-.094,1.154-.641,1.782-1.642,1.855-2.987Z" style="fill:#00acd7;"/></g></g></g></g><g><path d="M388.235,42.224c.909-.523,2.17-.977,2.17-.977,0,0-3.589,.547-7.159,.797-4.367,.305-9.06,.367-11.415,.101-5.573-.625,3.06-2.352,3.06-2.352,0,0-3.348-.187-7.474,1.484-4.868,1.984,12.055,2.891,20.818,.945Z" style="fill:#5382a1;"/><path d="M380.316,39.716c-1.762-3.336-7.706-6.266,0-11.39,9.616-6.39,4.683-10.547,4.683-10.547,1.994,6.601-7.01,8.601-10.265,12.703-2.216,2.805,1.085,5.812,5.582,9.234Z" style="fill:#f8981d;"/><path d="M390.943,25.951c.009,0-16.246,3.422-8.485,10.953,2.29,2.219-.603,4.219-.603,4.219,0,0,5.814-2.531,3.144-5.695-2.494-2.953-4.405-4.422,5.944-9.476Z" style="fill:#f8981d;"/><path d="M390.377,47.083c-.046,.094-.185,.195-.185,.203,11.897-2.633,7.52-9.289,1.836-7.601-.501,.148-.76,.492-.76,.492,0,0,.315-.109,1.02-.234,2.874-.508,7.001,3.242-1.91,7.141h0Z" style="fill:#5382a1;"/><path d="M394.754,51.95s1.345,.93-1.474,1.656c-5.369,1.367-22.329,1.781-27.04,.055-1.697-.617,1.484-1.485,2.485-1.664,1.038-.188,1.641-.156,1.641-.156-1.882-1.117-12.175,2.195-5.23,3.141,18.935,2.594,34.532-1.164,29.618-3.031h0Z" style="fill:#5382a1;"/><path d="M374.02,48.716c-7.298,1.719,4.442,5.266,13.733,1.914-1.521-.5-2.615-1.078-2.615-1.078-4.145,.664-6.064,.711-9.829,.352-3.106-.297-1.289-1.188-1.289-1.188h0Z" style="fill:#5382a1;"/><path d="M390.692,56.31c-7.298,1.156-16.302,1.024-21.634,.281,0-.008,1.094,.758,6.714,1.063,8.55,.461,21.68-.258,21.986-3.664,0,0-.593,1.289-7.066,2.32h0Z" style="fill:#5382a1;"/><path d="M386.649,45.357c-5.49,.891-8.67,.867-12.685,.516-3.107-.273-1.076-1.539-1.076-1.539-8.049,2.25,4.47,4.797,15.717,2.023-1.196-.352-1.956-1-1.956-1Z" style="fill:#5382a1;"/></g><g><path d="M350.349,34.103c-.601-2.396-1.739-4.203-4.164-4.203h-3.127v3.676c0,2.854-2.433,5.258-5.209,5.258h-8.328c-2.277,0-4.164,1.939-4.164,4.211v7.895c0,2.249,1.965,3.567,4.164,4.211,2.636,.768,5.17,.907,8.328,0,2.098-.605,4.164-1.822,4.164-4.211v-1.655h-8.321v-2.556h12.492c2.425,0,3.322-1.683,4.164-4.203,.873-2.598,.835-5.095,0-8.422Zm-12.69,16.736c.823,0,1.504,.685,1.504,1.518s-.674,1.511-1.504,1.511-1.504-.677-1.504-1.511c.008-.841,.674-1.518,1.504-1.518Z" style="fill:#ffca1d;"/><path d="M336.403,20.112c-2.792-.458-5.825-.434-8.328,.008-3.525,.62-4.164,1.916-4.164,4.312v1.691h8.336v2.52h-11.463c-2.425,0-4.546,1.45-5.209,4.203-.764,3.156-.795,5.126,0,8.422,.593,2.451,2.004,4.203,4.429,4.203h2.862v-3.784c0-2.737,2.378-5.149,5.209-5.149h8.328c2.316,0,4.164-1.9,4.164-4.211v-7.902c0-2.249-1.903-3.932-4.164-4.312Zm-8.851,4.547c-.831,0-1.504-.677-1.504-1.511,.007-.841,.674-1.518,1.504-1.518,.823,0,1.504,.685,1.504,1.518,0,.834-.674,1.511-1.504,1.511Z" style="fill:#347ab4;"/></g><path d="M299.4,20.779h-27.359c-1.833,0-3.321,1.487-3.321,3.321v27.359c0,1.833,1.487,3.321,3.321,3.321h27.359c1.833,0,3.321-1.487,3.321-3.321V24.099c0-1.833-1.487-3.321-3.321-3.321Zm-10.957,18.864h-4.264v12.146h-3.379v-12.147h-4.244v-2.728h11.887v2.729Zm11.016,9.993c-.662,1.183-1.877,1.849-3.171,2.125-1.502,.32-3.098,.303-4.604,.021-.738-.139-1.377-.346-1.917-.623v-3.325c.603,.506,1.258,.885,1.965,1.138,.707,.254,1.421,.38,2.141,.38,.638,0,1.347-.079,1.897-.431,.377-.241,.629-.62,.629-1.075,0-.619-.448-1.087-.931-1.412-.707-.476-1.519-.786-2.302-1.112-1.165-.484-2.032-1.077-2.604-1.776-.994-1.217-1.157-3.161-.39-4.535,.656-1.173,1.864-1.864,3.139-2.172,1.39-.334,2.898-.334,4.308-.115,.599,.093,1.152,.237,1.658,.431v3.107c-.249-.173-.521-.326-.816-.456-.581-.259-1.208-.435-1.839-.52-.63-.085-1.295-.099-1.917,.047-.49,.113-1.006,.341-1.289,.779-.118,.184-.177,.39-.177,.618,0,.249,.065,.473,.197,.67,.333,.5,.919,.822,1.445,1.081,.924,.453,1.893,.793,2.779,1.319,.861,.509,1.626,1.217,2,2.16,.18,.453,.271,.982,.271,1.584-.001,.832-.159,1.53-.473,2.094Z" style="fill:#3178ca;"/><g id="ah"><rect id="ai" x="295.069" y="11.253" width="161.897" height="1" style="fill:#b43035;"/><g id="aj"><path d="M274.048,8.026c-.187,.709-.385,1.413-.595,2.113s-.432,1.405-.665,2.114h-1.624c-.169-.392-.352-.858-.548-1.4-.196-.541-.4-1.131-.61-1.771-.211-.64-.426-1.316-.646-2.03-.22-.714-.433-1.435-.639-2.163h2.198c.075,.336,.157,.703,.246,1.1s.184,.805,.282,1.225,.201,.843,.31,1.267c.107,.425,.218,.833,.331,1.226,.121-.411,.24-.831,.356-1.26,.117-.43,.229-.852,.337-1.268,.106-.415,.21-.816,.308-1.204,.098-.387,.185-.749,.259-1.085h1.512c.075,.336,.159,.698,.252,1.085,.094,.388,.191,.789,.295,1.204,.103,.416,.21,.838,.321,1.268,.112,.429,.229,.849,.351,1.26,.112-.393,.225-.801,.338-1.226,.112-.424,.218-.847,.316-1.267s.192-.828,.282-1.225c.089-.396,.171-.764,.246-1.1h2.17c-.206,.729-.419,1.449-.639,2.163s-.436,1.391-.646,2.03c-.211,.64-.417,1.229-.618,1.771-.201,.542-.386,1.009-.555,1.4h-1.624c-.233-.709-.462-1.414-.686-2.114-.225-.7-.43-1.404-.616-2.113Z" style="fill:#b43035;"/><path d="M282.82,2.761c0,.383-.124,.684-.371,.903-.248,.22-.539,.329-.875,.329s-.628-.109-.875-.329c-.248-.22-.371-.521-.371-.903s.123-.684,.371-.902c.247-.22,.539-.329,.875-.329s.627,.109,.875,.329c.247,.219,.371,.52,.371,.902Zm-.196,9.492h-2.086V4.889h2.086v7.364Z" style="fill:#b43035;"/><path d="M284.513,3.055l2.086-.336v2.17h2.506v1.736h-2.506v2.59c0,.438,.077,.789,.231,1.05,.153,.262,.464,.393,.931,.393,.224,0,.455-.021,.693-.063,.237-.042,.455-.1,.65-.175l.294,1.624c-.252,.103-.531,.191-.84,.266-.308,.075-.686,.112-1.134,.112-.569,0-1.041-.077-1.414-.231-.373-.153-.672-.368-.896-.644-.225-.275-.381-.609-.47-1.001s-.133-.826-.133-1.302V3.055Z" style="fill:#b43035;"/><path d="M290.798,12.254V1.725l2.086-.336v3.528c.141-.047,.32-.091,.539-.133,.22-.042,.432-.063,.638-.063,.597,0,1.094,.082,1.49,.245s.714,.395,.952,.693,.406,.653,.504,1.063c.099,.411,.147,.868,.147,1.372v4.158h-2.086v-3.906c0-.672-.087-1.147-.259-1.428-.173-.28-.493-.42-.959-.42-.188,0-.362,.017-.525,.049-.163,.033-.311,.068-.441,.105v5.6h-2.086Z" style="fill:#b43035;"/></g></g><g id="ak"><g id="al"><path d="M12.988,117.234c-3.605,0-6.352-1.003-8.24-3.008-1.888-2.006-2.832-4.854-2.832-8.544,0-1.835,.288-3.473,.864-4.912,.576-1.44,1.365-2.656,2.368-3.648,1.002-.992,2.197-1.744,3.584-2.256,1.387-.512,2.891-.769,4.512-.769,.938,0,1.792,.07,2.56,.208,.768,.14,1.44,.3,2.016,.48,.576,.182,1.056,.368,1.44,.56,.384,.192,.661,.342,.832,.448l-1.44,4.032c-.683-.362-1.478-.672-2.384-.928-.907-.256-1.936-.385-3.088-.385-.768,0-1.52,.129-2.256,.385-.736,.256-1.387,.667-1.952,1.231-.565,.565-1.019,1.296-1.36,2.192-.341,.896-.512,1.983-.512,3.264,0,1.024,.112,1.979,.336,2.864,.224,.886,.586,1.647,1.088,2.288,.501,.64,1.157,1.146,1.968,1.52,.811,.374,1.792,.561,2.944,.561,.725,0,1.376-.043,1.952-.128,.576-.085,1.088-.187,1.536-.305,.448-.116,.843-.25,1.184-.399,.341-.149,.65-.288,.928-.416l1.376,4c-.704,.427-1.696,.811-2.976,1.151-1.28,.342-2.763,.513-4.448,.513Z" style="fill:#313840;"/><path d="M33.436,104.177c-.427-.106-.928-.218-1.504-.336-.576-.116-1.195-.176-1.856-.176-.299,0-.656,.027-1.072,.08-.416,.054-.731,.112-.944,.176v12.864h-4.768v-15.936c.853-.299,1.861-.581,3.024-.849,1.162-.267,2.458-.399,3.888-.399,.256,0,.565,.016,.928,.048,.362,.032,.725,.075,1.088,.128,.362,.054,.725,.117,1.088,.191,.363,.075,.672,.166,.928,.272l-.8,3.936Z" style="fill:#313840;"/><path d="M35.676,108.498c0-1.493,.229-2.8,.688-3.92,.458-1.12,1.061-2.053,1.808-2.8,.747-.747,1.605-1.312,2.576-1.696,.97-.384,1.968-.576,2.992-.576,2.389,0,4.277,.731,5.664,2.192,1.387,1.461,2.08,3.611,2.08,6.448,0,.277-.011,.581-.032,.912-.021,.33-.043,.624-.064,.88h-10.816c.106,.981,.565,1.76,1.376,2.336,.811,.576,1.898,.863,3.264,.863,.875,0,1.733-.079,2.576-.239s1.531-.357,2.064-.593l.64,3.872c-.256,.128-.597,.257-1.024,.385s-.901,.239-1.424,.336c-.523,.096-1.083,.176-1.68,.239-.598,.064-1.195,.097-1.792,.097-1.515,0-2.832-.225-3.952-.672-1.12-.448-2.048-1.062-2.784-1.841-.736-.778-1.28-1.7-1.632-2.768-.352-1.066-.528-2.219-.528-3.456Zm11.2-1.824c-.021-.404-.091-.8-.208-1.184-.118-.384-.299-.726-.544-1.024-.246-.298-.555-.544-.928-.735-.374-.192-.837-.288-1.392-.288-.533,0-.992,.091-1.376,.271-.384,.182-.704,.422-.96,.721s-.454,.646-.592,1.04c-.139,.395-.24,.795-.304,1.199h6.304Z" style="fill:#313840;"/><path d="M61.212,99.506c1.408,0,2.581,.16,3.52,.48,.938,.319,1.69,.778,2.256,1.376,.565,.598,.965,1.323,1.2,2.176,.234,.854,.352,1.803,.352,2.848v9.92c-.683,.15-1.632,.326-2.848,.528-1.216,.203-2.688,.304-4.416,.304-1.088,0-2.075-.096-2.96-.287-.886-.192-1.648-.507-2.288-.944s-1.131-1.008-1.472-1.712-.512-1.568-.512-2.592c0-.981,.197-1.813,.592-2.496,.395-.683,.922-1.227,1.584-1.632,.661-.405,1.418-.699,2.272-.881,.853-.181,1.739-.271,2.656-.271,.618,0,1.168,.027,1.648,.08,.48,.054,.869,.123,1.168,.208v-.448c0-.811-.246-1.461-.736-1.952-.491-.49-1.344-.735-2.56-.735-.811,0-1.611,.059-2.4,.176-.79,.117-1.472,.283-2.048,.496l-.608-3.841c.277-.085,.624-.176,1.04-.271s.869-.181,1.36-.256c.491-.074,1.008-.139,1.552-.192,.544-.053,1.093-.08,1.648-.08Zm.384,13.952c.469,0,.917-.011,1.344-.032,.426-.021,.768-.053,1.024-.096v-3.616c-.192-.042-.48-.085-.864-.128-.384-.042-.736-.063-1.056-.063-.448,0-.87,.026-1.264,.08-.395,.053-.742,.154-1.04,.304-.299,.149-.533,.352-.704,.607-.171,.257-.256,.576-.256,.961,0,.746,.25,1.264,.752,1.552,.501,.288,1.189,.432,2.064,.432Z" style="fill:#313840;"/><path d="M72.7,95.761l4.768-.768v4.96h5.728v3.968h-5.728v5.92c0,1.003,.176,1.804,.528,2.4,.352,.598,1.061,.896,2.128,.896,.512,0,1.04-.048,1.584-.144s1.04-.229,1.488-.4l.672,3.712c-.576,.235-1.216,.438-1.92,.608s-1.568,.256-2.592,.256c-1.301,0-2.379-.176-3.232-.527-.854-.353-1.536-.843-2.048-1.473-.512-.629-.87-1.392-1.072-2.288-.203-.896-.304-1.888-.304-2.976v-14.145Z" style="fill:#313840;"/><path d="M92.283,95.09c0,.875-.283,1.563-.848,2.064-.565,.501-1.232,.752-2,.752s-1.435-.251-2-.752c-.565-.501-.848-1.189-.848-2.064s.283-1.562,.848-2.063c.565-.501,1.232-.752,2-.752s1.435,.251,2,.752c.565,.501,.848,1.189,.848,2.063Zm-.448,21.696h-4.768v-16.832h4.768v16.832Z" style="fill:#313840;"/><path d="M100.403,116.786c-1.092-2.133-2.2-4.629-3.324-7.488-1.124-2.858-2.189-5.973-3.196-9.344h5.056c.214,.832,.466,1.733,.755,2.704,.289,.971,.589,1.952,.9,2.944,.31,.991,.621,1.957,.932,2.896,.311,.939,.617,1.792,.917,2.561,.278-.769,.578-1.621,.899-2.561,.321-.938,.637-1.904,.948-2.896,.311-.992,.61-1.974,.899-2.944s.541-1.872,.755-2.704h4.931c-1.006,3.371-2.07,6.485-3.193,9.344-1.123,2.859-2.23,5.355-3.322,7.488h-3.957Z" style="fill:#313840;"/><path d="M112.155,108.498c0-1.493,.229-2.8,.688-3.92,.458-1.12,1.061-2.053,1.808-2.8,.747-.747,1.605-1.312,2.576-1.696,.97-.384,1.968-.576,2.992-.576,2.389,0,4.277,.731,5.664,2.192,1.387,1.461,2.08,3.611,2.08,6.448,0,.277-.011,.581-.032,.912-.021,.33-.043,.624-.064,.88h-10.816c.106,.981,.565,1.76,1.376,2.336,.811,.576,1.898,.863,3.264,.863,.875,0,1.733-.079,2.576-.239s1.531-.357,2.064-.593l.64,3.872c-.256,.128-.597,.257-1.024,.385s-.901,.239-1.424,.336c-.523,.096-1.083,.176-1.68,.239-.598,.064-1.195,.097-1.792,.097-1.515,0-2.832-.225-3.952-.672-1.12-.448-2.048-1.062-2.784-1.841-.736-.778-1.28-1.7-1.632-2.768-.352-1.066-.528-2.219-.528-3.456Zm11.2-1.824c-.021-.404-.091-.8-.208-1.184-.118-.384-.299-.726-.544-1.024-.246-.298-.555-.544-.928-.735-.374-.192-.837-.288-1.392-.288-.533,0-.992,.091-1.376,.271-.384,.182-.704,.422-.96,.721s-.454,.646-.592,1.04c-.139,.395-.24,.795-.304,1.199h6.304Z" style="fill:#313840;"/><path d="M2.876,155.186v-22.176h14.848v4.191H7.868v4.641h8.768v4.191H7.868v9.152H2.876Z" style="fill:#313840;"/><path d="M34.652,154.61c-.811,.235-1.856,.454-3.136,.656-1.28,.202-2.624,.304-4.032,.304-1.429,0-2.619-.191-3.568-.576-.95-.384-1.702-.922-2.256-1.615-.555-.693-.95-1.521-1.184-2.48-.235-.96-.352-2.016-.352-3.168v-9.376h4.768v8.8c0,1.536,.202,2.646,.608,3.328,.405,.683,1.163,1.024,2.272,1.024,.341,0,.704-.017,1.088-.048,.384-.032,.725-.069,1.024-.112v-12.992h4.768v16.256Z" style="fill:#313840;"/><path d="M45.852,155.507c-1.387-.021-2.512-.171-3.376-.448-.864-.277-1.547-.667-2.048-1.168-.501-.501-.843-1.109-1.024-1.824-.182-.715-.272-1.52-.272-2.416v-18.528l4.768-.768v18.336c0,.427,.032,.812,.096,1.152s.187,.629,.368,.863c.181,.235,.442,.428,.784,.576,.341,.149,.8,.246,1.376,.288l-.672,3.937Z" style="fill:#313840;"/><path d="M55.963,155.507c-1.387-.021-2.512-.171-3.376-.448-.864-.277-1.547-.667-2.048-1.168-.501-.501-.843-1.109-1.024-1.824-.182-.715-.272-1.52-.272-2.416v-18.528l4.768-.768v18.336c0,.427,.032,.812,.096,1.152s.187,.629,.368,.863c.181,.235,.442,.428,.784,.576,.341,.149,.8,.246,1.376,.288l-.672,3.937Z" style="fill:#313840;"/><path d="M57.915,143.474h9.28v4.32h-9.28v-4.32Z" style="fill:#313840;"/><path d="M76.603,151.379c.704,0,1.285-.059,1.744-.177,.458-.116,.827-.276,1.104-.479,.277-.202,.469-.442,.576-.72,.106-.277,.16-.587,.16-.929,0-.725-.341-1.328-1.024-1.808-.683-.48-1.856-.997-3.52-1.552-.726-.256-1.451-.55-2.176-.88-.726-.331-1.376-.747-1.952-1.248s-1.045-1.109-1.408-1.824-.544-1.584-.544-2.608,.192-1.946,.576-2.768c.384-.821,.928-1.521,1.632-2.097,.704-.575,1.557-1.018,2.56-1.327,1.002-.31,2.133-.465,3.392-.465,1.493,0,2.784,.16,3.872,.48s1.984,.672,2.688,1.056l-1.44,3.937c-.619-.32-1.307-.603-2.064-.849-.758-.244-1.67-.367-2.736-.367-1.195,0-2.053,.165-2.576,.496-.523,.33-.784,.837-.784,1.52,0,.405,.096,.747,.288,1.024s.464,.527,.816,.752c.352,.224,.757,.427,1.216,.607,.458,.182,.965,.368,1.52,.561,1.152,.427,2.155,.848,3.008,1.264,.853,.416,1.562,.901,2.128,1.456,.565,.555,.986,1.205,1.264,1.952,.277,.747,.416,1.653,.416,2.72,0,2.069-.726,3.675-2.176,4.816-1.451,1.142-3.638,1.712-6.56,1.712-.981,0-1.867-.06-2.656-.176-.79-.118-1.488-.262-2.096-.433-.608-.17-1.131-.352-1.568-.544-.438-.192-.806-.373-1.104-.544l1.408-3.968c.661,.363,1.477,.688,2.448,.976,.971,.288,2.16,.433,3.568,.433Z" style="fill:#313840;"/><path d="M88.699,134.162l4.768-.768v4.96h5.728v3.968h-5.728v5.92c0,1.003,.176,1.804,.528,2.4,.352,.598,1.061,.896,2.128,.896,.512,0,1.04-.048,1.584-.144s1.04-.229,1.488-.4l.672,3.712c-.576,.235-1.216,.438-1.92,.608s-1.568,.256-2.592,.256c-1.301,0-2.379-.176-3.232-.527-.854-.353-1.536-.843-2.048-1.473-.512-.629-.87-1.392-1.072-2.288-.203-.896-.304-1.888-.304-2.976v-14.145Z" style="fill:#313840;"/><path d="M108.475,137.906c1.408,0,2.581,.16,3.52,.48,.938,.319,1.69,.778,2.256,1.376,.565,.598,.965,1.323,1.2,2.176,.234,.854,.352,1.803,.352,2.848v9.92c-.683,.15-1.632,.326-2.848,.528-1.216,.203-2.688,.304-4.416,.304-1.088,0-2.075-.096-2.96-.287-.886-.192-1.648-.507-2.288-.944s-1.131-1.008-1.472-1.712-.512-1.568-.512-2.592c0-.981,.197-1.813,.592-2.496,.395-.683,.922-1.227,1.584-1.632,.661-.405,1.418-.699,2.272-.881,.853-.181,1.739-.271,2.656-.271,.618,0,1.168,.027,1.648,.08,.48,.054,.869,.123,1.168,.208v-.448c0-.811-.246-1.461-.736-1.952-.491-.49-1.344-.735-2.56-.735-.811,0-1.611,.059-2.4,.176-.79,.117-1.472,.283-2.048,.496l-.608-3.841c.277-.085,.624-.176,1.04-.271s.869-.181,1.36-.256c.491-.074,1.008-.139,1.552-.192,.544-.053,1.093-.08,1.648-.08Zm.384,13.952c.469,0,.917-.011,1.344-.032,.426-.021,.768-.053,1.024-.096v-3.616c-.192-.042-.48-.085-.864-.128-.384-.042-.736-.063-1.056-.063-.448,0-.87,.026-1.264,.08-.395,.053-.742,.154-1.04,.304-.299,.149-.533,.352-.704,.607-.171,.257-.256,.576-.256,.961,0,.746,.25,1.264,.752,1.552,.501,.288,1.189,.432,2.064,.432Z" style="fill:#313840;"/><path d="M119.322,146.77c0-1.216,.197-2.362,.592-3.44,.394-1.076,.965-2.016,1.712-2.815,.747-.8,1.653-1.435,2.72-1.904,1.066-.469,2.283-.704,3.648-.704,.896,0,1.717,.08,2.464,.24,.746,.16,1.472,.39,2.176,.688l-.992,3.808c-.448-.171-.939-.32-1.472-.448-.534-.128-1.131-.191-1.792-.191-1.408,0-2.459,.438-3.152,1.312-.694,.875-1.04,2.027-1.04,3.456,0,1.515,.325,2.688,.976,3.52,.651,.832,1.787,1.248,3.408,1.248,.576,0,1.194-.053,1.856-.159,.661-.106,1.269-.277,1.824-.513l.672,3.904c-.555,.235-1.248,.438-2.08,.608-.832,.17-1.75,.256-2.752,.256-1.536,0-2.859-.229-3.968-.688-1.11-.458-2.022-1.082-2.736-1.872-.715-.789-1.237-1.723-1.568-2.8-.331-1.077-.496-2.245-.496-3.504Z" style="fill:#313840;"/><path d="M140.89,144.399c.469-.51,.954-1.039,1.455-1.591,.5-.552,.986-1.098,1.455-1.639,.469-.541,.911-1.055,1.327-1.543,.416-.487,.772-.911,1.071-1.272h5.669c-1.131,1.299-2.235,2.539-3.312,3.72-1.077,1.182-2.256,2.4-3.536,3.656,.64,.577,1.301,1.267,1.984,2.067,.683,.802,1.344,1.63,1.984,2.484,.64,.855,1.227,1.71,1.76,2.564s.981,1.635,1.344,2.34h-5.482c-.341-.556-.729-1.171-1.166-1.845-.437-.673-.899-1.347-1.39-2.021-.49-.673-1.006-1.32-1.549-1.94s-1.081-1.144-1.613-1.572v7.378h-4.768v-24.064l4.768-.768v14.045Z" style="fill:#313840;"/><path d="M8.924,189.778c.704,0,1.285-.059,1.744-.177,.458-.116,.827-.276,1.104-.479,.277-.202,.469-.442,.576-.72,.106-.277,.16-.587,.16-.929,0-.725-.341-1.328-1.024-1.808-.683-.48-1.856-.997-3.52-1.552-.726-.256-1.451-.55-2.176-.88-.726-.331-1.376-.747-1.952-1.248s-1.045-1.109-1.408-1.824-.544-1.584-.544-2.608,.192-1.946,.576-2.768c.384-.821,.928-1.521,1.632-2.097,.704-.575,1.557-1.018,2.56-1.327,1.002-.31,2.133-.465,3.392-.465,1.493,0,2.784,.16,3.872,.48s1.984,.672,2.688,1.056l-1.44,3.937c-.619-.32-1.307-.603-2.064-.849-.758-.244-1.67-.367-2.736-.367-1.195,0-2.053,.165-2.576,.496-.523,.33-.784,.837-.784,1.52,0,.405,.096,.747,.288,1.024s.464,.527,.816,.752c.352,.224,.757,.427,1.216,.607,.458,.182,.965,.368,1.52,.561,1.152,.427,2.155,.848,3.008,1.264,.853,.416,1.562,.901,2.128,1.456,.565,.555,.986,1.205,1.264,1.952,.277,.747,.416,1.653,.416,2.72,0,2.069-.726,3.675-2.176,4.816-1.451,1.142-3.638,1.712-6.56,1.712-.981,0-1.867-.06-2.656-.176-.79-.118-1.488-.262-2.096-.433-.608-.17-1.131-.352-1.568-.544-.438-.192-.806-.373-1.104-.544l1.408-3.968c.661,.363,1.477,.688,2.448,.976,.971,.288,2.16,.433,3.568,.433Z" style="fill:#313840;"/><path d="M36.923,185.137c0,1.323-.192,2.534-.576,3.632-.384,1.1-.939,2.038-1.664,2.816-.726,.779-1.595,1.382-2.608,1.808-1.014,.427-2.15,.641-3.408,.641-1.237,0-2.363-.214-3.376-.641-1.014-.426-1.883-1.028-2.608-1.808-.726-.778-1.291-1.717-1.696-2.816-.405-1.098-.608-2.309-.608-3.632s.208-2.527,.624-3.616c.416-1.088,.992-2.016,1.728-2.783,.736-.769,1.61-1.365,2.624-1.792,1.013-.427,2.117-.641,3.312-.641,1.216,0,2.331,.214,3.344,.641s1.883,1.023,2.608,1.792c.725,.768,1.291,1.695,1.696,2.783,.405,1.089,.608,2.294,.608,3.616Zm-4.864,0c0-1.472-.293-2.629-.88-3.472-.587-.843-1.424-1.264-2.512-1.264s-1.931,.421-2.528,1.264c-.598,.843-.896,2-.896,3.472s.298,2.641,.896,3.504c.597,.864,1.44,1.296,2.528,1.296s1.925-.432,2.512-1.296c.586-.863,.88-2.031,.88-3.504Z" style="fill:#313840;"/><path d="M47.899,168.754c.896,0,1.717,.091,2.464,.272,.747,.181,1.322,.357,1.728,.527l-.928,3.809c-.427-.192-.891-.336-1.392-.433-.501-.096-.966-.144-1.392-.144-.576,0-1.062,.08-1.456,.24-.395,.159-.704,.379-.928,.655-.224,.277-.384,.608-.48,.992-.096,.384-.144,.8-.144,1.248v.832h5.888v3.968h-5.888v12.864h-4.768v-17.728c0-2.177,.613-3.904,1.84-5.185,1.227-1.28,3.045-1.92,5.456-1.92Z" style="fill:#313840;"/><path d="M53.947,172.561l4.768-.768v4.96h5.728v3.968h-5.728v5.92c0,1.003,.176,1.804,.528,2.4,.352,.598,1.061,.896,2.128,.896,.512,0,1.04-.048,1.584-.144s1.04-.229,1.488-.4l.672,3.712c-.576,.235-1.216,.438-1.92,.608s-1.568,.256-2.592,.256c-1.301,0-2.379-.176-3.232-.527-.854-.353-1.536-.843-2.048-1.473-.512-.629-.87-1.392-1.072-2.288-.203-.896-.304-1.888-.304-2.976v-14.145Z" style="fill:#313840;"/><path d="M78.891,183.922c-.427,1.621-.88,3.232-1.36,4.832-.48,1.6-.987,3.211-1.52,4.832h-3.712c-.385-.896-.802-1.963-1.251-3.2-.449-1.236-.915-2.586-1.396-4.048-.481-1.461-.973-3.008-1.477-4.64-.503-1.632-.989-3.28-1.46-4.944h5.024c.171,.768,.359,1.605,.563,2.512,.204,.907,.418,1.84,.644,2.801,.226,.96,.462,1.925,.708,2.896s.499,1.904,.757,2.8c.277-.938,.549-1.898,.816-2.88,.267-.98,.522-1.946,.768-2.896,.245-.949,.48-1.867,.704-2.752,.224-.886,.421-1.713,.592-2.48h3.456c.17,.768,.362,1.595,.576,2.48,.213,.885,.437,1.803,.672,2.752,.234,.949,.48,1.915,.736,2.896,.256,.981,.522,1.941,.8,2.88,.257-.896,.515-1.829,.772-2.8,.257-.971,.499-1.936,.724-2.896,.225-.961,.439-1.894,.644-2.801,.204-.906,.392-1.744,.563-2.512h4.96c-.471,1.664-.958,3.312-1.46,4.944s-.995,3.179-1.476,4.64c-.481,1.462-.952,2.812-1.412,4.048-.46,1.237-.883,2.304-1.268,3.2h-3.712c-.534-1.621-1.056-3.232-1.568-4.832-.512-1.6-.981-3.211-1.408-4.832Z" style="fill:#313840;"/><path d="M99.451,176.305c1.408,0,2.581,.16,3.52,.48,.938,.319,1.69,.778,2.256,1.376,.565,.598,.965,1.323,1.2,2.176,.234,.854,.352,1.803,.352,2.848v9.92c-.683,.15-1.632,.326-2.848,.528-1.216,.203-2.688,.304-4.416,.304-1.088,0-2.075-.096-2.96-.287-.886-.192-1.648-.507-2.288-.944s-1.131-1.008-1.472-1.712-.512-1.568-.512-2.592c0-.981,.197-1.813,.592-2.496,.395-.683,.922-1.227,1.584-1.632,.661-.405,1.418-.699,2.272-.881,.853-.181,1.739-.271,2.656-.271,.618,0,1.168,.027,1.648,.08,.48,.054,.869,.123,1.168,.208v-.448c0-.811-.246-1.461-.736-1.952-.491-.49-1.344-.735-2.56-.735-.811,0-1.611,.059-2.4,.176-.79,.117-1.472,.283-2.048,.496l-.608-3.841c.277-.085,.624-.176,1.04-.271s.869-.181,1.36-.256c.491-.074,1.008-.139,1.552-.192,.544-.053,1.093-.08,1.648-.08Zm.384,13.952c.469,0,.917-.011,1.344-.032,.426-.021,.768-.053,1.024-.096v-3.616c-.192-.042-.48-.085-.864-.128-.384-.042-.736-.063-1.056-.063-.448,0-.87,.026-1.264,.08-.395,.053-.742,.154-1.04,.304-.299,.149-.533,.352-.704,.607-.171,.257-.256,.576-.256,.961,0,.746,.25,1.264,.752,1.552,.501,.288,1.189,.432,2.064,.432Z" style="fill:#313840;"/><path d="M121.242,180.977c-.427-.106-.928-.218-1.504-.336-.576-.116-1.195-.176-1.856-.176-.299,0-.656,.027-1.072,.08-.416,.054-.731,.112-.944,.176v12.864h-4.768v-15.936c.853-.299,1.861-.581,3.024-.849,1.162-.267,2.458-.399,3.888-.399,.256,0,.565,.016,.928,.048,.362,.032,.725,.075,1.088,.128,.362,.054,.725,.117,1.088,.191,.363,.075,.672,.166,.928,.272l-.8,3.936Z" style="fill:#313840;"/><path d="M123.482,185.298c0-1.493,.229-2.8,.688-3.92,.458-1.12,1.061-2.053,1.808-2.8,.747-.747,1.605-1.312,2.576-1.696,.97-.384,1.968-.576,2.992-.576,2.389,0,4.277,.731,5.664,2.192,1.387,1.461,2.08,3.611,2.08,6.448,0,.277-.011,.581-.032,.912-.021,.33-.043,.624-.064,.88h-10.816c.106,.981,.565,1.76,1.376,2.336,.811,.576,1.898,.863,3.264,.863,.875,0,1.733-.079,2.576-.239s1.531-.357,2.064-.593l.64,3.872c-.256,.128-.597,.257-1.024,.385s-.901,.239-1.424,.336c-.523,.096-1.083,.176-1.68,.239-.598,.064-1.195,.097-1.792,.097-1.515,0-2.832-.225-3.952-.672-1.12-.448-2.048-1.062-2.784-1.841-.736-.778-1.28-1.7-1.632-2.768-.352-1.066-.528-2.219-.528-3.456Zm11.2-1.824c-.021-.404-.091-.8-.208-1.184-.118-.384-.299-.726-.544-1.024-.246-.298-.555-.544-.928-.735-.374-.192-.837-.288-1.392-.288-.533,0-.992,.091-1.376,.271-.384,.182-.704,.422-.96,.721s-.454,.646-.592,1.04c-.139,.395-.24,.795-.304,1.199h6.304Z" style="fill:#313840;"/><path d="M2.868,231.986v-22.176h14.976v4.191H7.859v4.353h8.864v4.096H7.859v5.344h10.72v4.192H2.868Z" style="fill:#313840;"/><path d="M21.94,215.73c.81-.234,1.856-.453,3.136-.656,1.28-.202,2.624-.304,4.032-.304,1.429,0,2.618,.187,3.568,.56,.949,.374,1.701,.901,2.256,1.584,.555,.684,.949,1.494,1.184,2.433,.234,.938,.352,1.983,.352,3.136v9.504h-4.768v-8.928c0-1.536-.203-2.624-.608-3.265-.406-.64-1.163-.96-2.272-.96-.342,0-.704,.017-1.088,.049-.384,.031-.726,.069-1.024,.111v12.992h-4.768v-16.256Z" style="fill:#313840;"/><path d="M55.315,229.874c0,2.752-.698,4.795-2.096,6.128s-3.558,2-6.48,2c-1.024,0-2.048-.091-3.072-.271-1.024-.182-1.974-.422-2.848-.72l.832-4c.747,.298,1.53,.532,2.352,.703,.821,.171,1.754,.257,2.8,.257,1.365,0,2.331-.3,2.896-.896,.565-.598,.848-1.365,.848-2.304v-.608c-.512,.235-1.04,.411-1.584,.528s-1.136,.176-1.776,.176c-2.326,0-4.107-.688-5.344-2.063s-1.856-3.302-1.856-5.776c0-1.237,.192-2.362,.576-3.376,.384-1.013,.944-1.883,1.68-2.608,.736-.725,1.637-1.284,2.704-1.68,1.066-.395,2.272-.592,3.616-.592,.576,0,1.168,.026,1.776,.08s1.21,.123,1.808,.208c.598,.085,1.168,.187,1.712,.304,.545,.117,1.029,.24,1.456,.368v14.144Zm-10.463-6.848c0,2.667,1.077,4,3.232,4,.49,0,.949-.064,1.376-.192,.426-.128,.789-.276,1.088-.447v-7.616c-.235-.043-.512-.08-.832-.112s-.693-.048-1.12-.048c-1.259,0-2.197,.416-2.816,1.248-.619,.832-.928,1.888-.928,3.168Z" style="fill:#313840;"/><path d="M65.011,210.29c0,.875-.283,1.563-.848,2.064-.565,.501-1.232,.752-2,.752s-1.436-.251-2-.752c-.565-.501-.849-1.189-.849-2.064s.283-1.562,.849-2.063c.564-.501,1.231-.752,2-.752s1.435,.251,2,.752c.564,.501,.848,1.189,.848,2.063Zm-.448,21.696h-4.768v-16.832h4.768v16.832Z" style="fill:#313840;"/><path d="M69.043,215.73c.811-.234,1.855-.453,3.136-.656,1.28-.202,2.624-.304,4.032-.304,1.429,0,2.618,.187,3.567,.56,.949,.374,1.701,.901,2.257,1.584,.554,.684,.948,1.494,1.184,2.433,.234,.938,.352,1.983,.352,3.136v9.504h-4.768v-8.928c0-1.536-.203-2.624-.608-3.265-.405-.64-1.163-.96-2.271-.96-.342,0-.704,.017-1.088,.049-.384,.031-.726,.069-1.024,.111v12.992h-4.768v-16.256Z" style="fill:#313840;"/><path d="M87.091,223.698c0-1.493,.229-2.8,.688-3.92s1.062-2.053,1.808-2.8c.747-.747,1.605-1.312,2.576-1.696s1.969-.576,2.992-.576c2.389,0,4.277,.731,5.664,2.192s2.08,3.611,2.08,6.448c0,.277-.011,.581-.032,.912-.021,.33-.043,.624-.063,.88h-10.816c.106,.981,.565,1.76,1.376,2.336s1.898,.863,3.264,.863c.875,0,1.733-.079,2.576-.239s1.53-.357,2.064-.593l.64,3.872c-.256,.128-.598,.257-1.023,.385-.428,.128-.902,.239-1.425,.336-.522,.096-1.083,.176-1.68,.239-.598,.064-1.195,.097-1.792,.097-1.515,0-2.832-.225-3.952-.672-1.12-.448-2.048-1.062-2.784-1.841-.735-.778-1.279-1.7-1.632-2.768-.352-1.066-.527-2.219-.527-3.456Zm11.199-1.824c-.021-.404-.091-.8-.208-1.184s-.299-.726-.544-1.024c-.245-.298-.555-.544-.928-.735-.373-.192-.838-.288-1.392-.288-.534,0-.992,.091-1.376,.271-.385,.182-.704,.422-.96,.721-.257,.299-.454,.646-.593,1.04s-.239,.795-.304,1.199h6.304Z" style="fill:#313840;"/><path d="M105.778,223.698c0-1.493,.229-2.8,.688-3.92s1.062-2.053,1.808-2.8c.747-.747,1.605-1.312,2.576-1.696s1.969-.576,2.992-.576c2.389,0,4.277,.731,5.664,2.192s2.08,3.611,2.08,6.448c0,.277-.011,.581-.032,.912-.021,.33-.043,.624-.063,.88h-10.816c.106,.981,.565,1.76,1.376,2.336s1.898,.863,3.264,.863c.875,0,1.733-.079,2.576-.239s1.53-.357,2.064-.593l.64,3.872c-.256,.128-.598,.257-1.023,.385-.428,.128-.902,.239-1.425,.336-.522,.096-1.083,.176-1.68,.239-.598,.064-1.195,.097-1.792,.097-1.515,0-2.832-.225-3.952-.672-1.12-.448-2.048-1.062-2.784-1.841-.735-.778-1.279-1.7-1.632-2.768-.352-1.066-.527-2.219-.527-3.456Zm11.199-1.824c-.021-.404-.091-.8-.208-1.184s-.299-.726-.544-1.024c-.245-.298-.555-.544-.928-.735-.373-.192-.838-.288-1.392-.288-.534,0-.992,.091-1.376,.271-.385,.182-.704,.422-.96,.721-.257,.299-.454,.646-.593,1.04s-.239,.795-.304,1.199h6.304Z" style="fill:#313840;"/><path d="M135.409,219.378c-.427-.106-.928-.218-1.504-.336-.576-.116-1.195-.176-1.855-.176-.3,0-.656,.027-1.072,.08-.416,.054-.731,.112-.944,.176v12.864h-4.768v-15.936c.853-.299,1.86-.581,3.023-.849,1.163-.267,2.459-.399,3.889-.399,.256,0,.564,.016,.928,.048,.362,.032,.725,.075,1.088,.128,.362,.054,.725,.117,1.088,.191,.362,.075,.672,.166,.928,.272l-.8,3.936Z" style="fill:#313840;"/></g><g id="am"><rect id="an" x="5.695" y="83.128" width="122.47" height="1" style="fill:#b43035;"/><path d="M6.012,76.568c.616,0,1.129,.069,1.54,.21,.411,.14,.74,.341,.987,.602,.248,.262,.422,.579,.525,.952,.103,.373,.154,.789,.154,1.246v4.34c-.299,.065-.714,.143-1.246,.231-.532,.088-1.176,.133-1.932,.133-.476,0-.908-.042-1.295-.126s-.721-.222-1.001-.413c-.28-.191-.495-.441-.644-.749-.149-.309-.224-.687-.224-1.134,0-.43,.086-.794,.259-1.093,.172-.298,.404-.536,.693-.714,.289-.177,.621-.306,.994-.385,.373-.079,.761-.119,1.162-.119,.271,0,.511,.012,.721,.035s.38,.054,.511,.091v-.196c0-.354-.107-.639-.322-.854s-.588-.322-1.12-.322c-.355,0-.705,.026-1.05,.077-.345,.052-.644,.124-.896,.217l-.266-1.68c.122-.037,.273-.077,.455-.119,.182-.042,.38-.079,.595-.112,.214-.032,.441-.061,.679-.084,.238-.022,.479-.034,.721-.034Zm.168,6.104c.205,0,.401-.005,.588-.014,.187-.01,.336-.023,.448-.042v-1.582c-.084-.019-.21-.037-.378-.057-.168-.019-.322-.027-.462-.027-.196,0-.381,.012-.553,.035-.173,.023-.324,.067-.455,.133s-.233,.153-.308,.266-.112,.252-.112,.42c0,.327,.109,.553,.329,.68,.219,.126,.52,.188,.903,.188Z" style="fill:#b43035;"/></g></g><g id="ao"><g id="ap"><path d="M9.372,22.354c3.328,0,5.877,.592,7.648,1.775,1.771,1.185,2.656,3.024,2.656,5.521,0,1.558-.357,2.821-1.072,3.792-.715,.971-1.744,1.733-3.088,2.288,.448,.555,.917,1.189,1.408,1.903,.491,.716,.976,1.462,1.456,2.24,.48,.779,.944,1.59,1.392,2.432,.448,.844,.864,1.67,1.248,2.48h-5.581c-.407-.725-.819-1.461-1.237-2.208-.417-.746-.846-1.472-1.285-2.176s-.873-1.371-1.301-2-.857-1.2-1.285-1.712h-2.464v8.096H2.876V22.929c1.088-.213,2.213-.362,3.376-.447,1.163-.085,2.203-.128,3.12-.128Zm.288,4.256c-.363,0-.688,.011-.976,.032-.288,.021-.56,.043-.816,.063v6.016h1.408c1.877,0,3.221-.234,4.032-.703,.811-.47,1.216-1.27,1.216-2.4,0-1.088-.411-1.861-1.232-2.32-.822-.458-2.032-.688-3.632-.688Z" style="fill:#313840;"/><path d="M29.116,23.089c0,.875-.283,1.563-.848,2.064-.565,.501-1.232,.752-2,.752s-1.435-.251-2-.752c-.565-.501-.848-1.189-.848-2.064s.283-1.562,.848-2.063c.565-.501,1.232-.752,2-.752s1.435,.251,2,.752c.565,.501,.848,1.189,.848,2.063Zm-.448,21.696h-4.768V27.953h4.768v16.832Z" style="fill:#313840;"/><path d="M32.347,36.369c0-1.216,.197-2.362,.592-3.44,.394-1.076,.965-2.016,1.712-2.815,.747-.8,1.653-1.435,2.72-1.904,1.066-.469,2.283-.704,3.648-.704,.896,0,1.717,.08,2.464,.24,.746,.16,1.472,.39,2.176,.688l-.992,3.808c-.448-.171-.939-.32-1.472-.448-.534-.128-1.131-.191-1.792-.191-1.408,0-2.459,.438-3.152,1.312-.694,.875-1.04,2.027-1.04,3.456,0,1.515,.325,2.688,.976,3.52,.651,.832,1.787,1.248,3.408,1.248,.576,0,1.194-.053,1.856-.159,.661-.106,1.269-.277,1.824-.513l.672,3.904c-.555,.235-1.248,.438-2.08,.608-.832,.17-1.75,.256-2.752,.256-1.536,0-2.859-.229-3.968-.688-1.11-.458-2.022-1.082-2.736-1.872-.715-.789-1.237-1.723-1.568-2.8-.331-1.077-.496-2.245-.496-3.504Z" style="fill:#313840;"/><path d="M49.147,44.785V20.721l4.768-.768v8.064c.32-.106,.73-.208,1.232-.305,.501-.096,.986-.144,1.456-.144,1.365,0,2.501,.187,3.408,.56,.907,.374,1.632,.901,2.176,1.584,.544,.684,.928,1.494,1.152,2.433,.224,.938,.336,1.983,.336,3.136v9.504h-4.768v-8.928c0-1.536-.197-2.624-.592-3.265-.395-.64-1.125-.96-2.192-.96-.427,0-.827,.038-1.2,.112-.374,.075-.709,.155-1.008,.24v12.8h-4.768Z" style="fill:#313840;"/><path d="M74.043,27.505c1.408,0,2.581,.16,3.52,.48,.938,.319,1.69,.778,2.256,1.376,.565,.598,.965,1.323,1.2,2.176,.234,.854,.352,1.803,.352,2.848v9.92c-.683,.15-1.632,.326-2.848,.528-1.216,.203-2.688,.304-4.416,.304-1.088,0-2.075-.096-2.96-.287-.886-.192-1.648-.507-2.288-.944s-1.131-1.008-1.472-1.712-.512-1.568-.512-2.592c0-.981,.197-1.813,.592-2.496,.395-.683,.922-1.227,1.584-1.632,.661-.405,1.418-.699,2.272-.881,.853-.181,1.739-.271,2.656-.271,.618,0,1.168,.027,1.648,.08,.48,.054,.869,.123,1.168,.208v-.448c0-.811-.246-1.461-.736-1.952-.491-.49-1.344-.735-2.56-.735-.811,0-1.611,.059-2.4,.176-.79,.117-1.472,.283-2.048,.496l-.608-3.841c.277-.085,.624-.176,1.04-.271s.869-.181,1.36-.256c.491-.074,1.008-.139,1.552-.192,.544-.053,1.093-.08,1.648-.08Zm.384,13.952c.469,0,.917-.011,1.344-.032,.426-.021,.768-.053,1.024-.096v-3.616c-.192-.042-.48-.085-.864-.128-.384-.042-.736-.063-1.056-.063-.448,0-.87,.026-1.264,.08-.395,.053-.742,.154-1.04,.304-.299,.149-.533,.352-.704,.607-.171,.257-.256,.576-.256,.961,0,.746,.25,1.264,.752,1.552,.501,.288,1.189,.432,2.064,.432Z" style="fill:#313840;"/><path d="M95.834,32.177c-.427-.106-.928-.218-1.504-.336-.576-.116-1.195-.176-1.856-.176-.299,0-.656,.027-1.072,.08-.416,.054-.731,.112-.944,.176v12.864h-4.768v-15.936c.853-.299,1.861-.581,3.024-.849,1.162-.267,2.458-.399,3.888-.399,.256,0,.565,.016,.928,.048,.362,.032,.725,.075,1.088,.128,.362,.054,.725,.117,1.088,.191,.363,.075,.672,.166,.928,.272l-.8,3.936Z" style="fill:#313840;"/><path d="M113.723,44.241c-.427,.128-.917,.251-1.472,.368-.555,.117-1.136,.219-1.744,.304s-1.227,.154-1.856,.208c-.629,.053-1.232,.08-1.808,.08-1.387,0-2.624-.203-3.712-.608-1.088-.404-2.005-.986-2.752-1.743-.747-.758-1.318-1.675-1.712-2.753-.395-1.076-.592-2.287-.592-3.632,0-1.364,.17-2.597,.512-3.695,.341-1.099,.832-2.032,1.472-2.801,.64-.768,1.424-1.354,2.352-1.76,.928-.405,1.989-.607,3.184-.607,.661,0,1.253,.063,1.776,.191,.522,.128,1.051,.31,1.584,.544v-7.616l4.768-.768v24.288Zm-10.784-8c0,1.472,.33,2.656,.992,3.552,.661,.896,1.643,1.344,2.944,1.344,.426,0,.821-.016,1.184-.048,.363-.031,.661-.068,.896-.111v-8.673c-.299-.191-.688-.352-1.168-.479s-.965-.192-1.456-.192c-2.261,0-3.392,1.536-3.392,4.608Z" style="fill:#313840;"/><path d="M139.275,44.785c-.449-.722-.979-1.502-1.589-2.34s-1.267-1.683-1.972-2.534c-.704-.851-1.441-1.667-2.211-2.448s-1.54-1.472-2.309-2.07v9.393h-4.992V22.61h4.992v8.334c1.284-1.348,2.588-2.758,3.912-4.229,1.324-1.472,2.547-2.84,3.668-4.104h5.924c-1.509,1.797-3.028,3.525-4.555,5.184-1.527,1.659-3.134,3.328-4.821,5.008,1.774,1.48,3.485,3.235,5.133,5.267s3.232,4.271,4.754,6.718h-5.935Z" style="fill:#313840;"/><rect x="147.77" y="27.953" width="4.768" height="16.832" style="fill:#313840;"/><path d="M157.018,28.53c.81-.234,1.856-.453,3.136-.656,1.28-.202,2.624-.304,4.032-.304,1.429,0,2.618,.187,3.568,.56,.949,.374,1.701,.901,2.256,1.584,.555,.684,.949,1.494,1.184,2.433,.234,.938,.352,1.983,.352,3.136v9.504h-4.768v-8.928c0-1.536-.203-2.624-.608-3.265-.406-.64-1.163-.96-2.272-.96-.342,0-.704,.017-1.088,.049-.384,.031-.726,.069-1.024,.111v12.992h-4.768V28.53Z" style="fill:#313840;"/><path d="M190.393,42.673c0,2.752-.699,4.795-2.096,6.128-1.397,1.333-3.558,2-6.48,2-1.024,0-2.048-.091-3.072-.271-1.024-.182-1.974-.422-2.848-.72l.832-4c.747,.298,1.53,.532,2.352,.703,.821,.171,1.754,.257,2.8,.257,1.365,0,2.331-.3,2.896-.896,.565-.598,.848-1.365,.848-2.304v-.608c-.512,.235-1.04,.411-1.584,.528s-1.136,.176-1.776,.176c-2.326,0-4.107-.688-5.344-2.063s-1.856-3.302-1.856-5.776c0-1.237,.192-2.362,.576-3.376,.384-1.013,.944-1.883,1.68-2.608,.736-.725,1.637-1.284,2.704-1.68,1.066-.395,2.272-.592,3.616-.592,.576,0,1.168,.026,1.776,.08s1.21,.123,1.808,.208c.597,.085,1.168,.187,1.712,.304s1.029,.24,1.456,.368v14.144Zm-10.464-6.848c0,2.667,1.077,4,3.232,4,.49,0,.949-.064,1.376-.192,.426-.128,.789-.276,1.088-.447v-7.616c-.235-.043-.512-.08-.832-.112s-.693-.048-1.12-.048c-1.259,0-2.197,.416-2.816,1.248-.619,.832-.928,1.888-.928,3.168Z" style="fill:#313840;"/></g><g id="aq"><rect id="ar" x="18.56" y="11.128" width="171.47" height="1" style="fill:#b43035;"/><g id="as"><path d="M2.87,2.426h2.184V12.128H2.87V2.426Z" style="fill:#b43035;"/><path d="M8.96,1.389c.019,.131,.032,.267,.042,.406,.009,.14,.014,.243,.014,.308,0,.626-.112,1.221-.336,1.785-.224,.565-.499,1.043-.826,1.436l-1.47-.336c.177-.401,.32-.854,.427-1.358,.107-.504,.161-.984,.161-1.442v-.118c0-.061-.002-.131-.007-.21-.005-.08-.009-.161-.014-.245s-.012-.159-.021-.225h2.03Z" style="fill:#b43035;"/><path d="M14.014,8.221c0-.672-.086-1.147-.259-1.428-.173-.28-.469-.42-.889-.42-.131,0-.266,.007-.406,.021-.14,.015-.275,.031-.406,.05v5.684h-2.086V5.015c.177-.046,.385-.096,.623-.146,.238-.052,.49-.099,.756-.141s.539-.074,.819-.098c.28-.023,.555-.035,.826-.035,.532,0,.964,.068,1.295,.203,.332,.136,.604,.297,.819,.483,.298-.215,.642-.383,1.029-.504s.744-.183,1.071-.183c.588,0,1.071,.082,1.449,.245s.679,.395,.903,.693c.224,.299,.378,.653,.462,1.063,.084,.411,.126,.868,.126,1.372v4.158h-2.086v-3.906c0-.672-.086-1.147-.259-1.428-.173-.28-.469-.42-.889-.42-.112,0-.268,.028-.469,.084s-.367,.126-.497,.21c.065,.215,.107,.441,.126,.679,.019,.238,.028,.492,.028,.764v4.018h-2.086v-3.906Z" style="fill:#b43035;"/></g></g><path d="M152.326,21.791l-.3,1.078h-.939l.283-1.096-1.215-1.5-1.215,1.5,.283,1.096h-.939l-.3-1.078-1.654-.901c.259,1.12,1.019,4.472,1.055,4.605h0l1.768,.321c.662,.12,1.34,.12,2.001,0l1.768-.321h0c.036-.134,.8-3.486,1.06-4.605l-1.654,.901Z" style="fill:#b43035;"/></g></g><g id="at"/></svg>