<svg xmlns="http://www.w3.org/2000/svg" viewBox="0 0 376 376"><path fill="#01adff" d="M270 30 256 0l-93 44 19 1 88-15zM106 346l14 30 93-44-19-2-88 16zM30 106 0 120l44 93 1-19-15-88zm302 57-2 19 16 88 30-14-44-93z"/><path fill="#ff38b9" d="m68 319 5 33 33-6-12-24-26-3zM308 57l-5-33-33 6 12 24 26 3zM57 68l-33 5 6 33 24-12 3-26zm262 240 33-5-6-33-24 12-3 26z"/><path fill="#0127ba" d="m282 54-12-24-88 15 100 9zM54 94l-24 12 15 88 9-100zm40 228 12 24 88-16-100-8zm228-40 24-12-16-88-8 100z"/><path fill="#ffde17" d="m44 213-9 103 33 3-16-88-8-18zm288-50 9-104-33-2 16 88 8 18zM213 332l103 9 3-33-88 16-18 8zM163 44 59 35l-2 33 88-16 18-8z"/><path fill="#006837" d="m45 194-1 19 8 18-7-37zm149 136 19 2 18-8-37 6zm136-148 2-19-8-18 6 37zM182 45l-19-1-18 8 37-7z"/><path fill="#ff3111" d="M145 52 57 68l-3 26 91-42zM52 231l16 88 26 3-42-91zm179 93 88-16 3-26-91 42zm93-179-16-88-26-3 42 91z"/><path fill="#062b4c" d="m282 54-100-9-37 7-91 42-9 100 7 37 42 91 100 8 37-6 91-42 8-100-6-37-42-91z"/><path fill="#fff" d="M174 149h28v-26h-84v26h56zm56-26h28v26h-28zm-28 52h-84v26h140v-26h-56zm-84 52v26h56v-26h-56z"/></svg>