<svg xmlns="http://www.w3.org/2000/svg" viewBox="0 0 480 512"><path fill-rule="evenodd" d="M226 3a29 29 0 0 1 28 0l212 115a26 26 0 0 1 14 23v230a26 26 0 0 1-14 23L254 509a29 29 0 0 1-28 0L14 394a26 26 0 0 1-14-23V141a26 26 0 0 1 14-23L226 3Z"/><path fill="#fff" fill-rule="evenodd" d="M240 85c98 0 177 77 177 171s-79 171-177 171S63 350 63 256 142 85 240 85Zm0 86c49 0 88 38 88 85s-39 85-88 85-88-38-88-85 39-85 88-85Z"/><path fill-rule="evenodd" d="M473 124c7 6 7 15 7 22v224a26 26 0 0 1-4 14L235 256Z"/></svg>