<svg xmlns="http://www.w3.org/2000/svg" viewBox="0 0 512 512"><path fill="#fcb80d" d="M0 0h309v512H0z"/><g fill="#262624"><path d="M512 340q-17 9-38 9-24 0-38-13t-14-43v-54h-24v-36h24v-35l46-5v40h36v36h-36v54q0 9 4 13t12 4a37 37 0 0 0 17-4Zm-172-67 49 73h-53l-13-21-14-24-14 24-14 21h-51l48-73-45-70h52l14 22 10 19 11-19 14-22h51Z"/><path d="M200 209a63 63 0 0 1 26 25q10 16 10 37a123 123 0 0 1-2 17H128q2 11 12 18t25 7a71 71 0 0 0 21-3 54 54 0 0 0 18-9l24 25a86 86 0 0 1-29 17 105 105 0 0 1-36 6q-25 0-44-9a66 66 0 0 1-28-26q-10-16-10-39 0-22 10-39a68 68 0 0 1 27-27q18-9 41-9 24 0 41 9Zm-62 34q-9 7-10 19h64q-1-12-9-19t-23-7q-14 0-22 7Z"/></g></svg>