<svg xmlns="http://www.w3.org/2000/svg" viewBox="0 0 512 512"><path d="M183 243q-9-7-23-7t-22 7-10 19h64q-1-12-9-19Z"/><path d="m295 325-14 21h-51l48-73-45-70h52l14 22 10 19V0H0v512h309V301Zm-96 18a105 105 0 0 1-36 6q-25 0-44-9a66 66 0 0 1-28-26q-10-16-10-39 0-22 10-39a68 68 0 0 1 27-27q18-9 41-9t41 9a63 63 0 0 1 26 25q10 16 10 37a123 123 0 0 1-2 17H128q2 11 12 18t25 7a71 71 0 0 0 21-3 54 54 0 0 0 18-9l24 25a86 86 0 0 1-29 17Zm302-37a37 37 0 0 1-17 4q-7 0-12-4t-4-13v-54h36v-36h-36v-40l-46 5v35h-24v36h24v54q0 30 14 43t38 13q21 0 38-9ZM385 203h-51l-14 22-11 19v58l14 23 13 21h53l-49-73 45-70z"/><path fill="#fff" d="m299 225-14-22h-52l45 70-48 73h51l14-21 14-24v1-58l-10-19z"/><path fill="#fff" d="M186 310a71 71 0 0 1-21 3q-15 0-25-7t-12-18h106a123 123 0 0 0 2-17q0-21-10-37a63 63 0 0 0-26-25q-18-9-41-9t-41 9a68 68 0 0 0-27 27q-10 17-10 39 0 23 10 39a66 66 0 0 0 28 26q19 9 44 9a105 105 0 0 0 36-6 86 86 0 0 0 29-17l-24-25a54 54 0 0 1-18 9Zm-48-67q8-7 22-7t23 7 9 19h-64q1-12 10-19Z"/></svg>