<svg xmlns="http://www.w3.org/2000/svg" viewBox="0 0 512 480"><path d="M223 316v18c0 12-14 19-24 12l-22-16-55-39a16 16 0 0 1 0-25l55-40 2-2a15 15 0 0 0 7-12v-46c0-12-14-20-24-12l-23 16L6 266a16 16 0 0 0 0 25l133 95 126 91c10 7 24 0 24-12V316a15 15 0 0 0-15-15h-37a15 15 0 0 0-14 15Zm66-152v-18c0-12 14-19 24-12l22 16 55 40a15 15 0 0 1 0 24l-55 40-2 2a15 15 0 0 0-7 12v46c0 13 14 20 24 13l23-17 133-96a15 15 0 0 0 0-24L373 94 246 3c-10-7-23 0-23 12v149a15 15 0 0 0 15 15h37a15 15 0 0 0 14-15Z"/></svg>