<svg xmlns="http://www.w3.org/2000/svg" viewBox="0 0 400 512"><path d="M291 313c11-7 25-13 25-13s-41 7-82 11c-50 3-103 4-130 1-64-8 35-30 35-30s-39-3-86 19c-55 25 138 37 238 12Zm-90-32c-20-43-88-80 0-146C311 53 254 0 254 0c23 85-80 110-117 163-25 36 12 74 64 118Z"/><path d="M322 105s-186 43-97 140c26 28-7 54-7 54s67-33 36-73c-28-38-50-57 68-121Zm-6 270a12 12 0 0 1-2 3c135-34 85-119 21-98a18 18 0 0 0-9 7 78 78 0 0 1 11-3c33-7 80 41-21 91Zm50 62s15 12-17 22c-62 17-255 22-309 0-20-8 17-19 28-21l19-2c-22-14-139 28-60 40 217 33 395-15 339-39Z"/><path d="M129 396c-84 22 50 67 157 24a202 202 0 0 1-30-13c-48 8-70 9-113 4-35-4-14-15-14-15Zm190 97c-83 15-186 13-247 4 0 0 13 9 77 13 97 6 248-3 251-47 0 0-7 17-81 30Zm-46-140c-63 11-99 11-145 7-35-4-12-20-12-20-92 29 51 61 179 26a65 65 0 0 1-22-13Z"/></svg>