<svg xmlns="http://www.w3.org/2000/svg" viewBox="0 0 480 512"><path fill="#00599c" d="M474 384c4-6 6-13 6-19V147c0-6-2-13-6-19L240 256Z"/><path fill="#004482" d="m261 507 198-108c6-3 11-9 15-15L240 256 6 384c4 6 9 12 15 15l198 108c12 7 30 7 42 0Z"/><path fill="#659ad2" d="M474 128c-4-6-9-12-15-15L261 5c-12-7-30-7-42 0L21 113c-12 7-21 22-21 34v218c0 6 2 13 6 19l234-128Z"/><path fill="#fff" d="M240 408c-88 0-160-68-160-152s72-152 160-152c57 0 110 29 139 76l-70 38a81 81 0 0 0-69-38c-44 0-80 34-80 76s36 76 80 76c28 0 55-15 69-38l70 38c-29 47-82 76-139 76Z"/><path fill="#fff" d="M400 248h-18v-17h-18v17h-17v16h17v17h18v-17h18v-16zm67 0h-18v-17h-18v17h-18v16h18v17h18v-17h18v-16z"/></svg>