<svg xmlns="http://www.w3.org/2000/svg" viewBox="0 0 512 512"><path fill="#feac33" d="M304 496c-7 1-13-4-15-12l-23-81-25-86c-1-5-3-7-7-8l-126-48c-7-2-12-6-12-14a15 15 0 0 1 6-14 30 30 0 0 1 7-3l123-47c5-2 8-5 10-10l47-160c2-8 8-13 15-13s12 5 15 14l47 159c1 5 3 8 8 9l125 48c11 4 15 12 12 21-2 6-6 8-12 10l-91 35-36 14a10 10 0 0 0-5 6l-48 166c-3 9-7 14-15 14Z"/><path fill="#fecc4e" d="M211 416c0 7-3 12-10 15l-30 11c-3 1-5 3-6 7l-12 49c-2 9-7 14-15 14-7 0-13-5-15-14l-12-49c-1-4-2-6-6-7l-28-11c-7-2-11-8-12-15 0-6 4-12 11-15l30-11a8 8 0 0 0 5-6l12-46c3-10 12-15 21-11 5 2 8 7 9 12l12 45a8 8 0 0 0 6 6l29 11c7 3 11 8 11 15ZM146 80c0 6-4 12-11 15l-31 12a12 12 0 0 0-5 6l-11 30c-3 7-7 12-15 12-6 1-12-4-15-12l-11-30c-1-3-3-5-7-7L12 95C4 93 0 87 0 80s4-12 12-15l29-11a13 13 0 0 0 6-7l11-30c3-8 8-12 15-12s12 4 15 13l11 29a12 12 0 0 0 5 6l31 13c7 2 11 8 11 14Z"/></svg>