<svg xmlns="http://www.w3.org/2000/svg" viewBox="0 0 512 512"><path fill="#6a627d" d="M247 401v-98h18v98Zm155-136h-97v-17h97v17Zm-1 30 13 12-105 110-12-14Zm12-89-12 13-15-15-93-92 13-13 81 82 26 25ZM201 422l-6 16-81-41 7-15Zm-78-302-6-17 75-27 3-1 6 16Zm23 127 25-38 45 32 10-15-45-31 6-10 43-67-15-9-44 68-5 7-66-46-10 15 67 46-24 36-32-54-15 9 34 57c2 4 2 6 0 10l-32 48 15 10 30-46 12 21 68 115 15-11-82-137c-2-3-2-6 0-10Z"/><path fill="#4e9ab8" d="m114 397-5 5a59 59 0 0 1-64 19c-25-7-40-24-44-49-7-47 36-83 81-68l6 1 15 10c5 8 12 15 16 24 7 14 5 28 2 43l-7 15Z"/><path fill="#f49388" d="M195 75c-1-12-1-24 3-35 10-26 37-42 64-40a63 63 0 0 1 44 99l-13 13c-12 7-25 13-40 11-8 0-15-3-23-5l-15-9-14-18Z"/><path fill="#90c9d5" d="m86 190-16 4c-31 5-64-19-69-51-6-33 17-67 53-72 25-3 45 7 59 27l4 5 6 17c1 11 1 22-3 32l-7 16-12 13Zm223 227c5 11 9 23 9 36-1 28-24 54-52 58a62 62 0 0 1-71-53v-20l6-16 12-17 15-11 19-5h18a85 85 0 0 1 32 14Z"/><path fill="#fdce85" d="M413 206c12-7 24-12 38-12a62 62 0 0 1 14 122c-17 4-33 1-48-7l-3-2-13-12-3-6a62 62 0 0 1-10-33l3-17 10-20Z"/><path fill="#eb6571" d="m318 256-2 17c-7 19-18 32-36 40l-15 5h-18c-12-3-23-7-32-15a61 61 0 0 1-19-61l1-6 7-15 13-13c19-14 40-18 62-9 21 9 34 25 38 47l1 10Z"/></svg>