<svg xmlns="http://www.w3.org/2000/svg" viewBox="0 0 512 512"><path d="M511 246a62 62 0 0 0-98-40l-12 13-10 20-2 9h-72v-2c-4-22-17-38-38-47-22-9-43-5-62 9a71 71 0 0 0-7 7l-29-20 6-10 43-67-4-2 4 2c8 2 15 5 23 5 15 2 28-4 40-11l93 92 15 15 12-13-26-25-81-82a63 63 0 0 0-44-99 62 62 0 0 0-67 75l6 16 14 18-44 68-5 7-46-32c4-10 4-21 3-32l78-29-6-16-3 1-75 27-4-5a60 60 0 0 0-59-27c-36 5-59 39-53 72 5 32 38 56 69 51l16-4 15-9 11-13 45 31-24 36-32-54-15 9 34 57c2 4 2 6 0 10l-32 48-6-1a62 62 0 0 0-81 68c4 25 19 42 44 49 24 7 46 0 64-19l5-5 7-15c3-15 5-29-2-43-4-9-11-16-16-24l30-46 12 21 68 115 15-11-82-137c-2-3-2-6 0-10l25-38 29 21-3 6-1 6c-5 24 1 44 19 61 9 8 20 12 32 15v71l-19 5-15 11-12 17-80-40-7 15 81 41v20a62 62 0 0 0 71 53c28-4 51-30 52-58 0-12-3-23-8-33l107-112v1a62 62 0 0 0 94-63ZM265 389v-71l15-5c18-8 29-21 36-40l1-8h72a62 62 0 0 0 9 24l3 6 1 1-104 108-1-1a85 85 0 0 0-32-14Z"/></svg>