<svg xmlns="http://www.w3.org/2000/svg" viewBox="0 0 512 512"><path d="m509 250-22-14-1-6 19-17a7 7 0 0 0-3-12l-24-9-1-6 15-21a7 7 0 0 0-5-11l-25-5-3-5 11-23a7 7 0 0 0-7-10h-26l-4-4 6-25a7 7 0 0 0-9-9l-25 6-4-4 1-25a7 7 0 0 0-11-7l-23 10-5-2-5-26a7 7 0 0 0-11-5l-21 15-6-1-9-24a7 7 0 0 0-12-3l-17 19-6-1-14-22a7 7 0 0 0-12 0l-14 22-6 1-17-19a7 7 0 0 0-12 3l-9 24-6 1-21-15a7 7 0 0 0-11 5l-5 25-5 3-23-10a7 7 0 0 0-10 7v25l-4 4-25-6a7 7 0 0 0-9 9l6 25-4 4H50a7 7 0 0 0-7 10l10 23-2 5-26 5a7 7 0 0 0-5 11l15 21-1 6-24 9a7 7 0 0 0-3 12l19 17-1 6-22 14a7 7 0 0 0 0 12l22 14 1 6-19 17a7 7 0 0 0 3 12l24 9 1 6-15 21a7 7 0 0 0 5 11l25 5 3 5-10 23a7 7 0 0 0 0 7 7 7 0 0 0 7 4l25-1 4 4-6 25a7 7 0 0 0 9 9l25-6 4 4v26a7 7 0 0 0 10 6l23-10 5 3 5 25a7 7 0 0 0 11 5l21-15 6 1 9 24a7 7 0 0 0 12 3l17-19 6 1 14 22a7 7 0 0 0 12 0l14-22 6-1 17 19a7 7 0 0 0 12-3l9-24 6-1 21 15a7 7 0 0 0 11-5l5-25 5-3 23 10a7 7 0 0 0 11-6l-1-26 4-4 25 6a7 7 0 0 0 9-9l-6-25 4-4 26 1a7 7 0 0 0 6-4 7 7 0 0 0 0-7l-10-23 3-5 25-5a7 7 0 0 0 5-11l-15-21 1-6 24-9a7 7 0 0 0 3-12l-19-17 1-6 22-14a7 7 0 0 0 0-12ZM358 379a14 14 0 0 0-17 11l-8 35a188 188 0 0 1-156-1l-8-35a14 14 0 0 0-16-11l-32 7a187 187 0 0 1-16-19h153c2 0 3-1 3-2v-54c0-2-1-2-3-2h-45l1-35h48c4 0 24 2 30 26 2 8 6 32 9 40 3 9 14 27 27 27h79a187 187 0 0 1-17 20Zm25 34a15 15 0 1 1-15-15 15 15 0 0 1 15 15Zm-225 0a15 15 0 1 1-16-16h1a15 15 0 0 1 15 16ZM70 234l32-14a14 14 0 0 0 7-19l-6-15h26v120H76a188 188 0 0 1-6-72Zm-12-36a15 15 0 0 1 16-15 15 15 0 1 1-16 15Zm155 25 1-36h63c3 0 23 4 23 19 0 12-15 17-28 17Zm186 84c-10 1-21-4-22-10-6-33-15-40-31-52 19-12 39-29 39-53 0-26-18-42-29-50a84 84 0 0 0-41-13H116a188 188 0 0 1 105-59l24 25a14 14 0 0 0 19 0l27-25a188 188 0 0 1 128 92l-18 40a14 14 0 0 0 7 18l35 16a187 187 0 0 1 0 32h-19c-2 0-3 2-3 3v9c0 21-12 26-22 27ZM240 60a15 15 0 0 1 15-15h1a15 15 0 1 1-16 15Zm197 154a15 15 0 1 1 0-30 15 15 0 1 1 0 30Z"/></svg>