<svg xmlns="http://www.w3.org/2000/svg" viewBox="0 0 512 512"><circle cx="256" cy="256" r="256" fill="#fff"/><path d="M256 32a223 223 0 1 1-87 18 222 222 0 0 1 87-18m0-32a256 256 0 1 0 0 512 256 256 0 0 0 0-512Z"/><path d="M277 248a23 23 0 0 0-6-9 23 23 0 0 0-17-5 22 22 0 0 0-21 22c1 12 10 22 23 22a23 23 0 0 0 22-16 18 18 0 0 0-1-14Z"/><path d="m390 254 1-1-25-24a447 447 0 0 0-70-49c69-22 123-24 82 34l27 22c55-72 0-122-82-100l-34 9a432 432 0 0 0-74 34c10-52 34-120 66-52l33-12c-29-70-92-67-117 0-18 46-24 95-21 147-58-51-91-102-15-94l5-34c-93-14-107 63-44 124h-1c29 29 59 54 95 74-69 22-123 24-82-34l-27-22c-54 70-2 121 79 101 39-10 75-23 111-44-10 53-35 120-67 51l-33 12c39 87 103 56 123-13 12-43 19-87 16-133 58 52 91 103 14 94l-5 35c91 13 110-61 45-125Zm-89 35a350 350 0 0 1-44 25 295 295 0 0 1-44-25c-3-19-4-45-3-66a382 382 0 0 1 44-25 293 293 0 0 1 45 25c2 21 4 45 2 66Z"/></svg>