<svg xmlns="http://www.w3.org/2000/svg" viewBox="0 0 512 200"><path fill="#00acd7" d="M39 61c-1 0-2-1-1-2l5-7a4 4 0 0 1 3-1h89l1 1-5 7a4 4 0 0 1-2 2ZM1 85l-1-2 5-7a4 4 0 0 1 3-1h114a1 1 0 0 1 1 1l-2 7a2 2 0 0 1-2 1Zm60 24v-2l3-7a3 3 0 0 1 3-1h49l2 2-1 6a2 2 0 0 1-1 2Zm259-53-42 11c-4 1-4 2-7-2-4-5-7-8-12-10-15-8-31-6-45 4a56 56 0 0 0-25 49c0 21 14 38 33 41 17 3 32-4 43-17l6-10h-48c-5 0-6-3-4-7l12-29a7 7 0 0 1 7-4h90l-1 21a114 114 0 0 1-21 51c-18 25-41 40-71 44a85 85 0 0 1-98-75c-4-28 4-54 21-76 17-24 41-40 70-45a83 83 0 0 1 95 49c1 3 0 4-3 5Z"/><path fill="#00acd7" d="M403 200c-23-1-44-7-61-23a83 83 0 0 1-27-50c-5-30 3-56 20-79 18-25 40-38 70-43 25-5 49-3 71 13 20 14 32 33 35 58 4 35-5 64-29 88-16 18-36 29-59 34l-20 2Zm59-105a78 78 0 0 0-1-9c-4-26-27-40-51-35-23 6-38 21-43 46a43 43 0 0 0 63 47c20-10 31-27 32-49Z"/></svg>