<svg xmlns="http://www.w3.org/2000/svg" viewBox="0 0 512 200"><path d="M135 51H46a4 4 0 0 0-3 1l-5 7c-1 1 0 2 1 2h90a4 4 0 0 0 2-2l5-7-1-1Zm-13 24H8a4 4 0 0 0-3 1l-5 7 1 2 118-1a2 2 0 0 0 2-1l2-7a1 1 0 0 0-1-1Zm-6 24H67a3 3 0 0 0-3 1l-3 7v2h55a2 2 0 0 0 1-2l1-6-2-2Zm395-23c-3-25-15-44-35-58a89 89 0 0 0-71-13c-30 5-52 18-70 43a113 113 0 0 0-17 34h-80a7 7 0 0 0-7 4l-12 29c-2 4-1 7 4 7h48l-6 10a45 45 0 0 1-43 17c-19-3-33-20-33-41-1-21 8-38 25-49 14-10 30-12 45-4 5 2 8 5 12 10 3 4 3 3 7 2l42-11c3-1 4-2 3-5a83 83 0 0 0-95-50c-29 6-53 22-70 46a99 99 0 0 0-21 76c2 24 13 44 31 58 20 16 43 21 67 17 30-4 53-19 71-44a111 111 0 0 0 11-18 82 82 0 0 0 25 41c17 16 38 22 61 23l20-2c23-5 43-16 59-34 24-24 33-53 29-88Zm-81 68a43 43 0 0 1-63-47c5-25 20-40 43-46 24-5 47 9 51 35a78 78 0 0 1 1 9c-1 22-12 39-32 49Z"/></svg>