<svg xmlns="http://www.w3.org/2000/svg" xmlns:xlink="http://www.w3.org/1999/xlink" viewBox="0 0 512 512"><defs><linearGradient id="b" x1="-326.9" x2="-331.3" y1="677.6" y2="685.2" gradientTransform="matrix(25 0 0 -25 8688 17562)" gradientUnits="userSpaceOnUse"><stop offset="0" stop-color="#fb7655"/><stop offset=".4" stop-color="#e42b1e"/><stop offset="1" stop-color="#900"/><stop offset="1" stop-color="#900"/></linearGradient><linearGradient id="a" x1="-324.8" x2="-330.4" y1="684" y2="687.7" gradientTransform="matrix(25 0 0 -25 8688 17562)" gradientUnits="userSpaceOnUse"><stop offset="0" stop-color="#871101"/><stop offset="1" stop-color="#911209"/><stop offset="1" stop-color="#911209"/></linearGradient><linearGradient xlink:href="#a" id="c" x1="-329.3" x2="-334.8" y1="677.4" y2="681.1"/><linearGradient id="d" x1="-341" x2="-340.1" y1="686.7" y2="681.1" gradientTransform="matrix(25 0 0 -25 8688 17562)" gradientUnits="userSpaceOnUse"><stop offset="0" stop-color="#fff"/><stop offset=".2" stop-color="#e57252"/><stop offset=".5" stop-color="#de3b20"/><stop offset="1" stop-color="#a60003"/><stop offset="1" stop-color="#a60003"/></linearGradient><linearGradient id="e" x1="-329.8" x2="-328.8" y1="697.3" y2="693.2" gradientTransform="matrix(25 0 0 -25 8688 17562)" gradientUnits="userSpaceOnUse"><stop offset="0" stop-color="#fff"/><stop offset=".2" stop-color="#e46342"/><stop offset=".4" stop-color="#c82410"/><stop offset="1" stop-color="#a80d00"/><stop offset="1" stop-color="#a80d00"/></linearGradient><linearGradient id="f" x1="-332.7" x2="-328.6" y1="698.7" y2="700.8" gradientTransform="matrix(25 0 0 -25 8688 17562)" gradientUnits="userSpaceOnUse"><stop offset="0" stop-color="#fff"/><stop offset=".5" stop-color="#c81f11"/><stop offset="1" stop-color="#bf0905"/><stop offset="1" stop-color="#bf0905"/></linearGradient><linearGradient id="g" x1="-344.6" x2="-344.2" y1="688.1" y2="684.8" gradientTransform="matrix(25 0 0 -25 8688 17562)" gradientUnits="userSpaceOnUse"><stop offset="0" stop-color="#fff"/><stop offset=".3" stop-color="#de4024"/><stop offset="1" stop-color="#bf190b"/><stop offset="1" stop-color="#bf190b"/></linearGradient><linearGradient id="h" x1="-334.8" x2="-334.4" y1="692" y2="686.2" gradientTransform="matrix(25 0 0 -25 8688 17562)" gradientUnits="userSpaceOnUse"><stop offset="0" stop-color="#fff"/><stop offset=".2" stop-color="#e4714e"/><stop offset=".6" stop-color="#be1a0d"/><stop offset="1" stop-color="#a80d00"/><stop offset="1" stop-color="#a80d00"/></linearGradient><linearGradient id="i" x1="-346.9" x2="-331" y1="683.9" y2="700.2" gradientTransform="matrix(25 0 0 -25 8688 17562)" gradientUnits="userSpaceOnUse"><stop offset="0" stop-color="#bd0012"/><stop offset=".1" stop-color="#fff"/><stop offset=".2" stop-color="#fff"/><stop offset=".3" stop-color="#c82f1c"/><stop offset=".3" stop-color="#820c01"/><stop offset=".5" stop-color="#a31601"/><stop offset=".7" stop-color="#b31301"/><stop offset="1" stop-color="#e82609"/><stop offset="1" stop-color="#e82609"/></linearGradient><linearGradient id="j" x1="-334.7" x2="-339.5" y1="682.2" y2="683.4" gradientTransform="matrix(25 0 0 -25 8688 17562)" gradientUnits="userSpaceOnUse"><stop offset="0" stop-color="#8c0c01"/><stop offset=".5" stop-color="#990c00"/><stop offset="1" stop-color="#a80d0e"/><stop offset="1" stop-color="#a80d0e"/></linearGradient><linearGradient id="k" x1="-326.5" x2="-330.8" y1="688" y2="691.8" gradientTransform="matrix(25 0 0 -25 8688 17562)" gradientUnits="userSpaceOnUse"><stop offset="0" stop-color="#7e110b"/><stop offset="1" stop-color="#9e0c00"/><stop offset="1" stop-color="#9e0c00"/></linearGradient><linearGradient id="l" x1="-324.9" x2="-327.1" y1="695" y2="697.2" gradientTransform="matrix(25 0 0 -25 8688 17562)" gradientUnits="userSpaceOnUse"><stop offset="0" stop-color="#79130d"/><stop offset="1" stop-color="#9e120b"/><stop offset="1" stop-color="#9e120b"/></linearGradient><linearGradient id="o" x1="-342.2" x2="-343.9" y1="679.5" y2="685.3" gradientTransform="matrix(25 0 0 -25 8688 17562)" gradientUnits="userSpaceOnUse"><stop offset="0" stop-color="#8b2114"/><stop offset=".4" stop-color="#9e100a"/><stop offset="1" stop-color="#b3100c"/><stop offset="1" stop-color="#b3100c"/></linearGradient><linearGradient id="p" x1="-329" x2="-325.1" y1="698.9" y2="697.2" gradientTransform="matrix(25 0 0 -25 8688 17562)" gradientUnits="userSpaceOnUse"><stop offset="0" stop-color="#b31000"/><stop offset=".4" stop-color="#910f08"/><stop offset="1" stop-color="#791c12"/><stop offset="1" stop-color="#791c12"/></linearGradient><radialGradient id="m" cx="-360.3" cy="705.1" r=".9" gradientTransform="matrix(152 0 0 -153 55378 108091)" gradientUnits="userSpaceOnUse"><stop offset="0" stop-color="#a80d00"/><stop offset="1" stop-color="#7e0e08"/><stop offset="1" stop-color="#7e0e08"/></radialGradient><radialGradient id="n" cx="-360.6" cy="705.2" r=".9" gradientTransform="matrix(203 0 0 -203 73349 143803)" gradientUnits="userSpaceOnUse"><stop offset="0" stop-color="#a30c00"/><stop offset="1" stop-color="#800e08"/><stop offset="1" stop-color="#800e08"/></radialGradient></defs><path fill="url(#b)" fill-rule="evenodd" d="M461 402 168 576l379-26 29-382Z" transform="translate(-64 -64)"/><path fill="url(#a)" fill-rule="evenodd" d="m547 550-32-225-89 117Z" transform="translate(-64 -64)"/><path fill="url(#c)" fill-rule="evenodd" d="m548 550-238-19-140 45Z" transform="translate(-64 -64)"/><path fill="url(#d)" fill-rule="evenodd" d="m170 576 59-196-131 28Z" transform="translate(-64 -64)"/><path fill="url(#e)" fill-rule="evenodd" d="M564 231 415 109l-41 134Z" transform="translate(-64 -64)"/><path fill="url(#f)" fill-rule="evenodd" d="m494 66-87 48-55-49Z" transform="translate(-64 -64)"/><path fill="url(#g)" fill-rule="evenodd" d="m64 474 37-67-30-80Z" transform="translate(-64 -64)"/><path fill="#fff" fill-rule="evenodd" d="m5 261 30 84 129-29 147-137 42-133-66-46-111 42-106 99c-2 1-45 81-65 120Z"/><path fill="url(#h)" d="m229 379 146-136 51 200Z" transform="translate(-64 -64)"/><path fill="url(#i)" fill-rule="evenodd" d="M173 173c76-76 174-120 212-82 87 83-209 373-289 291-37-38 1-133 77-209Z" transform="translate(-64 -64)"/><path fill="url(#j)" fill-rule="evenodd" d="m170 575 59-196 196 63a429 429 0 0 1-255 133Z" transform="translate(-64 -64)"/><path fill="url(#k)" fill-rule="evenodd" d="m376 243 50 200c59-63 112-130 138-213Z" transform="translate(-64 -64)"/><path fill="url(#l)" fill-rule="evenodd" d="M564 231c20-61 25-149-70-165l-78 43Z" transform="translate(-64 -64)"/><path fill="#9e1209" fill-rule="evenodd" d="M0 409c3 100 75 102 106 103L35 345Z"/><path fill="url(#m)" fill-rule="evenodd" d="m376 243 139 85c3 2 40-62 48-98Z" transform="translate(-64 -64)"/><path fill="url(#n)" fill-rule="evenodd" d="m229 379 79 153c47-25 83-56 117-89Z" transform="translate(-64 -64)"/><path fill="url(#o)" fill-rule="evenodd" d="M99 409 87 543c21 29 50 31 81 29-22-55-66-165-69-163Z" transform="translate(-64 -64)"/><path fill="url(#p)" fill-rule="evenodd" d="m415 110 157 22c-8-36-34-59-78-66Z" transform="translate(-64 -64)"/></svg>