<svg xmlns="http://www.w3.org/2000/svg" viewBox="0 0 512 512"><path d="m1 404 27-47 3 1-9 123c19 25 52 37 76 27-23-69-58-136-81-207C83 431 391 136 328 33c57 41 109 87 162 131-53 12-110 8-165 13-11 1-19 5-27 12-44 44-94 84-135 130l1 1c64 20 128 40 191 62 11 4 20 13 30 21 31 28 62 53 91 84-80-4-154-12-233-18-28-49-50-101-79-149l-1-1c-21 63-41 128-56 193 14 3 361-19 376-24l29-378c0-14 1-29-7-42L357 45c23-16 47-26 68-42L295 0l-6 3 12 11C185-3 0 180 17 296L5 275c-4 19-7 119-4 129Zm477 35h-1l-25-169-87 106c-7-9-48-166-50-191l135 83c22-28 34-59 48-90l-20 261Z"/></svg>