<svg xmlns="http://www.w3.org/2000/svg" viewBox="0 0 512 512"><path d="M0 0h512v512H0z"/><path fill="#fff" d="M88 198h59q26 0 38 15t8 40a77 77 0 0 1-7 23 68 68 0 0 1-14 21q-12 11-24 14a110 110 0 0 1-26 3H95l-8 42H56l32-158m26 25-14 66a16 16 0 0 0 3 0h3q21 1 35-4 15-4 19-32 4-23-7-27-12-3-30-3h-10 1m114-67h30l-8 42h27q23 1 34 9 11 9 6 34l-15 73h-31l15-70q2-11-2-16t-15-4h-25l-18 90h-30l32-158m122 42h59q27 0 38 15t8 40a77 77 0 0 1-7 23 68 68 0 0 1-14 21q-11 11-24 14a110 110 0 0 1-26 3h-26l-9 42h-31l32-158m26 25-13 66a16 16 0 0 0 2 0h3q22 1 36-4 14-4 19-32 4-23-8-27-12-3-30-3h-9"/></svg>