<svg xmlns="http://www.w3.org/2000/svg" viewBox="0 0 512 512"><path fill="#603499" d="M427 130h-52a82 82 0 0 0-12 1V85a82 82 0 0 0-81-82h-52a82 82 0 0 0-81 82v172a83 83 0 0 0-13-1H86a82 82 0 0 0-82 82v88a82 82 0 0 0 82 82l50 1a82 82 0 0 0 47-15 81 81 0 0 0 47 15h52a81 81 0 0 0 47-15 81 81 0 0 0 46 15h52a82 82 0 0 0 82-82V212a82 82 0 0 0-82-82Z"/><path fill="#f7931e" d="M429 128h-52a84 84 0 0 0-12 1v300a83 83 0 0 1-35 68 83 83 0 0 0 47 15h52a83 83 0 0 0 83-83V211a83 83 0 0 0-83-83Z"/><path fill="#f22085" d="M147 429V257a84 84 0 0 0-12-1H83a83 83 0 0 0-83 83v90a83 83 0 0 0 83 83h52a83 83 0 0 0 47-15 83 83 0 0 1-35-68Z"/><path fill="#2aabd8" d="M294 429V211a83 83 0 0 1 71-82V83a83 83 0 0 0-83-83h-52a83 83 0 0 0-83 83v174a83 83 0 0 1 71 82v90a83 83 0 0 1-36 68 82 82 0 0 0 48 15h52a82 82 0 0 0 48-15 83 83 0 0 1-36-68Z"/><path fill="#007f3f" d="M365 429V129a83 83 0 0 0-71 82v218a83 83 0 0 0 36 68 83 83 0 0 0 35-68Z"/><path fill="#603499" d="M218 429v-90a83 83 0 0 0-71-82v172a83 83 0 0 0 35 68 83 83 0 0 0 36-68Z"/></svg>