<svg xmlns="http://www.w3.org/2000/svg" viewBox="0 0 512 512"><path d="M512 142v-16a224 224 0 0 0-3-33 113 113 0 0 0-11-32 108 108 0 0 0-47-47 113 113 0 0 0-32-11 224 224 0 0 0-33-3H126l-8 1a195 195 0 0 0-25 2 117 117 0 0 0-25 7l-7 4a107 107 0 0 0-21 14l-6 6a107 107 0 0 0-20 27A113 113 0 0 0 3 93a225 225 0 0 0-3 33v260a224 224 0 0 0 3 33 113 113 0 0 0 11 32 108 108 0 0 0 47 47 113 113 0 0 0 32 11 224 224 0 0 0 33 3h260a224 224 0 0 0 33-3 113 113 0 0 0 32-11 108 108 0 0 0 47-47 113 113 0 0 0 11-32 224 224 0 0 0 3-33V142Z"/><path fill="#fff" d="m406 316 1-6c22-84-30-185-118-237 38 52 55 115 40 170a143 143 0 0 1-4 14l-8-4s-87-54-182-149c-3-3 50 75 110 139-28-16-107-73-157-119a227 227 0 0 0 22 29c41 53 96 119 161 169-46 28-110 30-175 0a264 264 0 0 1-45-27 268 268 0 0 0 121 103c61 26 121 25 166 1l1-1 6-3c21-11 64-22 87 22 6 11 18-47-26-101Z"/></svg>