<svg xmlns="http://www.w3.org/2000/svg" viewBox="0 0 512 460"><path fill="#0aa394" d="M512 226c0-41-41-71-99-90 13-63 3-109-28-128-10-6-28-12-52-5-23 6-49 23-75 47-50-46-97-61-130-42-36 22-42 75-28 136C36 164 0 196 0 234c0 41 41 71 99 90-13 64-3 109 28 128a60 60 0 0 0 32 8 80 80 0 0 0 20-3c23-6 49-23 75-47 35 33 69 50 98 50a61 61 0 0 0 32-8c36-22 42-75 28-136 64-21 100-53 100-90ZM345 47c7-2 12-1 16 1 10 6 16 32 7 77a577 577 0 0 0-108-10c33-39 64-62 85-68Zm-193 1c11-7 40 4 74 35-21 26-42 57-61 91l-5 10c-27-73-25-126-8-136ZM47 234c0-13 22-32 65-45a592 592 0 0 0 46 101l1 1c-70-13-112-38-112-57Zm120 179c-7 2-12 1-16-1-10-6-16-32-7-77a578 578 0 0 0 108 10c-33 39-64 62-85 68Zm86-114-34-1a361 361 0 0 1-35-58v-1a560 560 0 0 1 42-77 448 448 0 0 1 67 0l1 1 20 30 14 27v1a628 628 0 0 1-42 77l-33 1Zm107 113c-11 7-40-4-74-36 21-25 42-56 61-90l5-10c27 73 26 126 8 136Zm40-141a592 592 0 0 0-46-101l-1-1c70 13 112 38 112 57 0 13-22 31-65 45Z"/><path fill="#0aa394" d="M275 209a29 29 0 0 0-22-8 29 29 0 0 0-26 29c0 15 12 28 29 29a29 29 0 0 0 28-22 23 23 0 0 0 1-7 23 23 0 0 0-2-10 29 29 0 0 0-8-11Z"/></svg>