<svg xmlns="http://www.w3.org/2000/svg" viewBox="0 0 512 512"><path fill="#062b4c" d="m508 348-59-126 12-138-44-4-7-44-44 8-18-40-126 59L84 51l-4 44-44 7 8 44-40 18 59 126-12 138 44 4 7 44 44-8 18 40 126-59 138 12 4-44 44-7-8-44 40-18z"/><path fill="#01adff" d="M368 41 349 0 221 60l27 2 120-21zM144 471l19 41 128-60-27-2-120 21zM41 144 0 163l60 128 2-27-21-120zm411 77-2 27 21 120 41-19-60-128z"/><path fill="#ff38b9" d="m92 435 8 44 44-8-16-33-36-3zM420 77l-8-44-44 8 16 33 36 3zM77 92l-44 8 8 44 33-16 3-36zm358 328 44-8-8-44-33 16-3 36z"/><path fill="#0127ba" d="m384 74-16-33-120 21 136 12zM74 128l-33 16 21 120 12-136zm54 310 16 33 120-21-136-12zm310-54 33-16-21-120-12 136z"/><path fill="#ffde17" d="M60 291 47 431l45 4-21-121-11-23zm392-70 13-140-45-4 21 121 11 23zM291 452l140 13 4-45-121 21-23 11zM221 60 81 47l-4 45 121-21 23-11z"/><path fill="#006837" d="m62 264-2 27 11 23-9-50zm202 186 27 2 23-11-50 9zm186-202 2-27-11-23 9 50zM248 62l-27-2-23 11 50-9z"/><path fill="#ff3111" d="M198 71 77 92l-3 36 124-57zM71 314l21 121 36 3-57-124zm243 127 121-21 3-36-124 57zm127-243L420 77l-36-3 57 124z"/><path fill="#062b4c" d="M384 74 248 62l-50 9-124 57-12 136 9 50 57 124 136 12 50-9 124-57 12-136-9-50-57-124z"/><path fill="#fff" d="M237 203h38v-36H161v36h76zm76-35h38v35h-38zm-38 70H161v36h190v-36h-76zm-114 71v36h76v-36h-76z"/></svg>