<svg xmlns="http://www.w3.org/2000/svg" viewBox="0 0 460 512"><path d="M299 273a725 725 0 0 1 9 79 77 77 0 0 1-14 47c-2 7-9 0-14 0-12 0-16-13-22-21s-2-15 2-21c5-3 6-10 13-10s6-9 5-14c4-7 1-17 6-24 7-3 5-15 8-22 2-4 0-13 6-15l1 1M291 2c-10-1-17 6-26 10a194 194 0 0 1-21 5c-5 11-17 17-24 27a105 105 0 0 1-36 50c-23 12-35 38-43 63-3 5-2 14-5 18-9 3-4-9-6-15-1-8 7-14 7-22a34 34 0 0 0 4-20c-1-15 4-33-7-46-7-3-4-11-7-17a77 77 0 0 0-24-21c-7-1-14-11-22-6-5 6-14 5-17 13-2 10-13 7-20 9-9 4-20 0-28 7S-3 75 1 87c8 16 30 8 42 18a334 334 0 0 1-13 32 188 188 0 0 0-1 43c2 14-2 33 11 43 7 2 6 10 9 16s8-2 10 4c6 3 0 10 4 14a30 30 0 0 1 15 8 126 126 0 0 1 18 16c4 8 10-9 14-2a11 11 0 0 0 14 5 11 11 0 0 0 1 0 55 55 0 0 0 24-10c5 16 1 33 3 50a217 217 0 0 1 6 37 175 175 0 0 1 5 37 132 132 0 0 1-13 77 19 19 0 0 1-15 15c-5 2-16 6-12 14 12 11 32 9 46 4 9-5 1-16 6-23 6-24 3-49 11-73a70 70 0 0 0 6-39c2-8-2-18 3-25a34 34 0 0 1 9-22 275 275 0 0 0 3-37 59 59 0 0 1 23-2c0 7-5 15-4 22a36 36 0 0 1-4 26c-4 13-6 30 3 42 14 15 33 26 46 43a10 10 0 0 1 2 13 10 10 0 0 1-1 1 28 28 0 0 1-18 19c-6 2-15 11-8 17a71 71 0 0 0 40-3c8-3 5-14 9-20a208 208 0 0 1 13 20c5 8 14 1 21-2a66 66 0 0 0-7-34c-3-6-15-7-14-15 6-21 20-38 31-55 10-9 3-22 3-34a125 125 0 0 1 20-81 294 294 0 0 0 13 39 115 115 0 0 0 20 42c4 15 3 31 6 47a194 194 0 0 1-5 80c1 10-8 17-7 26 2 9 13 2 18 5a20 20 0 0 0 24-10 117 117 0 0 1-4-22 138 138 0 0 1-5-69c1-13 8-28-1-38-3-12 2-24-1-36a239 239 0 0 1-2-91c1-4 0-12 4-14a34 34 0 0 1 6 23 69 69 0 0 1 1 38c-7 10-3 23-2 34 2 8 10 2 11-2a219 219 0 0 0 17-42c5-6 0-14 0-21 8-1 5-9 1-13-4-13-3-29-12-40a194 194 0 0 1-36-51c-10-30-37-50-47-80a66 66 0 0 0-30-43 143 143 0 0 0-21-8 118 118 0 0 1-19 2"/></svg>