<svg xmlns="http://www.w3.org/2000/svg" viewBox="0 0 512 460"><path fill="#087ea4" d="M256 276c25 0 46-21 46-46s-21-46-46-46-46 21-46 46 21 46 46 46Z"/><path fill="#087ea4" d="M512 230c0-36-39-67-108-86 18-70 11-120-20-138-30-17-78 2-128 51-50-49-98-68-128-51-31 18-38 68-20 138C39 163 0 194 0 230s39 67 108 86c-18 70-11 119 20 137a50 50 0 0 0 26 7c28 0 64-21 102-58 38 37 74 58 102 58a50 50 0 0 0 26-7c31-18 38-67 20-137 69-19 108-50 108-86ZM373 25c22 12 25 55 11 113a527 527 0 0 0-69-11 534 534 0 0 0-44-54c42-41 81-60 102-48ZM151 255l15 27 16 27-47-8c4-16 10-31 16-46Zm0-50c-6-15-12-30-16-46l47-8-16 26-15 28Zm11 25a615 615 0 0 1 47-82 613 613 0 0 1 94 0 617 617 0 0 1 47 82 626 626 0 0 1-47 82 613 613 0 0 1-94 0 629 629 0 0 1-47-82Zm199 25c6 15 12 30 16 45-15 4-31 7-47 9q17-26 31-54Zm0-50q-14-28-31-54l47 8c-4 16-10 31-16 46Zm-74-79h-62l31-37 31 37ZM139 25a30 30 0 0 1 15-4c22 0 54 19 87 52a534 534 0 0 0-44 54 531 531 0 0 0-69 11c-14-58-11-101 11-113Zm-26 271c-57-17-92-41-92-66s35-50 92-66a537 537 0 0 0 26 66 541 541 0 0 0-26 66Zm26 139c-22-13-25-56-11-113a528 528 0 0 0 69 10 538 538 0 0 0 44 55c-42 41-81 60-102 48Zm117-64-31-37 31 1 31-1-31 37Zm117 64a29 29 0 0 1-15 3c-22 0-54-18-87-51a531 531 0 0 0 44-55 529 529 0 0 0 69-10c14 57 11 100-11 113Zm26-139a536 536 0 0 0-26-66 537 537 0 0 0 26-66c57 16 92 41 92 66s-35 49-92 66Z"/></svg>