<svg xmlns="http://www.w3.org/2000/svg" viewBox="0 0 512 512"><path d="M0 0h512v512H0z"/><path fill="#fff" fill-rule="evenodd" d="M317 407v50a106 106 0 0 0 29 10 190 190 0 0 0 35 3 164 164 0 0 0 34-3 84 84 0 0 0 29-12 58 58 0 0 0 19-20q7-13 7-32 0-14-4-24a56 56 0 0 0-12-18 86 86 0 0 0-18-14 197 197 0 0 0-24-12l-18-8a90 90 0 0 1-13-8 34 34 0 0 1-9-8 18 18 0 0 1-3-11 17 17 0 0 1 3-9 23 23 0 0 1 7-7 40 40 0 0 1 12-5 69 69 0 0 1 16-1 99 99 0 0 1 13 1 105 105 0 0 1 14 3 98 98 0 0 1 14 4 75 75 0 0 1 12 7v-46a122 122 0 0 0-25-7 203 203 0 0 0-31-2 144 144 0 0 0-34 4 86 86 0 0 0-28 12 60 60 0 0 0-19 21q-7 12-7 30 0 22 13 38t39 27l19 8a107 107 0 0 1 16 8 40 40 0 0 1 10 10 19 19 0 0 1 4 12 18 18 0 0 1-3 9 21 21 0 0 1-7 7 39 39 0 0 1-12 5 71 71 0 0 1-16 1 95 95 0 0 1-32-5 96 96 0 0 1-30-18Zm-84-123h64v-41H118v41h64v183h51Z"/></svg>