<svg xmlns="http://www.w3.org/2000/svg" viewBox="0 0 512 512"><path d="M280 0h-32l-3 1c-8 3-14 10-14 18v45c0 13 9 23 20 28v3c0 8-5 14-13 14H41c-21 0-37 12-41 32a5 5 0 0 1 0 1v42l2 5c5 17 21 29 40 28 2 0 4-1 4-4v-17c0-4-1-4-5-5-3 0-6 0-9-2-4-2-6-13-6-17v-24a14 14 0 0 1 14-14h198c19 0 35-12 39-31a58 58 0 0 0 1-11c10-5 17-14 18-26a54 54 0 0 0 1-6V24c0-14-4-19-17-24Zm229 200c-3-4-8-5-13-5h-12c-4 0-4 1-5 4v18c0 3 2 4 5 4h15a13 13 0 0 0 10-21Zm-341-27 71 69h116l-71-69H168z"/><path d="M75 173a12 12 0 0 0-12 12v45a12 12 0 0 0 12 12h137l-71-69Zm375 0H312l71 69h67a12 12 0 0 0 12-12v-45a12 12 0 0 0-12-12ZM298 483v1h1l-1-1ZM140 335v-4a13 13 0 0 1 13-13h35v-47H93v200a17 17 0 0 1 3-1l1-1c17 2 15 16 19 27 3 4 8 9 13 5 11-8 0-27 16-31l1-1c15 3 15 27 16 38 6 10 17 2 14-6-3-12 0-27 12-30V348h-35a13 13 0 0 1-13-13Z"/><path d="M214 471c3-1 7-2 8 1a33 33 0 0 0 1 4c2 3 7 3 10 3 3-1 5-1 6 2a54 54 0 0 1 3 12c0 4-1 11 1 14 6 10 18 2 15-6-2-7-1-17 4-23a18 18 0 0 1 9-7c5-1 14-3 15 3 1 2-1 3-2 5l-3 5a6 6 0 0 0 2 7c6 4 13 0 15-4 2-3 1-7 3-10s6-1 9-2h1V348h-97Zm84 12 1 1h-1Zm-84-212h97v46h-97zm218 152V271h-95v47h32a13 13 0 0 1 14 13v4a13 13 0 0 1-14 13h-32v125c6 5 6 15 9 23 2 4 8 9 13 5 11-8-1-27 15-31l2-1c14 3 14 27 15 38 6 10 16 2 14-6-3-15 2-35 24-30a13 13 0 0 1 3 3v-51Z"/></svg>