<svg xmlns="http://www.w3.org/2000/svg" viewBox="0 0 350 512"><path fill="#380d09" fill-rule="evenodd" d="M1 191c4 6 45 17 106 29 61 11 124 54 173 41 34-9 70-88 70-100v-1c0-9-7-15-18-21-47-22-55-30-73-25-89 22-247 11-258 77Zm0 160c4 7 45 18 106 30 68 12 127 49 176 36 34-9 67-84 67-96v-1c0-8-7-14-18-20-36-17-82-36-100-32-89 23-209 28-231 83Z"/><path fill="#555" fill-rule="evenodd" d="M0 225v1a8 8 0 0 1 0-1Z"/><path fill="#de3423" fill-rule="evenodd" d="M283 31C201 53 70 65 0 65v124a2 2 0 0 0 1 2c48 0 196-15 285-38a358 358 0 0 0 46-14c11-4 18-9 18-14V0c0 12-33 22-67 31Zm0 161A1165 1165 0 0 1 0 226v124a2 2 0 0 0 1 1c48 0 196-14 285-37a362 362 0 0 0 46-14c11-4 18-9 18-14V161c0 12-33 22-67 31Zm0 161A1168 1168 0 0 1 0 387v125c48 0 196-14 286-37 33-9 64-18 64-28V321c0 12-33 23-67 32Z"/></svg>