<svg xmlns="http://www.w3.org/2000/svg" viewBox="0 0 475 512"><path fill="#fff" d="m204 184 259 69-66 244-259-69z"/><path d="m327 323 11-62-27-7-22 60-52-29-16 24 48 37-46 45 17 22 53-38 26 59 26-10-16-62 60-9-2-28-60-2z"/><path d="m435 221-100-26-42-156c-7-28-37-45-65-37L40 52a53 53 0 0 0-38 65l50 186c8 28 37 45 66 38l30-9-17 63a53 53 0 0 0 38 65l188 50a54 54 0 0 0 66-37l50-187a53 53 0 0 0-38-65Zm-306 33 17-62-60-8 2-29h60l-12-63 28-7 21 59 53-29 16 24-48 36c-13 9-17 13-24 30l-26 60Zm312 24-50 186a21 21 0 0 1-20 15 21 21 0 0 1-5-1l-188-50a20 20 0 0 1-13-9 20 20 0 0 1-2-15l51-186a21 21 0 0 1 20-15 21 21 0 0 1 5 0l188 50a20 20 0 0 1 12 10 20 20 0 0 1 2 15Z"/><path fill="#fff" d="m156 265 26-60c7-17 11-21 24-30l48-36-16-24-53 29-21-59-28 7 12 63H88l-2 29 60 8-17 62Z"/></svg>